<svg xmlns="http://www.w3.org/2000/svg" xmlns:xlink="http://www.w3.org/1999/xlink" width="1080" zoomAndPan="magnify" viewBox="0 0 810 809.999993" height="1080" preserveAspectRatio="xMidYMid meet" version="1.0"><defs><g/><clipPath id="0cc9dc1318"><path d="M 0.878906 0.441406 L 579.28125 0.441406 L 579.28125 803 L 0.878906 803 Z M 0.878906 0.441406 " clip-rule="nonzero"/></clipPath><clipPath id="dd12eabef9"><path d="M 16.664062 26.796875 L 462.886719 26.796875 L 462.886719 561 L 16.664062 561 Z M 16.664062 26.796875 " clip-rule="nonzero"/></clipPath><clipPath id="08efa65d1d"><path d="M 54.914062 26.796875 L 424.636719 26.796875 C 445.761719 26.796875 462.886719 43.921875 462.886719 65.046875 L 462.886719 522.515625 C 462.886719 543.640625 445.761719 560.765625 424.636719 560.765625 L 54.914062 560.765625 C 33.789062 560.765625 16.664062 543.640625 16.664062 522.515625 L 16.664062 65.046875 C 16.664062 43.921875 33.789062 26.796875 54.914062 26.796875 Z M 54.914062 26.796875 " clip-rule="nonzero"/></clipPath><clipPath id="a9b9581da1"><path d="M 0.664062 0.796875 L 446.886719 0.796875 L 446.886719 534.839844 L 0.664062 534.839844 Z M 0.664062 0.796875 " clip-rule="nonzero"/></clipPath><clipPath id="ac7147e9cb"><path d="M 38.914062 0.796875 L 408.636719 0.796875 C 429.761719 0.796875 446.886719 17.921875 446.886719 39.046875 L 446.886719 496.515625 C 446.886719 517.640625 429.761719 534.765625 408.636719 534.765625 L 38.914062 534.765625 C 17.789062 534.765625 0.664062 517.640625 0.664062 496.515625 L 0.664062 39.046875 C 0.664062 17.921875 17.789062 0.796875 38.914062 0.796875 Z M 38.914062 0.796875 " clip-rule="nonzero"/></clipPath><clipPath id="fa4caffbc1"><rect x="0" width="447" y="0" height="535"/></clipPath><clipPath id="85d24181ae"><path d="M 102.269531 236.53125 L 548.496094 236.53125 L 548.496094 771 L 102.269531 771 Z M 102.269531 236.53125 " clip-rule="nonzero"/></clipPath><clipPath id="92a2b8a8b9"><path d="M 140.519531 236.53125 L 510.246094 236.53125 C 531.371094 236.53125 548.496094 253.65625 548.496094 274.78125 L 548.496094 732.253906 C 548.496094 753.378906 531.371094 770.503906 510.246094 770.503906 L 140.519531 770.503906 C 119.394531 770.503906 102.269531 753.378906 102.269531 732.253906 L 102.269531 274.78125 C 102.269531 253.65625 119.394531 236.53125 140.519531 236.53125 Z M 140.519531 236.53125 " clip-rule="nonzero"/></clipPath><clipPath id="39a93655fc"><path d="M 0.269531 0.53125 L 446.496094 0.53125 L 446.496094 534 L 0.269531 534 Z M 0.269531 0.53125 " clip-rule="nonzero"/></clipPath><clipPath id="06f82b14c9"><path d="M 38.519531 0.53125 L 408.246094 0.53125 C 429.371094 0.53125 446.496094 17.65625 446.496094 38.78125 L 446.496094 496.253906 C 446.496094 517.378906 429.371094 534.503906 408.246094 534.503906 L 38.519531 534.503906 C 17.394531 534.503906 0.269531 517.378906 0.269531 496.253906 L 0.269531 38.78125 C 0.269531 17.65625 17.394531 0.53125 38.519531 0.53125 Z M 38.519531 0.53125 " clip-rule="nonzero"/></clipPath><clipPath id="2d2dcdcf98"><rect x="0" width="447" y="0" height="535"/></clipPath><clipPath id="2536b0fb56"><rect x="0" width="580" y="0" height="803"/></clipPath></defs><g transform="matrix(1, 0, 0, 1, 116, 1)"><g clip-path="url(#2536b0fb56)"><path fill="#f5f5f2" d="M 572.5 751.3125 C 572.5 775.953125 552.601562 796.171875 527.644531 796.171875 L 53.179688 796.171875 C 28.542969 796.171875 8.324219 776.269531 8.324219 751.3125 L 8.324219 52.886719 C 8.324219 28.246094 28.226562 8.03125 53.179688 8.03125 L 527.644531 8.03125 C 552.285156 8.03125 572.5 27.929688 572.5 52.886719 Z M 572.5 751.3125 " fill-opacity="1" fill-rule="nonzero"/><g clip-path="url(#0cc9dc1318)"><path stroke-linecap="butt" transform="matrix(3.158881, 0, 0, 3.158881, -5.257815, 0.448093)" fill="none" stroke-linejoin="miter" d="M 182.899523 237.699497 C 182.899523 245.499926 176.600319 251.900531 168.699726 251.900531 L 18.499432 251.900531 C 10.70024 251.900531 4.299634 245.60009 4.299634 237.699497 L 4.299634 16.600381 C 4.299634 8.799952 10.600076 2.400583 18.499432 2.400583 L 168.699726 2.400583 C 176.500155 2.400583 182.899523 8.699788 182.899523 16.600381 Z M 182.899523 237.699497 " stroke="#000000" stroke-width="1" stroke-opacity="1" stroke-miterlimit="4"/></g><path fill="#f5f5f2" d="M 484.367188 404.152344 C 484.367188 407.109375 484.296875 410.066406 484.152344 413.019531 C 484.007812 415.972656 483.789062 418.921875 483.5 421.863281 C 483.207031 424.804688 482.847656 427.742188 482.414062 430.664062 C 481.980469 433.589844 481.472656 436.503906 480.898438 439.402344 C 480.320312 442.304688 479.671875 445.1875 478.953125 448.058594 C 478.234375 450.925781 477.445312 453.773438 476.589844 456.605469 C 475.730469 459.433594 474.800781 462.242188 473.804688 465.023438 C 472.808594 467.808594 471.746094 470.566406 470.613281 473.300781 C 469.484375 476.03125 468.285156 478.734375 467.019531 481.40625 C 465.757812 484.082031 464.425781 486.722656 463.035156 489.328125 C 461.640625 491.9375 460.183594 494.507812 458.660156 497.046875 C 457.140625 499.582031 455.558594 502.078125 453.917969 504.539062 C 452.273438 506.996094 450.570312 509.414062 448.8125 511.789062 C 447.050781 514.164062 445.230469 516.496094 443.355469 518.78125 C 441.476562 521.066406 439.546875 523.304688 437.5625 525.496094 C 435.574219 527.6875 433.539062 529.828125 431.445312 531.917969 C 429.355469 534.007812 427.214844 536.046875 425.023438 538.035156 C 422.832031 540.019531 420.59375 541.949219 418.308594 543.828125 C 416.023438 545.703125 413.691406 547.519531 411.316406 549.28125 C 408.941406 551.042969 406.523438 552.746094 404.066406 554.390625 C 401.605469 556.03125 399.109375 557.613281 396.574219 559.132812 C 394.035156 560.65625 391.464844 562.113281 388.855469 563.503906 C 386.25 564.898438 383.609375 566.230469 380.933594 567.492188 C 378.261719 568.757812 375.558594 569.957031 372.828125 571.085938 C 370.09375 572.21875 367.335938 573.28125 364.550781 574.277344 C 361.769531 575.273438 358.960938 576.203125 356.132812 577.0625 C 353.300781 577.917969 350.453125 578.707031 347.585938 579.425781 C 344.714844 580.144531 341.832031 580.792969 338.929688 581.371094 C 336.03125 581.945312 333.117188 582.453125 330.191406 582.886719 C 327.269531 583.320312 324.335938 583.679688 321.390625 583.972656 C 318.449219 584.261719 315.5 584.476562 312.546875 584.625 C 309.59375 584.769531 306.636719 584.839844 303.679688 584.839844 C 300.722656 584.839844 297.769531 584.769531 294.816406 584.625 C 291.859375 584.476562 288.914062 584.261719 285.96875 583.972656 C 283.027344 583.679688 280.09375 583.320312 277.167969 582.886719 C 274.242188 582.453125 271.332031 581.945312 268.429688 581.367188 C 265.53125 580.792969 262.644531 580.144531 259.777344 579.425781 C 256.910156 578.707031 254.058594 577.917969 251.230469 577.0625 C 248.398438 576.203125 245.59375 575.273438 242.808594 574.277344 C 240.023438 573.28125 237.265625 572.21875 234.535156 571.085938 C 231.800781 569.957031 229.101562 568.757812 226.425781 567.492188 C 223.753906 566.230469 221.113281 564.898438 218.503906 563.503906 C 215.898438 562.113281 213.324219 560.65625 210.789062 559.132812 C 208.253906 557.613281 205.753906 556.03125 203.296875 554.390625 C 200.835938 552.746094 198.421875 551.042969 196.046875 549.28125 C 193.667969 547.519531 191.339844 545.703125 189.054688 543.828125 C 186.769531 541.949219 184.527344 540.019531 182.339844 538.035156 C 180.148438 536.046875 178.007812 534.007812 175.914062 531.917969 C 173.824219 529.828125 171.785156 527.6875 169.800781 525.496094 C 167.8125 523.304688 165.882812 521.066406 164.007812 518.78125 C 162.132812 516.496094 160.3125 514.164062 158.550781 511.789062 C 156.789062 509.414062 155.085938 506.996094 153.445312 504.539062 C 151.800781 502.078125 150.21875 499.582031 148.699219 497.046875 C 147.179688 494.507812 145.722656 491.9375 144.328125 489.328125 C 142.933594 486.722656 141.605469 484.082031 140.339844 481.40625 C 139.078125 478.734375 137.878906 476.03125 136.746094 473.300781 C 135.613281 470.566406 134.550781 467.808594 133.554688 465.023438 C 132.558594 462.242188 131.632812 459.433594 130.773438 456.605469 C 129.914062 453.773438 129.125 450.925781 128.40625 448.058594 C 127.6875 445.1875 127.042969 442.304688 126.464844 439.402344 C 125.886719 436.503906 125.382812 433.589844 124.949219 430.664062 C 124.515625 427.742188 124.152344 424.804688 123.863281 421.863281 C 123.574219 418.921875 123.355469 415.972656 123.210938 413.019531 C 123.066406 410.066406 122.992188 407.109375 122.992188 404.152344 C 122.992188 401.195312 123.066406 398.242188 123.210938 395.289062 C 123.355469 392.332031 123.574219 389.386719 123.863281 386.441406 C 124.152344 383.5 124.515625 380.566406 124.949219 377.640625 C 125.382812 374.714844 125.886719 371.804688 126.464844 368.902344 C 127.042969 366.003906 127.6875 363.117188 128.40625 360.25 C 129.125 357.382812 129.914062 354.53125 130.773438 351.703125 C 131.632812 348.871094 132.558594 346.066406 133.554688 343.28125 C 134.550781 340.496094 135.613281 337.738281 136.746094 335.007812 C 137.878906 332.273438 139.078125 329.570312 140.339844 326.898438 C 141.605469 324.226562 142.933594 321.585938 144.328125 318.976562 C 145.722656 316.371094 147.179688 313.796875 148.699219 311.261719 C 150.21875 308.722656 151.800781 306.226562 153.445312 303.769531 C 155.085938 301.308594 156.789062 298.890625 158.550781 296.515625 C 160.3125 294.140625 162.132812 291.8125 164.007812 289.527344 C 165.882812 287.238281 167.8125 285 169.800781 282.808594 C 171.785156 280.621094 173.824219 278.476562 175.914062 276.386719 C 178.007812 274.296875 180.148438 272.257812 182.339844 270.273438 C 184.527344 268.285156 186.769531 266.355469 189.054688 264.480469 C 191.339844 262.601562 193.667969 260.785156 196.046875 259.023438 C 198.421875 257.261719 200.835938 255.558594 203.296875 253.917969 C 205.753906 252.273438 208.253906 250.691406 210.789062 249.171875 C 213.324219 247.652344 215.898438 246.195312 218.503906 244.800781 C 221.113281 243.40625 223.753906 242.078125 226.425781 240.8125 C 229.101562 239.546875 231.800781 238.351562 234.535156 237.21875 C 237.265625 236.085938 240.023438 235.023438 242.808594 234.027344 C 245.59375 233.03125 248.398438 232.105469 251.230469 231.246094 C 254.058594 230.386719 256.910156 229.597656 259.777344 228.878906 C 262.644531 228.160156 265.53125 227.515625 268.429688 226.9375 C 271.332031 226.359375 274.242188 225.855469 277.167969 225.421875 C 280.09375 224.988281 283.027344 224.625 285.96875 224.335938 C 288.914062 224.046875 291.859375 223.828125 294.816406 223.683594 C 297.769531 223.539062 300.722656 223.464844 303.679688 223.464844 C 306.636719 223.464844 309.59375 223.539062 312.546875 223.683594 C 315.5 223.828125 318.449219 224.046875 321.390625 224.335938 C 324.335938 224.625 327.269531 224.988281 330.191406 225.421875 C 333.117188 225.855469 336.03125 226.359375 338.929688 226.9375 C 341.832031 227.515625 344.714844 228.160156 347.585938 228.878906 C 350.453125 229.597656 353.300781 230.386719 356.132812 231.246094 C 358.960938 232.105469 361.769531 233.03125 364.550781 234.027344 C 367.335938 235.023438 370.09375 236.085938 372.828125 237.21875 C 375.558594 238.351562 378.261719 239.546875 380.933594 240.8125 C 383.609375 242.078125 386.25 243.40625 388.855469 244.800781 C 391.464844 246.195312 394.035156 247.652344 396.574219 249.171875 C 399.109375 250.691406 401.605469 252.273438 404.066406 253.917969 C 406.523438 255.558594 408.941406 257.261719 411.316406 259.023438 C 413.691406 260.785156 416.023438 262.601562 418.308594 264.480469 C 420.59375 266.355469 422.832031 268.285156 425.023438 270.273438 C 427.214844 272.257812 429.355469 274.296875 431.445312 276.386719 C 433.539062 278.476562 435.574219 280.621094 437.5625 282.808594 C 439.546875 285 441.476562 287.238281 443.355469 289.527344 C 445.230469 291.8125 447.050781 294.140625 448.8125 296.515625 C 450.570312 298.890625 452.273438 301.308594 453.917969 303.769531 C 455.558594 306.226562 457.140625 308.722656 458.660156 311.261719 C 460.183594 313.796875 461.640625 316.371094 463.035156 318.976562 C 464.425781 321.585938 465.757812 324.226562 467.019531 326.898438 C 468.285156 329.570312 469.484375 332.273438 470.613281 335.007812 C 471.746094 337.738281 472.808594 340.496094 473.804688 343.28125 C 474.800781 346.066406 475.730469 348.871094 476.589844 351.703125 C 477.445312 354.53125 478.234375 357.382812 478.953125 360.25 C 479.671875 363.117188 480.320312 366.003906 480.898438 368.902344 C 481.472656 371.804688 481.980469 374.714844 482.414062 377.640625 C 482.847656 380.566406 483.207031 383.5 483.5 386.441406 C 483.789062 389.386719 484.007812 392.332031 484.152344 395.289062 C 484.296875 398.242188 484.367188 401.195312 484.367188 404.152344 Z M 484.367188 404.152344 " fill-opacity="1" fill-rule="nonzero"/><path fill="#f5f5f2" d="M 98.667969 172.605469 C 98.667969 173.570312 98.621094 174.527344 98.527344 175.488281 C 98.433594 176.445312 98.292969 177.394531 98.105469 178.339844 C 97.917969 179.28125 97.683594 180.214844 97.40625 181.136719 C 97.125 182.054688 96.800781 182.960938 96.433594 183.847656 C 96.066406 184.738281 95.652344 185.605469 95.199219 186.457031 C 94.746094 187.304688 94.253906 188.128906 93.71875 188.929688 C 93.183594 189.726562 92.613281 190.5 92 191.242188 C 91.390625 191.988281 90.746094 192.699219 90.066406 193.378906 C 89.382812 194.0625 88.671875 194.707031 87.929688 195.316406 C 87.183594 195.925781 86.414062 196.5 85.613281 197.035156 C 84.8125 197.566406 83.988281 198.0625 83.140625 198.515625 C 82.292969 198.96875 81.421875 199.378906 80.535156 199.75 C 79.644531 200.117188 78.742188 200.441406 77.820312 200.71875 C 76.898438 201 75.964844 201.234375 75.023438 201.421875 C 74.078125 201.609375 73.128906 201.75 72.171875 201.84375 C 71.214844 201.9375 70.253906 201.984375 69.292969 201.984375 C 68.328125 201.984375 67.371094 201.9375 66.414062 201.84375 C 65.453125 201.75 64.503906 201.609375 63.558594 201.421875 C 62.617188 201.234375 61.683594 201 60.765625 200.71875 C 59.84375 200.441406 58.9375 200.117188 58.050781 199.75 C 57.160156 199.378906 56.292969 198.96875 55.441406 198.515625 C 54.59375 198.0625 53.769531 197.566406 52.96875 197.035156 C 52.171875 196.5 51.398438 195.925781 50.65625 195.316406 C 49.910156 194.707031 49.199219 194.058594 48.519531 193.378906 C 47.839844 192.699219 47.191406 191.988281 46.582031 191.242188 C 45.972656 190.5 45.398438 189.726562 44.863281 188.929688 C 44.332031 188.128906 43.835938 187.304688 43.382812 186.457031 C 42.929688 185.605469 42.519531 184.738281 42.152344 183.847656 C 41.78125 182.960938 41.457031 182.054688 41.179688 181.136719 C 40.898438 180.214844 40.667969 179.28125 40.480469 178.339844 C 40.289062 177.394531 40.148438 176.445312 40.054688 175.488281 C 39.960938 174.527344 39.914062 173.570312 39.914062 172.605469 C 39.914062 171.644531 39.960938 170.683594 40.054688 169.726562 C 40.148438 168.769531 40.289062 167.820312 40.480469 166.875 C 40.667969 165.933594 40.898438 165 41.179688 164.078125 C 41.457031 163.160156 41.78125 162.253906 42.152344 161.363281 C 42.519531 160.476562 42.929688 159.605469 43.382812 158.757812 C 43.835938 157.910156 44.332031 157.085938 44.863281 156.285156 C 45.398438 155.484375 45.972656 154.714844 46.582031 153.96875 C 47.191406 153.226562 47.839844 152.515625 48.519531 151.835938 C 49.199219 151.152344 49.910156 150.507812 50.65625 149.898438 C 51.398438 149.289062 52.171875 148.714844 52.96875 148.179688 C 53.769531 147.644531 54.59375 147.152344 55.441406 146.699219 C 56.292969 146.246094 57.160156 145.832031 58.050781 145.464844 C 58.9375 145.097656 59.84375 144.773438 60.765625 144.496094 C 61.683594 144.214844 62.617188 143.980469 63.558594 143.792969 C 64.503906 143.605469 65.453125 143.464844 66.414062 143.371094 C 67.371094 143.277344 68.328125 143.230469 69.292969 143.230469 C 70.253906 143.230469 71.214844 143.277344 72.171875 143.371094 C 73.128906 143.464844 74.078125 143.605469 75.023438 143.792969 C 75.964844 143.980469 76.898438 144.214844 77.820312 144.496094 C 78.742188 144.773438 79.644531 145.097656 80.535156 145.464844 C 81.421875 145.832031 82.292969 146.246094 83.140625 146.699219 C 83.988281 147.152344 84.8125 147.644531 85.613281 148.179688 C 86.414062 148.714844 87.183594 149.289062 87.929688 149.898438 C 88.671875 150.507812 89.382812 151.152344 90.066406 151.835938 C 90.746094 152.515625 91.390625 153.226562 92 153.96875 C 92.613281 154.714844 93.183594 155.484375 93.71875 156.285156 C 94.253906 157.085938 94.746094 157.910156 95.199219 158.757812 C 95.652344 159.605469 96.066406 160.476562 96.433594 161.363281 C 96.800781 162.253906 97.125 163.160156 97.40625 164.078125 C 97.683594 165 97.917969 165.933594 98.105469 166.875 C 98.292969 167.820312 98.433594 168.769531 98.527344 169.726562 C 98.621094 170.683594 98.667969 171.644531 98.667969 172.605469 Z M 98.667969 172.605469 " fill-opacity="1" fill-rule="nonzero"/><g fill="#791026" fill-opacity="1"><g transform="translate(45.101066, 100.317054)"><g><path d="M 13.15625 -3.3125 L 20.046875 -2.203125 L 20.046875 0 L 1.875 0 L 1.875 -2.203125 L 8.015625 -3.3125 L 26.9375 -28.46875 L 10.78125 -52.375 L 4.515625 -53.453125 L 4.515625 -55.640625 L 27.46875 -55.640625 L 27.46875 -53.453125 L 20.421875 -52.375 L 31.953125 -35.1875 L 44.859375 -52.375 L 37.96875 -53.453125 L 37.96875 -55.640625 L 56.1875 -55.640625 L 56.1875 -53.453125 L 50.046875 -52.375 L 34.40625 -31.53125 L 53.53125 -3.3125 L 59.84375 -2.203125 L 59.84375 0 L 36.890625 0 L 36.890625 -2.203125 L 43.9375 -3.3125 L 29.34375 -24.890625 Z M 13.15625 -3.3125 "/></g></g></g><path fill="#f5f5f2" d="M 514.0625 626.539062 C 514.0625 627.5 514.015625 628.460938 513.921875 629.417969 C 513.828125 630.375 513.683594 631.324219 513.496094 632.269531 C 513.308594 633.214844 513.078125 634.144531 512.796875 635.066406 C 512.519531 635.988281 512.195312 636.890625 511.824219 637.78125 C 511.457031 638.667969 511.046875 639.539062 510.59375 640.386719 C 510.140625 641.234375 509.644531 642.058594 509.109375 642.859375 C 508.578125 643.660156 508.003906 644.429688 507.394531 645.175781 C 506.785156 645.917969 506.136719 646.632812 505.457031 647.3125 C 504.777344 647.992188 504.066406 648.636719 503.320312 649.246094 C 502.578125 649.859375 501.804688 650.429688 501.007812 650.964844 C 500.207031 651.5 499.382812 651.992188 498.53125 652.445312 C 497.683594 652.902344 496.816406 653.3125 495.925781 653.679688 C 495.039062 654.046875 494.132812 654.371094 493.210938 654.652344 C 492.292969 654.929688 491.359375 655.164062 490.414062 655.351562 C 489.472656 655.539062 488.523438 655.679688 487.5625 655.773438 C 486.605469 655.867188 485.648438 655.914062 484.683594 655.914062 C 483.722656 655.914062 482.761719 655.867188 481.804688 655.773438 C 480.847656 655.679688 479.898438 655.539062 478.953125 655.351562 C 478.007812 655.164062 477.078125 654.929688 476.15625 654.652344 C 475.234375 654.371094 474.332031 654.046875 473.441406 653.679688 C 472.554688 653.3125 471.683594 652.902344 470.835938 652.445312 C 469.988281 651.992188 469.164062 651.5 468.363281 650.964844 C 467.5625 650.429688 466.792969 649.859375 466.046875 649.246094 C 465.304688 648.636719 464.59375 647.992188 463.910156 647.3125 C 463.230469 646.632812 462.585938 645.917969 461.976562 645.175781 C 461.363281 644.429688 460.792969 643.660156 460.257812 642.859375 C 459.722656 642.058594 459.230469 641.234375 458.777344 640.386719 C 458.324219 639.539062 457.910156 638.667969 457.542969 637.78125 C 457.175781 636.890625 456.851562 635.988281 456.570312 635.066406 C 456.292969 634.144531 456.058594 633.214844 455.871094 632.269531 C 455.683594 631.324219 455.542969 630.375 455.449219 629.417969 C 455.355469 628.460938 455.308594 627.5 455.308594 626.539062 C 455.308594 625.574219 455.355469 624.617188 455.449219 623.660156 C 455.542969 622.703125 455.683594 621.75 455.871094 620.808594 C 456.058594 619.863281 456.292969 618.929688 456.570312 618.011719 C 456.851562 617.089844 457.175781 616.183594 457.542969 615.296875 C 457.910156 614.40625 458.324219 613.539062 458.777344 612.691406 C 459.230469 611.839844 459.722656 611.015625 460.257812 610.21875 C 460.792969 609.417969 461.363281 608.644531 461.976562 607.902344 C 462.585938 607.15625 463.230469 606.445312 463.910156 605.765625 C 464.59375 605.085938 465.304688 604.441406 466.046875 603.828125 C 466.792969 603.21875 467.5625 602.644531 468.363281 602.113281 C 469.164062 601.578125 469.988281 601.082031 470.835938 600.628906 C 471.683594 600.175781 472.554688 599.765625 473.441406 599.398438 C 474.332031 599.027344 475.234375 598.703125 476.15625 598.425781 C 477.078125 598.144531 478.007812 597.914062 478.953125 597.726562 C 479.898438 597.539062 480.847656 597.398438 481.804688 597.300781 C 482.761719 597.207031 483.722656 597.160156 484.683594 597.160156 C 485.648438 597.160156 486.605469 597.207031 487.5625 597.300781 C 488.523438 597.394531 489.472656 597.539062 490.414062 597.726562 C 491.359375 597.914062 492.292969 598.144531 493.210938 598.425781 C 494.132812 598.703125 495.039062 599.027344 495.925781 599.398438 C 496.816406 599.765625 497.683594 600.175781 498.53125 600.628906 C 499.382812 601.082031 500.207031 601.578125 501.007812 602.113281 C 501.804688 602.644531 502.578125 603.21875 503.320312 603.828125 C 504.066406 604.441406 504.777344 605.085938 505.457031 605.765625 C 506.136719 606.445312 506.785156 607.15625 507.394531 607.902344 C 508.003906 608.644531 508.578125 609.417969 509.109375 610.21875 C 509.644531 611.015625 510.140625 611.839844 510.59375 612.691406 C 511.046875 613.539062 511.457031 614.40625 511.824219 615.296875 C 512.195312 616.183594 512.519531 617.089844 512.796875 618.011719 C 513.078125 618.929688 513.308594 619.863281 513.496094 620.808594 C 513.683594 621.75 513.828125 622.703125 513.921875 623.660156 C 514.015625 624.617188 514.0625 625.574219 514.0625 626.539062 Z M 514.0625 626.539062 " fill-opacity="1" fill-rule="nonzero"/><g fill="#791026" fill-opacity="1"><g transform="translate(460.314159, 748.01303)"><g><path d="M 13.15625 -3.3125 L 20.046875 -2.203125 L 20.046875 0 L 1.875 0 L 1.875 -2.203125 L 8.015625 -3.3125 L 26.9375 -28.46875 L 10.78125 -52.375 L 4.515625 -53.453125 L 4.515625 -55.640625 L 27.46875 -55.640625 L 27.46875 -53.453125 L 20.421875 -52.375 L 31.953125 -35.1875 L 44.859375 -52.375 L 37.96875 -53.453125 L 37.96875 -55.640625 L 56.1875 -55.640625 L 56.1875 -53.453125 L 50.046875 -52.375 L 34.40625 -31.53125 L 53.53125 -3.3125 L 59.84375 -2.203125 L 59.84375 0 L 36.890625 0 L 36.890625 -2.203125 L 43.9375 -3.3125 L 29.34375 -24.890625 Z M 13.15625 -3.3125 "/></g></g></g><g clip-path="url(#dd12eabef9)"><g clip-path="url(#08efa65d1d)"><g transform="matrix(1, 0, 0, 1, 16, 26)"><g clip-path="url(#fa4caffbc1)"><g clip-path="url(#a9b9581da1)"><g clip-path="url(#ac7147e9cb)"><path fill="#f5f5f2" d="M 0.664062 0.796875 L 446.886719 0.796875 L 446.886719 534.171875 L 0.664062 534.171875 Z M 0.664062 0.796875 " fill-opacity="1" fill-rule="nonzero"/></g></g></g></g></g></g><g clip-path="url(#85d24181ae)"><g clip-path="url(#92a2b8a8b9)"><g transform="matrix(1, 0, 0, 1, 102, 236)"><g clip-path="url(#2d2dcdcf98)"><g clip-path="url(#39a93655fc)"><g clip-path="url(#06f82b14c9)"><path fill="#f5f5f2" d="M 0.269531 0.53125 L 446.496094 0.53125 L 446.496094 533.910156 L 0.269531 533.910156 Z M 0.269531 0.53125 " fill-opacity="1" fill-rule="nonzero"/></g></g></g></g></g></g><g fill="#a45555" fill-opacity="1"><g transform="translate(96.477855, 398.41607)"><g><path d="M 60.3125 -109.921875 C 60.425781 -111.179688 61.0625 -112.128906 62.21875 -112.765625 C 63.375 -113.398438 64.875 -113.71875 66.71875 -113.71875 C 68.4375 -113.601562 70.015625 -113.171875 71.453125 -112.421875 C 72.898438 -111.671875 73.738281 -110.78125 73.96875 -109.75 L 96.609375 -31.453125 L 102.65625 -51.328125 L 106.8125 -65.328125 C 108.539062 -70.628906 110.265625 -76.101562 111.984375 -81.75 C 113.710938 -87.394531 115.382812 -93.210938 117 -99.203125 C 118.15625 -101.046875 120.40625 -101.96875 123.75 -101.96875 L 124.4375 -101.96875 C 127.78125 -101.738281 129.851562 -100.414062 130.65625 -98 C 126.96875 -85.4375 123.164062 -72.847656 119.25 -60.234375 C 115.332031 -47.617188 111.359375 -35.03125 107.328125 -22.46875 L 103.875 -11.234375 C 103.0625 -9.046875 100.867188 -7.953125 97.296875 -7.953125 C 93.960938 -7.953125 91.601562 -9.046875 90.21875 -11.234375 C 86.1875 -22.066406 82.523438 -32.40625 79.234375 -42.25 C 75.953125 -52.101562 72.988281 -61.523438 70.34375 -70.515625 L 69.296875 -74.484375 L 65.84375 -61.1875 C 64 -53.8125 62.359375 -47.382812 60.921875 -41.90625 C 59.484375 -36.4375 58.128906 -31.507812 56.859375 -27.125 C 55.585938 -22.75 54.316406 -18.457031 53.046875 -14.25 C 51.785156 -10.050781 50.347656 -5.414062 48.734375 -0.34375 C 47.929688 1.84375 45.742188 2.9375 42.171875 2.9375 C 40.671875 2.820312 39.257812 2.445312 37.9375 1.8125 C 36.613281 1.175781 35.660156 0.398438 35.078125 -0.515625 C 32.316406 -10.304688 29.378906 -21.222656 26.265625 -33.265625 C 23.160156 -45.304688 19.820312 -58.53125 16.25 -72.9375 L 12.96875 -86.0625 C 11.582031 -91.132812 10.34375 -95.859375 9.25 -100.234375 C 8.15625 -104.617188 7.203125 -108.65625 6.390625 -112.34375 C 6.390625 -114.875 8.289062 -116.140625 12.09375 -116.140625 L 12.796875 -116.140625 C 14.628906 -116.140625 16.207031 -115.789062 17.53125 -115.09375 C 18.863281 -114.40625 19.644531 -113.429688 19.875 -112.171875 C 21.488281 -105.484375 23.53125 -97.15625 26 -87.1875 C 28.476562 -77.21875 31.445312 -65.726562 34.90625 -52.71875 L 42 -25.40625 L 52.546875 -63.78125 L 54.09375 -69.484375 C 55.363281 -74.890625 56.71875 -80.15625 58.15625 -85.28125 C 59.59375 -90.414062 61.0625 -95.457031 62.5625 -100.40625 Z M 60.3125 -109.921875 "/></g></g></g><g fill="#a45555" fill-opacity="1"><g transform="translate(224.367901, 398.41607)"><g><path d="M 8.296875 -137.75 C 8.296875 -139.007812 8.898438 -140.015625 10.109375 -140.765625 C 11.316406 -141.515625 12.785156 -141.890625 14.515625 -141.890625 C 16.242188 -141.890625 17.800781 -141.539062 19.1875 -140.84375 C 20.570312 -140.15625 21.492188 -139.296875 21.953125 -138.265625 L 26.609375 -58.25 C 30.992188 -60.664062 35.773438 -61.875 40.953125 -61.875 C 49.484375 -61.875 56.140625 -60.632812 60.921875 -58.15625 C 65.703125 -55.675781 68.957031 -51.90625 70.6875 -46.84375 C 72.414062 -41.882812 73.28125 -35.316406 73.28125 -27.140625 C 73.28125 -17.578125 72.242188 -8.359375 70.171875 0.515625 C 69.828125 1.554688 68.929688 2.421875 67.484375 3.109375 C 66.046875 3.796875 64.460938 4.140625 62.734375 4.140625 C 60.890625 4.140625 59.390625 3.796875 58.234375 3.109375 C 57.085938 2.421875 56.515625 1.382812 56.515625 0 C 58.585938 -9.21875 59.625 -18.4375 59.625 -27.65625 C 59.625 -45.28125 53.519531 -54.320312 41.3125 -54.78125 C 35.664062 -55.007812 30.882812 -50.976562 26.96875 -42.6875 L 28.34375 -1.375 C 27.539062 1.039062 25.410156 2.25 21.953125 2.25 C 20.453125 2.25 19.007812 1.957031 17.625 1.375 C 16.238281 0.800781 15.257812 0.0546875 14.6875 -0.859375 C 14.226562 -14.578125 13.710938 -26.160156 13.140625 -35.609375 C 13.023438 -36.179688 12.96875 -36.84375 12.96875 -37.59375 C 12.96875 -38.34375 12.96875 -39.234375 12.96875 -40.265625 C 11.8125 -60.203125 10.945312 -77.3125 10.375 -91.59375 C 9.5625 -107.382812 8.867188 -122.769531 8.296875 -137.75 Z M 8.296875 -137.75 "/></g></g></g><g fill="#a45555" fill-opacity="1"><g transform="translate(307.150783, 398.41607)"><g><path d="M 5.53125 -34.046875 C 5.53125 -40.378906 6.828125 -46.222656 9.421875 -51.578125 C 12.015625 -56.941406 15.441406 -61.179688 19.703125 -64.296875 C 24.078125 -67.285156 28.6875 -68.78125 33.53125 -68.78125 C 40.90625 -68.78125 47.414062 -65.671875 53.0625 -59.453125 C 54.789062 -57.722656 55.941406 -55.5625 56.515625 -52.96875 C 57.085938 -50.375 57.375 -47.003906 57.375 -42.859375 C 57.375 -38.484375 56.796875 -33.847656 55.640625 -28.953125 C 54.492188 -24.054688 52.96875 -19.585938 51.0625 -15.546875 C 49.164062 -11.515625 47.066406 -8.578125 44.765625 -6.734375 C 41.535156 -3.859375 37.097656 -2.421875 31.453125 -2.421875 C 26.148438 -2.421875 21.539062 -3.945312 17.625 -7 C 13.707031 -10.050781 10.710938 -14.113281 8.640625 -19.1875 C 6.566406 -24.019531 5.53125 -28.972656 5.53125 -34.046875 Z M 43.375 -41.140625 C 43.375 -48.160156 42.507812 -53.457031 40.78125 -57.03125 C 38.9375 -60.601562 36.691406 -62.390625 34.046875 -62.390625 C 31.628906 -62.390625 29.351562 -61.117188 27.21875 -58.578125 C 25.082031 -56.046875 23.328125 -52.476562 21.953125 -47.875 C 20.453125 -43.5 19.703125 -38.140625 19.703125 -31.796875 C 19.703125 -25.460938 20.765625 -20.132812 22.890625 -15.8125 C 25.023438 -11.488281 28.109375 -9.328125 32.140625 -9.328125 C 34.453125 -10.253906 36.441406 -12.1875 38.109375 -15.125 C 39.773438 -18.0625 41.066406 -21.6875 41.984375 -26 C 42.910156 -30.320312 43.375 -34.789062 43.375 -39.40625 Z M 43.375 -41.140625 "/></g></g></g><g fill="#a45555" fill-opacity="1"><g transform="translate(370.577334, 398.41607)"><g><path d="M -3.453125 -87.109375 C -7.597656 -87.679688 -9.671875 -88.832031 -9.671875 -90.5625 C -9.671875 -91.25 -9.097656 -91.941406 -7.953125 -92.640625 C -6.910156 -93.328125 -5.410156 -93.785156 -3.453125 -94.015625 L 9.15625 -94.015625 L 9.84375 -101.96875 C 10.425781 -102.882812 11.40625 -103.628906 12.78125 -104.203125 C 14.164062 -104.785156 15.609375 -105.078125 17.109375 -105.078125 C 20.566406 -105.078125 22.695312 -103.867188 23.5 -101.453125 L 22.984375 -94.359375 C 24.140625 -94.472656 25.953125 -94.53125 28.421875 -94.53125 C 30.898438 -94.53125 34.097656 -94.53125 38.015625 -94.53125 C 40.441406 -94.53125 42.226562 -94.1875 43.375 -93.5 C 44.644531 -92.8125 45.28125 -92.003906 45.28125 -91.078125 C 45.28125 -89.691406 43.898438 -88.710938 41.140625 -88.140625 C 39.867188 -87.910156 38.253906 -87.738281 36.296875 -87.625 C 34.335938 -87.507812 32.085938 -87.453125 29.546875 -87.453125 L 22.296875 -87.453125 L 21.953125 -79.5 C 21.492188 -72.125 21.144531 -65.785156 20.90625 -60.484375 C 20.675781 -55.191406 20.5625 -50.875 20.5625 -47.53125 C 20.5625 -19.875 24.25 -6.046875 31.625 -6.046875 C 33.351562 -6.046875 34.878906 -6.421875 36.203125 -7.171875 C 37.523438 -7.921875 39.515625 -9.445312 42.171875 -11.75 L 44.9375 -14.859375 C 46.320312 -16.242188 48.625 -16.9375 51.84375 -16.9375 C 55.875 -16.9375 57.890625 -15.785156 57.890625 -13.484375 C 57.890625 -12.898438 57.832031 -12.550781 57.71875 -12.4375 C 54.726562 -8.175781 50.84375 -4.863281 46.0625 -2.5 C 41.28125 -0.144531 36.238281 1.03125 30.9375 1.03125 C 26.675781 1.03125 22.957031 0.3125 19.78125 -1.125 C 16.613281 -2.5625 14.398438 -4.835938 13.140625 -7.953125 C 9.109375 -19.015625 7.09375 -33.703125 7.09375 -52.015625 C 7.09375 -62.160156 7.609375 -73.859375 8.640625 -87.109375 Z M -3.453125 -87.109375 "/></g></g></g><g fill="#a45555" fill-opacity="1"><g transform="translate(478.001822, 397.568339)"><g><path d="M -60.3125 109.921875 C -60.425781 111.179688 -61.0625 112.128906 -62.21875 112.765625 C -63.375 113.398438 -64.875 113.71875 -66.71875 113.71875 C -68.4375 113.601562 -70.015625 113.171875 -71.453125 112.421875 C -72.898438 111.671875 -73.738281 110.78125 -73.96875 109.75 L -96.609375 31.453125 L -102.65625 51.328125 L -106.8125 65.328125 C -108.539062 70.628906 -110.265625 76.101562 -111.984375 81.75 C -113.710938 87.394531 -115.382812 93.210938 -117 99.203125 C -118.15625 101.046875 -120.40625 101.96875 -123.75 101.96875 L -124.4375 101.96875 C -127.78125 101.738281 -129.851562 100.414062 -130.65625 98 C -126.96875 85.4375 -123.164062 72.847656 -119.25 60.234375 C -115.332031 47.617188 -111.359375 35.03125 -107.328125 22.46875 L -103.875 11.234375 C -103.0625 9.046875 -100.867188 7.953125 -97.296875 7.953125 C -93.960938 7.953125 -91.601562 9.046875 -90.21875 11.234375 C -86.1875 22.066406 -82.523438 32.40625 -79.234375 42.25 C -75.953125 52.101562 -72.988281 61.523438 -70.34375 70.515625 L -69.296875 74.484375 L -65.84375 61.1875 C -64 53.8125 -62.359375 47.382812 -60.921875 41.90625 C -59.484375 36.4375 -58.128906 31.507812 -56.859375 27.125 C -55.585938 22.75 -54.316406 18.457031 -53.046875 14.25 C -51.785156 10.050781 -50.347656 5.414062 -48.734375 0.34375 C -47.929688 -1.84375 -45.742188 -2.9375 -42.171875 -2.9375 C -40.671875 -2.820312 -39.257812 -2.445312 -37.9375 -1.8125 C -36.613281 -1.175781 -35.660156 -0.398438 -35.078125 0.515625 C -32.316406 10.304688 -29.378906 21.222656 -26.265625 33.265625 C -23.160156 45.304688 -19.820312 58.53125 -16.25 72.9375 L -12.96875 86.0625 C -11.582031 91.132812 -10.34375 95.859375 -9.25 100.234375 C -8.15625 104.617188 -7.203125 108.65625 -6.390625 112.34375 C -6.390625 114.875 -8.289062 116.140625 -12.09375 116.140625 L -12.796875 116.140625 C -14.628906 116.140625 -16.207031 115.789062 -17.53125 115.09375 C -18.863281 114.40625 -19.644531 113.429688 -19.875 112.171875 C -21.488281 105.484375 -23.53125 97.15625 -26 87.1875 C -28.476562 77.21875 -31.445312 65.726562 -34.90625 52.71875 L -42 25.40625 L -52.546875 63.78125 L -54.09375 69.484375 C -55.363281 74.890625 -56.71875 80.15625 -58.15625 85.28125 C -59.59375 90.414062 -61.0625 95.457031 -62.5625 100.40625 Z M -60.3125 109.921875 "/></g></g></g><g fill="#a45555" fill-opacity="1"><g transform="translate(350.111776, 397.568339)"><g><path d="M -8.296875 137.75 C -8.296875 139.007812 -8.898438 140.015625 -10.109375 140.765625 C -11.316406 141.515625 -12.785156 141.890625 -14.515625 141.890625 C -16.242188 141.890625 -17.800781 141.539062 -19.1875 140.84375 C -20.570312 140.15625 -21.492188 139.296875 -21.953125 138.265625 L -26.609375 58.25 C -30.992188 60.664062 -35.773438 61.875 -40.953125 61.875 C -49.484375 61.875 -56.140625 60.632812 -60.921875 58.15625 C -65.703125 55.675781 -68.957031 51.90625 -70.6875 46.84375 C -72.414062 41.882812 -73.28125 35.316406 -73.28125 27.140625 C -73.28125 17.578125 -72.242188 8.359375 -70.171875 -0.515625 C -69.828125 -1.554688 -68.929688 -2.421875 -67.484375 -3.109375 C -66.046875 -3.796875 -64.460938 -4.140625 -62.734375 -4.140625 C -60.890625 -4.140625 -59.390625 -3.796875 -58.234375 -3.109375 C -57.085938 -2.421875 -56.515625 -1.382812 -56.515625 0 C -58.585938 9.21875 -59.625 18.4375 -59.625 27.65625 C -59.625 45.28125 -53.519531 54.320312 -41.3125 54.78125 C -35.664062 55.007812 -30.882812 50.976562 -26.96875 42.6875 L -28.34375 1.375 C -27.539062 -1.039062 -25.410156 -2.25 -21.953125 -2.25 C -20.453125 -2.25 -19.007812 -1.957031 -17.625 -1.375 C -16.238281 -0.800781 -15.257812 -0.0546875 -14.6875 0.859375 C -14.226562 14.578125 -13.710938 26.160156 -13.140625 35.609375 C -13.023438 36.179688 -12.96875 36.84375 -12.96875 37.59375 C -12.96875 38.34375 -12.96875 39.234375 -12.96875 40.265625 C -11.8125 60.203125 -10.945312 77.3125 -10.375 91.59375 C -9.5625 107.382812 -8.867188 122.769531 -8.296875 137.75 Z M -8.296875 137.75 "/></g></g></g><g fill="#a45555" fill-opacity="1"><g transform="translate(267.328895, 397.568339)"><g><path d="M -5.53125 34.046875 C -5.53125 40.378906 -6.828125 46.222656 -9.421875 51.578125 C -12.015625 56.941406 -15.441406 61.179688 -19.703125 64.296875 C -24.078125 67.285156 -28.6875 68.78125 -33.53125 68.78125 C -40.90625 68.78125 -47.414062 65.671875 -53.0625 59.453125 C -54.789062 57.722656 -55.941406 55.5625 -56.515625 52.96875 C -57.085938 50.375 -57.375 47.003906 -57.375 42.859375 C -57.375 38.484375 -56.796875 33.847656 -55.640625 28.953125 C -54.492188 24.054688 -52.96875 19.585938 -51.0625 15.546875 C -49.164062 11.515625 -47.066406 8.578125 -44.765625 6.734375 C -41.535156 3.859375 -37.097656 2.421875 -31.453125 2.421875 C -26.148438 2.421875 -21.539062 3.945312 -17.625 7 C -13.707031 10.050781 -10.710938 14.113281 -8.640625 19.1875 C -6.566406 24.019531 -5.53125 28.972656 -5.53125 34.046875 Z M -43.375 41.140625 C -43.375 48.160156 -42.507812 53.457031 -40.78125 57.03125 C -38.9375 60.601562 -36.691406 62.390625 -34.046875 62.390625 C -31.628906 62.390625 -29.351562 61.117188 -27.21875 58.578125 C -25.082031 56.046875 -23.328125 52.476562 -21.953125 47.875 C -20.453125 43.5 -19.703125 38.140625 -19.703125 31.796875 C -19.703125 25.460938 -20.765625 20.132812 -22.890625 15.8125 C -25.023438 11.488281 -28.109375 9.328125 -32.140625 9.328125 C -34.453125 10.253906 -36.441406 12.1875 -38.109375 15.125 C -39.773438 18.0625 -41.066406 21.6875 -41.984375 26 C -42.910156 30.320312 -43.375 34.789062 -43.375 39.40625 Z M -43.375 41.140625 "/></g></g></g><g fill="#a45555" fill-opacity="1"><g transform="translate(203.902343, 397.568339)"><g><path d="M 3.453125 87.109375 C 7.597656 87.679688 9.671875 88.832031 9.671875 90.5625 C 9.671875 91.25 9.097656 91.941406 7.953125 92.640625 C 6.910156 93.328125 5.410156 93.785156 3.453125 94.015625 L -9.15625 94.015625 L -9.84375 101.96875 C -10.425781 102.882812 -11.40625 103.628906 -12.78125 104.203125 C -14.164062 104.785156 -15.609375 105.078125 -17.109375 105.078125 C -20.566406 105.078125 -22.695312 103.867188 -23.5 101.453125 L -22.984375 94.359375 C -24.140625 94.472656 -25.953125 94.53125 -28.421875 94.53125 C -30.898438 94.53125 -34.097656 94.53125 -38.015625 94.53125 C -40.441406 94.53125 -42.226562 94.1875 -43.375 93.5 C -44.644531 92.8125 -45.28125 92.003906 -45.28125 91.078125 C -45.28125 89.691406 -43.898438 88.710938 -41.140625 88.140625 C -39.867188 87.910156 -38.253906 87.738281 -36.296875 87.625 C -34.335938 87.507812 -32.085938 87.453125 -29.546875 87.453125 L -22.296875 87.453125 L -21.953125 79.5 C -21.492188 72.125 -21.144531 65.785156 -20.90625 60.484375 C -20.675781 55.191406 -20.5625 50.875 -20.5625 47.53125 C -20.5625 19.875 -24.25 6.046875 -31.625 6.046875 C -33.351562 6.046875 -34.878906 6.421875 -36.203125 7.171875 C -37.523438 7.921875 -39.515625 9.445312 -42.171875 11.75 L -44.9375 14.859375 C -46.320312 16.242188 -48.625 16.9375 -51.84375 16.9375 C -55.875 16.9375 -57.890625 15.785156 -57.890625 13.484375 C -57.890625 12.898438 -57.832031 12.550781 -57.71875 12.4375 C -54.726562 8.175781 -50.84375 4.863281 -46.0625 2.5 C -41.28125 0.144531 -36.238281 -1.03125 -30.9375 -1.03125 C -26.675781 -1.03125 -22.957031 -0.3125 -19.78125 1.125 C -16.613281 2.5625 -14.398438 4.835938 -13.140625 7.953125 C -9.109375 19.015625 -7.09375 33.703125 -7.09375 52.015625 C -7.09375 62.160156 -7.609375 73.859375 -8.640625 87.109375 Z M 3.453125 87.109375 "/></g></g></g></g></g><g fill="#a45555" fill-opacity="1"><g transform="translate(237.073235, 214.500009)"><g><path d="M 36.375 -1.5 C 36.375 -1.300781 36.375 -1.113281 36.375 -0.9375 C 36.375 -0.757812 36.347656 -0.570312 36.296875 -0.375 C 35.992188 1.625 35.617188 2.625 35.171875 2.625 C 35.023438 2.625 34.953125 2.5 34.953125 2.25 C 34.796875 1.5 34.378906 0.8125 33.703125 0.1875 C 33.035156 -0.4375 32.203125 -0.847656 31.203125 -1.046875 C 29.953125 -1.347656 28.425781 -1.5 26.625 -1.5 C 24.476562 -1.5 22.15625 -1.335938 19.65625 -1.015625 C 17.15625 -0.691406 14.738281 -0.34375 12.40625 0.03125 C 10.082031 0.40625 8.070312 0.695312 6.375 0.90625 C 6.019531 1.5 5.367188 1.796875 4.421875 1.796875 C 4.222656 1.796875 4.035156 1.78125 3.859375 1.75 C 3.679688 1.726562 3.46875 1.695312 3.21875 1.65625 C 2.820312 1.550781 2.523438 1.296875 2.328125 0.890625 C 2.128906 0.492188 1.976562 0.125 1.875 -0.21875 C 1.726562 -0.820312 1.65625 -1.347656 1.65625 -1.796875 C 1.65625 -2.953125 2.203125 -4.050781 3.296875 -5.09375 C 5.492188 -7.25 7.414062 -9.148438 9.0625 -10.796875 C 10.71875 -12.453125 12.21875 -14.015625 13.5625 -15.484375 C 14.914062 -16.960938 16.207031 -18.488281 17.4375 -20.0625 C 18.664062 -21.632812 19.953125 -23.394531 21.296875 -25.34375 C 22.648438 -27.300781 24.148438 -29.578125 25.796875 -32.171875 C 26.796875 -33.671875 27.65625 -35.492188 28.375 -37.640625 C 29.101562 -39.796875 29.46875 -41.820312 29.46875 -43.71875 C 29.46875 -45.375 29.09375 -46.765625 28.34375 -47.890625 C 27.59375 -49.015625 26.269531 -49.578125 24.375 -49.578125 L 24 -49.578125 C 22.445312 -49.578125 20.734375 -49.085938 18.859375 -48.109375 C 16.984375 -47.140625 15.179688 -45.90625 13.453125 -44.40625 C 11.734375 -42.90625 10.3125 -41.351562 9.1875 -39.75 C 8.0625 -38.144531 7.5 -36.71875 7.5 -35.46875 C 7.5 -34.769531 7.722656 -34.144531 8.171875 -33.59375 C 8.367188 -33.394531 8.46875 -33.222656 8.46875 -33.078125 C 8.46875 -32.878906 8.367188 -32.78125 8.171875 -32.78125 C 8.023438 -32.78125 7.75 -32.90625 7.34375 -33.15625 C 7 -33.351562 6.515625 -33.835938 5.890625 -34.609375 C 5.265625 -35.390625 4.703125 -36.253906 4.203125 -37.203125 C 3.703125 -38.148438 3.453125 -38.972656 3.453125 -39.671875 L 3.453125 -40.046875 C 3.648438 -40.898438 4.3125 -42.015625 5.4375 -43.390625 C 6.5625 -44.765625 7.875 -46 9.375 -47.09375 C 11.769531 -48.84375 14.144531 -50.128906 16.5 -50.953125 C 18.851562 -51.785156 21.03125 -52.203125 23.03125 -52.203125 C 25.476562 -52.203125 27.640625 -51.703125 29.515625 -50.703125 C 31.390625 -49.703125 32.863281 -48.335938 33.9375 -46.609375 C 35.007812 -44.890625 35.546875 -42.878906 35.546875 -40.578125 C 35.546875 -38.628906 35.082031 -36.515625 34.15625 -34.234375 C 33.238281 -31.960938 31.753906 -29.625 29.703125 -27.21875 C 27.253906 -24.425781 24.726562 -21.925781 22.125 -19.71875 C 19.519531 -17.519531 16.96875 -15.304688 14.46875 -13.078125 C 11.96875 -10.859375 9.617188 -8.300781 7.421875 -5.40625 C 7.117188 -5.101562 6.921875 -4.703125 6.828125 -4.203125 C 8.328125 -4.347656 10 -4.53125 11.84375 -4.75 C 13.695312 -4.976562 15.570312 -5.207031 17.46875 -5.4375 C 19.375 -5.664062 21.113281 -5.84375 22.6875 -5.96875 C 24.257812 -6.09375 25.5 -6.15625 26.40625 -6.15625 L 27.828125 -6.15625 C 29.171875 -6.15625 30.503906 -6.066406 31.828125 -5.890625 C 33.160156 -5.710938 34.25 -5.296875 35.09375 -4.640625 C 35.945312 -3.992188 36.375 -2.945312 36.375 -1.5 Z M 36.375 -1.5 "/></g></g></g><g fill="#a45555" fill-opacity="1"><g transform="translate(274.048201, 214.500009)"><g><path d="M 33.15625 -28.5 C 33.15625 -25.101562 32.78125 -21.691406 32.03125 -18.265625 C 31.28125 -14.835938 30.175781 -11.6875 28.71875 -8.8125 C 27.269531 -5.9375 25.492188 -3.632812 23.390625 -1.90625 C 21.296875 -0.1875 18.875 0.695312 16.125 0.75 C 13.675781 0.800781 11.523438 0.140625 9.671875 -1.234375 C 7.828125 -2.609375 6.28125 -4.484375 5.03125 -6.859375 C 3.78125 -9.234375 2.828125 -11.90625 2.171875 -14.875 C 1.523438 -17.851562 1.203125 -20.921875 1.203125 -24.078125 C 1.203125 -27.472656 1.578125 -30.804688 2.328125 -34.078125 C 3.078125 -37.359375 4.210938 -40.320312 5.734375 -42.96875 C 7.265625 -45.625 9.175781 -47.738281 11.46875 -49.3125 C 13.769531 -50.882812 16.5 -51.671875 19.65625 -51.671875 C 20.445312 -51.671875 20.84375 -51.445312 20.84375 -51 C 20.84375 -50.394531 20.296875 -50.070312 19.203125 -50.03125 C 17.347656 -49.976562 15.707031 -49.140625 14.28125 -47.515625 C 12.863281 -45.890625 11.664062 -43.765625 10.6875 -41.140625 C 9.707031 -38.515625 8.96875 -35.613281 8.46875 -32.4375 C 7.96875 -29.257812 7.71875 -26.046875 7.71875 -22.796875 C 7.71875 -19.097656 8.066406 -15.625 8.765625 -12.375 C 9.472656 -9.125 10.535156 -6.507812 11.953125 -4.53125 C 13.378906 -2.5625 15.171875 -1.578125 17.328125 -1.578125 C 19.078125 -1.628906 20.597656 -2.328125 21.890625 -3.671875 C 23.191406 -5.023438 24.28125 -6.8125 25.15625 -9.03125 C 26.03125 -11.257812 26.691406 -13.734375 27.140625 -16.453125 C 27.597656 -19.179688 27.828125 -21.972656 27.828125 -24.828125 C 27.828125 -28.328125 27.488281 -31.625 26.8125 -34.71875 C 26.132812 -37.820312 25.144531 -40.347656 23.84375 -42.296875 C 22.550781 -44.242188 20.90625 -45.21875 18.90625 -45.21875 C 18.550781 -45.21875 18.222656 -45.179688 17.921875 -45.109375 C 17.617188 -45.035156 17.320312 -45 17.03125 -45 C 16.476562 -45 16.203125 -45.300781 16.203125 -45.90625 C 16.203125 -46.195312 16.285156 -46.539062 16.453125 -46.9375 C 16.628906 -47.34375 16.894531 -47.671875 17.25 -47.921875 C 17.644531 -48.273438 18.253906 -48.515625 19.078125 -48.640625 C 19.910156 -48.765625 20.578125 -48.828125 21.078125 -48.828125 C 23.828125 -48.828125 26.085938 -47.875 27.859375 -45.96875 C 29.640625 -44.070312 30.96875 -41.585938 31.84375 -38.515625 C 32.71875 -35.441406 33.15625 -32.101562 33.15625 -28.5 Z M 33.15625 -28.5 "/></g></g></g><g fill="#a45555" fill-opacity="1"><g transform="translate(572.920871, 590.99999)"><g><path d="M -36.375 1.5 C -36.375 1.300781 -36.375 1.113281 -36.375 0.9375 C -36.375 0.757812 -36.347656 0.570312 -36.296875 0.375 C -35.992188 -1.625 -35.617188 -2.625 -35.171875 -2.625 C -35.023438 -2.625 -34.953125 -2.5 -34.953125 -2.25 C -34.796875 -1.5 -34.378906 -0.8125 -33.703125 -0.1875 C -33.035156 0.4375 -32.203125 0.847656 -31.203125 1.046875 C -29.953125 1.347656 -28.425781 1.5 -26.625 1.5 C -24.476562 1.5 -22.15625 1.335938 -19.65625 1.015625 C -17.15625 0.691406 -14.738281 0.34375 -12.40625 -0.03125 C -10.082031 -0.40625 -8.070312 -0.695312 -6.375 -0.90625 C -6.019531 -1.5 -5.367188 -1.796875 -4.421875 -1.796875 C -4.222656 -1.796875 -4.035156 -1.78125 -3.859375 -1.75 C -3.679688 -1.726562 -3.46875 -1.695312 -3.21875 -1.65625 C -2.820312 -1.550781 -2.523438 -1.296875 -2.328125 -0.890625 C -2.128906 -0.492188 -1.976562 -0.125 -1.875 0.21875 C -1.726562 0.820312 -1.65625 1.347656 -1.65625 1.796875 C -1.65625 2.953125 -2.203125 4.050781 -3.296875 5.09375 C -5.492188 7.25 -7.414062 9.148438 -9.0625 10.796875 C -10.71875 12.453125 -12.21875 14.015625 -13.5625 15.484375 C -14.914062 16.960938 -16.207031 18.488281 -17.4375 20.0625 C -18.664062 21.632812 -19.953125 23.394531 -21.296875 25.34375 C -22.648438 27.300781 -24.148438 29.578125 -25.796875 32.171875 C -26.796875 33.671875 -27.65625 35.492188 -28.375 37.640625 C -29.101562 39.796875 -29.46875 41.820312 -29.46875 43.71875 C -29.46875 45.375 -29.09375 46.765625 -28.34375 47.890625 C -27.59375 49.015625 -26.269531 49.578125 -24.375 49.578125 L -24 49.578125 C -22.445312 49.578125 -20.734375 49.085938 -18.859375 48.109375 C -16.984375 47.140625 -15.179688 45.90625 -13.453125 44.40625 C -11.734375 42.90625 -10.3125 41.351562 -9.1875 39.75 C -8.0625 38.144531 -7.5 36.71875 -7.5 35.46875 C -7.5 34.769531 -7.722656 34.144531 -8.171875 33.59375 C -8.367188 33.394531 -8.46875 33.222656 -8.46875 33.078125 C -8.46875 32.878906 -8.367188 32.78125 -8.171875 32.78125 C -8.023438 32.78125 -7.75 32.90625 -7.34375 33.15625 C -7 33.351562 -6.515625 33.835938 -5.890625 34.609375 C -5.265625 35.390625 -4.703125 36.253906 -4.203125 37.203125 C -3.703125 38.148438 -3.453125 38.972656 -3.453125 39.671875 L -3.453125 40.046875 C -3.648438 40.898438 -4.3125 42.015625 -5.4375 43.390625 C -6.5625 44.765625 -7.875 46 -9.375 47.09375 C -11.769531 48.84375 -14.144531 50.128906 -16.5 50.953125 C -18.851562 51.785156 -21.03125 52.203125 -23.03125 52.203125 C -25.476562 52.203125 -27.640625 51.703125 -29.515625 50.703125 C -31.390625 49.703125 -32.863281 48.335938 -33.9375 46.609375 C -35.007812 44.890625 -35.546875 42.878906 -35.546875 40.578125 C -35.546875 38.628906 -35.082031 36.515625 -34.15625 34.234375 C -33.238281 31.960938 -31.753906 29.625 -29.703125 27.21875 C -27.253906 24.425781 -24.726562 21.925781 -22.125 19.71875 C -19.519531 17.519531 -16.96875 15.304688 -14.46875 13.078125 C -11.96875 10.859375 -9.617188 8.300781 -7.421875 5.40625 C -7.117188 5.101562 -6.921875 4.703125 -6.828125 4.203125 C -8.328125 4.347656 -10 4.53125 -11.84375 4.75 C -13.695312 4.976562 -15.570312 5.207031 -17.46875 5.4375 C -19.375 5.664062 -21.113281 5.84375 -22.6875 5.96875 C -24.257812 6.09375 -25.5 6.15625 -26.40625 6.15625 L -27.828125 6.15625 C -29.171875 6.15625 -30.503906 6.066406 -31.828125 5.890625 C -33.160156 5.710938 -34.25 5.296875 -35.09375 4.640625 C -35.945312 3.992188 -36.375 2.945312 -36.375 1.5 Z M -36.375 1.5 "/></g></g></g><g fill="#a45555" fill-opacity="1"><g transform="translate(535.945905, 590.99999)"><g><path d="M -33.15625 28.5 C -33.15625 25.101562 -32.78125 21.691406 -32.03125 18.265625 C -31.28125 14.835938 -30.175781 11.6875 -28.71875 8.8125 C -27.269531 5.9375 -25.492188 3.632812 -23.390625 1.90625 C -21.296875 0.1875 -18.875 -0.695312 -16.125 -0.75 C -13.675781 -0.800781 -11.523438 -0.140625 -9.671875 1.234375 C -7.828125 2.609375 -6.28125 4.484375 -5.03125 6.859375 C -3.78125 9.234375 -2.828125 11.90625 -2.171875 14.875 C -1.523438 17.851562 -1.203125 20.921875 -1.203125 24.078125 C -1.203125 27.472656 -1.578125 30.804688 -2.328125 34.078125 C -3.078125 37.359375 -4.210938 40.320312 -5.734375 42.96875 C -7.265625 45.625 -9.175781 47.738281 -11.46875 49.3125 C -13.769531 50.882812 -16.5 51.671875 -19.65625 51.671875 C -20.445312 51.671875 -20.84375 51.445312 -20.84375 51 C -20.84375 50.394531 -20.296875 50.070312 -19.203125 50.03125 C -17.347656 49.976562 -15.707031 49.140625 -14.28125 47.515625 C -12.863281 45.890625 -11.664062 43.765625 -10.6875 41.140625 C -9.707031 38.515625 -8.96875 35.613281 -8.46875 32.4375 C -7.96875 29.257812 -7.71875 26.046875 -7.71875 22.796875 C -7.71875 19.097656 -8.066406 15.625 -8.765625 12.375 C -9.472656 9.125 -10.535156 6.507812 -11.953125 4.53125 C -13.378906 2.5625 -15.171875 1.578125 -17.328125 1.578125 C -19.078125 1.628906 -20.597656 2.328125 -21.890625 3.671875 C -23.191406 5.023438 -24.28125 6.8125 -25.15625 9.03125 C -26.03125 11.257812 -26.691406 13.734375 -27.140625 16.453125 C -27.597656 19.179688 -27.828125 21.972656 -27.828125 24.828125 C -27.828125 28.328125 -27.488281 31.625 -26.8125 34.71875 C -26.132812 37.820312 -25.144531 40.347656 -23.84375 42.296875 C -22.550781 44.242188 -20.90625 45.21875 -18.90625 45.21875 C -18.550781 45.21875 -18.222656 45.179688 -17.921875 45.109375 C -17.617188 45.035156 -17.320312 45 -17.03125 45 C -16.476562 45 -16.203125 45.300781 -16.203125 45.90625 C -16.203125 46.195312 -16.285156 46.539062 -16.453125 46.9375 C -16.628906 47.34375 -16.894531 47.671875 -17.25 47.921875 C -17.644531 48.273438 -18.253906 48.515625 -19.078125 48.640625 C -19.910156 48.765625 -20.578125 48.828125 -21.078125 48.828125 C -23.828125 48.828125 -26.085938 47.875 -27.859375 45.96875 C -29.640625 44.070312 -30.96875 41.585938 -31.84375 38.515625 C -32.71875 35.441406 -33.15625 32.101562 -33.15625 28.5 Z M -33.15625 28.5 "/></g></g></g></svg>