<svg xmlns="http://www.w3.org/2000/svg" xmlns:xlink="http://www.w3.org/1999/xlink" width="300" zoomAndPan="magnify" viewBox="0 0 224.87999 323.03998" height="420" preserveAspectRatio="xMidYMid meet" version="1.0"><defs><g/><clipPath id="4d2d953fd0"><path d="M 0.273438 0 L 224.488281 0 L 224.488281 313.871094 L 0.273438 313.871094 Z M 0.273438 0 " clip-rule="nonzero"/></clipPath><clipPath id="3d062a4f93"><path d="M 18.328125 0.691406 C 8.425781 0.691406 0.53125 8.710938 0.53125 18.488281 L 0.53125 295.582031 C 0.53125 305.472656 8.527344 313.355469 18.289062 313.378906 L 206.597656 313.378906 C 216.464844 313.355469 224.335938 305.371094 224.359375 295.621094 L 224.359375 18.449219 C 224.335938 8.5625 216.3125 0.691406 206.550781 0.691406 Z M 18.328125 0.691406 " clip-rule="nonzero"/></clipPath><clipPath id="1d9747a837"><path d="M 0.511719 0.480469 L 224.488281 0.480469 L 224.488281 313.46875 L 0.511719 313.46875 Z M 0.511719 0.480469 " clip-rule="nonzero"/></clipPath><clipPath id="42f8bdb72a"><path d="M 18.328125 0.691406 C 8.425781 0.691406 0.53125 8.710938 0.53125 18.488281 L 0.53125 295.582031 C 0.53125 305.472656 8.527344 313.355469 18.289062 313.378906 L 206.597656 313.378906 C 216.464844 313.355469 224.335938 305.371094 224.359375 295.621094 L 224.359375 18.449219 C 224.335938 8.5625 216.3125 0.691406 206.550781 0.691406 Z M 18.328125 0.691406 " clip-rule="nonzero"/></clipPath><clipPath id="0af666e0b4"><rect x="0" width="225" y="0" height="314"/></clipPath><clipPath id="ebbeb46198"><path d="M 0.273438 0 L 224.488281 0 L 224.488281 313.871094 L 0.273438 313.871094 Z M 0.273438 0 " clip-rule="nonzero"/></clipPath><clipPath id="51b91f0b74"><path d="M 206.550781 1.316406 C 215.988281 1.316406 223.71875 8.9375 223.71875 18.488281 L 223.71875 295.582031 C 223.71875 305.019531 216.101562 312.753906 206.550781 312.753906 L 18.328125 312.753906 C 8.890625 312.753906 1.15625 305.132812 1.15625 295.582031 L 1.15625 18.488281 C 1.15625 9.050781 8.777344 1.316406 18.328125 1.316406 Z M 13.527344 0.691406 C 7.183594 2.394531 2.222656 7.394531 0.53125 13.699219 L 0.53125 300.371094 C 2.234375 306.726562 7.234375 311.6875 13.539062 313.367188 L 211.351562 313.367188 C 217.703125 311.664062 222.667969 306.664062 224.347656 300.359375 L 224.347656 13.6875 C 222.65625 7.347656 217.640625 2.382812 211.335938 0.691406 Z M 13.527344 0.691406 " clip-rule="nonzero"/></clipPath><clipPath id="c1a81a6c6c"><path d="M 0.511719 0.480469 L 224.488281 0.480469 L 224.488281 313.46875 L 0.511719 313.46875 Z M 0.511719 0.480469 " clip-rule="nonzero"/></clipPath><clipPath id="6af11d59b3"><path d="M 206.550781 1.316406 C 215.988281 1.316406 223.71875 8.9375 223.71875 18.488281 L 223.71875 295.582031 C 223.71875 305.019531 216.101562 312.753906 206.550781 312.753906 L 18.328125 312.753906 C 8.890625 312.753906 1.15625 305.132812 1.15625 295.582031 L 1.15625 18.488281 C 1.15625 9.050781 8.777344 1.316406 18.328125 1.316406 Z M 13.527344 0.691406 C 7.183594 2.394531 2.222656 7.394531 0.53125 13.699219 L 0.53125 300.371094 C 2.234375 306.726562 7.234375 311.6875 13.539062 313.367188 L 211.351562 313.367188 C 217.703125 311.664062 222.667969 306.664062 224.347656 300.359375 L 224.347656 13.6875 C 222.65625 7.347656 217.640625 2.382812 211.335938 0.691406 Z M 13.527344 0.691406 " clip-rule="nonzero"/></clipPath><clipPath id="d06e489034"><rect x="0" width="225" y="0" height="314"/></clipPath><clipPath id="94cf556eed"><path d="M 45.042969 91.367188 L 170.605469 91.367188 L 170.605469 212 L 45.042969 212 Z M 45.042969 91.367188 " clip-rule="nonzero"/></clipPath><clipPath id="4faf9a20ec"><path d="M 107.925781 91.679688 L 45.261719 211.988281 L 170.578125 211.988281 Z M 107.925781 91.679688 " clip-rule="nonzero"/></clipPath><clipPath id="fc8a73b10d"><path d="M 0.257812 0.648438 L 125.605469 0.648438 L 125.605469 121 L 0.257812 121 Z M 0.257812 0.648438 " clip-rule="nonzero"/></clipPath><clipPath id="e96119972e"><path d="M 62.925781 0.679688 L 0.261719 120.988281 L 125.578125 120.988281 Z M 62.925781 0.679688 " clip-rule="nonzero"/></clipPath><clipPath id="01ec9c711a"><rect x="0" width="126" y="0" height="121"/></clipPath><clipPath id="8659f47ba6"><path d="M 41 86 L 175 86 L 175 215 L 41 215 Z M 41 86 " clip-rule="nonzero"/></clipPath><clipPath id="7dc418013c"><path d="M 110.15625 92.835938 L 47.492188 213.140625 L 45.273438 211.988281 L 45.273438 209.480469 L 170.59375 209.480469 L 170.59375 211.988281 L 168.375 213.140625 L 105.707031 92.835938 L 107.925781 91.679688 L 110.144531 92.835938 M 105.695312 90.515625 L 107.914062 86.242188 L 110.132812 90.515625 L 172.796875 210.820312 L 174.703125 214.480469 L 41.136719 214.480469 L 43.042969 210.820312 L 105.707031 90.515625 Z M 105.695312 90.515625 " clip-rule="nonzero"/></clipPath><clipPath id="45c2eece2d"><path d="M 0 0.144531 L 133.714844 0.144531 L 133.714844 128.640625 L 0 128.640625 Z M 0 0.144531 " clip-rule="nonzero"/></clipPath><clipPath id="2259dcb074"><path d="M 69.15625 6.835938 L 6.492188 127.140625 L 4.273438 125.988281 L 4.273438 123.480469 L 129.59375 123.480469 L 129.59375 125.988281 L 127.375 127.140625 L 64.707031 6.835938 L 66.925781 5.679688 L 69.144531 6.835938 M 64.695312 4.515625 L 66.914062 0.242188 L 69.132812 4.515625 L 131.796875 124.820312 L 133.703125 128.480469 L 0.136719 128.480469 L 2.042969 124.820312 L 64.707031 4.515625 Z M 64.695312 4.515625 " clip-rule="nonzero"/></clipPath><clipPath id="6c1d1487ee"><rect x="0" width="134" y="0" height="129"/></clipPath><clipPath id="785d41ac01"><path d="M 10 52 L 41 52 L 41 82 L 10 82 Z M 10 52 " clip-rule="nonzero"/></clipPath><clipPath id="b0c3b789b4"><path d="M 25.558594 52.515625 L 10.332031 81.753906 L 40.785156 81.753906 Z M 25.558594 52.515625 " clip-rule="nonzero"/></clipPath><clipPath id="d81de46bb3"><path d="M 0.324219 0.402344 L 30.953125 0.402344 L 30.953125 29.835938 L 0.324219 29.835938 Z M 0.324219 0.402344 " clip-rule="nonzero"/></clipPath><clipPath id="e636c6b39d"><path d="M 15.558594 0.515625 L 0.332031 29.753906 L 30.785156 29.753906 Z M 15.558594 0.515625 " clip-rule="nonzero"/></clipPath><clipPath id="482ca2f466"><rect x="0" width="31" y="0" height="30"/></clipPath><clipPath id="46177abeda"><path d="M 7.1875 49 L 44 49 L 44 83.980469 L 7.1875 83.980469 Z M 7.1875 49 " clip-rule="nonzero"/></clipPath><clipPath id="12321f2ccb"><path d="M 26.910156 53.21875 L 11.683594 82.457031 L 10.332031 81.753906 L 10.332031 80.226562 L 40.785156 80.226562 L 40.785156 81.753906 L 39.433594 82.457031 L 24.203125 53.21875 L 25.558594 52.515625 L 26.910156 53.21875 M 24.203125 51.8125 L 25.558594 49.21875 L 26.910156 51.8125 L 42.140625 81.039062 L 43.304688 83.273438 L 7.835938 83.273438 L 9.003906 81.039062 L 24.203125 51.800781 Z M 24.203125 51.8125 " clip-rule="nonzero"/></clipPath><clipPath id="e49cccdb77"><path d="M 0.691406 0.0546875 L 36.34375 0.0546875 L 36.34375 34.273438 L 0.691406 34.273438 Z M 0.691406 0.0546875 " clip-rule="nonzero"/></clipPath><clipPath id="54ec4ccf96"><path d="M 19.910156 4.21875 L 4.683594 33.457031 L 3.332031 32.753906 L 3.332031 31.226562 L 33.785156 31.226562 L 33.785156 32.753906 L 32.433594 33.457031 L 17.203125 4.21875 L 18.558594 3.515625 L 19.910156 4.21875 M 17.203125 2.8125 L 18.558594 0.21875 L 19.910156 2.8125 L 35.140625 32.039062 L 36.304688 34.273438 L 0.835938 34.273438 L 2.003906 32.039062 L 17.203125 2.800781 Z M 17.203125 2.8125 " clip-rule="nonzero"/></clipPath><clipPath id="39bc570776"><rect x="0" width="37" y="0" height="35"/></clipPath><clipPath id="6db4dfb6cb"><path d="M 178 231.699219 L 209 231.699219 L 209 261.246094 L 178 261.246094 Z M 178 231.699219 " clip-rule="nonzero"/></clipPath><clipPath id="ba18feac63"><path d="M 193.339844 261.117188 L 208.566406 231.878906 L 178.113281 231.878906 Z M 193.339844 261.117188 " clip-rule="nonzero"/></clipPath><clipPath id="9a63e21cc4"><path d="M 0.0664062 0.871094 L 30.695312 0.871094 L 30.695312 30.246094 L 0.0664062 30.246094 Z M 0.0664062 0.871094 " clip-rule="nonzero"/></clipPath><clipPath id="4cf1510a3a"><path d="M 15.339844 30.117188 L 30.566406 0.878906 L 0.113281 0.878906 Z M 15.339844 30.117188 " clip-rule="nonzero"/></clipPath><clipPath id="401e191087"><rect x="0" width="31" y="0" height="31"/></clipPath><clipPath id="9cc6f22f80"><path d="M 175.222656 230 L 211.226562 230 L 211.226562 264.9375 L 175.222656 264.9375 Z M 175.222656 230 " clip-rule="nonzero"/></clipPath><clipPath id="f67c32f8d9"><path d="M 191.984375 260.402344 L 207.214844 231.164062 L 208.566406 231.863281 L 208.566406 233.394531 L 178.113281 233.394531 L 178.113281 231.863281 L 179.464844 231.164062 L 194.691406 260.402344 L 193.339844 261.105469 L 191.984375 260.402344 M 194.691406 261.804688 L 193.339844 264.402344 L 191.984375 261.804688 L 176.757812 232.566406 L 175.59375 230.335938 L 211.0625 230.335938 L 209.894531 232.566406 L 194.667969 261.804688 Z M 194.691406 261.804688 " clip-rule="nonzero"/></clipPath><clipPath id="75f474fad8"><path d="M 0.433594 0.195312 L 36.085938 0.195312 L 36.085938 34.414062 L 0.433594 34.414062 Z M 0.433594 0.195312 " clip-rule="nonzero"/></clipPath><clipPath id="a3c4b3bb7c"><path d="M 16.984375 30.402344 L 32.214844 1.164062 L 33.566406 1.863281 L 33.566406 3.394531 L 3.113281 3.394531 L 3.113281 1.863281 L 4.464844 1.164062 L 19.691406 30.402344 L 18.339844 31.105469 L 16.984375 30.402344 M 19.691406 31.804688 L 18.339844 34.402344 L 16.984375 31.804688 L 1.757812 2.566406 L 0.59375 0.335938 L 36.0625 0.335938 L 34.894531 2.566406 L 19.667969 31.804688 Z M 19.691406 31.804688 " clip-rule="nonzero"/></clipPath><clipPath id="3fcd463530"><rect x="0" width="37" y="0" height="35"/></clipPath><clipPath id="bd876cd39b"><rect x="0" width="27" y="0" height="56"/></clipPath><clipPath id="ee0d95ccf5"><rect x="0" width="26" y="0" height="56"/></clipPath></defs><g clip-path="url(#4d2d953fd0)"><g clip-path="url(#3d062a4f93)"><g transform="matrix(1, 0, 0, 1, 0, 0)"><g clip-path="url(#0af666e0b4)"><g clip-path="url(#1d9747a837)"><g clip-path="url(#42f8bdb72a)"><rect x="-49.473598" width="323.827186" fill="#f5f5f2" height="465.177571" y="-71.068796" fill-opacity="1"/></g></g></g></g></g></g><g clip-path="url(#ebbeb46198)"><g clip-path="url(#51b91f0b74)"><g transform="matrix(1, 0, 0, 1, 0, 0)"><g clip-path="url(#d06e489034)"><g clip-path="url(#c1a81a6c6c)"><g clip-path="url(#6af11d59b3)"><rect x="-49.473598" width="323.827186" fill="#000000" height="465.177571" y="-71.068796" fill-opacity="1"/></g></g></g></g></g></g><g clip-path="url(#94cf556eed)"><g clip-path="url(#4faf9a20ec)"><g transform="matrix(1, 0, 0, 1, 45, 91)"><g clip-path="url(#01ec9c711a)"><g clip-path="url(#fc8a73b10d)"><g clip-path="url(#e96119972e)"><rect x="-94.473598" width="323.827186" fill="#780f26" height="465.177571" y="-162.068796" fill-opacity="1"/></g></g></g></g></g></g><g clip-path="url(#8659f47ba6)"><g clip-path="url(#7dc418013c)"><g transform="matrix(1, 0, 0, 1, 41, 86)"><g clip-path="url(#6c1d1487ee)"><g clip-path="url(#45c2eece2d)"><g clip-path="url(#2259dcb074)"><rect x="-90.473598" width="323.827186" fill="#780f26" height="465.177571" y="-157.068796" fill-opacity="1"/></g></g></g></g></g></g><g clip-path="url(#785d41ac01)"><g clip-path="url(#b0c3b789b4)"><g transform="matrix(1, 0, 0, 1, 10, 52)"><g clip-path="url(#482ca2f466)"><g clip-path="url(#d81de46bb3)"><g clip-path="url(#e636c6b39d)"><rect x="-59.473598" width="323.827186" fill="#780f26" height="465.177571" y="-123.068796" fill-opacity="1"/></g></g></g></g></g></g><g clip-path="url(#46177abeda)"><g clip-path="url(#12321f2ccb)"><g transform="matrix(1, 0, 0, 1, 7, 49)"><g clip-path="url(#39bc570776)"><g clip-path="url(#e49cccdb77)"><g clip-path="url(#54ec4ccf96)"><rect x="-56.473598" width="323.827186" fill="#780f26" height="465.177571" y="-120.068796" fill-opacity="1"/></g></g></g></g></g></g><g clip-path="url(#6db4dfb6cb)"><g clip-path="url(#ba18feac63)"><g transform="matrix(1, 0, 0, 1, 178, 231)"><g clip-path="url(#401e191087)"><g clip-path="url(#9a63e21cc4)"><g clip-path="url(#4cf1510a3a)"><rect x="-227.473598" width="323.827186" fill="#780f26" height="465.177571" y="-302.068796" fill-opacity="1"/></g></g></g></g></g></g><g clip-path="url(#9cc6f22f80)"><g clip-path="url(#f67c32f8d9)"><g transform="matrix(1, 0, 0, 1, 175, 230)"><g clip-path="url(#3fcd463530)"><g clip-path="url(#75f474fad8)"><g clip-path="url(#a3c4b3bb7c)"><rect x="-224.473598" width="323.827186" fill="#780f26" height="465.177571" y="-301.068796" fill-opacity="1"/></g></g></g></g></g></g><g transform="matrix(1, 0, 0, 1, 13, 9)"><g clip-path="url(#bd876cd39b)"><g fill="#791026" fill-opacity="1"><g transform="translate(0.976719, 39.446238)"><g><path d="M 20.25 -30.28125 L 7.8125 -30.28125 L 6.625 -26.265625 C 11.832031 -25.867188 15.820312 -24.476562 18.59375 -22.09375 C 21.363281 -19.707031 22.75 -16.519531 22.75 -12.53125 C 22.75 -10.039062 22.175781 -7.789062 21.03125 -5.78125 C 19.894531 -3.769531 18.320312 -2.191406 16.3125 -1.046875 C 14.300781 0.0859375 12.046875 0.65625 9.546875 0.65625 C 7.410156 0.65625 5.632812 0.222656 4.21875 -0.640625 C 2.8125 -1.515625 2.109375 -2.585938 2.109375 -3.859375 C 2.109375 -4.578125 2.351562 -5.207031 2.84375 -5.75 C 3.332031 -6.289062 3.921875 -6.5625 4.609375 -6.5625 C 5.265625 -6.5625 5.863281 -6.398438 6.40625 -6.078125 C 6.945312 -5.753906 7.648438 -5.226562 8.515625 -4.5 C 9.421875 -3.738281 10.207031 -3.160156 10.875 -2.765625 C 11.550781 -2.367188 12.304688 -2.171875 13.140625 -2.171875 C 14.660156 -2.171875 15.960938 -2.703125 17.046875 -3.765625 C 18.128906 -4.835938 18.671875 -6.148438 18.671875 -7.703125 C 18.671875 -9.191406 18.226562 -10.785156 17.34375 -12.484375 C 16.457031 -14.179688 14.816406 -15.671875 12.421875 -16.953125 C 10.035156 -18.242188 6.765625 -18.890625 2.609375 -18.890625 L 2.171875 -18.890625 L 7.8125 -37.015625 L 22.90625 -37.015625 Z M 20.25 -30.28125 "/></g></g></g></g></g><g transform="matrix(1, 0, 0, 1, 183, 254)"><g clip-path="url(#ee0d95ccf5)"><g fill="#791026" fill-opacity="1"><g transform="translate(25.556427, 16.554998)"><g><path d="M -20.25 30.28125 L -7.8125 30.28125 L -6.625 26.265625 C -11.832031 25.867188 -15.820312 24.476562 -18.59375 22.09375 C -21.363281 19.707031 -22.75 16.519531 -22.75 12.53125 C -22.75 10.039062 -22.175781 7.789062 -21.03125 5.78125 C -19.894531 3.769531 -18.320312 2.191406 -16.3125 1.046875 C -14.300781 -0.0859375 -12.046875 -0.65625 -9.546875 -0.65625 C -7.410156 -0.65625 -5.632812 -0.222656 -4.21875 0.640625 C -2.8125 1.515625 -2.109375 2.585938 -2.109375 3.859375 C -2.109375 4.578125 -2.351562 5.207031 -2.84375 5.75 C -3.332031 6.289062 -3.921875 6.5625 -4.609375 6.5625 C -5.265625 6.5625 -5.863281 6.398438 -6.40625 6.078125 C -6.945312 5.753906 -7.648438 5.226562 -8.515625 4.5 C -9.421875 3.738281 -10.207031 3.160156 -10.875 2.765625 C -11.550781 2.367188 -12.304688 2.171875 -13.140625 2.171875 C -14.660156 2.171875 -15.960938 2.703125 -17.046875 3.765625 C -18.128906 4.835938 -18.671875 6.148438 -18.671875 7.703125 C -18.671875 9.191406 -18.226562 10.785156 -17.34375 12.484375 C -16.457031 14.179688 -14.816406 15.671875 -12.421875 16.953125 C -10.035156 18.242188 -6.765625 18.890625 -2.609375 18.890625 L -2.171875 18.890625 L -7.8125 37.015625 L -22.90625 37.015625 Z M -20.25 30.28125 "/></g></g></g></g></g></svg>