<svg xmlns="http://www.w3.org/2000/svg" xmlns:xlink="http://www.w3.org/1999/xlink" width="300" zoomAndPan="magnify" viewBox="0 0 224.87999 323.03998" height="420" preserveAspectRatio="xMidYMid meet" version="1.0"><defs><g/><clipPath id="9ee939c8ef"><path d="M 0.273438 0 L 224.488281 0 L 224.488281 313.871094 L 0.273438 313.871094 Z M 0.273438 0 " clip-rule="nonzero"/></clipPath><clipPath id="7dc32f85c5"><path d="M 18.328125 0.691406 C 8.425781 0.691406 0.53125 8.710938 0.53125 18.488281 L 0.53125 295.582031 C 0.53125 305.472656 8.527344 313.355469 18.289062 313.378906 L 206.597656 313.378906 C 216.464844 313.355469 224.335938 305.371094 224.359375 295.621094 L 224.359375 18.449219 C 224.335938 8.5625 216.3125 0.691406 206.550781 0.691406 Z M 18.328125 0.691406 " clip-rule="nonzero"/></clipPath><clipPath id="e88c821ffa"><path d="M 0.511719 0.480469 L 224.488281 0.480469 L 224.488281 313.46875 L 0.511719 313.46875 Z M 0.511719 0.480469 " clip-rule="nonzero"/></clipPath><clipPath id="173b1422a8"><path d="M 18.328125 0.691406 C 8.425781 0.691406 0.53125 8.710938 0.53125 18.488281 L 0.53125 295.582031 C 0.53125 305.472656 8.527344 313.355469 18.289062 313.378906 L 206.597656 313.378906 C 216.464844 313.355469 224.335938 305.371094 224.359375 295.621094 L 224.359375 18.449219 C 224.335938 8.5625 216.3125 0.691406 206.550781 0.691406 Z M 18.328125 0.691406 " clip-rule="nonzero"/></clipPath><clipPath id="dd0a2e1958"><rect x="0" width="225" y="0" height="314"/></clipPath><clipPath id="8628185d2e"><path d="M 0.273438 0 L 224.488281 0 L 224.488281 313.871094 L 0.273438 313.871094 Z M 0.273438 0 " clip-rule="nonzero"/></clipPath><clipPath id="f736465935"><path d="M 206.550781 1.316406 C 215.988281 1.316406 223.71875 8.9375 223.71875 18.488281 L 223.71875 295.582031 C 223.71875 305.019531 216.101562 312.753906 206.550781 312.753906 L 18.328125 312.753906 C 8.890625 312.753906 1.15625 305.132812 1.15625 295.582031 L 1.15625 18.488281 C 1.15625 9.050781 8.777344 1.316406 18.328125 1.316406 Z M 13.527344 0.691406 C 7.183594 2.394531 2.222656 7.394531 0.53125 13.699219 L 0.53125 300.371094 C 2.234375 306.726562 7.234375 311.6875 13.539062 313.367188 L 211.351562 313.367188 C 217.703125 311.664062 222.667969 306.664062 224.347656 300.359375 L 224.347656 13.6875 C 222.65625 7.347656 217.640625 2.382812 211.335938 0.691406 Z M 13.527344 0.691406 " clip-rule="nonzero"/></clipPath><clipPath id="e900dfa0ac"><path d="M 0.511719 0.480469 L 224.488281 0.480469 L 224.488281 313.46875 L 0.511719 313.46875 Z M 0.511719 0.480469 " clip-rule="nonzero"/></clipPath><clipPath id="0ca7837bc7"><path d="M 206.550781 1.316406 C 215.988281 1.316406 223.71875 8.9375 223.71875 18.488281 L 223.71875 295.582031 C 223.71875 305.019531 216.101562 312.753906 206.550781 312.753906 L 18.328125 312.753906 C 8.890625 312.753906 1.15625 305.132812 1.15625 295.582031 L 1.15625 18.488281 C 1.15625 9.050781 8.777344 1.316406 18.328125 1.316406 Z M 13.527344 0.691406 C 7.183594 2.394531 2.222656 7.394531 0.53125 13.699219 L 0.53125 300.371094 C 2.234375 306.726562 7.234375 311.6875 13.539062 313.367188 L 211.351562 313.367188 C 217.703125 311.664062 222.667969 306.664062 224.347656 300.359375 L 224.347656 13.6875 C 222.65625 7.347656 217.640625 2.382812 211.335938 0.691406 Z M 13.527344 0.691406 " clip-rule="nonzero"/></clipPath><clipPath id="55b547270a"><rect x="0" width="225" y="0" height="314"/></clipPath><clipPath id="2508c1a297"><path d="M 45.042969 91.367188 L 170.605469 91.367188 L 170.605469 212 L 45.042969 212 Z M 45.042969 91.367188 " clip-rule="nonzero"/></clipPath><clipPath id="aef680c3c8"><path d="M 107.925781 91.679688 L 45.261719 211.988281 L 170.578125 211.988281 Z M 107.925781 91.679688 " clip-rule="nonzero"/></clipPath><clipPath id="600b4c7db5"><path d="M 0.257812 0.648438 L 125.605469 0.648438 L 125.605469 121 L 0.257812 121 Z M 0.257812 0.648438 " clip-rule="nonzero"/></clipPath><clipPath id="b01f8a9937"><path d="M 62.925781 0.679688 L 0.261719 120.988281 L 125.578125 120.988281 Z M 62.925781 0.679688 " clip-rule="nonzero"/></clipPath><clipPath id="df92b09cdd"><rect x="0" width="126" y="0" height="121"/></clipPath><clipPath id="d2f0ddae76"><path d="M 41 86 L 175 86 L 175 215 L 41 215 Z M 41 86 " clip-rule="nonzero"/></clipPath><clipPath id="b041f1b3fa"><path d="M 110.15625 92.835938 L 47.492188 213.140625 L 45.273438 211.988281 L 45.273438 209.480469 L 170.59375 209.480469 L 170.59375 211.988281 L 168.375 213.140625 L 105.707031 92.835938 L 107.925781 91.679688 L 110.144531 92.835938 M 105.695312 90.515625 L 107.914062 86.242188 L 110.132812 90.515625 L 172.796875 210.820312 L 174.703125 214.480469 L 41.136719 214.480469 L 43.042969 210.820312 L 105.707031 90.515625 Z M 105.695312 90.515625 " clip-rule="nonzero"/></clipPath><clipPath id="7d1746672c"><path d="M 0 0.144531 L 133.714844 0.144531 L 133.714844 128.640625 L 0 128.640625 Z M 0 0.144531 " clip-rule="nonzero"/></clipPath><clipPath id="5f87ac58da"><path d="M 69.15625 6.835938 L 6.492188 127.140625 L 4.273438 125.988281 L 4.273438 123.480469 L 129.59375 123.480469 L 129.59375 125.988281 L 127.375 127.140625 L 64.707031 6.835938 L 66.925781 5.679688 L 69.144531 6.835938 M 64.695312 4.515625 L 66.914062 0.242188 L 69.132812 4.515625 L 131.796875 124.820312 L 133.703125 128.480469 L 0.136719 128.480469 L 2.042969 124.820312 L 64.707031 4.515625 Z M 64.695312 4.515625 " clip-rule="nonzero"/></clipPath><clipPath id="3baa21ab68"><rect x="0" width="134" y="0" height="129"/></clipPath><clipPath id="d39c4c3f22"><path d="M 10 52 L 41 52 L 41 82 L 10 82 Z M 10 52 " clip-rule="nonzero"/></clipPath><clipPath id="4fbd06136a"><path d="M 25.558594 52.515625 L 10.332031 81.753906 L 40.785156 81.753906 Z M 25.558594 52.515625 " clip-rule="nonzero"/></clipPath><clipPath id="a8e48b4d33"><path d="M 0.324219 0.402344 L 30.953125 0.402344 L 30.953125 29.835938 L 0.324219 29.835938 Z M 0.324219 0.402344 " clip-rule="nonzero"/></clipPath><clipPath id="1c3117f538"><path d="M 15.558594 0.515625 L 0.332031 29.753906 L 30.785156 29.753906 Z M 15.558594 0.515625 " clip-rule="nonzero"/></clipPath><clipPath id="652a2440f7"><rect x="0" width="31" y="0" height="30"/></clipPath><clipPath id="ed07478137"><path d="M 7.1875 49 L 44 49 L 44 83.980469 L 7.1875 83.980469 Z M 7.1875 49 " clip-rule="nonzero"/></clipPath><clipPath id="437a29aa25"><path d="M 26.910156 53.21875 L 11.683594 82.457031 L 10.332031 81.753906 L 10.332031 80.226562 L 40.785156 80.226562 L 40.785156 81.753906 L 39.433594 82.457031 L 24.203125 53.21875 L 25.558594 52.515625 L 26.910156 53.21875 M 24.203125 51.8125 L 25.558594 49.21875 L 26.910156 51.8125 L 42.140625 81.039062 L 43.304688 83.273438 L 7.835938 83.273438 L 9.003906 81.039062 L 24.203125 51.800781 Z M 24.203125 51.8125 " clip-rule="nonzero"/></clipPath><clipPath id="c988bb60e0"><path d="M 0.691406 0.0546875 L 36.34375 0.0546875 L 36.34375 34.273438 L 0.691406 34.273438 Z M 0.691406 0.0546875 " clip-rule="nonzero"/></clipPath><clipPath id="2ccb257e65"><path d="M 19.910156 4.21875 L 4.683594 33.457031 L 3.332031 32.753906 L 3.332031 31.226562 L 33.785156 31.226562 L 33.785156 32.753906 L 32.433594 33.457031 L 17.203125 4.21875 L 18.558594 3.515625 L 19.910156 4.21875 M 17.203125 2.8125 L 18.558594 0.21875 L 19.910156 2.8125 L 35.140625 32.039062 L 36.304688 34.273438 L 0.835938 34.273438 L 2.003906 32.039062 L 17.203125 2.800781 Z M 17.203125 2.8125 " clip-rule="nonzero"/></clipPath><clipPath id="aac195a985"><rect x="0" width="37" y="0" height="35"/></clipPath><clipPath id="d50cb5e280"><path d="M 178 231.699219 L 209 231.699219 L 209 261.246094 L 178 261.246094 Z M 178 231.699219 " clip-rule="nonzero"/></clipPath><clipPath id="96f3728a7b"><path d="M 193.339844 261.117188 L 208.566406 231.878906 L 178.113281 231.878906 Z M 193.339844 261.117188 " clip-rule="nonzero"/></clipPath><clipPath id="3109823d87"><path d="M 0.0664062 0.871094 L 30.695312 0.871094 L 30.695312 30.246094 L 0.0664062 30.246094 Z M 0.0664062 0.871094 " clip-rule="nonzero"/></clipPath><clipPath id="90c3815999"><path d="M 15.339844 30.117188 L 30.566406 0.878906 L 0.113281 0.878906 Z M 15.339844 30.117188 " clip-rule="nonzero"/></clipPath><clipPath id="24b1922fd9"><rect x="0" width="31" y="0" height="31"/></clipPath><clipPath id="1b1c5396f0"><path d="M 175.222656 230 L 211.226562 230 L 211.226562 264.9375 L 175.222656 264.9375 Z M 175.222656 230 " clip-rule="nonzero"/></clipPath><clipPath id="68137a3675"><path d="M 191.984375 260.402344 L 207.214844 231.164062 L 208.566406 231.863281 L 208.566406 233.394531 L 178.113281 233.394531 L 178.113281 231.863281 L 179.464844 231.164062 L 194.691406 260.402344 L 193.339844 261.105469 L 191.984375 260.402344 M 194.691406 261.804688 L 193.339844 264.402344 L 191.984375 261.804688 L 176.757812 232.566406 L 175.59375 230.335938 L 211.0625 230.335938 L 209.894531 232.566406 L 194.667969 261.804688 Z M 194.691406 261.804688 " clip-rule="nonzero"/></clipPath><clipPath id="13fbe4fce5"><path d="M 0.433594 0.195312 L 36.085938 0.195312 L 36.085938 34.414062 L 0.433594 34.414062 Z M 0.433594 0.195312 " clip-rule="nonzero"/></clipPath><clipPath id="9f68219b8e"><path d="M 16.984375 30.402344 L 32.214844 1.164062 L 33.566406 1.863281 L 33.566406 3.394531 L 3.113281 3.394531 L 3.113281 1.863281 L 4.464844 1.164062 L 19.691406 30.402344 L 18.339844 31.105469 L 16.984375 30.402344 M 19.691406 31.804688 L 18.339844 34.402344 L 16.984375 31.804688 L 1.757812 2.566406 L 0.59375 0.335938 L 36.0625 0.335938 L 34.894531 2.566406 L 19.667969 31.804688 Z M 19.691406 31.804688 " clip-rule="nonzero"/></clipPath><clipPath id="edaecb6ece"><rect x="0" width="37" y="0" height="35"/></clipPath><clipPath id="a3bd508641"><path d="M 0.273438 9 L 52 9 L 52 65 L 0.273438 65 Z M 0.273438 9 " clip-rule="nonzero"/></clipPath><clipPath id="430af90791"><rect x="0" width="52" y="0" height="56"/></clipPath><clipPath id="dd6c3b7810"><rect x="0" width="51" y="0" height="56"/></clipPath></defs><g clip-path="url(#9ee939c8ef)"><g clip-path="url(#7dc32f85c5)"><g transform="matrix(1, 0, 0, 1, 0, 0)"><g clip-path="url(#dd0a2e1958)"><g clip-path="url(#e88c821ffa)"><g clip-path="url(#173b1422a8)"><rect x="-49.473598" width="323.827186" fill="#f5f5f2" height="465.177571" y="-71.068796" fill-opacity="1"/></g></g></g></g></g></g><g clip-path="url(#8628185d2e)"><g clip-path="url(#f736465935)"><g transform="matrix(1, 0, 0, 1, 0, 0)"><g clip-path="url(#55b547270a)"><g clip-path="url(#e900dfa0ac)"><g clip-path="url(#0ca7837bc7)"><rect x="-49.473598" width="323.827186" fill="#000000" height="465.177571" y="-71.068796" fill-opacity="1"/></g></g></g></g></g></g><g clip-path="url(#2508c1a297)"><g clip-path="url(#aef680c3c8)"><g transform="matrix(1, 0, 0, 1, 45, 91)"><g clip-path="url(#df92b09cdd)"><g clip-path="url(#600b4c7db5)"><g clip-path="url(#b01f8a9937)"><rect x="-94.473598" width="323.827186" fill="#780f26" height="465.177571" y="-162.068796" fill-opacity="1"/></g></g></g></g></g></g><g clip-path="url(#d2f0ddae76)"><g clip-path="url(#b041f1b3fa)"><g transform="matrix(1, 0, 0, 1, 41, 86)"><g clip-path="url(#3baa21ab68)"><g clip-path="url(#7d1746672c)"><g clip-path="url(#5f87ac58da)"><rect x="-90.473598" width="323.827186" fill="#780f26" height="465.177571" y="-157.068796" fill-opacity="1"/></g></g></g></g></g></g><g clip-path="url(#d39c4c3f22)"><g clip-path="url(#4fbd06136a)"><g transform="matrix(1, 0, 0, 1, 10, 52)"><g clip-path="url(#652a2440f7)"><g clip-path="url(#a8e48b4d33)"><g clip-path="url(#1c3117f538)"><rect x="-59.473598" width="323.827186" fill="#780f26" height="465.177571" y="-123.068796" fill-opacity="1"/></g></g></g></g></g></g><g clip-path="url(#ed07478137)"><g clip-path="url(#437a29aa25)"><g transform="matrix(1, 0, 0, 1, 7, 49)"><g clip-path="url(#aac195a985)"><g clip-path="url(#c988bb60e0)"><g clip-path="url(#2ccb257e65)"><rect x="-56.473598" width="323.827186" fill="#780f26" height="465.177571" y="-120.068796" fill-opacity="1"/></g></g></g></g></g></g><g clip-path="url(#d50cb5e280)"><g clip-path="url(#96f3728a7b)"><g transform="matrix(1, 0, 0, 1, 178, 231)"><g clip-path="url(#24b1922fd9)"><g clip-path="url(#3109823d87)"><g clip-path="url(#90c3815999)"><rect x="-227.473598" width="323.827186" fill="#780f26" height="465.177571" y="-302.068796" fill-opacity="1"/></g></g></g></g></g></g><g clip-path="url(#1b1c5396f0)"><g clip-path="url(#68137a3675)"><g transform="matrix(1, 0, 0, 1, 175, 230)"><g clip-path="url(#edaecb6ece)"><g clip-path="url(#13fbe4fce5)"><g clip-path="url(#9f68219b8e)"><rect x="-224.473598" width="323.827186" fill="#780f26" height="465.177571" y="-301.068796" fill-opacity="1"/></g></g></g></g></g></g><g clip-path="url(#a3bd508641)"><g transform="matrix(1, 0, 0, 1, -0.000000000000000111, 9)"><g clip-path="url(#430af90791)"><g fill="#791026" fill-opacity="1"><g transform="translate(1.831194, 39.446331)"><g><path d="M 16.34375 -37.609375 L 16.34375 -5.3125 C 16.34375 -3.65625 16.640625 -2.519531 17.234375 -1.90625 C 17.828125 -1.289062 18.671875 -0.984375 19.765625 -0.984375 L 21.21875 -0.984375 L 21.21875 0 L 3.046875 0 L 3.046875 -0.984375 L 4.453125 -0.984375 C 5.859375 -0.984375 6.882812 -1.257812 7.53125 -1.8125 C 8.1875 -2.375 8.515625 -3.5625 8.515625 -5.375 L 8.515625 -25.671875 C 8.515625 -27.953125 8.304688 -29.515625 7.890625 -30.359375 C 7.484375 -31.210938 6.71875 -31.640625 5.59375 -31.640625 C 4.9375 -31.640625 3.882812 -31.40625 2.4375 -30.9375 L 2.109375 -31.859375 L 15.359375 -37.609375 Z M 16.34375 -37.609375 "/></g></g></g><g fill="#791026" fill-opacity="1"><g transform="translate(26.14205, 39.446331)"><g><path d="M 16.34375 -37.609375 L 16.34375 -5.3125 C 16.34375 -3.65625 16.640625 -2.519531 17.234375 -1.90625 C 17.828125 -1.289062 18.671875 -0.984375 19.765625 -0.984375 L 21.21875 -0.984375 L 21.21875 0 L 3.046875 0 L 3.046875 -0.984375 L 4.453125 -0.984375 C 5.859375 -0.984375 6.882812 -1.257812 7.53125 -1.8125 C 8.1875 -2.375 8.515625 -3.5625 8.515625 -5.375 L 8.515625 -25.671875 C 8.515625 -27.953125 8.304688 -29.515625 7.890625 -30.359375 C 7.484375 -31.210938 6.71875 -31.640625 5.59375 -31.640625 C 4.9375 -31.640625 3.882812 -31.40625 2.4375 -30.9375 L 2.109375 -31.859375 L 15.359375 -37.609375 Z M 16.34375 -37.609375 "/></g></g></g></g></g></g><g transform="matrix(1, 0, 0, 1, 171, 254)"><g clip-path="url(#dd6c3b7810)"><g fill="#791026" fill-opacity="1"><g transform="translate(49.701952, 16.555058)"><g><path d="M -16.34375 37.609375 L -16.34375 5.3125 C -16.34375 3.65625 -16.640625 2.519531 -17.234375 1.90625 C -17.828125 1.289062 -18.671875 0.984375 -19.765625 0.984375 L -21.21875 0.984375 L -21.21875 0 L -3.046875 0 L -3.046875 0.984375 L -4.453125 0.984375 C -5.859375 0.984375 -6.882812 1.257812 -7.53125 1.8125 C -8.1875 2.375 -8.515625 3.5625 -8.515625 5.375 L -8.515625 25.671875 C -8.515625 27.953125 -8.304688 29.515625 -7.890625 30.359375 C -7.484375 31.210938 -6.71875 31.640625 -5.59375 31.640625 C -4.9375 31.640625 -3.882812 31.40625 -2.4375 30.9375 L -2.109375 31.859375 L -15.359375 37.609375 Z M -16.34375 37.609375 "/></g></g></g><g fill="#791026" fill-opacity="1"><g transform="translate(25.391096, 16.555058)"><g><path d="M -16.34375 37.609375 L -16.34375 5.3125 C -16.34375 3.65625 -16.640625 2.519531 -17.234375 1.90625 C -17.828125 1.289062 -18.671875 0.984375 -19.765625 0.984375 L -21.21875 0.984375 L -21.21875 0 L -3.046875 0 L -3.046875 0.984375 L -4.453125 0.984375 C -5.859375 0.984375 -6.882812 1.257812 -7.53125 1.8125 C -8.1875 2.375 -8.515625 3.5625 -8.515625 5.375 L -8.515625 25.671875 C -8.515625 27.953125 -8.304688 29.515625 -7.890625 30.359375 C -7.484375 31.210938 -6.71875 31.640625 -5.59375 31.640625 C -4.9375 31.640625 -3.882812 31.40625 -2.4375 30.9375 L -2.109375 31.859375 L -15.359375 37.609375 Z M -16.34375 37.609375 "/></g></g></g></g></g></svg>