<svg xmlns="http://www.w3.org/2000/svg" xmlns:xlink="http://www.w3.org/1999/xlink" width="300" zoomAndPan="magnify" viewBox="0 0 224.87999 323.03998" height="420" preserveAspectRatio="xMidYMid meet" version="1.0"><defs><g/><clipPath id="e7f3c2e67d"><path d="M 0.273438 0 L 224.488281 0 L 224.488281 313.871094 L 0.273438 313.871094 Z M 0.273438 0 " clip-rule="nonzero"/></clipPath><clipPath id="838777cc75"><path d="M 18.289062 0.691406 C 8.402344 0.714844 0.53125 8.722656 0.53125 18.488281 L 0.53125 295.582031 C 0.53125 305.484375 8.550781 313.378906 18.328125 313.378906 L 206.550781 313.378906 C 216.4375 313.378906 224.335938 305.371094 224.347656 295.609375 L 224.347656 18.460938 C 224.335938 8.585938 216.335938 0.714844 206.585938 0.691406 Z M 18.289062 0.691406 " clip-rule="nonzero"/></clipPath><clipPath id="4a00c76c4c"><path d="M 0.511719 0.480469 L 224.488281 0.480469 L 224.488281 313.46875 L 0.511719 313.46875 Z M 0.511719 0.480469 " clip-rule="nonzero"/></clipPath><clipPath id="64209f6eaf"><path d="M 18.289062 0.691406 C 8.402344 0.714844 0.53125 8.722656 0.53125 18.488281 L 0.53125 295.582031 C 0.53125 305.484375 8.550781 313.378906 18.328125 313.378906 L 206.550781 313.378906 C 216.4375 313.378906 224.335938 305.371094 224.347656 295.609375 L 224.347656 18.460938 C 224.335938 8.585938 216.335938 0.714844 206.585938 0.691406 Z M 18.289062 0.691406 " clip-rule="nonzero"/></clipPath><clipPath id="38e2ea04e8"><rect x="0" width="225" y="0" height="314"/></clipPath><clipPath id="97b9b10d16"><path d="M 0.273438 0 L 224.488281 0 L 224.488281 313.871094 L 0.273438 313.871094 Z M 0.273438 0 " clip-rule="nonzero"/></clipPath><clipPath id="a7d0f91a3e"><path d="M 206.550781 1.316406 C 215.988281 1.316406 223.71875 8.9375 223.71875 18.488281 L 223.71875 295.582031 C 223.71875 305.019531 216.101562 312.753906 206.550781 312.753906 L 18.328125 312.753906 C 8.890625 312.753906 1.15625 305.132812 1.15625 295.582031 L 1.15625 18.488281 C 1.15625 9.050781 8.777344 1.316406 18.328125 1.316406 Z M 13.527344 0.691406 C 7.171875 2.394531 2.222656 7.394531 0.53125 13.699219 L 0.53125 300.371094 C 2.234375 306.726562 7.234375 311.6875 13.539062 313.367188 L 211.351562 313.367188 C 217.703125 311.664062 222.667969 306.664062 224.347656 300.359375 L 224.347656 13.6875 C 222.65625 7.347656 217.640625 2.382812 211.335938 0.691406 Z M 13.527344 0.691406 " clip-rule="nonzero"/></clipPath><clipPath id="68a4fafc72"><path d="M 0.511719 0.480469 L 224.488281 0.480469 L 224.488281 313.46875 L 0.511719 313.46875 Z M 0.511719 0.480469 " clip-rule="nonzero"/></clipPath><clipPath id="10c2248dc5"><path d="M 206.550781 1.316406 C 215.988281 1.316406 223.71875 8.9375 223.71875 18.488281 L 223.71875 295.582031 C 223.71875 305.019531 216.101562 312.753906 206.550781 312.753906 L 18.328125 312.753906 C 8.890625 312.753906 1.15625 305.132812 1.15625 295.582031 L 1.15625 18.488281 C 1.15625 9.050781 8.777344 1.316406 18.328125 1.316406 Z M 13.527344 0.691406 C 7.171875 2.394531 2.222656 7.394531 0.53125 13.699219 L 0.53125 300.371094 C 2.234375 306.726562 7.234375 311.6875 13.539062 313.367188 L 211.351562 313.367188 C 217.703125 311.664062 222.667969 306.664062 224.347656 300.359375 L 224.347656 13.6875 C 222.65625 7.347656 217.640625 2.382812 211.335938 0.691406 Z M 13.527344 0.691406 " clip-rule="nonzero"/></clipPath><clipPath id="2f2707f377"><rect x="0" width="225" y="0" height="314"/></clipPath><clipPath id="260cc4e889"><path d="M 27.5 68.285156 L 197.378906 68.285156 L 197.378906 230.777344 L 27.5 230.777344 Z M 27.5 68.285156 " clip-rule="nonzero"/></clipPath><clipPath id="ca06bdc5b5"><path d="M 112.4375 68.996094 L 138.632812 122.011719 L 197.164062 130.535156 L 154.800781 171.769531 L 164.828125 230.046875 L 112.4375 202.601562 L 60.175781 230.046875 L 70.074219 171.769531 L 27.839844 130.535156 L 86.367188 122.011719 Z M 112.4375 68.996094 " clip-rule="nonzero"/></clipPath><clipPath id="3a12136a00"><path d="M 0.792969 0.914062 L 170.207031 0.914062 L 170.207031 162.195312 L 0.792969 162.195312 Z M 0.792969 0.914062 " clip-rule="nonzero"/></clipPath><clipPath id="f524d6ae49"><path d="M 85.4375 0.996094 L 111.632812 54.011719 L 170.164062 62.535156 L 127.800781 103.769531 L 137.828125 162.046875 L 85.4375 134.601562 L 33.175781 162.046875 L 43.074219 103.769531 L 0.839844 62.535156 L 59.367188 54.011719 Z M 85.4375 0.996094 " clip-rule="nonzero"/></clipPath><clipPath id="a5f16430be"><rect x="0" width="171" y="0" height="163"/></clipPath><clipPath id="3f24750a70"><path d="M 11 51.667969 L 56 51.667969 L 56 95 L 11 95 Z M 11 51.667969 " clip-rule="nonzero"/></clipPath><clipPath id="f7053e09e5"><path d="M 33.640625 51.789062 L 40.523438 65.539062 L 55.824219 67.980469 L 44.734375 78.847656 L 47.390625 94.152344 L 33.640625 86.832031 L 19.894531 94.152344 L 22.550781 78.847656 L 11.246094 67.980469 L 26.773438 65.539062 Z M 33.640625 51.789062 " clip-rule="nonzero"/></clipPath><clipPath id="bb7a055b66"><path d="M 0.0429688 0.6875 L 45 0.6875 L 45 43.28125 L 0.0429688 43.28125 Z M 0.0429688 0.6875 " clip-rule="nonzero"/></clipPath><clipPath id="d01babcfa4"><path d="M 22.640625 0.789062 L 29.523438 14.539062 L 44.824219 16.980469 L 33.734375 27.847656 L 36.390625 43.152344 L 22.640625 35.832031 L 8.894531 43.152344 L 11.550781 27.847656 L 0.246094 16.980469 L 15.773438 14.539062 Z M 22.640625 0.789062 " clip-rule="nonzero"/></clipPath><clipPath id="ae6ca862ad"><rect x="0" width="45" y="0" height="44"/></clipPath><clipPath id="38c50dd036"><path d="M 173.375 219 L 218.613281 219 L 218.613281 262 L 173.375 262 Z M 173.375 219 " clip-rule="nonzero"/></clipPath><clipPath id="3e2d682c11"><path d="M 195.894531 261.78125 L 189.015625 248.03125 L 173.710938 245.589844 L 184.804688 234.722656 L 182.148438 219.417969 L 195.894531 226.738281 L 209.644531 219.417969 L 206.988281 234.722656 L 218.292969 245.589844 L 202.765625 248.03125 Z M 195.894531 261.78125 " clip-rule="nonzero"/></clipPath><clipPath id="20128d6bd1"><path d="M 0.519531 0.1875 L 45.503906 0.1875 L 45.503906 42.78125 L 0.519531 42.78125 Z M 0.519531 0.1875 " clip-rule="nonzero"/></clipPath><clipPath id="abeb09ef12"><path d="M 22.894531 42.78125 L 16.015625 29.03125 L 0.710938 26.589844 L 11.804688 15.722656 L 9.148438 0.417969 L 22.894531 7.738281 L 36.644531 0.417969 L 33.988281 15.722656 L 45.292969 26.589844 L 29.765625 29.03125 Z M 22.894531 42.78125 " clip-rule="nonzero"/></clipPath><clipPath id="0bb56b6568"><rect x="0" width="46" y="0" height="43"/></clipPath><clipPath id="e6dfa03cfa"><rect x="0" width="26" y="0" height="56"/></clipPath><clipPath id="7da9db385b"><rect x="0" width="27" y="0" height="56"/></clipPath></defs><g clip-path="url(#e7f3c2e67d)"><g clip-path="url(#838777cc75)"><g transform="matrix(1, 0, 0, 1, 0, 0)"><g clip-path="url(#38e2ea04e8)"><g clip-path="url(#4a00c76c4c)"><g clip-path="url(#64209f6eaf)"><rect x="-49.473598" width="323.827186" fill="#f5f5f2" height="465.177571" y="-71.068796" fill-opacity="1"/></g></g></g></g></g></g><g clip-path="url(#97b9b10d16)"><g clip-path="url(#a7d0f91a3e)"><g transform="matrix(1, 0, 0, 1, 0, 0)"><g clip-path="url(#2f2707f377)"><g clip-path="url(#68a4fafc72)"><g clip-path="url(#10c2248dc5)"><rect x="-49.473598" width="323.827186" fill="#000000" height="465.177571" y="-71.068796" fill-opacity="1"/></g></g></g></g></g></g><g clip-path="url(#260cc4e889)"><g clip-path="url(#ca06bdc5b5)"><g transform="matrix(1, 0, 0, 1, 27, 68)"><g clip-path="url(#a5f16430be)"><g clip-path="url(#3a12136a00)"><g clip-path="url(#f524d6ae49)"><rect x="-76.473598" width="323.827186" fill="#7d1229" height="465.177571" y="-139.068796" fill-opacity="1"/></g></g></g></g></g></g><g clip-path="url(#3f24750a70)"><g clip-path="url(#f7053e09e5)"><g transform="matrix(1, 0, 0, 1, 11, 51)"><g clip-path="url(#ae6ca862ad)"><g clip-path="url(#bb7a055b66)"><g clip-path="url(#d01babcfa4)"><rect x="-60.473598" width="323.827186" fill="#7d1229" height="465.177571" y="-122.068796" fill-opacity="1"/></g></g></g></g></g></g><g clip-path="url(#38c50dd036)"><g clip-path="url(#3e2d682c11)"><g transform="matrix(1, 0, 0, 1, 173, 219)"><g clip-path="url(#0bb56b6568)"><g clip-path="url(#20128d6bd1)"><g clip-path="url(#abeb09ef12)"><rect x="-222.473598" width="323.827186" fill="#7d1229" height="465.177571" y="-290.068796" fill-opacity="1"/></g></g></g></g></g></g><g fill="#ffffff" fill-opacity="1"><g transform="translate(201.655742, 233.392344)"><g><path d="M -6.828125 4.796875 C -4.921875 3.515625 -3.914062 2.691406 -3.8125 2.328125 L -9.609375 2.328125 L -9.609375 0 L -0.484375 0 C -0.523438 0.863281 -0.640625 1.546875 -0.828125 2.046875 C -1.097656 2.796875 -1.492188 3.429688 -2.015625 3.953125 C -2.535156 4.484375 -3.257812 5.078125 -4.1875 5.734375 C -4.957031 6.285156 -5.554688 6.753906 -5.984375 7.140625 C -6.628906 7.734375 -6.953125 8.429688 -6.953125 9.234375 C -6.953125 9.753906 -6.785156 10.195312 -6.453125 10.5625 C -6.117188 10.9375 -5.671875 11.125 -5.109375 11.125 C -4.441406 11.125 -3.957031 10.929688 -3.65625 10.546875 C -3.351562 10.171875 -3.203125 9.566406 -3.203125 8.734375 L -3.203125 8.625 L -0.640625 8.625 C -0.640625 10.132812 -1.023438 11.296875 -1.796875 12.109375 C -2.566406 12.929688 -3.640625 13.34375 -5.015625 13.34375 C -5.878906 13.34375 -6.65625 13.171875 -7.34375 12.828125 C -8.039062 12.484375 -8.585938 11.992188 -8.984375 11.359375 C -9.390625 10.722656 -9.59375 9.984375 -9.59375 9.140625 C -9.59375 8.398438 -9.414062 7.691406 -9.0625 7.015625 C -8.71875 6.347656 -7.972656 5.609375 -6.828125 4.796875 Z M -6.828125 4.796875 "/></g></g></g><g fill="#ffffff" fill-opacity="1"><g transform="translate(28.128055, 77.025542)"><g><path d="M 6.828125 -4.796875 C 4.921875 -3.515625 3.914062 -2.691406 3.8125 -2.328125 L 9.609375 -2.328125 L 9.609375 0 L 0.484375 0 C 0.523438 -0.863281 0.640625 -1.546875 0.828125 -2.046875 C 1.097656 -2.796875 1.492188 -3.429688 2.015625 -3.953125 C 2.535156 -4.484375 3.257812 -5.078125 4.1875 -5.734375 C 4.957031 -6.285156 5.554688 -6.753906 5.984375 -7.140625 C 6.628906 -7.734375 6.953125 -8.429688 6.953125 -9.234375 C 6.953125 -9.753906 6.785156 -10.195312 6.453125 -10.5625 C 6.117188 -10.9375 5.671875 -11.125 5.109375 -11.125 C 4.441406 -11.125 3.957031 -10.929688 3.65625 -10.546875 C 3.351562 -10.171875 3.203125 -9.566406 3.203125 -8.734375 L 3.203125 -8.625 L 0.640625 -8.625 C 0.640625 -10.132812 1.023438 -11.296875 1.796875 -12.109375 C 2.566406 -12.929688 3.640625 -13.34375 5.015625 -13.34375 C 5.878906 -13.34375 6.65625 -13.171875 7.34375 -12.828125 C 8.039062 -12.484375 8.585938 -11.992188 8.984375 -11.359375 C 9.390625 -10.722656 9.59375 -9.984375 9.59375 -9.140625 C 9.59375 -8.398438 9.414062 -7.691406 9.0625 -7.015625 C 8.71875 -6.347656 7.972656 -5.609375 6.828125 -4.796875 Z M 6.828125 -4.796875 "/></g></g></g><g transform="matrix(1, 0, 0, 1, 183, 254)"><g clip-path="url(#e6dfa03cfa)"><g fill="#791026" fill-opacity="1"><g transform="translate(25.556427, 16.555058)"><g><path d="M -16.34375 37.609375 L -16.34375 5.3125 C -16.34375 3.65625 -16.640625 2.519531 -17.234375 1.90625 C -17.828125 1.289062 -18.671875 0.984375 -19.765625 0.984375 L -21.21875 0.984375 L -21.21875 0 L -3.046875 0 L -3.046875 0.984375 L -4.453125 0.984375 C -5.859375 0.984375 -6.882812 1.257812 -7.53125 1.8125 C -8.1875 2.375 -8.515625 3.5625 -8.515625 5.375 L -8.515625 25.671875 C -8.515625 27.953125 -8.304688 29.515625 -7.890625 30.359375 C -7.484375 31.210938 -6.71875 31.640625 -5.59375 31.640625 C -4.9375 31.640625 -3.882812 31.40625 -2.4375 30.9375 L -2.109375 31.859375 L -15.359375 37.609375 Z M -16.34375 37.609375 "/></g></g></g></g></g><g transform="matrix(1, 0, 0, 1, 13, 9)"><g clip-path="url(#7da9db385b)"><g fill="#791026" fill-opacity="1"><g transform="translate(0.976719, 39.446214)"><g><path d="M 16.34375 -37.609375 L 16.34375 -5.3125 C 16.34375 -3.65625 16.640625 -2.519531 17.234375 -1.90625 C 17.828125 -1.289062 18.671875 -0.984375 19.765625 -0.984375 L 21.21875 -0.984375 L 21.21875 0 L 3.046875 0 L 3.046875 -0.984375 L 4.453125 -0.984375 C 5.859375 -0.984375 6.882812 -1.257812 7.53125 -1.8125 C 8.1875 -2.375 8.515625 -3.5625 8.515625 -5.375 L 8.515625 -25.671875 C 8.515625 -27.953125 8.304688 -29.515625 7.890625 -30.359375 C 7.484375 -31.210938 6.71875 -31.640625 5.59375 -31.640625 C 4.9375 -31.640625 3.882812 -31.40625 2.4375 -30.9375 L 2.109375 -31.859375 L 15.359375 -37.609375 Z M 16.34375 -37.609375 "/></g></g></g></g></g></svg>