<svg xmlns="http://www.w3.org/2000/svg" xmlns:xlink="http://www.w3.org/1999/xlink" width="300" zoomAndPan="magnify" viewBox="0 0 224.87999 323.03998" height="420" preserveAspectRatio="xMidYMid meet" version="1.0"><defs><clipPath id="691435f64c"><path d="M 0.273438 0.566406 L 224.488281 0.566406 L 224.488281 314.066406 L 0.273438 314.066406 Z M 0.273438 0.566406 " clip-rule="nonzero"/></clipPath><clipPath id="244b75ce83"><path d="M 5.601562 10.90625 L 180.675781 10.90625 L 180.675781 220.4375 L 5.601562 220.4375 Z M 5.601562 10.90625 " clip-rule="nonzero"/></clipPath><clipPath id="5616668404"><path d="M 20.605469 10.90625 L 165.667969 10.90625 C 173.957031 10.90625 180.675781 17.625 180.675781 25.914062 L 180.675781 205.402344 C 180.675781 213.691406 173.957031 220.410156 165.667969 220.410156 L 20.605469 220.410156 C 12.320312 220.410156 5.601562 213.691406 5.601562 205.402344 L 5.601562 25.914062 C 5.601562 17.625 12.320312 10.90625 20.605469 10.90625 Z M 20.605469 10.90625 " clip-rule="nonzero"/></clipPath><clipPath id="6a70e45e45"><path d="M 20.605469 10.90625 L 165.667969 10.90625 C 173.957031 10.90625 180.675781 17.625 180.675781 25.914062 L 180.675781 205.402344 C 180.675781 213.691406 173.957031 220.410156 165.667969 220.410156 L 20.605469 220.410156 C 12.320312 220.410156 5.601562 213.691406 5.601562 205.402344 L 5.601562 25.914062 C 5.601562 17.625 12.320312 10.90625 20.605469 10.90625 Z M 20.605469 10.90625 " clip-rule="nonzero"/></clipPath><clipPath id="bc12acd0d3"><path d="M 39.1875 93.195312 L 214.265625 93.195312 L 214.265625 302.503906 L 39.1875 302.503906 Z M 39.1875 93.195312 " clip-rule="nonzero"/></clipPath><clipPath id="8fc42e422d"><path d="M 54.195312 93.195312 L 199.257812 93.195312 C 207.546875 93.195312 214.265625 99.914062 214.265625 108.203125 L 214.265625 287.695312 C 214.265625 295.984375 207.546875 302.703125 199.257812 302.703125 L 54.195312 302.703125 C 45.90625 302.703125 39.1875 295.984375 39.1875 287.695312 L 39.1875 108.203125 C 39.1875 99.914062 45.90625 93.195312 54.195312 93.195312 Z M 54.195312 93.195312 " clip-rule="nonzero"/></clipPath><clipPath id="62b6461ef4"><path d="M 54.195312 93.195312 L 199.257812 93.195312 C 207.546875 93.195312 214.265625 99.914062 214.265625 108.203125 L 214.265625 287.695312 C 214.265625 295.984375 207.546875 302.703125 199.257812 302.703125 L 54.195312 302.703125 C 45.90625 302.703125 39.1875 295.984375 39.1875 287.695312 L 39.1875 108.203125 C 39.1875 99.914062 45.90625 93.195312 54.195312 93.195312 Z M 54.195312 93.195312 " clip-rule="nonzero"/></clipPath></defs><path fill="#a45555" d="M 223.683594 295.171875 C 223.683594 304.839844 215.875 312.773438 206.085938 312.773438 L 19.925781 312.773438 C 10.261719 312.773438 2.328125 304.964844 2.328125 295.171875 L 2.328125 21.144531 C 2.328125 11.476562 10.136719 3.542969 19.925781 3.542969 L 206.085938 3.542969 C 215.753906 3.542969 223.683594 11.351562 223.683594 21.144531 Z M 223.683594 295.171875 " fill-opacity="1" fill-rule="nonzero"/><g clip-path="url(#691435f64c)"><path stroke-linecap="butt" transform="matrix(1.239395, 0, 0, 1.239395, -3.001208, 0.568163)" fill="none" stroke-linejoin="miter" d="M 182.899579 237.699637 C 182.899579 245.500192 176.599252 251.901376 168.700992 251.901376 L 18.498535 251.901376 C 10.701131 251.901376 4.299947 245.601048 4.299947 237.699637 L 4.299947 16.601947 C 4.299947 8.801392 10.600275 2.400208 18.498535 2.400208 L 168.700992 2.400208 C 176.501548 2.400208 182.899579 8.700536 182.899579 16.601947 Z M 182.899579 237.699637 " stroke="#000000" stroke-width="1" stroke-opacity="1" stroke-miterlimit="4"/></g><path fill="#a45555" d="M 189.105469 158.960938 C 189.105469 160.121094 189.078125 161.28125 189.019531 162.441406 C 188.964844 163.601562 188.878906 164.757812 188.765625 165.910156 C 188.648438 167.066406 188.507812 168.21875 188.339844 169.363281 C 188.167969 170.511719 187.96875 171.65625 187.742188 172.792969 C 187.515625 173.933594 187.261719 175.0625 186.980469 176.1875 C 186.699219 177.3125 186.386719 178.429688 186.054688 179.542969 C 185.714844 180.652344 185.351562 181.753906 184.960938 182.84375 C 184.570312 183.9375 184.152344 185.019531 183.707031 186.09375 C 183.265625 187.164062 182.792969 188.226562 182.296875 189.273438 C 181.804688 190.324219 181.28125 191.359375 180.734375 192.382812 C 180.1875 193.40625 179.617188 194.414062 179.019531 195.410156 C 178.421875 196.40625 177.800781 197.382812 177.15625 198.347656 C 176.511719 199.3125 175.84375 200.261719 175.15625 201.195312 C 174.464844 202.125 173.75 203.039062 173.011719 203.9375 C 172.277344 204.835938 171.519531 205.710938 170.742188 206.570312 C 169.960938 207.433594 169.160156 208.273438 168.339844 209.089844 C 167.519531 209.910156 166.679688 210.710938 165.820312 211.492188 C 164.960938 212.269531 164.082031 213.027344 163.1875 213.765625 C 162.289062 214.5 161.375 215.214844 160.441406 215.902344 C 159.511719 216.59375 158.5625 217.261719 157.597656 217.910156 C 156.632812 218.550781 155.652344 219.171875 154.660156 219.769531 C 153.664062 220.367188 152.652344 220.9375 151.628906 221.484375 C 150.609375 222.03125 149.570312 222.554688 148.523438 223.050781 C 147.472656 223.546875 146.414062 224.015625 145.339844 224.460938 C 144.269531 224.902344 143.1875 225.320312 142.09375 225.710938 C 141.003906 226.101562 139.902344 226.46875 138.792969 226.804688 C 137.679688 227.140625 136.5625 227.449219 135.4375 227.730469 C 134.3125 228.011719 133.179688 228.269531 132.042969 228.496094 C 130.90625 228.71875 129.761719 228.917969 128.613281 229.089844 C 127.464844 229.257812 126.316406 229.402344 125.160156 229.515625 C 124.007812 229.628906 122.847656 229.714844 121.691406 229.769531 C 120.53125 229.828125 119.371094 229.855469 118.210938 229.855469 C 117.050781 229.855469 115.890625 229.828125 114.734375 229.769531 C 113.574219 229.714844 112.417969 229.628906 111.261719 229.515625 C 110.109375 229.402344 108.957031 229.257812 107.808594 229.089844 C 106.660156 228.917969 105.519531 228.71875 104.378906 228.492188 C 103.242188 228.269531 102.109375 228.011719 100.984375 227.730469 C 99.859375 227.449219 98.742188 227.140625 97.632812 226.804688 C 96.519531 226.46875 95.421875 226.101562 94.328125 225.710938 C 93.234375 225.320312 92.152344 224.902344 91.082031 224.460938 C 90.007812 224.015625 88.949219 223.546875 87.902344 223.050781 C 86.851562 222.554688 85.816406 222.03125 84.792969 221.484375 C 83.769531 220.9375 82.761719 220.367188 81.765625 219.769531 C 80.769531 219.171875 79.789062 218.550781 78.824219 217.910156 C 77.859375 217.261719 76.914062 216.59375 75.980469 215.902344 C 75.046875 215.214844 74.132812 214.5 73.238281 213.765625 C 72.339844 213.027344 71.460938 212.269531 70.601562 211.492188 C 69.742188 210.710938 68.902344 209.910156 68.082031 209.089844 C 67.261719 208.273438 66.460938 207.433594 65.683594 206.570312 C 64.902344 205.710938 64.144531 204.835938 63.410156 203.9375 C 62.675781 203.039062 61.960938 202.125 61.269531 201.195312 C 60.578125 200.261719 59.910156 199.3125 59.265625 198.347656 C 58.621094 197.382812 58 196.40625 57.402344 195.410156 C 56.808594 194.414062 56.238281 193.40625 55.6875 192.382812 C 55.140625 191.359375 54.621094 190.324219 54.125 189.273438 C 53.628906 188.226562 53.160156 187.164062 52.714844 186.09375 C 52.269531 185.019531 51.851562 183.9375 51.460938 182.84375 C 51.070312 181.753906 50.707031 180.652344 50.371094 179.542969 C 50.035156 178.429688 49.722656 177.3125 49.441406 176.1875 C 49.160156 175.0625 48.90625 173.933594 48.679688 172.792969 C 48.453125 171.65625 48.257812 170.511719 48.085938 169.363281 C 47.914062 168.21875 47.773438 167.066406 47.660156 165.910156 C 47.546875 164.757812 47.460938 163.601562 47.402344 162.441406 C 47.347656 161.28125 47.316406 160.121094 47.316406 158.960938 C 47.316406 157.800781 47.347656 156.644531 47.402344 155.484375 C 47.460938 154.324219 47.546875 153.167969 47.660156 152.011719 C 47.773438 150.859375 47.914062 149.707031 48.085938 148.5625 C 48.257812 147.414062 48.453125 146.269531 48.679688 145.132812 C 48.90625 143.996094 49.160156 142.863281 49.441406 141.738281 C 49.722656 140.613281 50.035156 139.492188 50.371094 138.382812 C 50.707031 137.273438 51.070312 136.171875 51.460938 135.078125 C 51.851562 133.988281 52.269531 132.90625 52.714844 131.832031 C 53.160156 130.761719 53.628906 129.699219 54.125 128.652344 C 54.621094 127.601562 55.140625 126.566406 55.6875 125.542969 C 56.238281 124.519531 56.808594 123.511719 57.402344 122.515625 C 58 121.519531 58.621094 120.542969 59.265625 119.578125 C 59.910156 118.613281 60.578125 117.664062 61.269531 116.730469 C 61.960938 115.800781 62.675781 114.886719 63.410156 113.988281 C 64.144531 113.089844 64.902344 112.210938 65.683594 111.351562 C 66.460938 110.496094 67.261719 109.652344 68.082031 108.832031 C 68.902344 108.011719 69.742188 107.214844 70.601562 106.433594 C 71.460938 105.65625 72.339844 104.898438 73.238281 104.160156 C 74.132812 103.425781 75.046875 102.710938 75.980469 102.019531 C 76.914062 101.328125 77.859375 100.660156 78.824219 100.019531 C 79.789062 99.371094 80.769531 98.75 81.765625 98.15625 C 82.761719 97.558594 83.769531 96.988281 84.792969 96.441406 C 85.816406 95.894531 86.851562 95.371094 87.902344 94.875 C 88.949219 94.378906 90.007812 93.910156 91.082031 93.464844 C 92.152344 93.019531 93.234375 92.605469 94.328125 92.214844 C 95.421875 91.824219 96.519531 91.460938 97.632812 91.121094 C 98.742188 90.785156 99.859375 90.476562 100.984375 90.195312 C 102.109375 89.910156 103.242188 89.660156 104.378906 89.433594 C 105.519531 89.203125 106.660156 89.007812 107.808594 88.835938 C 108.957031 88.667969 110.109375 88.523438 111.261719 88.410156 C 112.417969 88.296875 113.574219 88.210938 114.734375 88.15625 C 115.890625 88.097656 117.050781 88.070312 118.210938 88.070312 C 119.371094 88.070312 120.53125 88.097656 121.691406 88.15625 C 122.847656 88.210938 124.007812 88.296875 125.160156 88.410156 C 126.316406 88.523438 127.464844 88.667969 128.613281 88.835938 C 129.761719 89.007812 130.90625 89.203125 132.042969 89.433594 C 133.179688 89.660156 134.3125 89.910156 135.4375 90.195312 C 136.5625 90.476562 137.679688 90.785156 138.792969 91.121094 C 139.902344 91.460938 141.003906 91.824219 142.09375 92.214844 C 143.1875 92.605469 144.269531 93.019531 145.339844 93.464844 C 146.414062 93.910156 147.472656 94.378906 148.523438 94.875 C 149.570312 95.371094 150.609375 95.894531 151.628906 96.441406 C 152.652344 96.988281 153.664062 97.558594 154.660156 98.15625 C 155.652344 98.75 156.632812 99.371094 157.597656 100.019531 C 158.5625 100.660156 159.511719 101.328125 160.441406 102.019531 C 161.375 102.710938 162.289062 103.425781 163.1875 104.160156 C 164.082031 104.898438 164.960938 105.65625 165.820312 106.433594 C 166.679688 107.214844 167.519531 108.011719 168.339844 108.832031 C 169.160156 109.652344 169.960938 110.496094 170.742188 111.351562 C 171.519531 112.210938 172.277344 113.089844 173.011719 113.988281 C 173.75 114.886719 174.464844 115.800781 175.15625 116.730469 C 175.84375 117.664062 176.511719 118.613281 177.15625 119.578125 C 177.800781 120.542969 178.421875 121.519531 179.019531 122.515625 C 179.617188 123.511719 180.1875 124.519531 180.734375 125.542969 C 181.28125 126.566406 181.804688 127.601562 182.296875 128.652344 C 182.792969 129.699219 183.265625 130.761719 183.707031 131.832031 C 184.152344 132.90625 184.570312 133.988281 184.960938 135.078125 C 185.351562 136.171875 185.714844 137.273438 186.054688 138.382812 C 186.386719 139.492188 186.699219 140.613281 186.980469 141.738281 C 187.261719 142.863281 187.515625 143.996094 187.742188 145.132812 C 187.96875 146.269531 188.167969 147.414062 188.339844 148.5625 C 188.507812 149.707031 188.648438 150.859375 188.765625 152.011719 C 188.878906 153.167969 188.964844 154.324219 189.019531 155.484375 C 189.078125 156.644531 189.105469 157.800781 189.105469 158.960938 Z M 189.105469 158.960938 " fill-opacity="1" fill-rule="nonzero"/><path fill="#a45555" d="M 37.773438 68.113281 C 37.773438 68.492188 37.757812 68.867188 37.71875 69.246094 C 37.683594 69.621094 37.628906 69.992188 37.554688 70.363281 C 37.480469 70.734375 37.386719 71.101562 37.277344 71.460938 C 37.167969 71.820312 37.042969 72.175781 36.898438 72.527344 C 36.753906 72.875 36.589844 73.214844 36.414062 73.550781 C 36.234375 73.882812 36.042969 74.207031 35.832031 74.519531 C 35.621094 74.832031 35.398438 75.136719 35.15625 75.425781 C 34.917969 75.71875 34.667969 76 34.398438 76.265625 C 34.132812 76.535156 33.851562 76.785156 33.5625 77.023438 C 33.269531 77.265625 32.964844 77.488281 32.652344 77.699219 C 32.339844 77.90625 32.015625 78.101562 31.683594 78.28125 C 31.347656 78.457031 31.007812 78.621094 30.660156 78.765625 C 30.308594 78.910156 29.957031 79.035156 29.59375 79.144531 C 29.234375 79.253906 28.867188 79.347656 28.496094 79.421875 C 28.125 79.496094 27.753906 79.550781 27.378906 79.585938 C 27.003906 79.621094 26.625 79.640625 26.25 79.640625 C 25.871094 79.640625 25.496094 79.621094 25.121094 79.585938 C 24.742188 79.550781 24.371094 79.496094 24 79.421875 C 23.628906 79.347656 23.261719 79.253906 22.902344 79.144531 C 22.542969 79.035156 22.1875 78.910156 21.839844 78.765625 C 21.488281 78.621094 21.148438 78.457031 20.8125 78.28125 C 20.480469 78.101562 20.160156 77.90625 19.84375 77.699219 C 19.53125 77.488281 19.226562 77.265625 18.9375 77.023438 C 18.644531 76.785156 18.363281 76.53125 18.097656 76.265625 C 17.832031 76 17.578125 75.71875 17.339844 75.425781 C 17.097656 75.136719 16.875 74.832031 16.664062 74.519531 C 16.457031 74.207031 16.261719 73.882812 16.082031 73.550781 C 15.90625 73.214844 15.746094 72.875 15.601562 72.527344 C 15.453125 72.175781 15.328125 71.820312 15.21875 71.460938 C 15.109375 71.101562 15.019531 70.734375 14.945312 70.363281 C 14.871094 69.992188 14.8125 69.621094 14.777344 69.246094 C 14.742188 68.867188 14.722656 68.492188 14.722656 68.113281 C 14.722656 67.738281 14.742188 67.359375 14.777344 66.984375 C 14.8125 66.609375 14.871094 66.238281 14.945312 65.867188 C 15.019531 65.496094 15.109375 65.128906 15.21875 64.769531 C 15.328125 64.410156 15.453125 64.054688 15.601562 63.703125 C 15.746094 63.355469 15.90625 63.015625 16.082031 62.679688 C 16.261719 62.347656 16.457031 62.027344 16.664062 61.710938 C 16.875 61.398438 17.097656 61.09375 17.339844 60.800781 C 17.578125 60.511719 17.832031 60.230469 18.097656 59.964844 C 18.363281 59.699219 18.644531 59.445312 18.9375 59.207031 C 19.226562 58.964844 19.53125 58.742188 19.84375 58.53125 C 20.160156 58.320312 20.480469 58.128906 20.8125 57.949219 C 21.148438 57.773438 21.488281 57.609375 21.839844 57.464844 C 22.1875 57.320312 22.542969 57.195312 22.902344 57.085938 C 23.261719 56.976562 23.628906 56.882812 24 56.808594 C 24.371094 56.734375 24.742188 56.679688 25.121094 56.644531 C 25.496094 56.609375 25.871094 56.589844 26.25 56.589844 C 26.625 56.589844 27.003906 56.609375 27.378906 56.644531 C 27.753906 56.679688 28.125 56.734375 28.496094 56.808594 C 28.867188 56.882812 29.234375 56.976562 29.59375 57.085938 C 29.957031 57.195312 30.308594 57.320312 30.660156 57.464844 C 31.007812 57.609375 31.347656 57.773438 31.683594 57.949219 C 32.015625 58.128906 32.339844 58.320312 32.652344 58.53125 C 32.964844 58.742188 33.269531 58.964844 33.5625 59.207031 C 33.851562 59.445312 34.132812 59.699219 34.398438 59.964844 C 34.667969 60.230469 34.917969 60.511719 35.15625 60.800781 C 35.398438 61.09375 35.621094 61.398438 35.832031 61.710938 C 36.042969 62.027344 36.234375 62.347656 36.414062 62.679688 C 36.589844 63.015625 36.753906 63.355469 36.898438 63.703125 C 37.042969 64.054688 37.167969 64.410156 37.277344 64.769531 C 37.386719 65.128906 37.480469 65.496094 37.554688 65.867188 C 37.628906 66.238281 37.683594 66.609375 37.71875 66.984375 C 37.757812 67.359375 37.773438 67.738281 37.773438 68.113281 Z M 37.773438 68.113281 " fill-opacity="1" fill-rule="nonzero"/><path fill="#791026" d="M 21.917969 38.453125 L 24.621094 38.886719 L 24.621094 39.753906 L 17.492188 39.753906 L 17.492188 38.886719 L 19.902344 38.453125 L 27.328125 28.582031 L 20.988281 19.203125 L 18.527344 18.78125 L 18.527344 17.921875 L 27.535156 17.921875 L 27.535156 18.78125 L 24.769531 19.203125 L 29.292969 25.945312 L 34.359375 19.203125 L 31.65625 18.78125 L 31.65625 17.921875 L 38.800781 17.921875 L 38.800781 18.78125 L 36.394531 19.203125 L 30.257812 27.378906 L 37.761719 38.453125 L 40.238281 38.886719 L 40.238281 39.753906 L 31.230469 39.753906 L 31.230469 38.886719 L 33.996094 38.453125 L 28.269531 29.984375 Z M 21.917969 38.453125 " fill-opacity="1" fill-rule="nonzero"/><path fill="#a45555" d="M 200.753906 246.214844 C 200.753906 246.59375 200.738281 246.96875 200.699219 247.347656 C 200.664062 247.722656 200.605469 248.09375 200.53125 248.464844 C 200.460938 248.835938 200.371094 249.199219 200.257812 249.5625 C 200.148438 249.925781 200.023438 250.277344 199.878906 250.628906 C 199.734375 250.976562 199.570312 251.316406 199.394531 251.648438 C 199.214844 251.980469 199.023438 252.304688 198.8125 252.621094 C 198.605469 252.933594 198.378906 253.234375 198.140625 253.527344 C 197.898438 253.820312 197.644531 254.101562 197.378906 254.367188 C 197.113281 254.632812 196.832031 254.886719 196.539062 255.125 C 196.25 255.367188 195.945312 255.589844 195.632812 255.800781 C 195.320312 256.011719 194.996094 256.203125 194.660156 256.382812 C 194.328125 256.558594 193.988281 256.722656 193.640625 256.863281 C 193.292969 257.007812 192.9375 257.136719 192.574219 257.246094 C 192.214844 257.355469 191.847656 257.449219 191.476562 257.519531 C 191.109375 257.59375 190.734375 257.648438 190.359375 257.6875 C 189.984375 257.722656 189.605469 257.742188 189.230469 257.742188 C 188.851562 257.742188 188.472656 257.722656 188.097656 257.6875 C 187.722656 257.648438 187.351562 257.59375 186.980469 257.519531 C 186.609375 257.449219 186.246094 257.355469 185.882812 257.246094 C 185.519531 257.136719 185.167969 257.007812 184.816406 256.863281 C 184.46875 256.722656 184.128906 256.558594 183.796875 256.382812 C 183.460938 256.203125 183.140625 256.011719 182.824219 255.800781 C 182.511719 255.589844 182.210938 255.367188 181.917969 255.125 C 181.625 254.886719 181.347656 254.632812 181.078125 254.367188 C 180.8125 254.101562 180.558594 253.820312 180.320312 253.527344 C 180.078125 253.234375 179.855469 252.933594 179.644531 252.621094 C 179.433594 252.304688 179.242188 251.980469 179.0625 251.648438 C 178.886719 251.316406 178.722656 250.976562 178.578125 250.628906 C 178.4375 250.277344 178.308594 249.925781 178.199219 249.5625 C 178.089844 249.199219 177.996094 248.835938 177.925781 248.464844 C 177.851562 248.09375 177.796875 247.722656 177.757812 247.347656 C 177.722656 246.96875 177.703125 246.59375 177.703125 246.214844 C 177.703125 245.839844 177.722656 245.460938 177.757812 245.085938 C 177.796875 244.710938 177.851562 244.335938 177.925781 243.96875 C 177.996094 243.597656 178.089844 243.230469 178.199219 242.871094 C 178.308594 242.507812 178.4375 242.152344 178.578125 241.804688 C 178.722656 241.457031 178.886719 241.117188 179.0625 240.785156 C 179.242188 240.449219 179.433594 240.125 179.644531 239.8125 C 179.855469 239.5 180.078125 239.195312 180.320312 238.90625 C 180.558594 238.613281 180.8125 238.332031 181.078125 238.066406 C 181.347656 237.800781 181.625 237.546875 181.917969 237.304688 C 182.210938 237.066406 182.511719 236.839844 182.824219 236.632812 C 183.140625 236.421875 183.460938 236.226562 183.796875 236.050781 C 184.128906 235.871094 184.46875 235.710938 184.816406 235.566406 C 185.167969 235.421875 185.519531 235.296875 185.882812 235.1875 C 186.246094 235.074219 186.609375 234.984375 186.980469 234.910156 C 187.351562 234.839844 187.722656 234.78125 188.097656 234.746094 C 188.472656 234.707031 188.851562 234.691406 189.230469 234.691406 C 189.605469 234.691406 189.984375 234.707031 190.359375 234.746094 C 190.734375 234.78125 191.109375 234.839844 191.476562 234.910156 C 191.847656 234.984375 192.214844 235.074219 192.574219 235.1875 C 192.9375 235.296875 193.292969 235.421875 193.640625 235.566406 C 193.988281 235.710938 194.328125 235.871094 194.660156 236.050781 C 194.996094 236.226562 195.320312 236.421875 195.632812 236.632812 C 195.945312 236.839844 196.25 237.066406 196.539062 237.304688 C 196.832031 237.546875 197.113281 237.800781 197.378906 238.066406 C 197.644531 238.332031 197.898438 238.613281 198.140625 238.90625 C 198.378906 239.195312 198.605469 239.5 198.8125 239.8125 C 199.023438 240.125 199.214844 240.449219 199.394531 240.785156 C 199.570312 241.117188 199.734375 241.457031 199.878906 241.804688 C 200.023438 242.152344 200.148438 242.507812 200.257812 242.871094 C 200.371094 243.230469 200.460938 243.597656 200.53125 243.96875 C 200.605469 244.335938 200.664062 244.710938 200.699219 245.085938 C 200.738281 245.460938 200.753906 245.839844 200.753906 246.214844 Z M 200.753906 246.214844 " fill-opacity="1" fill-rule="nonzero"/><path fill="#791026" d="M 184.828125 292.578125 L 187.53125 293.011719 L 187.53125 293.878906 L 180.402344 293.878906 L 180.402344 293.011719 L 182.8125 292.578125 L 190.234375 282.707031 L 183.898438 273.328125 L 181.4375 272.90625 L 181.4375 272.046875 L 190.445312 272.046875 L 190.445312 272.90625 L 187.679688 273.328125 L 192.203125 280.070312 L 197.269531 273.328125 L 194.5625 272.90625 L 194.5625 272.046875 L 201.710938 272.046875 L 201.710938 272.90625 L 199.304688 273.328125 L 193.167969 281.503906 L 200.671875 292.578125 L 203.148438 293.011719 L 203.148438 293.878906 L 194.140625 293.878906 L 194.140625 293.011719 L 196.90625 292.578125 L 191.179688 284.109375 Z M 184.828125 292.578125 " fill-opacity="1" fill-rule="nonzero"/><g clip-path="url(#244b75ce83)"><g clip-path="url(#5616668404)"><g clip-path="url(#6a70e45e45)"><path fill="#a45555" d="M 5.601562 10.90625 L 180.675781 10.90625 L 180.675781 220.175781 L 5.601562 220.175781 Z M 5.601562 10.90625 " fill-opacity="1" fill-rule="nonzero"/></g></g></g><g clip-path="url(#bc12acd0d3)"><g clip-path="url(#8fc42e422d)"><g clip-path="url(#62b6461ef4)"><path fill="#a45555" d="M 39.1875 93.195312 L 214.265625 93.195312 L 214.265625 302.46875 L 39.1875 302.46875 Z M 39.1875 93.195312 " fill-opacity="1" fill-rule="nonzero"/></g></g></g><path fill="#ffffff" d="M 60.578125 113.582031 C 60.625 113.089844 60.875 112.71875 61.328125 112.46875 C 61.78125 112.21875 62.367188 112.09375 63.09375 112.09375 C 63.765625 112.140625 64.386719 112.308594 64.949219 112.601562 C 65.515625 112.898438 65.847656 113.246094 65.9375 113.652344 L 74.820312 144.371094 L 77.191406 136.574219 L 78.824219 131.082031 C 79.5 129 80.179688 126.851562 80.851562 124.636719 C 81.53125 122.421875 82.1875 120.140625 82.820312 117.789062 C 83.273438 117.066406 84.15625 116.703125 85.46875 116.703125 L 85.738281 116.703125 C 87.050781 116.792969 87.863281 117.3125 88.179688 118.261719 C 86.730469 123.191406 85.238281 128.128906 83.703125 133.078125 C 82.164062 138.027344 80.605469 142.96875 79.027344 147.894531 L 77.671875 152.304688 C 77.351562 153.164062 76.492188 153.589844 75.089844 153.589844 C 73.78125 153.589844 72.855469 153.164062 72.3125 152.304688 C 70.730469 148.054688 69.292969 143.996094 68.003906 140.136719 C 66.714844 136.269531 65.550781 132.574219 64.515625 129.042969 L 64.105469 127.488281 L 62.75 132.703125 C 62.027344 135.597656 61.382812 138.121094 60.816406 140.269531 C 60.253906 142.414062 59.722656 144.351562 59.222656 146.070312 C 58.722656 147.785156 58.226562 149.46875 57.726562 151.121094 C 57.234375 152.769531 56.667969 154.585938 56.035156 156.578125 C 55.71875 157.433594 54.863281 157.863281 53.460938 157.863281 C 52.871094 157.820312 52.316406 157.671875 51.800781 157.421875 C 51.28125 157.171875 50.90625 156.867188 50.679688 156.507812 C 49.59375 152.667969 48.441406 148.386719 47.21875 143.660156 C 46.003906 138.9375 44.691406 133.746094 43.289062 128.09375 L 42.003906 122.945312 C 41.460938 120.957031 40.972656 119.101562 40.542969 117.382812 C 40.113281 115.664062 39.742188 114.082031 39.421875 112.632812 C 39.421875 111.640625 40.167969 111.144531 41.660156 111.144531 L 41.9375 111.144531 C 42.65625 111.144531 43.273438 111.28125 43.792969 111.554688 C 44.316406 111.824219 44.621094 112.207031 44.714844 112.699219 C 45.347656 115.324219 46.148438 118.59375 47.117188 122.503906 C 48.085938 126.414062 49.253906 130.925781 50.609375 136.027344 L 53.394531 146.742188 L 57.53125 131.6875 L 58.140625 129.449219 C 58.636719 127.328125 59.167969 125.261719 59.734375 123.25 C 60.296875 121.238281 60.875 119.257812 61.460938 117.316406 Z M 60.578125 113.582031 " fill-opacity="1" fill-rule="nonzero"/><path fill="#ffffff" d="M 90.347656 102.664062 C 90.347656 102.171875 90.585938 101.777344 91.058594 101.480469 C 91.53125 101.1875 92.109375 101.039062 92.789062 101.039062 C 93.464844 101.039062 94.078125 101.179688 94.621094 101.453125 C 95.164062 101.722656 95.527344 102.058594 95.707031 102.464844 L 97.535156 133.855469 C 99.253906 132.910156 101.128906 132.433594 103.160156 132.433594 C 106.507812 132.433594 109.121094 132.921875 110.996094 133.894531 C 112.871094 134.867188 114.148438 136.347656 114.828125 138.332031 C 115.503906 140.277344 115.84375 142.855469 115.84375 146.0625 C 115.84375 149.816406 115.4375 153.433594 114.625 156.914062 C 114.492188 157.320312 114.136719 157.664062 113.570312 157.933594 C 113.007812 158.203125 112.382812 158.335938 111.707031 158.335938 C 110.984375 158.335938 110.394531 158.203125 109.941406 157.933594 C 109.492188 157.664062 109.265625 157.253906 109.265625 156.710938 C 110.078125 153.09375 110.488281 149.476562 110.488281 145.859375 C 110.488281 138.945312 108.089844 135.398438 103.300781 135.21875 C 101.085938 135.128906 99.210938 136.710938 97.675781 139.964844 L 98.214844 156.171875 C 97.898438 157.121094 97.0625 157.59375 95.707031 157.59375 C 95.117188 157.59375 94.550781 157.480469 94.007812 157.25 C 93.464844 157.027344 93.078125 156.734375 92.855469 156.375 C 92.675781 150.992188 92.472656 146.449219 92.25 142.742188 C 92.203125 142.515625 92.179688 142.257812 92.179688 141.960938 C 92.179688 141.667969 92.179688 141.316406 92.179688 140.914062 C 91.726562 133.089844 91.386719 126.378906 91.164062 120.773438 C 90.84375 114.578125 90.570312 108.542969 90.347656 102.664062 Z M 90.347656 102.664062 " fill-opacity="1" fill-rule="nonzero"/><path fill="#ffffff" d="M 121.742188 143.351562 C 121.742188 140.867188 122.253906 138.578125 123.269531 136.476562 C 124.289062 134.371094 125.632812 132.707031 127.304688 131.484375 C 129.019531 130.3125 130.828125 129.726562 132.730469 129.726562 C 135.621094 129.726562 138.175781 130.945312 140.390625 133.386719 C 141.070312 134.0625 141.523438 134.910156 141.746094 135.929688 C 141.972656 136.945312 142.085938 138.269531 142.085938 139.894531 C 142.085938 141.613281 141.859375 143.433594 141.402344 145.351562 C 140.953125 147.273438 140.355469 149.027344 139.609375 150.613281 C 138.863281 152.195312 138.039062 153.347656 137.136719 154.070312 C 135.871094 155.199219 134.128906 155.761719 131.914062 155.761719 C 129.832031 155.761719 128.023438 155.164062 126.488281 153.964844 C 124.949219 152.769531 123.777344 151.175781 122.964844 149.183594 C 122.148438 147.289062 121.742188 145.34375 121.742188 143.351562 Z M 136.589844 140.570312 C 136.589844 137.816406 136.25 135.738281 135.574219 134.335938 C 134.851562 132.933594 133.96875 132.234375 132.929688 132.234375 C 131.984375 132.234375 131.089844 132.730469 130.253906 133.730469 C 129.414062 134.722656 128.726562 136.121094 128.1875 137.929688 C 127.597656 139.644531 127.304688 141.746094 127.304688 144.234375 C 127.304688 146.722656 127.71875 148.8125 128.554688 150.507812 C 129.390625 152.203125 130.601562 153.050781 132.183594 153.050781 C 133.089844 152.6875 133.871094 151.929688 134.527344 150.777344 C 135.179688 149.625 135.6875 148.203125 136.046875 146.511719 C 136.410156 144.816406 136.589844 143.0625 136.589844 141.25 Z M 136.589844 140.570312 " fill-opacity="1" fill-rule="nonzero"/><path fill="#ffffff" d="M 143.105469 122.535156 C 141.476562 122.308594 140.664062 121.859375 140.664062 121.179688 C 140.664062 120.910156 140.890625 120.636719 141.339844 120.363281 C 141.746094 120.09375 142.335938 119.914062 143.105469 119.824219 L 148.050781 119.824219 L 148.320312 116.703125 C 148.550781 116.34375 148.933594 116.054688 149.472656 115.828125 C 150.015625 115.597656 150.582031 115.484375 151.171875 115.484375 C 152.527344 115.484375 153.363281 115.960938 153.679688 116.90625 L 153.476562 119.691406 C 153.929688 119.644531 154.640625 119.621094 155.609375 119.621094 C 156.582031 119.621094 157.835938 119.621094 159.375 119.621094 C 160.324219 119.621094 161.027344 119.757812 161.476562 120.027344 C 161.976562 120.296875 162.226562 120.613281 162.226562 120.976562 C 162.226562 121.519531 161.683594 121.90625 160.601562 122.128906 C 160.101562 122.21875 159.46875 122.289062 158.699219 122.332031 C 157.929688 122.378906 157.046875 122.398438 156.050781 122.398438 L 153.207031 122.398438 L 153.070312 125.519531 C 152.890625 128.414062 152.753906 130.902344 152.660156 132.980469 C 152.570312 135.058594 152.527344 136.75 152.527344 138.0625 C 152.527344 148.914062 153.972656 154.339844 156.867188 154.339844 C 157.542969 154.339844 158.144531 154.191406 158.664062 153.898438 C 159.179688 153.605469 159.960938 153.007812 161.003906 152.101562 L 162.089844 150.882812 C 162.632812 150.339844 163.535156 150.066406 164.800781 150.066406 C 166.382812 150.066406 167.171875 150.519531 167.171875 151.421875 C 167.171875 151.652344 167.148438 151.789062 167.105469 151.832031 C 165.929688 153.503906 164.40625 154.804688 162.53125 155.730469 C 160.65625 156.65625 158.675781 157.117188 156.597656 157.117188 C 154.925781 157.117188 153.464844 156.835938 152.21875 156.269531 C 150.976562 155.707031 150.109375 154.816406 149.613281 153.589844 C 148.03125 149.25 147.242188 143.488281 147.242188 136.304688 C 147.242188 132.324219 147.445312 127.734375 147.847656 122.535156 Z M 143.105469 122.535156 " fill-opacity="1" fill-rule="nonzero"/><path fill="#ffffff" d="M 162.941406 199.507812 C 162.898438 200 162.648438 200.375 162.195312 200.625 C 161.742188 200.871094 161.152344 200.996094 160.429688 200.996094 C 159.753906 200.949219 159.136719 200.78125 158.570312 200.488281 C 158.003906 200.195312 157.675781 199.84375 157.585938 199.441406 L 148.703125 168.71875 L 146.328125 176.519531 L 144.699219 182.011719 C 144.019531 184.089844 143.34375 186.238281 142.667969 188.453125 C 141.992188 190.667969 141.335938 192.949219 140.703125 195.300781 C 140.246094 196.023438 139.363281 196.386719 138.054688 196.386719 L 137.785156 196.386719 C 136.472656 196.296875 135.660156 195.777344 135.34375 194.828125 C 136.789062 189.902344 138.28125 184.960938 139.820312 180.011719 C 141.355469 175.0625 142.914062 170.125 144.496094 165.195312 L 145.851562 160.785156 C 146.171875 159.929688 147.03125 159.5 148.433594 159.5 C 149.742188 159.5 150.667969 159.929688 151.210938 160.785156 C 152.792969 165.035156 154.230469 169.09375 155.519531 172.957031 C 156.804688 176.820312 157.96875 180.519531 159.007812 184.046875 L 159.417969 185.601562 L 160.773438 180.386719 C 161.496094 177.492188 162.140625 174.96875 162.703125 172.820312 C 163.269531 170.675781 163.800781 168.742188 164.296875 167.023438 C 164.796875 165.304688 165.296875 163.621094 165.792969 161.96875 C 166.289062 160.324219 166.851562 158.503906 167.484375 156.515625 C 167.800781 155.65625 168.660156 155.226562 170.0625 155.226562 C 170.648438 155.273438 171.203125 155.417969 171.722656 155.667969 C 172.242188 155.917969 172.617188 156.222656 172.84375 156.582031 C 173.925781 160.421875 175.078125 164.707031 176.300781 169.429688 C 177.519531 174.15625 178.832031 179.34375 180.230469 184.996094 L 181.519531 190.144531 C 182.0625 192.136719 182.546875 193.988281 182.976562 195.707031 C 183.40625 197.425781 183.78125 199.011719 184.097656 200.457031 C 184.097656 201.449219 183.355469 201.949219 181.863281 201.949219 L 181.585938 201.949219 C 180.867188 201.949219 180.25 201.808594 179.726562 201.535156 C 179.207031 201.265625 178.898438 200.882812 178.808594 200.390625 C 178.175781 197.765625 177.375 194.5 176.40625 190.585938 C 175.433594 186.675781 174.269531 182.167969 172.910156 177.0625 L 170.128906 166.347656 L 165.988281 181.402344 L 165.382812 183.640625 C 164.886719 185.761719 164.351562 187.828125 163.789062 189.839844 C 163.226562 191.851562 162.648438 193.832031 162.058594 195.773438 Z M 162.941406 199.507812 " fill-opacity="1" fill-rule="nonzero"/><path fill="#ffffff" d="M 133.171875 210.425781 C 133.171875 210.917969 132.9375 211.316406 132.460938 211.609375 C 131.988281 211.902344 131.414062 212.050781 130.734375 212.050781 C 130.054688 212.050781 129.445312 211.914062 128.902344 211.640625 C 128.359375 211.371094 127.996094 211.03125 127.816406 210.628906 L 125.988281 179.234375 C 124.269531 180.179688 122.394531 180.65625 120.359375 180.65625 C 117.011719 180.65625 114.402344 180.167969 112.527344 179.195312 C 110.648438 178.222656 109.375 176.746094 108.695312 174.757812 C 108.015625 172.8125 107.675781 170.234375 107.675781 167.027344 C 107.675781 163.277344 108.085938 159.660156 108.898438 156.175781 C 109.03125 155.769531 109.382812 155.429688 109.953125 155.160156 C 110.515625 154.890625 111.136719 154.753906 111.816406 154.753906 C 112.539062 154.753906 113.125 154.890625 113.582031 155.160156 C 114.03125 155.429688 114.253906 155.835938 114.253906 156.378906 C 113.441406 159.996094 113.035156 163.613281 113.035156 167.230469 C 113.035156 174.144531 115.429688 177.691406 120.21875 177.871094 C 122.4375 177.960938 124.3125 176.378906 125.847656 173.128906 L 125.308594 156.917969 C 125.625 155.972656 126.460938 155.496094 127.816406 155.496094 C 128.402344 155.496094 128.972656 155.613281 129.515625 155.839844 C 130.058594 156.066406 130.441406 156.359375 130.667969 156.714844 C 130.847656 162.097656 131.050781 166.644531 131.273438 170.351562 C 131.320312 170.574219 131.339844 170.835938 131.339844 171.128906 C 131.339844 171.421875 131.339844 171.773438 131.339844 172.175781 C 131.792969 180 132.132812 186.714844 132.359375 192.316406 C 132.675781 198.511719 132.949219 204.546875 133.171875 210.425781 Z M 133.171875 210.425781 " fill-opacity="1" fill-rule="nonzero"/><path fill="#ffffff" d="M 101.777344 169.738281 C 101.777344 172.222656 101.269531 174.515625 100.253906 176.617188 C 99.234375 178.71875 97.890625 180.382812 96.21875 181.605469 C 94.5 182.777344 92.691406 183.367188 90.792969 183.367188 C 87.898438 183.367188 85.347656 182.144531 83.128906 179.707031 C 82.453125 179.027344 82 178.179688 81.773438 177.160156 C 81.550781 176.144531 81.4375 174.820312 81.4375 173.195312 C 81.4375 171.480469 81.664062 169.660156 82.117188 167.738281 C 82.570312 165.816406 83.167969 164.0625 83.914062 162.480469 C 84.660156 160.898438 85.480469 159.746094 86.386719 159.023438 C 87.652344 157.894531 89.394531 157.328125 91.609375 157.328125 C 93.691406 157.328125 95.496094 157.925781 97.035156 159.125 C 98.570312 160.324219 99.746094 161.917969 100.558594 163.90625 C 101.371094 165.804688 101.777344 167.746094 101.777344 169.738281 Z M 86.929688 172.519531 C 86.929688 175.273438 87.269531 177.351562 87.949219 178.753906 C 88.671875 180.15625 89.554688 180.859375 90.589844 180.859375 C 91.539062 180.859375 92.433594 180.359375 93.269531 179.363281 C 94.109375 178.371094 94.796875 176.96875 95.335938 175.164062 C 95.925781 173.445312 96.21875 171.34375 96.21875 168.855469 C 96.21875 166.367188 95.800781 164.277344 94.96875 162.582031 C 94.128906 160.886719 92.921875 160.039062 91.339844 160.039062 C 90.429688 160.402344 89.652344 161.160156 88.996094 162.3125 C 88.34375 163.464844 87.835938 164.886719 87.476562 166.582031 C 87.113281 168.277344 86.929688 170.027344 86.929688 171.839844 Z M 86.929688 172.519531 " fill-opacity="1" fill-rule="nonzero"/><path fill="#ffffff" d="M 80.417969 190.558594 C 82.042969 190.78125 82.859375 191.234375 82.859375 191.910156 C 82.859375 192.179688 82.632812 192.453125 82.183594 192.726562 C 81.773438 192.996094 81.1875 193.175781 80.417969 193.265625 L 75.472656 193.265625 L 75.199219 196.386719 C 74.972656 196.746094 74.589844 197.039062 74.046875 197.261719 C 73.507812 197.492188 72.9375 197.605469 72.351562 197.605469 C 70.992188 197.605469 70.160156 197.132812 69.84375 196.183594 L 70.046875 193.402344 C 69.589844 193.445312 68.878906 193.46875 67.910156 193.46875 C 66.941406 193.46875 65.683594 193.46875 64.148438 193.46875 C 63.195312 193.46875 62.496094 193.332031 62.046875 193.0625 C 61.546875 192.792969 61.296875 192.476562 61.296875 192.113281 C 61.296875 191.570312 61.839844 191.183594 62.921875 190.960938 C 63.421875 190.871094 64.054688 190.804688 64.820312 190.757812 C 65.589844 190.714844 66.472656 190.691406 67.46875 190.691406 L 70.316406 190.691406 L 70.449219 187.570312 C 70.628906 184.675781 70.765625 182.191406 70.859375 180.109375 C 70.949219 178.035156 70.996094 176.339844 70.996094 175.027344 C 70.996094 164.175781 69.546875 158.75 66.65625 158.75 C 65.976562 158.75 65.378906 158.898438 64.859375 159.191406 C 64.339844 159.488281 63.558594 160.085938 62.515625 160.988281 L 61.433594 162.210938 C 60.890625 162.75 59.984375 163.023438 58.722656 163.023438 C 57.140625 163.023438 56.351562 162.574219 56.351562 161.667969 C 56.351562 161.441406 56.371094 161.304688 56.417969 161.257812 C 57.589844 159.585938 59.113281 158.289062 60.992188 157.359375 C 62.867188 156.4375 64.84375 155.976562 66.925781 155.976562 C 68.597656 155.976562 70.054688 156.257812 71.300781 156.820312 C 72.546875 157.382812 73.414062 158.277344 73.90625 159.5 C 75.488281 163.839844 76.28125 169.601562 76.28125 176.789062 C 76.28125 180.769531 76.078125 185.359375 75.671875 190.558594 Z M 80.417969 190.558594 " fill-opacity="1" fill-rule="nonzero"/></svg>