<svg xmlns="http://www.w3.org/2000/svg" xmlns:xlink="http://www.w3.org/1999/xlink" width="300" zoomAndPan="magnify" viewBox="0 0 224.87999 323.03998" height="420" preserveAspectRatio="xMidYMid meet" version="1.0"><defs><g/><clipPath id="8d68ed7c47"><path d="M 0.273438 1 L 224.488281 1 L 224.488281 314 L 0.273438 314 Z M 0.273438 1 " clip-rule="nonzero"/></clipPath><clipPath id="d50a668583"><path d="M 18.019531 1.011719 C 8.15625 1.035156 0.296875 9.019531 0.273438 18.757812 L 0.273438 295.941406 C 0.296875 305.816406 8.308594 313.6875 18.070312 313.6875 L 206.292969 313.6875 C 216.195312 313.6875 224.089844 305.664062 224.089844 295.890625 L 224.089844 18.808594 C 224.089844 8.917969 216.09375 1.035156 206.34375 1.011719 Z M 18.019531 1.011719 " clip-rule="nonzero"/></clipPath><clipPath id="8e909f9498"><path d="M 0.273438 0 L 224.246094 0 L 224.246094 312.707031 L 0.273438 312.707031 Z M 0.273438 0 " clip-rule="nonzero"/></clipPath><clipPath id="1abc483180"><path d="M 18.019531 0.0117188 C 8.15625 0.0351562 0.296875 8.019531 0.273438 17.757812 L 0.273438 294.941406 C 0.296875 304.816406 8.308594 312.6875 18.070312 312.6875 L 206.292969 312.6875 C 216.195312 312.6875 224.089844 304.664062 224.089844 294.890625 L 224.089844 17.808594 C 224.089844 7.917969 216.09375 0.0351562 206.34375 0.0117188 Z M 18.019531 0.0117188 " clip-rule="nonzero"/></clipPath><clipPath id="6789b79ae5"><rect x="0" width="225" y="0" height="313"/></clipPath><clipPath id="0db3a3fcb7"><path d="M 0.273438 1 L 224.488281 1 L 224.488281 314 L 0.273438 314 Z M 0.273438 1 " clip-rule="nonzero"/></clipPath><clipPath id="1357a651ca"><path d="M 206.292969 1.636719 C 215.730469 1.636719 223.464844 9.257812 223.464844 18.808594 L 223.464844 295.902344 C 223.464844 305.339844 215.84375 313.074219 206.292969 313.074219 L 18.070312 313.074219 C 8.632812 313.074219 0.898438 305.453125 0.898438 295.902344 L 0.898438 18.808594 C 0.898438 9.371094 8.519531 1.636719 18.070312 1.636719 Z M 13.269531 1.011719 C 6.914062 2.714844 1.964844 7.714844 0.273438 14.019531 L 0.273438 300.691406 C 1.976562 307.042969 6.976562 312.007812 13.28125 313.6875 L 211.09375 313.6875 C 217.449219 311.984375 222.410156 306.980469 224.089844 300.679688 L 224.089844 14.007812 C 222.398438 7.664062 217.382812 2.703125 211.082031 1.011719 Z M 13.269531 1.011719 " clip-rule="nonzero"/></clipPath><clipPath id="7a602fa2f4"><path d="M 0.273438 0 L 224.246094 0 L 224.246094 312.707031 L 0.273438 312.707031 Z M 0.273438 0 " clip-rule="nonzero"/></clipPath><clipPath id="db7b2441b5"><path d="M 206.292969 0.636719 C 215.730469 0.636719 223.464844 8.257812 223.464844 17.808594 L 223.464844 294.902344 C 223.464844 304.339844 215.84375 312.074219 206.292969 312.074219 L 18.070312 312.074219 C 8.632812 312.074219 0.898438 304.453125 0.898438 294.902344 L 0.898438 17.808594 C 0.898438 8.371094 8.519531 0.636719 18.070312 0.636719 Z M 13.269531 0.0117188 C 6.914062 1.714844 1.964844 6.714844 0.273438 13.019531 L 0.273438 299.691406 C 1.976562 306.042969 6.976562 311.007812 13.28125 312.6875 L 211.09375 312.6875 C 217.449219 310.984375 222.410156 305.980469 224.089844 299.679688 L 224.089844 13.007812 C 222.398438 6.664062 217.382812 1.703125 211.082031 0.0117188 Z M 13.269531 0.0117188 " clip-rule="nonzero"/></clipPath><clipPath id="f120021a65"><rect x="0" width="225" y="0" height="313"/></clipPath><clipPath id="bc4f4afc27"><path d="M 17.316406 113.183594 L 209.425781 113.183594 L 209.425781 178.730469 L 17.316406 178.730469 Z M 17.316406 113.183594 " clip-rule="nonzero"/></clipPath><clipPath id="ad4a0f90ab"><path d="M 0.316406 0.183594 L 192.425781 0.183594 L 192.425781 65.730469 L 0.316406 65.730469 Z M 0.316406 0.183594 " clip-rule="nonzero"/></clipPath><clipPath id="e04cdc0e2b"><rect x="0" width="193" y="0" height="66"/></clipPath><clipPath id="1b134f1658"><path d="M 80.597656 54.777344 L 146.132812 54.777344 L 146.132812 246.898438 L 80.597656 246.898438 Z M 80.597656 54.777344 " clip-rule="nonzero"/></clipPath><clipPath id="5a8d1ee83a"><path d="M 0.597656 0.777344 L 66.132812 0.777344 L 66.132812 192.898438 L 0.597656 192.898438 Z M 0.597656 0.777344 " clip-rule="nonzero"/></clipPath><clipPath id="b1d6714598"><rect x="0" width="67" y="0" height="193"/></clipPath><clipPath id="83d6105b4f"><path d="M 12.128906 61.421875 L 44.441406 61.421875 L 44.441406 72.488281 L 12.128906 72.488281 Z M 12.128906 61.421875 " clip-rule="nonzero"/></clipPath><clipPath id="f3375cc02c"><path d="M 0.128906 0.421875 L 32.441406 0.421875 L 32.441406 11.488281 L 0.128906 11.488281 Z M 0.128906 0.421875 " clip-rule="nonzero"/></clipPath><clipPath id="987aa4ff24"><rect x="0" width="33" y="0" height="12"/></clipPath><clipPath id="b610893365"><path d="M 22.746094 51.554688 L 33.8125 51.554688 L 33.8125 83.867188 L 22.746094 83.867188 Z M 22.746094 51.554688 " clip-rule="nonzero"/></clipPath><clipPath id="32912f87ac"><path d="M 0.746094 0.554688 L 11.8125 0.554688 L 11.8125 32.867188 L 0.746094 32.867188 Z M 0.746094 0.554688 " clip-rule="nonzero"/></clipPath><clipPath id="3e08beb89b"><rect x="0" width="12" y="0" height="33"/></clipPath><clipPath id="98a35d79ad"><path d="M 177.640625 242.949219 L 209.953125 242.949219 L 209.953125 254.015625 L 177.640625 254.015625 Z M 177.640625 242.949219 " clip-rule="nonzero"/></clipPath><clipPath id="ef80e0b9aa"><path d="M 0.640625 0.949219 L 32.953125 0.949219 L 32.953125 12.015625 L 0.640625 12.015625 Z M 0.640625 0.949219 " clip-rule="nonzero"/></clipPath><clipPath id="7ab0f3802c"><rect x="0" width="33" y="0" height="13"/></clipPath><clipPath id="30febc8e43"><path d="M 188.257812 231.570312 L 199.324219 231.570312 L 199.324219 263.878906 L 188.257812 263.878906 Z M 188.257812 231.570312 " clip-rule="nonzero"/></clipPath><clipPath id="59a8a7eac3"><path d="M 0.257812 0.570312 L 11.324219 0.570312 L 11.324219 32.878906 L 0.257812 32.878906 Z M 0.257812 0.570312 " clip-rule="nonzero"/></clipPath><clipPath id="7de6fe8af9"><rect x="0" width="12" y="0" height="33"/></clipPath><clipPath id="9ea021c274"><rect x="0" width="26" y="0" height="56"/></clipPath><clipPath id="c447b07ceb"><rect x="0" width="27" y="0" height="56"/></clipPath></defs><g clip-path="url(#8d68ed7c47)"><g clip-path="url(#d50a668583)"><g transform="matrix(1, 0, 0, 1, -0.000000000000000056, 1)"><g clip-path="url(#6789b79ae5)"><g clip-path="url(#8e909f9498)"><g clip-path="url(#1abc483180)"><rect x="-49.473598" width="323.827186" fill="#f5f5f2" height="465.177571" y="-72.068796" fill-opacity="1"/></g></g></g></g></g></g><g clip-path="url(#0db3a3fcb7)"><g clip-path="url(#1357a651ca)"><g transform="matrix(1, 0, 0, 1, -0.000000000000000056, 1)"><g clip-path="url(#f120021a65)"><g clip-path="url(#7a602fa2f4)"><g clip-path="url(#db7b2441b5)"><rect x="-49.473598" width="323.827186" fill="#000000" height="465.177571" y="-72.068796" fill-opacity="1"/></g></g></g></g></g></g><g clip-path="url(#bc4f4afc27)"><g transform="matrix(1, 0, 0, 1, 17, 113)"><g clip-path="url(#e04cdc0e2b)"><g clip-path="url(#ad4a0f90ab)"><rect x="-66.473598" width="323.827186" fill="#7d1229" height="465.177571" y="-184.068796" fill-opacity="1"/></g></g></g></g><g clip-path="url(#1b134f1658)"><g transform="matrix(1, 0, 0, 1, 80, 54)"><g clip-path="url(#b1d6714598)"><g clip-path="url(#5a8d1ee83a)"><rect x="-129.473598" width="323.827186" fill="#7d1229" height="465.177571" y="-125.068796" fill-opacity="1"/></g></g></g></g><g clip-path="url(#83d6105b4f)"><g transform="matrix(1, 0, 0, 1, 12, 61)"><g clip-path="url(#987aa4ff24)"><g clip-path="url(#f3375cc02c)"><rect x="-61.473598" width="323.827186" fill="#7d1229" height="465.177571" y="-132.068796" fill-opacity="1"/></g></g></g></g><g clip-path="url(#b610893365)"><g transform="matrix(1, 0, 0, 1, 22, 51)"><g clip-path="url(#3e08beb89b)"><g clip-path="url(#32912f87ac)"><rect x="-71.473598" width="323.827186" fill="#7d1229" height="465.177571" y="-122.068796" fill-opacity="1"/></g></g></g></g><g clip-path="url(#98a35d79ad)"><g transform="matrix(1, 0, 0, 1, 177, 242)"><g clip-path="url(#7ab0f3802c)"><g clip-path="url(#ef80e0b9aa)"><rect x="-226.473598" width="323.827186" fill="#7d1229" height="465.177571" y="-313.068796" fill-opacity="1"/></g></g></g></g><g clip-path="url(#30febc8e43)"><g transform="matrix(1, 0, 0, 1, 188, 231)"><g clip-path="url(#7de6fe8af9)"><g clip-path="url(#59a8a7eac3)"><rect x="-237.473598" width="323.827186" fill="#7d1229" height="465.177571" y="-302.068796" fill-opacity="1"/></g></g></g></g><g transform="matrix(1, 0, 0, 1, 183, 254)"><g clip-path="url(#9ea021c274)"><g fill="#791026" fill-opacity="1"><g transform="translate(25.556427, 16.555058)"><g><path d="M -12.21875 37.609375 C -14.5625 37.609375 -16.445312 36.910156 -17.875 35.515625 C -19.3125 34.128906 -20.03125 32.28125 -20.03125 29.96875 C -20.03125 28.40625 -19.6875 27.035156 -19 25.859375 C -18.3125 24.679688 -17.28125 23.660156 -15.90625 22.796875 C -17.789062 21.890625 -19.25 20.585938 -20.28125 18.890625 C -21.3125 17.191406 -21.828125 15.128906 -21.828125 12.703125 C -21.828125 10.023438 -21.28125 7.679688 -20.1875 5.671875 C -19.101562 3.660156 -17.566406 2.101562 -15.578125 1 C -13.585938 -0.101562 -11.269531 -0.65625 -8.625 -0.65625 C -6.351562 -0.65625 -4.523438 -0.25 -3.140625 0.5625 C -1.765625 1.382812 -1.078125 2.460938 -1.078125 3.796875 C -1.078125 4.554688 -1.3125 5.179688 -1.78125 5.671875 C -2.257812 6.160156 -2.84375 6.40625 -3.53125 6.40625 C -4.144531 6.40625 -4.675781 6.234375 -5.125 5.890625 C -5.582031 5.546875 -6.226562 4.992188 -7.0625 4.234375 C -7.925781 3.367188 -8.691406 2.707031 -9.359375 2.25 C -10.035156 1.800781 -10.804688 1.578125 -11.671875 1.578125 C -13.078125 1.578125 -14.25 2.09375 -15.1875 3.125 C -16.132812 4.15625 -16.609375 5.46875 -16.609375 7.0625 C -16.609375 9.738281 -15.753906 12.171875 -14.046875 14.359375 C -12.347656 16.546875 -10.160156 17.984375 -7.484375 18.671875 L -7.484375 19.765625 C -9.441406 20.265625 -10.9375 21.109375 -11.96875 22.296875 C -13 23.492188 -13.515625 25 -13.515625 26.8125 C -13.515625 28.507812 -13.039062 29.910156 -12.09375 31.015625 C -11.15625 32.117188 -9.960938 32.671875 -8.515625 32.671875 C -7.359375 32.671875 -6.351562 32.316406 -5.5 31.609375 C -4.65625 30.910156 -3.851562 29.890625 -3.09375 28.546875 L -2.109375 28.875 C -3.304688 31.914062 -4.707031 34.128906 -6.3125 35.515625 C -7.925781 36.910156 -9.894531 37.609375 -12.21875 37.609375 Z M -12.21875 37.609375 "/></g></g></g></g></g><g transform="matrix(1, 0, 0, 1, 13, 9)"><g clip-path="url(#c447b07ceb)"><g fill="#791026" fill-opacity="1"><g transform="translate(0.976719, 39.446331)"><g><path d="M 12.21875 -37.609375 C 14.5625 -37.609375 16.445312 -36.910156 17.875 -35.515625 C 19.3125 -34.128906 20.03125 -32.28125 20.03125 -29.96875 C 20.03125 -28.40625 19.6875 -27.035156 19 -25.859375 C 18.3125 -24.679688 17.28125 -23.660156 15.90625 -22.796875 C 17.789062 -21.890625 19.25 -20.585938 20.28125 -18.890625 C 21.3125 -17.191406 21.828125 -15.128906 21.828125 -12.703125 C 21.828125 -10.023438 21.28125 -7.679688 20.1875 -5.671875 C 19.101562 -3.660156 17.566406 -2.101562 15.578125 -1 C 13.585938 0.101562 11.269531 0.65625 8.625 0.65625 C 6.351562 0.65625 4.523438 0.25 3.140625 -0.5625 C 1.765625 -1.382812 1.078125 -2.460938 1.078125 -3.796875 C 1.078125 -4.554688 1.3125 -5.179688 1.78125 -5.671875 C 2.257812 -6.160156 2.84375 -6.40625 3.53125 -6.40625 C 4.144531 -6.40625 4.675781 -6.234375 5.125 -5.890625 C 5.582031 -5.546875 6.226562 -4.992188 7.0625 -4.234375 C 7.925781 -3.367188 8.691406 -2.707031 9.359375 -2.25 C 10.035156 -1.800781 10.804688 -1.578125 11.671875 -1.578125 C 13.078125 -1.578125 14.25 -2.09375 15.1875 -3.125 C 16.132812 -4.15625 16.609375 -5.46875 16.609375 -7.0625 C 16.609375 -9.738281 15.753906 -12.171875 14.046875 -14.359375 C 12.347656 -16.546875 10.160156 -17.984375 7.484375 -18.671875 L 7.484375 -19.765625 C 9.441406 -20.265625 10.9375 -21.109375 11.96875 -22.296875 C 13 -23.492188 13.515625 -25 13.515625 -26.8125 C 13.515625 -28.507812 13.039062 -29.910156 12.09375 -31.015625 C 11.15625 -32.117188 9.960938 -32.671875 8.515625 -32.671875 C 7.359375 -32.671875 6.351562 -32.316406 5.5 -31.609375 C 4.65625 -30.910156 3.851562 -29.890625 3.09375 -28.546875 L 2.109375 -28.875 C 3.304688 -31.914062 4.707031 -34.128906 6.3125 -35.515625 C 7.925781 -36.910156 9.894531 -37.609375 12.21875 -37.609375 Z M 12.21875 -37.609375 "/></g></g></g></g></g></svg>