<svg xmlns="http://www.w3.org/2000/svg" xmlns:xlink="http://www.w3.org/1999/xlink" width="300" zoomAndPan="magnify" viewBox="0 0 224.87999 323.03998" height="420" preserveAspectRatio="xMidYMid meet" version="1.0"><defs><g/><clipPath id="f75f5b0b3b"><path d="M 0.273438 1 L 224.488281 1 L 224.488281 314 L 0.273438 314 Z M 0.273438 1 " clip-rule="nonzero"/></clipPath><clipPath id="d1905c0e05"><path d="M 18.019531 1.011719 C 8.15625 1.035156 0.296875 9.019531 0.273438 18.757812 L 0.273438 295.941406 C 0.296875 305.816406 8.308594 313.6875 18.070312 313.6875 L 206.292969 313.6875 C 216.195312 313.6875 224.089844 305.664062 224.089844 295.890625 L 224.089844 18.808594 C 224.089844 8.917969 216.09375 1.035156 206.34375 1.011719 Z M 18.019531 1.011719 " clip-rule="nonzero"/></clipPath><clipPath id="dc2bde05df"><path d="M 0.273438 0 L 224.246094 0 L 224.246094 312.707031 L 0.273438 312.707031 Z M 0.273438 0 " clip-rule="nonzero"/></clipPath><clipPath id="37d467f1b9"><path d="M 18.019531 0.0117188 C 8.15625 0.0351562 0.296875 8.019531 0.273438 17.757812 L 0.273438 294.941406 C 0.296875 304.816406 8.308594 312.6875 18.070312 312.6875 L 206.292969 312.6875 C 216.195312 312.6875 224.089844 304.664062 224.089844 294.890625 L 224.089844 17.808594 C 224.089844 7.917969 216.09375 0.0351562 206.34375 0.0117188 Z M 18.019531 0.0117188 " clip-rule="nonzero"/></clipPath><clipPath id="f4e696ad59"><rect x="0" width="225" y="0" height="313"/></clipPath><clipPath id="658b7ed11d"><path d="M 0.273438 1 L 224.488281 1 L 224.488281 314 L 0.273438 314 Z M 0.273438 1 " clip-rule="nonzero"/></clipPath><clipPath id="95c7f36e9f"><path d="M 206.292969 1.636719 C 215.730469 1.636719 223.464844 9.257812 223.464844 18.808594 L 223.464844 295.902344 C 223.464844 305.339844 215.84375 313.074219 206.292969 313.074219 L 18.070312 313.074219 C 8.632812 313.074219 0.898438 305.453125 0.898438 295.902344 L 0.898438 18.808594 C 0.898438 9.371094 8.519531 1.636719 18.070312 1.636719 Z M 13.269531 1.011719 C 6.914062 2.714844 1.964844 7.714844 0.273438 14.019531 L 0.273438 300.691406 C 1.976562 307.042969 6.976562 312.007812 13.28125 313.6875 L 211.09375 313.6875 C 217.449219 311.984375 222.410156 306.980469 224.089844 300.679688 L 224.089844 14.007812 C 222.398438 7.664062 217.382812 2.703125 211.082031 1.011719 Z M 13.269531 1.011719 " clip-rule="nonzero"/></clipPath><clipPath id="8d5bc41350"><path d="M 0.273438 0 L 224.246094 0 L 224.246094 312.707031 L 0.273438 312.707031 Z M 0.273438 0 " clip-rule="nonzero"/></clipPath><clipPath id="e998885afa"><path d="M 206.292969 0.636719 C 215.730469 0.636719 223.464844 8.257812 223.464844 17.808594 L 223.464844 294.902344 C 223.464844 304.339844 215.84375 312.074219 206.292969 312.074219 L 18.070312 312.074219 C 8.632812 312.074219 0.898438 304.453125 0.898438 294.902344 L 0.898438 17.808594 C 0.898438 8.371094 8.519531 0.636719 18.070312 0.636719 Z M 13.269531 0.0117188 C 6.914062 1.714844 1.964844 6.714844 0.273438 13.019531 L 0.273438 299.691406 C 1.976562 306.042969 6.976562 311.007812 13.28125 312.6875 L 211.09375 312.6875 C 217.449219 310.984375 222.410156 305.980469 224.089844 299.679688 L 224.089844 13.007812 C 222.398438 6.664062 217.382812 1.703125 211.082031 0.0117188 Z M 13.269531 0.0117188 " clip-rule="nonzero"/></clipPath><clipPath id="ee81473c98"><rect x="0" width="225" y="0" height="313"/></clipPath><clipPath id="0526e98431"><path d="M 17.316406 113.183594 L 209.425781 113.183594 L 209.425781 178.730469 L 17.316406 178.730469 Z M 17.316406 113.183594 " clip-rule="nonzero"/></clipPath><clipPath id="66c2028409"><path d="M 0.316406 0.183594 L 192.425781 0.183594 L 192.425781 65.730469 L 0.316406 65.730469 Z M 0.316406 0.183594 " clip-rule="nonzero"/></clipPath><clipPath id="041aa7d1fe"><rect x="0" width="193" y="0" height="66"/></clipPath><clipPath id="44a6ced697"><path d="M 80.597656 54.777344 L 146.132812 54.777344 L 146.132812 246.898438 L 80.597656 246.898438 Z M 80.597656 54.777344 " clip-rule="nonzero"/></clipPath><clipPath id="9ea436e192"><path d="M 0.597656 0.777344 L 66.132812 0.777344 L 66.132812 192.898438 L 0.597656 192.898438 Z M 0.597656 0.777344 " clip-rule="nonzero"/></clipPath><clipPath id="1bb308f315"><rect x="0" width="67" y="0" height="193"/></clipPath><clipPath id="167a0461d6"><path d="M 12.128906 61.421875 L 44.441406 61.421875 L 44.441406 72.488281 L 12.128906 72.488281 Z M 12.128906 61.421875 " clip-rule="nonzero"/></clipPath><clipPath id="06f0e233df"><path d="M 0.128906 0.421875 L 32.441406 0.421875 L 32.441406 11.488281 L 0.128906 11.488281 Z M 0.128906 0.421875 " clip-rule="nonzero"/></clipPath><clipPath id="f928d8833f"><rect x="0" width="33" y="0" height="12"/></clipPath><clipPath id="0134fec6c2"><path d="M 22.746094 51.554688 L 33.8125 51.554688 L 33.8125 83.867188 L 22.746094 83.867188 Z M 22.746094 51.554688 " clip-rule="nonzero"/></clipPath><clipPath id="e7391dbb54"><path d="M 0.746094 0.554688 L 11.8125 0.554688 L 11.8125 32.867188 L 0.746094 32.867188 Z M 0.746094 0.554688 " clip-rule="nonzero"/></clipPath><clipPath id="500837900f"><rect x="0" width="12" y="0" height="33"/></clipPath><clipPath id="21abe3263c"><path d="M 177.640625 242.949219 L 209.953125 242.949219 L 209.953125 254.015625 L 177.640625 254.015625 Z M 177.640625 242.949219 " clip-rule="nonzero"/></clipPath><clipPath id="a0c19d000a"><path d="M 0.640625 0.949219 L 32.953125 0.949219 L 32.953125 12.015625 L 0.640625 12.015625 Z M 0.640625 0.949219 " clip-rule="nonzero"/></clipPath><clipPath id="0ae3ecec49"><rect x="0" width="33" y="0" height="13"/></clipPath><clipPath id="8678ae78b3"><path d="M 188.257812 231.570312 L 199.324219 231.570312 L 199.324219 263.878906 L 188.257812 263.878906 Z M 188.257812 231.570312 " clip-rule="nonzero"/></clipPath><clipPath id="0c85d298d7"><path d="M 0.257812 0.570312 L 11.324219 0.570312 L 11.324219 32.878906 L 0.257812 32.878906 Z M 0.257812 0.570312 " clip-rule="nonzero"/></clipPath><clipPath id="b38fad9809"><rect x="0" width="12" y="0" height="33"/></clipPath><clipPath id="3bd702ff23"><rect x="0" width="51" y="0" height="56"/></clipPath><clipPath id="18c0e6de8e"><path d="M 0.273438 9 L 52 9 L 52 65 L 0.273438 65 Z M 0.273438 9 " clip-rule="nonzero"/></clipPath><clipPath id="dd34990113"><rect x="0" width="52" y="0" height="56"/></clipPath></defs><g clip-path="url(#f75f5b0b3b)"><g clip-path="url(#d1905c0e05)"><g transform="matrix(1, 0, 0, 1, -0.000000000000000056, 1)"><g clip-path="url(#f4e696ad59)"><g clip-path="url(#dc2bde05df)"><g clip-path="url(#37d467f1b9)"><rect x="-49.473598" width="323.827186" fill="#f5f5f2" height="465.177571" y="-72.068796" fill-opacity="1"/></g></g></g></g></g></g><g clip-path="url(#658b7ed11d)"><g clip-path="url(#95c7f36e9f)"><g transform="matrix(1, 0, 0, 1, -0.000000000000000056, 1)"><g clip-path="url(#ee81473c98)"><g clip-path="url(#8d5bc41350)"><g clip-path="url(#e998885afa)"><rect x="-49.473598" width="323.827186" fill="#000000" height="465.177571" y="-72.068796" fill-opacity="1"/></g></g></g></g></g></g><g clip-path="url(#0526e98431)"><g transform="matrix(1, 0, 0, 1, 17, 113)"><g clip-path="url(#041aa7d1fe)"><g clip-path="url(#66c2028409)"><rect x="-66.473598" width="323.827186" fill="#7d1229" height="465.177571" y="-184.068796" fill-opacity="1"/></g></g></g></g><g clip-path="url(#44a6ced697)"><g transform="matrix(1, 0, 0, 1, 80, 54)"><g clip-path="url(#1bb308f315)"><g clip-path="url(#9ea436e192)"><rect x="-129.473598" width="323.827186" fill="#7d1229" height="465.177571" y="-125.068796" fill-opacity="1"/></g></g></g></g><g clip-path="url(#167a0461d6)"><g transform="matrix(1, 0, 0, 1, 12, 61)"><g clip-path="url(#f928d8833f)"><g clip-path="url(#06f0e233df)"><rect x="-61.473598" width="323.827186" fill="#7d1229" height="465.177571" y="-132.068796" fill-opacity="1"/></g></g></g></g><g clip-path="url(#0134fec6c2)"><g transform="matrix(1, 0, 0, 1, 22, 51)"><g clip-path="url(#500837900f)"><g clip-path="url(#e7391dbb54)"><rect x="-71.473598" width="323.827186" fill="#7d1229" height="465.177571" y="-122.068796" fill-opacity="1"/></g></g></g></g><g clip-path="url(#21abe3263c)"><g transform="matrix(1, 0, 0, 1, 177, 242)"><g clip-path="url(#0ae3ecec49)"><g clip-path="url(#a0c19d000a)"><rect x="-226.473598" width="323.827186" fill="#7d1229" height="465.177571" y="-313.068796" fill-opacity="1"/></g></g></g></g><g clip-path="url(#8678ae78b3)"><g transform="matrix(1, 0, 0, 1, 188, 231)"><g clip-path="url(#b38fad9809)"><g clip-path="url(#0c85d298d7)"><rect x="-237.473598" width="323.827186" fill="#7d1229" height="465.177571" y="-302.068796" fill-opacity="1"/></g></g></g></g><g transform="matrix(1, 0, 0, 1, 171, 254)"><g clip-path="url(#3bd702ff23)"><g fill="#791026" fill-opacity="1"><g transform="translate(49.701952, 16.555058)"><g><path d="M -16.34375 37.609375 L -16.34375 5.3125 C -16.34375 3.65625 -16.640625 2.519531 -17.234375 1.90625 C -17.828125 1.289062 -18.671875 0.984375 -19.765625 0.984375 L -21.21875 0.984375 L -21.21875 0 L -3.046875 0 L -3.046875 0.984375 L -4.453125 0.984375 C -5.859375 0.984375 -6.882812 1.257812 -7.53125 1.8125 C -8.1875 2.375 -8.515625 3.5625 -8.515625 5.375 L -8.515625 25.671875 C -8.515625 27.953125 -8.304688 29.515625 -7.890625 30.359375 C -7.484375 31.210938 -6.71875 31.640625 -5.59375 31.640625 C -4.9375 31.640625 -3.882812 31.40625 -2.4375 30.9375 L -2.109375 31.859375 L -15.359375 37.609375 Z M -16.34375 37.609375 "/></g></g></g><g fill="#791026" fill-opacity="1"><g transform="translate(25.391096, 16.555058)"><g><path d="M -12.15625 37.609375 C -13.96875 37.609375 -15.660156 36.992188 -17.234375 35.765625 C -18.804688 34.535156 -20.085938 32.488281 -21.078125 29.625 C -22.078125 26.769531 -22.578125 23.046875 -22.578125 18.453125 C -22.578125 13.816406 -22.078125 10.078125 -21.078125 7.234375 C -20.085938 4.398438 -18.8125 2.375 -17.25 1.15625 C -15.695312 -0.0507812 -14 -0.65625 -12.15625 -0.65625 C -10.28125 -0.65625 -8.550781 -0.015625 -6.96875 1.265625 C -5.394531 2.554688 -4.128906 4.617188 -3.171875 7.453125 C -2.210938 10.296875 -1.734375 13.960938 -1.734375 18.453125 C -1.734375 22.765625 -2.1875 26.359375 -3.09375 29.234375 C -4 32.109375 -5.238281 34.222656 -6.8125 35.578125 C -8.382812 36.929688 -10.164062 37.609375 -12.15625 37.609375 Z M -12.15625 1.03125 C -12.84375 1.03125 -13.367188 1.289062 -13.734375 1.8125 C -14.097656 2.34375 -14.359375 3.335938 -14.515625 4.796875 C -14.679688 6.265625 -14.765625 8.46875 -14.765625 11.40625 L -14.765625 26.65625 C -14.765625 29.257812 -14.664062 31.226562 -14.46875 32.5625 C -14.269531 33.90625 -13.988281 34.800781 -13.625 35.25 C -13.257812 35.707031 -12.753906 35.9375 -12.109375 35.9375 C -11.378906 35.9375 -10.832031 35.617188 -10.46875 34.984375 C -10.113281 34.347656 -9.867188 33.304688 -9.734375 31.859375 C -9.609375 30.410156 -9.546875 28.296875 -9.546875 25.515625 L -9.546875 12.046875 C -9.546875 8.972656 -9.609375 6.6875 -9.734375 5.1875 C -9.867188 3.6875 -10.113281 2.617188 -10.46875 1.984375 C -10.832031 1.347656 -11.394531 1.03125 -12.15625 1.03125 Z M -12.15625 1.03125 "/></g></g></g></g></g><g clip-path="url(#18c0e6de8e)"><g transform="matrix(1, 0, 0, 1, -0.000000000000000111, 9)"><g clip-path="url(#dd34990113)"><g fill="#791026" fill-opacity="1"><g transform="translate(1.831194, 39.446243)"><g><path d="M 16.34375 -37.609375 L 16.34375 -5.3125 C 16.34375 -3.65625 16.640625 -2.519531 17.234375 -1.90625 C 17.828125 -1.289062 18.671875 -0.984375 19.765625 -0.984375 L 21.21875 -0.984375 L 21.21875 0 L 3.046875 0 L 3.046875 -0.984375 L 4.453125 -0.984375 C 5.859375 -0.984375 6.882812 -1.257812 7.53125 -1.8125 C 8.1875 -2.375 8.515625 -3.5625 8.515625 -5.375 L 8.515625 -25.671875 C 8.515625 -27.953125 8.304688 -29.515625 7.890625 -30.359375 C 7.484375 -31.210938 6.71875 -31.640625 5.59375 -31.640625 C 4.9375 -31.640625 3.882812 -31.40625 2.4375 -30.9375 L 2.109375 -31.859375 L 15.359375 -37.609375 Z M 16.34375 -37.609375 "/></g></g></g><g fill="#791026" fill-opacity="1"><g transform="translate(26.14205, 39.446243)"><g><path d="M 12.15625 -37.609375 C 13.96875 -37.609375 15.660156 -36.992188 17.234375 -35.765625 C 18.804688 -34.535156 20.085938 -32.488281 21.078125 -29.625 C 22.078125 -26.769531 22.578125 -23.046875 22.578125 -18.453125 C 22.578125 -13.816406 22.078125 -10.078125 21.078125 -7.234375 C 20.085938 -4.398438 18.8125 -2.375 17.25 -1.15625 C 15.695312 0.0507812 14 0.65625 12.15625 0.65625 C 10.28125 0.65625 8.550781 0.015625 6.96875 -1.265625 C 5.394531 -2.554688 4.128906 -4.617188 3.171875 -7.453125 C 2.210938 -10.296875 1.734375 -13.960938 1.734375 -18.453125 C 1.734375 -22.765625 2.1875 -26.359375 3.09375 -29.234375 C 4 -32.109375 5.238281 -34.222656 6.8125 -35.578125 C 8.382812 -36.929688 10.164062 -37.609375 12.15625 -37.609375 Z M 12.15625 -1.03125 C 12.84375 -1.03125 13.367188 -1.289062 13.734375 -1.8125 C 14.097656 -2.34375 14.359375 -3.335938 14.515625 -4.796875 C 14.679688 -6.265625 14.765625 -8.46875 14.765625 -11.40625 L 14.765625 -26.65625 C 14.765625 -29.257812 14.664062 -31.226562 14.46875 -32.5625 C 14.269531 -33.90625 13.988281 -34.800781 13.625 -35.25 C 13.257812 -35.707031 12.753906 -35.9375 12.109375 -35.9375 C 11.378906 -35.9375 10.832031 -35.617188 10.46875 -34.984375 C 10.113281 -34.347656 9.867188 -33.304688 9.734375 -31.859375 C 9.609375 -30.410156 9.546875 -28.296875 9.546875 -25.515625 L 9.546875 -12.046875 C 9.546875 -8.972656 9.609375 -6.6875 9.734375 -5.1875 C 9.867188 -3.6875 10.113281 -2.617188 10.46875 -1.984375 C 10.832031 -1.347656 11.394531 -1.03125 12.15625 -1.03125 Z M 12.15625 -1.03125 "/></g></g></g></g></g></g></svg>