<svg xmlns="http://www.w3.org/2000/svg" xmlns:xlink="http://www.w3.org/1999/xlink" width="300" zoomAndPan="magnify" viewBox="0 0 224.87999 323.03998" height="420" preserveAspectRatio="xMidYMid meet" version="1.0"><defs><g/><clipPath id="169e29db6a"><path d="M 0.273438 0 L 224.488281 0 L 224.488281 313.871094 L 0.273438 313.871094 Z M 0.273438 0 " clip-rule="nonzero"/></clipPath><clipPath id="0963ed3423"><path d="M 18.328125 0.691406 C 8.425781 0.691406 0.53125 8.710938 0.53125 18.488281 L 0.53125 295.582031 C 0.53125 305.472656 8.527344 313.355469 18.289062 313.378906 L 206.597656 313.378906 C 216.464844 313.355469 224.335938 305.371094 224.359375 295.621094 L 224.359375 18.449219 C 224.335938 8.5625 216.3125 0.691406 206.550781 0.691406 Z M 18.328125 0.691406 " clip-rule="nonzero"/></clipPath><clipPath id="6bfe2caeb7"><path d="M 0.511719 0.480469 L 224.488281 0.480469 L 224.488281 313.46875 L 0.511719 313.46875 Z M 0.511719 0.480469 " clip-rule="nonzero"/></clipPath><clipPath id="3af59cb412"><path d="M 18.328125 0.691406 C 8.425781 0.691406 0.53125 8.710938 0.53125 18.488281 L 0.53125 295.582031 C 0.53125 305.472656 8.527344 313.355469 18.289062 313.378906 L 206.597656 313.378906 C 216.464844 313.355469 224.335938 305.371094 224.359375 295.621094 L 224.359375 18.449219 C 224.335938 8.5625 216.3125 0.691406 206.550781 0.691406 Z M 18.328125 0.691406 " clip-rule="nonzero"/></clipPath><clipPath id="72a21191d3"><rect x="0" width="225" y="0" height="314"/></clipPath><clipPath id="d9b16ed48d"><path d="M 0.273438 0 L 224.488281 0 L 224.488281 313.871094 L 0.273438 313.871094 Z M 0.273438 0 " clip-rule="nonzero"/></clipPath><clipPath id="9917d533f8"><path d="M 206.550781 1.316406 C 215.988281 1.316406 223.71875 8.9375 223.71875 18.488281 L 223.71875 295.582031 C 223.71875 305.019531 216.101562 312.753906 206.550781 312.753906 L 18.328125 312.753906 C 8.890625 312.753906 1.15625 305.132812 1.15625 295.582031 L 1.15625 18.488281 C 1.15625 9.050781 8.777344 1.316406 18.328125 1.316406 Z M 13.527344 0.691406 C 7.183594 2.394531 2.222656 7.394531 0.53125 13.699219 L 0.53125 300.371094 C 2.234375 306.726562 7.234375 311.6875 13.539062 313.367188 L 211.351562 313.367188 C 217.703125 311.664062 222.667969 306.664062 224.347656 300.359375 L 224.347656 13.6875 C 222.65625 7.347656 217.640625 2.382812 211.335938 0.691406 Z M 13.527344 0.691406 " clip-rule="nonzero"/></clipPath><clipPath id="2d2662392f"><path d="M 0.511719 0.480469 L 224.488281 0.480469 L 224.488281 313.46875 L 0.511719 313.46875 Z M 0.511719 0.480469 " clip-rule="nonzero"/></clipPath><clipPath id="f6c1b20231"><path d="M 206.550781 1.316406 C 215.988281 1.316406 223.71875 8.9375 223.71875 18.488281 L 223.71875 295.582031 C 223.71875 305.019531 216.101562 312.753906 206.550781 312.753906 L 18.328125 312.753906 C 8.890625 312.753906 1.15625 305.132812 1.15625 295.582031 L 1.15625 18.488281 C 1.15625 9.050781 8.777344 1.316406 18.328125 1.316406 Z M 13.527344 0.691406 C 7.183594 2.394531 2.222656 7.394531 0.53125 13.699219 L 0.53125 300.371094 C 2.234375 306.726562 7.234375 311.6875 13.539062 313.367188 L 211.351562 313.367188 C 217.703125 311.664062 222.667969 306.664062 224.347656 300.359375 L 224.347656 13.6875 C 222.65625 7.347656 217.640625 2.382812 211.335938 0.691406 Z M 13.527344 0.691406 " clip-rule="nonzero"/></clipPath><clipPath id="a512adcefa"><rect x="0" width="225" y="0" height="314"/></clipPath><clipPath id="b6c7e67f6a"><path d="M 45.042969 91.367188 L 170.605469 91.367188 L 170.605469 212 L 45.042969 212 Z M 45.042969 91.367188 " clip-rule="nonzero"/></clipPath><clipPath id="d7693a276b"><path d="M 107.925781 91.679688 L 45.261719 211.988281 L 170.578125 211.988281 Z M 107.925781 91.679688 " clip-rule="nonzero"/></clipPath><clipPath id="354966141e"><path d="M 0.257812 0.648438 L 125.605469 0.648438 L 125.605469 121 L 0.257812 121 Z M 0.257812 0.648438 " clip-rule="nonzero"/></clipPath><clipPath id="b8cd171859"><path d="M 62.925781 0.679688 L 0.261719 120.988281 L 125.578125 120.988281 Z M 62.925781 0.679688 " clip-rule="nonzero"/></clipPath><clipPath id="8ce7c82e72"><rect x="0" width="126" y="0" height="121"/></clipPath><clipPath id="923e90866e"><path d="M 41 86 L 175 86 L 175 215 L 41 215 Z M 41 86 " clip-rule="nonzero"/></clipPath><clipPath id="8e9c2b5ab5"><path d="M 110.15625 92.835938 L 47.492188 213.140625 L 45.273438 211.988281 L 45.273438 209.480469 L 170.59375 209.480469 L 170.59375 211.988281 L 168.375 213.140625 L 105.707031 92.835938 L 107.925781 91.679688 L 110.144531 92.835938 M 105.695312 90.515625 L 107.914062 86.242188 L 110.132812 90.515625 L 172.796875 210.820312 L 174.703125 214.480469 L 41.136719 214.480469 L 43.042969 210.820312 L 105.707031 90.515625 Z M 105.695312 90.515625 " clip-rule="nonzero"/></clipPath><clipPath id="cbe788605e"><path d="M 0 0.144531 L 133.714844 0.144531 L 133.714844 128.640625 L 0 128.640625 Z M 0 0.144531 " clip-rule="nonzero"/></clipPath><clipPath id="d26fd8c6ce"><path d="M 69.15625 6.835938 L 6.492188 127.140625 L 4.273438 125.988281 L 4.273438 123.480469 L 129.59375 123.480469 L 129.59375 125.988281 L 127.375 127.140625 L 64.707031 6.835938 L 66.925781 5.679688 L 69.144531 6.835938 M 64.695312 4.515625 L 66.914062 0.242188 L 69.132812 4.515625 L 131.796875 124.820312 L 133.703125 128.480469 L 0.136719 128.480469 L 2.042969 124.820312 L 64.707031 4.515625 Z M 64.695312 4.515625 " clip-rule="nonzero"/></clipPath><clipPath id="2a734d8db0"><rect x="0" width="134" y="0" height="129"/></clipPath><clipPath id="21b6c6f3f9"><path d="M 10 52 L 41 52 L 41 82 L 10 82 Z M 10 52 " clip-rule="nonzero"/></clipPath><clipPath id="8600afeb8e"><path d="M 25.558594 52.515625 L 10.332031 81.753906 L 40.785156 81.753906 Z M 25.558594 52.515625 " clip-rule="nonzero"/></clipPath><clipPath id="f4a44e3caa"><path d="M 0.324219 0.402344 L 30.953125 0.402344 L 30.953125 29.835938 L 0.324219 29.835938 Z M 0.324219 0.402344 " clip-rule="nonzero"/></clipPath><clipPath id="2e31ab0cdb"><path d="M 15.558594 0.515625 L 0.332031 29.753906 L 30.785156 29.753906 Z M 15.558594 0.515625 " clip-rule="nonzero"/></clipPath><clipPath id="4699e07dd4"><rect x="0" width="31" y="0" height="30"/></clipPath><clipPath id="be55a74e60"><path d="M 7.1875 49 L 44 49 L 44 83.980469 L 7.1875 83.980469 Z M 7.1875 49 " clip-rule="nonzero"/></clipPath><clipPath id="47ca88ea92"><path d="M 26.910156 53.21875 L 11.683594 82.457031 L 10.332031 81.753906 L 10.332031 80.226562 L 40.785156 80.226562 L 40.785156 81.753906 L 39.433594 82.457031 L 24.203125 53.21875 L 25.558594 52.515625 L 26.910156 53.21875 M 24.203125 51.8125 L 25.558594 49.21875 L 26.910156 51.8125 L 42.140625 81.039062 L 43.304688 83.273438 L 7.835938 83.273438 L 9.003906 81.039062 L 24.203125 51.800781 Z M 24.203125 51.8125 " clip-rule="nonzero"/></clipPath><clipPath id="d082c548c5"><path d="M 0.691406 0.0546875 L 36.34375 0.0546875 L 36.34375 34.273438 L 0.691406 34.273438 Z M 0.691406 0.0546875 " clip-rule="nonzero"/></clipPath><clipPath id="0f88b1271f"><path d="M 19.910156 4.21875 L 4.683594 33.457031 L 3.332031 32.753906 L 3.332031 31.226562 L 33.785156 31.226562 L 33.785156 32.753906 L 32.433594 33.457031 L 17.203125 4.21875 L 18.558594 3.515625 L 19.910156 4.21875 M 17.203125 2.8125 L 18.558594 0.21875 L 19.910156 2.8125 L 35.140625 32.039062 L 36.304688 34.273438 L 0.835938 34.273438 L 2.003906 32.039062 L 17.203125 2.800781 Z M 17.203125 2.8125 " clip-rule="nonzero"/></clipPath><clipPath id="2cd986710f"><rect x="0" width="37" y="0" height="35"/></clipPath><clipPath id="51f63f8d8c"><path d="M 178 231.699219 L 209 231.699219 L 209 261.246094 L 178 261.246094 Z M 178 231.699219 " clip-rule="nonzero"/></clipPath><clipPath id="bb06c9b6cc"><path d="M 193.339844 261.117188 L 208.566406 231.878906 L 178.113281 231.878906 Z M 193.339844 261.117188 " clip-rule="nonzero"/></clipPath><clipPath id="2447e39d85"><path d="M 0.0664062 0.871094 L 30.695312 0.871094 L 30.695312 30.246094 L 0.0664062 30.246094 Z M 0.0664062 0.871094 " clip-rule="nonzero"/></clipPath><clipPath id="b0c957841e"><path d="M 15.339844 30.117188 L 30.566406 0.878906 L 0.113281 0.878906 Z M 15.339844 30.117188 " clip-rule="nonzero"/></clipPath><clipPath id="78403588c6"><rect x="0" width="31" y="0" height="31"/></clipPath><clipPath id="3261d1ad0b"><path d="M 175.222656 230 L 211.226562 230 L 211.226562 264.9375 L 175.222656 264.9375 Z M 175.222656 230 " clip-rule="nonzero"/></clipPath><clipPath id="de6e39a0b0"><path d="M 191.984375 260.402344 L 207.214844 231.164062 L 208.566406 231.863281 L 208.566406 233.394531 L 178.113281 233.394531 L 178.113281 231.863281 L 179.464844 231.164062 L 194.691406 260.402344 L 193.339844 261.105469 L 191.984375 260.402344 M 194.691406 261.804688 L 193.339844 264.402344 L 191.984375 261.804688 L 176.757812 232.566406 L 175.59375 230.335938 L 211.0625 230.335938 L 209.894531 232.566406 L 194.667969 261.804688 Z M 194.691406 261.804688 " clip-rule="nonzero"/></clipPath><clipPath id="319b246f7b"><path d="M 0.433594 0.195312 L 36.085938 0.195312 L 36.085938 34.414062 L 0.433594 34.414062 Z M 0.433594 0.195312 " clip-rule="nonzero"/></clipPath><clipPath id="5bf342e80a"><path d="M 16.984375 30.402344 L 32.214844 1.164062 L 33.566406 1.863281 L 33.566406 3.394531 L 3.113281 3.394531 L 3.113281 1.863281 L 4.464844 1.164062 L 19.691406 30.402344 L 18.339844 31.105469 L 16.984375 30.402344 M 19.691406 31.804688 L 18.339844 34.402344 L 16.984375 31.804688 L 1.757812 2.566406 L 0.59375 0.335938 L 36.0625 0.335938 L 34.894531 2.566406 L 19.667969 31.804688 Z M 19.691406 31.804688 " clip-rule="nonzero"/></clipPath><clipPath id="af295ef496"><rect x="0" width="37" y="0" height="35"/></clipPath><clipPath id="050313e4e2"><path d="M 0.273438 9 L 52 9 L 52 65 L 0.273438 65 Z M 0.273438 9 " clip-rule="nonzero"/></clipPath><clipPath id="c7977a03c0"><rect x="0" width="52" y="0" height="56"/></clipPath><clipPath id="fe9a32fc89"><rect x="0" width="51" y="0" height="56"/></clipPath></defs><g clip-path="url(#169e29db6a)"><g clip-path="url(#0963ed3423)"><g transform="matrix(1, 0, 0, 1, 0, 0)"><g clip-path="url(#72a21191d3)"><g clip-path="url(#6bfe2caeb7)"><g clip-path="url(#3af59cb412)"><rect x="-49.473598" width="323.827186" fill="#f5f5f2" height="465.177571" y="-71.068796" fill-opacity="1"/></g></g></g></g></g></g><g clip-path="url(#d9b16ed48d)"><g clip-path="url(#9917d533f8)"><g transform="matrix(1, 0, 0, 1, 0, 0)"><g clip-path="url(#a512adcefa)"><g clip-path="url(#2d2662392f)"><g clip-path="url(#f6c1b20231)"><rect x="-49.473598" width="323.827186" fill="#000000" height="465.177571" y="-71.068796" fill-opacity="1"/></g></g></g></g></g></g><g clip-path="url(#b6c7e67f6a)"><g clip-path="url(#d7693a276b)"><g transform="matrix(1, 0, 0, 1, 45, 91)"><g clip-path="url(#8ce7c82e72)"><g clip-path="url(#354966141e)"><g clip-path="url(#b8cd171859)"><rect x="-94.473598" width="323.827186" fill="#780f26" height="465.177571" y="-162.068796" fill-opacity="1"/></g></g></g></g></g></g><g clip-path="url(#923e90866e)"><g clip-path="url(#8e9c2b5ab5)"><g transform="matrix(1, 0, 0, 1, 41, 86)"><g clip-path="url(#2a734d8db0)"><g clip-path="url(#cbe788605e)"><g clip-path="url(#d26fd8c6ce)"><rect x="-90.473598" width="323.827186" fill="#780f26" height="465.177571" y="-157.068796" fill-opacity="1"/></g></g></g></g></g></g><g clip-path="url(#21b6c6f3f9)"><g clip-path="url(#8600afeb8e)"><g transform="matrix(1, 0, 0, 1, 10, 52)"><g clip-path="url(#4699e07dd4)"><g clip-path="url(#f4a44e3caa)"><g clip-path="url(#2e31ab0cdb)"><rect x="-59.473598" width="323.827186" fill="#780f26" height="465.177571" y="-123.068796" fill-opacity="1"/></g></g></g></g></g></g><g clip-path="url(#be55a74e60)"><g clip-path="url(#47ca88ea92)"><g transform="matrix(1, 0, 0, 1, 7, 49)"><g clip-path="url(#2cd986710f)"><g clip-path="url(#d082c548c5)"><g clip-path="url(#0f88b1271f)"><rect x="-56.473598" width="323.827186" fill="#780f26" height="465.177571" y="-120.068796" fill-opacity="1"/></g></g></g></g></g></g><g clip-path="url(#51f63f8d8c)"><g clip-path="url(#bb06c9b6cc)"><g transform="matrix(1, 0, 0, 1, 178, 231)"><g clip-path="url(#78403588c6)"><g clip-path="url(#2447e39d85)"><g clip-path="url(#b0c957841e)"><rect x="-227.473598" width="323.827186" fill="#780f26" height="465.177571" y="-302.068796" fill-opacity="1"/></g></g></g></g></g></g><g clip-path="url(#3261d1ad0b)"><g clip-path="url(#de6e39a0b0)"><g transform="matrix(1, 0, 0, 1, 175, 230)"><g clip-path="url(#af295ef496)"><g clip-path="url(#319b246f7b)"><g clip-path="url(#5bf342e80a)"><rect x="-224.473598" width="323.827186" fill="#780f26" height="465.177571" y="-301.068796" fill-opacity="1"/></g></g></g></g></g></g><g clip-path="url(#050313e4e2)"><g transform="matrix(1, 0, 0, 1, -0.000000000000000111, 9)"><g clip-path="url(#c7977a03c0)"><g fill="#791026" fill-opacity="1"><g transform="translate(1.831194, 39.446214)"><g><path d="M 16.34375 -37.609375 L 16.34375 -5.3125 C 16.34375 -3.65625 16.640625 -2.519531 17.234375 -1.90625 C 17.828125 -1.289062 18.671875 -0.984375 19.765625 -0.984375 L 21.21875 -0.984375 L 21.21875 0 L 3.046875 0 L 3.046875 -0.984375 L 4.453125 -0.984375 C 5.859375 -0.984375 6.882812 -1.257812 7.53125 -1.8125 C 8.1875 -2.375 8.515625 -3.5625 8.515625 -5.375 L 8.515625 -25.671875 C 8.515625 -27.953125 8.304688 -29.515625 7.890625 -30.359375 C 7.484375 -31.210938 6.71875 -31.640625 5.59375 -31.640625 C 4.9375 -31.640625 3.882812 -31.40625 2.4375 -30.9375 L 2.109375 -31.859375 L 15.359375 -37.609375 Z M 16.34375 -37.609375 "/></g></g></g><g fill="#791026" fill-opacity="1"><g transform="translate(26.14205, 39.446214)"><g><path d="M 19.8125 -37.609375 L 19.8125 -13.734375 L 23.234375 -13.734375 L 23.234375 -8.140625 L 19.8125 -8.140625 L 19.8125 0 L 12.484375 0 L 12.484375 -8.140625 L 1.03125 -8.140625 L 1.03125 -13.734375 L 16.765625 -37.609375 Z M 3.421875 -13.734375 L 12.484375 -13.734375 L 12.484375 -27.625 L 12.375 -27.625 Z M 3.421875 -13.734375 "/></g></g></g></g></g></g><g transform="matrix(1, 0, 0, 1, 171, 254)"><g clip-path="url(#fe9a32fc89)"><g fill="#791026" fill-opacity="1"><g transform="translate(49.701952, 16.555058)"><g><path d="M -16.34375 37.609375 L -16.34375 5.3125 C -16.34375 3.65625 -16.640625 2.519531 -17.234375 1.90625 C -17.828125 1.289062 -18.671875 0.984375 -19.765625 0.984375 L -21.21875 0.984375 L -21.21875 0 L -3.046875 0 L -3.046875 0.984375 L -4.453125 0.984375 C -5.859375 0.984375 -6.882812 1.257812 -7.53125 1.8125 C -8.1875 2.375 -8.515625 3.5625 -8.515625 5.375 L -8.515625 25.671875 C -8.515625 27.953125 -8.304688 29.515625 -7.890625 30.359375 C -7.484375 31.210938 -6.71875 31.640625 -5.59375 31.640625 C -4.9375 31.640625 -3.882812 31.40625 -2.4375 30.9375 L -2.109375 31.859375 L -15.359375 37.609375 Z M -16.34375 37.609375 "/></g></g></g><g fill="#791026" fill-opacity="1"><g transform="translate(25.391096, 16.555058)"><g><path d="M -19.8125 37.609375 L -19.8125 13.734375 L -23.234375 13.734375 L -23.234375 8.140625 L -19.8125 8.140625 L -19.8125 0 L -12.484375 0 L -12.484375 8.140625 L -1.03125 8.140625 L -1.03125 13.734375 L -16.765625 37.609375 Z M -3.421875 13.734375 L -12.484375 13.734375 L -12.484375 27.625 L -12.375 27.625 Z M -3.421875 13.734375 "/></g></g></g></g></g></svg>