<svg xmlns="http://www.w3.org/2000/svg" xmlns:xlink="http://www.w3.org/1999/xlink" width="300" zoomAndPan="magnify" viewBox="0 0 224.87999 323.03998" height="420" preserveAspectRatio="xMidYMid meet" version="1.0"><defs><g/><clipPath id="f3b19fa29d"><path d="M 0.273438 1 L 224.488281 1 L 224.488281 314 L 0.273438 314 Z M 0.273438 1 " clip-rule="nonzero"/></clipPath><clipPath id="ced5ba9e78"><path d="M 18.019531 1.011719 C 8.15625 1.035156 0.296875 9.019531 0.273438 18.757812 L 0.273438 295.941406 C 0.296875 305.816406 8.308594 313.6875 18.070312 313.6875 L 206.292969 313.6875 C 216.195312 313.6875 224.089844 305.664062 224.089844 295.890625 L 224.089844 18.808594 C 224.089844 8.917969 216.09375 1.035156 206.34375 1.011719 Z M 18.019531 1.011719 " clip-rule="nonzero"/></clipPath><clipPath id="a3bfae52e8"><path d="M 0.273438 0 L 224.246094 0 L 224.246094 312.707031 L 0.273438 312.707031 Z M 0.273438 0 " clip-rule="nonzero"/></clipPath><clipPath id="bba14a02c9"><path d="M 18.019531 0.0117188 C 8.15625 0.0351562 0.296875 8.019531 0.273438 17.757812 L 0.273438 294.941406 C 0.296875 304.816406 8.308594 312.6875 18.070312 312.6875 L 206.292969 312.6875 C 216.195312 312.6875 224.089844 304.664062 224.089844 294.890625 L 224.089844 17.808594 C 224.089844 7.917969 216.09375 0.0351562 206.34375 0.0117188 Z M 18.019531 0.0117188 " clip-rule="nonzero"/></clipPath><clipPath id="363df73ca1"><rect x="0" width="225" y="0" height="313"/></clipPath><clipPath id="7941c19286"><path d="M 0.273438 1 L 224.488281 1 L 224.488281 314 L 0.273438 314 Z M 0.273438 1 " clip-rule="nonzero"/></clipPath><clipPath id="68426a2597"><path d="M 206.292969 1.636719 C 215.730469 1.636719 223.464844 9.257812 223.464844 18.808594 L 223.464844 295.902344 C 223.464844 305.339844 215.84375 313.074219 206.292969 313.074219 L 18.070312 313.074219 C 8.632812 313.074219 0.898438 305.453125 0.898438 295.902344 L 0.898438 18.808594 C 0.898438 9.371094 8.519531 1.636719 18.070312 1.636719 Z M 13.269531 1.011719 C 6.914062 2.714844 1.964844 7.714844 0.273438 14.019531 L 0.273438 300.691406 C 1.976562 307.042969 6.976562 312.007812 13.28125 313.6875 L 211.09375 313.6875 C 217.449219 311.984375 222.410156 306.980469 224.089844 300.679688 L 224.089844 14.007812 C 222.398438 7.664062 217.382812 2.703125 211.082031 1.011719 Z M 13.269531 1.011719 " clip-rule="nonzero"/></clipPath><clipPath id="51a11d452b"><path d="M 0.273438 0 L 224.246094 0 L 224.246094 312.707031 L 0.273438 312.707031 Z M 0.273438 0 " clip-rule="nonzero"/></clipPath><clipPath id="c11b033f42"><path d="M 206.292969 0.636719 C 215.730469 0.636719 223.464844 8.257812 223.464844 17.808594 L 223.464844 294.902344 C 223.464844 304.339844 215.84375 312.074219 206.292969 312.074219 L 18.070312 312.074219 C 8.632812 312.074219 0.898438 304.453125 0.898438 294.902344 L 0.898438 17.808594 C 0.898438 8.371094 8.519531 0.636719 18.070312 0.636719 Z M 13.269531 0.0117188 C 6.914062 1.714844 1.964844 6.714844 0.273438 13.019531 L 0.273438 299.691406 C 1.976562 306.042969 6.976562 311.007812 13.28125 312.6875 L 211.09375 312.6875 C 217.449219 310.984375 222.410156 305.980469 224.089844 299.679688 L 224.089844 13.007812 C 222.398438 6.664062 217.382812 1.703125 211.082031 0.0117188 Z M 13.269531 0.0117188 " clip-rule="nonzero"/></clipPath><clipPath id="e69d04e54a"><rect x="0" width="225" y="0" height="313"/></clipPath><clipPath id="10463cf555"><path d="M 17.316406 113.183594 L 209.425781 113.183594 L 209.425781 178.730469 L 17.316406 178.730469 Z M 17.316406 113.183594 " clip-rule="nonzero"/></clipPath><clipPath id="c01aa41be0"><path d="M 0.316406 0.183594 L 192.425781 0.183594 L 192.425781 65.730469 L 0.316406 65.730469 Z M 0.316406 0.183594 " clip-rule="nonzero"/></clipPath><clipPath id="687785a746"><rect x="0" width="193" y="0" height="66"/></clipPath><clipPath id="fcab44da73"><path d="M 80.597656 54.777344 L 146.132812 54.777344 L 146.132812 246.898438 L 80.597656 246.898438 Z M 80.597656 54.777344 " clip-rule="nonzero"/></clipPath><clipPath id="210dea10a8"><path d="M 0.597656 0.777344 L 66.132812 0.777344 L 66.132812 192.898438 L 0.597656 192.898438 Z M 0.597656 0.777344 " clip-rule="nonzero"/></clipPath><clipPath id="8f94637be7"><rect x="0" width="67" y="0" height="193"/></clipPath><clipPath id="97c6aa9682"><path d="M 12.128906 61.421875 L 44.441406 61.421875 L 44.441406 72.488281 L 12.128906 72.488281 Z M 12.128906 61.421875 " clip-rule="nonzero"/></clipPath><clipPath id="ea27a4d0b8"><path d="M 0.128906 0.421875 L 32.441406 0.421875 L 32.441406 11.488281 L 0.128906 11.488281 Z M 0.128906 0.421875 " clip-rule="nonzero"/></clipPath><clipPath id="f901686227"><rect x="0" width="33" y="0" height="12"/></clipPath><clipPath id="2ebbbf3389"><path d="M 22.746094 51.554688 L 33.8125 51.554688 L 33.8125 83.867188 L 22.746094 83.867188 Z M 22.746094 51.554688 " clip-rule="nonzero"/></clipPath><clipPath id="d9139faefa"><path d="M 0.746094 0.554688 L 11.8125 0.554688 L 11.8125 32.867188 L 0.746094 32.867188 Z M 0.746094 0.554688 " clip-rule="nonzero"/></clipPath><clipPath id="65f71d3556"><rect x="0" width="12" y="0" height="33"/></clipPath><clipPath id="9b8e32496b"><path d="M 177.640625 242.949219 L 209.953125 242.949219 L 209.953125 254.015625 L 177.640625 254.015625 Z M 177.640625 242.949219 " clip-rule="nonzero"/></clipPath><clipPath id="0286252f14"><path d="M 0.640625 0.949219 L 32.953125 0.949219 L 32.953125 12.015625 L 0.640625 12.015625 Z M 0.640625 0.949219 " clip-rule="nonzero"/></clipPath><clipPath id="ff7846446e"><rect x="0" width="33" y="0" height="13"/></clipPath><clipPath id="82cf1e3c70"><path d="M 188.257812 231.570312 L 199.324219 231.570312 L 199.324219 263.878906 L 188.257812 263.878906 Z M 188.257812 231.570312 " clip-rule="nonzero"/></clipPath><clipPath id="e1411fe789"><path d="M 0.257812 0.570312 L 11.324219 0.570312 L 11.324219 32.878906 L 0.257812 32.878906 Z M 0.257812 0.570312 " clip-rule="nonzero"/></clipPath><clipPath id="7975395f6a"><rect x="0" width="12" y="0" height="33"/></clipPath><clipPath id="e91d38574b"><rect x="0" width="51" y="0" height="56"/></clipPath><clipPath id="b1e448da13"><path d="M 0.273438 9 L 52 9 L 52 65 L 0.273438 65 Z M 0.273438 9 " clip-rule="nonzero"/></clipPath><clipPath id="3e81285c56"><rect x="0" width="52" y="0" height="56"/></clipPath></defs><g clip-path="url(#f3b19fa29d)"><g clip-path="url(#ced5ba9e78)"><g transform="matrix(1, 0, 0, 1, -0.000000000000000056, 1)"><g clip-path="url(#363df73ca1)"><g clip-path="url(#a3bfae52e8)"><g clip-path="url(#bba14a02c9)"><rect x="-49.473598" width="323.827186" fill="#f5f5f2" height="465.177571" y="-72.068796" fill-opacity="1"/></g></g></g></g></g></g><g clip-path="url(#7941c19286)"><g clip-path="url(#68426a2597)"><g transform="matrix(1, 0, 0, 1, -0.000000000000000056, 1)"><g clip-path="url(#e69d04e54a)"><g clip-path="url(#51a11d452b)"><g clip-path="url(#c11b033f42)"><rect x="-49.473598" width="323.827186" fill="#000000" height="465.177571" y="-72.068796" fill-opacity="1"/></g></g></g></g></g></g><g clip-path="url(#10463cf555)"><g transform="matrix(1, 0, 0, 1, 17, 113)"><g clip-path="url(#687785a746)"><g clip-path="url(#c01aa41be0)"><rect x="-66.473598" width="323.827186" fill="#7d1229" height="465.177571" y="-184.068796" fill-opacity="1"/></g></g></g></g><g clip-path="url(#fcab44da73)"><g transform="matrix(1, 0, 0, 1, 80, 54)"><g clip-path="url(#8f94637be7)"><g clip-path="url(#210dea10a8)"><rect x="-129.473598" width="323.827186" fill="#7d1229" height="465.177571" y="-125.068796" fill-opacity="1"/></g></g></g></g><g clip-path="url(#97c6aa9682)"><g transform="matrix(1, 0, 0, 1, 12, 61)"><g clip-path="url(#f901686227)"><g clip-path="url(#ea27a4d0b8)"><rect x="-61.473598" width="323.827186" fill="#7d1229" height="465.177571" y="-132.068796" fill-opacity="1"/></g></g></g></g><g clip-path="url(#2ebbbf3389)"><g transform="matrix(1, 0, 0, 1, 22, 51)"><g clip-path="url(#65f71d3556)"><g clip-path="url(#d9139faefa)"><rect x="-71.473598" width="323.827186" fill="#7d1229" height="465.177571" y="-122.068796" fill-opacity="1"/></g></g></g></g><g clip-path="url(#9b8e32496b)"><g transform="matrix(1, 0, 0, 1, 177, 242)"><g clip-path="url(#ff7846446e)"><g clip-path="url(#0286252f14)"><rect x="-226.473598" width="323.827186" fill="#7d1229" height="465.177571" y="-313.068796" fill-opacity="1"/></g></g></g></g><g clip-path="url(#82cf1e3c70)"><g transform="matrix(1, 0, 0, 1, 188, 231)"><g clip-path="url(#7975395f6a)"><g clip-path="url(#e1411fe789)"><rect x="-237.473598" width="323.827186" fill="#7d1229" height="465.177571" y="-302.068796" fill-opacity="1"/></g></g></g></g><g transform="matrix(1, 0, 0, 1, 171, 254)"><g clip-path="url(#e91d38574b)"><g fill="#791026" fill-opacity="1"><g transform="translate(49.701952, 16.554998)"><g><path d="M -16.34375 37.609375 L -16.34375 5.3125 C -16.34375 3.65625 -16.640625 2.519531 -17.234375 1.90625 C -17.828125 1.289062 -18.671875 0.984375 -19.765625 0.984375 L -21.21875 0.984375 L -21.21875 0 L -3.046875 0 L -3.046875 0.984375 L -4.453125 0.984375 C -5.859375 0.984375 -6.882812 1.257812 -7.53125 1.8125 C -8.1875 2.375 -8.515625 3.5625 -8.515625 5.375 L -8.515625 25.671875 C -8.515625 27.953125 -8.304688 29.515625 -7.890625 30.359375 C -7.484375 31.210938 -6.71875 31.640625 -5.59375 31.640625 C -4.9375 31.640625 -3.882812 31.40625 -2.4375 30.9375 L -2.109375 31.859375 L -15.359375 37.609375 Z M -16.34375 37.609375 "/></g></g></g><g fill="#791026" fill-opacity="1"><g transform="translate(25.391096, 16.554998)"><g><path d="M -16.34375 37.609375 L -16.34375 5.3125 C -16.34375 3.65625 -16.640625 2.519531 -17.234375 1.90625 C -17.828125 1.289062 -18.671875 0.984375 -19.765625 0.984375 L -21.21875 0.984375 L -21.21875 0 L -3.046875 0 L -3.046875 0.984375 L -4.453125 0.984375 C -5.859375 0.984375 -6.882812 1.257812 -7.53125 1.8125 C -8.1875 2.375 -8.515625 3.5625 -8.515625 5.375 L -8.515625 25.671875 C -8.515625 27.953125 -8.304688 29.515625 -7.890625 30.359375 C -7.484375 31.210938 -6.71875 31.640625 -5.59375 31.640625 C -4.9375 31.640625 -3.882812 31.40625 -2.4375 30.9375 L -2.109375 31.859375 L -15.359375 37.609375 Z M -16.34375 37.609375 "/></g></g></g></g></g><g clip-path="url(#b1e448da13)"><g transform="matrix(1, 0, 0, 1, -0.000000000000000111, 9)"><g clip-path="url(#3e81285c56)"><g fill="#791026" fill-opacity="1"><g transform="translate(1.831194, 39.446238)"><g><path d="M 16.34375 -37.609375 L 16.34375 -5.3125 C 16.34375 -3.65625 16.640625 -2.519531 17.234375 -1.90625 C 17.828125 -1.289062 18.671875 -0.984375 19.765625 -0.984375 L 21.21875 -0.984375 L 21.21875 0 L 3.046875 0 L 3.046875 -0.984375 L 4.453125 -0.984375 C 5.859375 -0.984375 6.882812 -1.257812 7.53125 -1.8125 C 8.1875 -2.375 8.515625 -3.5625 8.515625 -5.375 L 8.515625 -25.671875 C 8.515625 -27.953125 8.304688 -29.515625 7.890625 -30.359375 C 7.484375 -31.210938 6.71875 -31.640625 5.59375 -31.640625 C 4.9375 -31.640625 3.882812 -31.40625 2.4375 -30.9375 L 2.109375 -31.859375 L 15.359375 -37.609375 Z M 16.34375 -37.609375 "/></g></g></g><g fill="#791026" fill-opacity="1"><g transform="translate(26.14205, 39.446238)"><g><path d="M 16.34375 -37.609375 L 16.34375 -5.3125 C 16.34375 -3.65625 16.640625 -2.519531 17.234375 -1.90625 C 17.828125 -1.289062 18.671875 -0.984375 19.765625 -0.984375 L 21.21875 -0.984375 L 21.21875 0 L 3.046875 0 L 3.046875 -0.984375 L 4.453125 -0.984375 C 5.859375 -0.984375 6.882812 -1.257812 7.53125 -1.8125 C 8.1875 -2.375 8.515625 -3.5625 8.515625 -5.375 L 8.515625 -25.671875 C 8.515625 -27.953125 8.304688 -29.515625 7.890625 -30.359375 C 7.484375 -31.210938 6.71875 -31.640625 5.59375 -31.640625 C 4.9375 -31.640625 3.882812 -31.40625 2.4375 -30.9375 L 2.109375 -31.859375 L 15.359375 -37.609375 Z M 16.34375 -37.609375 "/></g></g></g></g></g></g></svg>