<svg xmlns="http://www.w3.org/2000/svg" xmlns:xlink="http://www.w3.org/1999/xlink" width="300" zoomAndPan="magnify" viewBox="0 0 224.87999 323.03998" height="420" preserveAspectRatio="xMidYMid meet" version="1.0"><defs><g/><clipPath id="ee929d8642"><path d="M 0.273438 0 L 224.488281 0 L 224.488281 313.871094 L 0.273438 313.871094 Z M 0.273438 0 " clip-rule="nonzero"/></clipPath><clipPath id="2bc6ea67cc"><path d="M 18.289062 0.691406 C 8.402344 0.714844 0.53125 8.722656 0.53125 18.488281 L 0.53125 295.582031 C 0.53125 305.484375 8.550781 313.378906 18.328125 313.378906 L 206.550781 313.378906 C 216.4375 313.378906 224.335938 305.371094 224.347656 295.609375 L 224.347656 18.460938 C 224.335938 8.585938 216.335938 0.714844 206.585938 0.691406 Z M 18.289062 0.691406 " clip-rule="nonzero"/></clipPath><clipPath id="886a09475a"><path d="M 0.511719 0.480469 L 224.488281 0.480469 L 224.488281 313.46875 L 0.511719 313.46875 Z M 0.511719 0.480469 " clip-rule="nonzero"/></clipPath><clipPath id="ac435f5f49"><path d="M 18.289062 0.691406 C 8.402344 0.714844 0.53125 8.722656 0.53125 18.488281 L 0.53125 295.582031 C 0.53125 305.484375 8.550781 313.378906 18.328125 313.378906 L 206.550781 313.378906 C 216.4375 313.378906 224.335938 305.371094 224.347656 295.609375 L 224.347656 18.460938 C 224.335938 8.585938 216.335938 0.714844 206.585938 0.691406 Z M 18.289062 0.691406 " clip-rule="nonzero"/></clipPath><clipPath id="9284e2dfa0"><rect x="0" width="225" y="0" height="314"/></clipPath><clipPath id="8d8dc96a7e"><path d="M 0.273438 0 L 224.488281 0 L 224.488281 313.871094 L 0.273438 313.871094 Z M 0.273438 0 " clip-rule="nonzero"/></clipPath><clipPath id="ff10221175"><path d="M 206.550781 1.316406 C 215.988281 1.316406 223.71875 8.9375 223.71875 18.488281 L 223.71875 295.582031 C 223.71875 305.019531 216.101562 312.753906 206.550781 312.753906 L 18.328125 312.753906 C 8.890625 312.753906 1.15625 305.132812 1.15625 295.582031 L 1.15625 18.488281 C 1.15625 9.050781 8.777344 1.316406 18.328125 1.316406 Z M 13.527344 0.691406 C 7.171875 2.394531 2.222656 7.394531 0.53125 13.699219 L 0.53125 300.371094 C 2.234375 306.726562 7.234375 311.6875 13.539062 313.367188 L 211.351562 313.367188 C 217.703125 311.664062 222.667969 306.664062 224.347656 300.359375 L 224.347656 13.6875 C 222.65625 7.347656 217.640625 2.382812 211.335938 0.691406 Z M 13.527344 0.691406 " clip-rule="nonzero"/></clipPath><clipPath id="c22dd61a4d"><path d="M 0.511719 0.480469 L 224.488281 0.480469 L 224.488281 313.46875 L 0.511719 313.46875 Z M 0.511719 0.480469 " clip-rule="nonzero"/></clipPath><clipPath id="51369042ed"><path d="M 206.550781 1.316406 C 215.988281 1.316406 223.71875 8.9375 223.71875 18.488281 L 223.71875 295.582031 C 223.71875 305.019531 216.101562 312.753906 206.550781 312.753906 L 18.328125 312.753906 C 8.890625 312.753906 1.15625 305.132812 1.15625 295.582031 L 1.15625 18.488281 C 1.15625 9.050781 8.777344 1.316406 18.328125 1.316406 Z M 13.527344 0.691406 C 7.171875 2.394531 2.222656 7.394531 0.53125 13.699219 L 0.53125 300.371094 C 2.234375 306.726562 7.234375 311.6875 13.539062 313.367188 L 211.351562 313.367188 C 217.703125 311.664062 222.667969 306.664062 224.347656 300.359375 L 224.347656 13.6875 C 222.65625 7.347656 217.640625 2.382812 211.335938 0.691406 Z M 13.527344 0.691406 " clip-rule="nonzero"/></clipPath><clipPath id="cd83d04d19"><rect x="0" width="225" y="0" height="314"/></clipPath><clipPath id="7e21102a65"><path d="M 27.5 68.285156 L 197.378906 68.285156 L 197.378906 230.777344 L 27.5 230.777344 Z M 27.5 68.285156 " clip-rule="nonzero"/></clipPath><clipPath id="e6d1f74f17"><path d="M 112.4375 68.996094 L 138.632812 122.011719 L 197.164062 130.535156 L 154.800781 171.769531 L 164.828125 230.046875 L 112.4375 202.601562 L 60.175781 230.046875 L 70.074219 171.769531 L 27.839844 130.535156 L 86.367188 122.011719 Z M 112.4375 68.996094 " clip-rule="nonzero"/></clipPath><clipPath id="349ff527d3"><path d="M 0.792969 0.914062 L 170.207031 0.914062 L 170.207031 162.195312 L 0.792969 162.195312 Z M 0.792969 0.914062 " clip-rule="nonzero"/></clipPath><clipPath id="7bc0bb1004"><path d="M 85.4375 0.996094 L 111.632812 54.011719 L 170.164062 62.535156 L 127.800781 103.769531 L 137.828125 162.046875 L 85.4375 134.601562 L 33.175781 162.046875 L 43.074219 103.769531 L 0.839844 62.535156 L 59.367188 54.011719 Z M 85.4375 0.996094 " clip-rule="nonzero"/></clipPath><clipPath id="0a124306ae"><rect x="0" width="171" y="0" height="163"/></clipPath><clipPath id="14b8e3bebb"><path d="M 11 51.667969 L 56 51.667969 L 56 95 L 11 95 Z M 11 51.667969 " clip-rule="nonzero"/></clipPath><clipPath id="f7b61299a4"><path d="M 33.640625 51.789062 L 40.523438 65.539062 L 55.824219 67.980469 L 44.734375 78.847656 L 47.390625 94.152344 L 33.640625 86.832031 L 19.894531 94.152344 L 22.550781 78.847656 L 11.246094 67.980469 L 26.773438 65.539062 Z M 33.640625 51.789062 " clip-rule="nonzero"/></clipPath><clipPath id="00f956f007"><path d="M 0.0429688 0.6875 L 45 0.6875 L 45 43.28125 L 0.0429688 43.28125 Z M 0.0429688 0.6875 " clip-rule="nonzero"/></clipPath><clipPath id="2770caba3e"><path d="M 22.640625 0.789062 L 29.523438 14.539062 L 44.824219 16.980469 L 33.734375 27.847656 L 36.390625 43.152344 L 22.640625 35.832031 L 8.894531 43.152344 L 11.550781 27.847656 L 0.246094 16.980469 L 15.773438 14.539062 Z M 22.640625 0.789062 " clip-rule="nonzero"/></clipPath><clipPath id="99a342b83e"><rect x="0" width="45" y="0" height="44"/></clipPath><clipPath id="b476daa2bd"><path d="M 173.375 219 L 218.613281 219 L 218.613281 262 L 173.375 262 Z M 173.375 219 " clip-rule="nonzero"/></clipPath><clipPath id="000e0d627a"><path d="M 195.894531 261.78125 L 189.015625 248.03125 L 173.710938 245.589844 L 184.804688 234.722656 L 182.148438 219.417969 L 195.894531 226.738281 L 209.644531 219.417969 L 206.988281 234.722656 L 218.292969 245.589844 L 202.765625 248.03125 Z M 195.894531 261.78125 " clip-rule="nonzero"/></clipPath><clipPath id="7fe9add8bf"><path d="M 0.519531 0.1875 L 45.503906 0.1875 L 45.503906 42.78125 L 0.519531 42.78125 Z M 0.519531 0.1875 " clip-rule="nonzero"/></clipPath><clipPath id="7c7d079764"><path d="M 22.894531 42.78125 L 16.015625 29.03125 L 0.710938 26.589844 L 11.804688 15.722656 L 9.148438 0.417969 L 22.894531 7.738281 L 36.644531 0.417969 L 33.988281 15.722656 L 45.292969 26.589844 L 29.765625 29.03125 Z M 22.894531 42.78125 " clip-rule="nonzero"/></clipPath><clipPath id="2faf65fdcf"><rect x="0" width="46" y="0" height="43"/></clipPath><clipPath id="7480da41e4"><rect x="0" width="26" y="0" height="56"/></clipPath><clipPath id="84119c5bc7"><rect x="0" width="27" y="0" height="56"/></clipPath></defs><g clip-path="url(#ee929d8642)"><g clip-path="url(#2bc6ea67cc)"><g transform="matrix(1, 0, 0, 1, 0, 0)"><g clip-path="url(#9284e2dfa0)"><g clip-path="url(#886a09475a)"><g clip-path="url(#ac435f5f49)"><rect x="-49.473598" width="323.827186" fill="#f5f5f2" height="465.177571" y="-71.068796" fill-opacity="1"/></g></g></g></g></g></g><g clip-path="url(#8d8dc96a7e)"><g clip-path="url(#ff10221175)"><g transform="matrix(1, 0, 0, 1, 0, 0)"><g clip-path="url(#cd83d04d19)"><g clip-path="url(#c22dd61a4d)"><g clip-path="url(#51369042ed)"><rect x="-49.473598" width="323.827186" fill="#000000" height="465.177571" y="-71.068796" fill-opacity="1"/></g></g></g></g></g></g><g clip-path="url(#7e21102a65)"><g clip-path="url(#e6d1f74f17)"><g transform="matrix(1, 0, 0, 1, 27, 68)"><g clip-path="url(#0a124306ae)"><g clip-path="url(#349ff527d3)"><g clip-path="url(#7bc0bb1004)"><rect x="-76.473598" width="323.827186" fill="#7d1229" height="465.177571" y="-139.068796" fill-opacity="1"/></g></g></g></g></g></g><g clip-path="url(#14b8e3bebb)"><g clip-path="url(#f7b61299a4)"><g transform="matrix(1, 0, 0, 1, 11, 51)"><g clip-path="url(#99a342b83e)"><g clip-path="url(#00f956f007)"><g clip-path="url(#2770caba3e)"><rect x="-60.473598" width="323.827186" fill="#7d1229" height="465.177571" y="-122.068796" fill-opacity="1"/></g></g></g></g></g></g><g clip-path="url(#b476daa2bd)"><g clip-path="url(#000e0d627a)"><g transform="matrix(1, 0, 0, 1, 173, 219)"><g clip-path="url(#2faf65fdcf)"><g clip-path="url(#7fe9add8bf)"><g clip-path="url(#7c7d079764)"><rect x="-222.473598" width="323.827186" fill="#7d1229" height="465.177571" y="-290.068796" fill-opacity="1"/></g></g></g></g></g></g><g fill="#ffffff" fill-opacity="1"><g transform="translate(206.878502, 233.392344)"><g><path d="M -4.46875 0 L -4.46875 9.1875 L -1.296875 9.1875 L -1.296875 11.03125 L -1.59375 11.03125 C -2.664062 11.03125 -3.476562 11.234375 -4.03125 11.640625 C -4.59375 12.046875 -4.894531 12.613281 -4.9375 13.34375 L -7.109375 13.34375 L -7.109375 0 Z M -4.46875 0 "/></g></g></g><g fill="#ffffff" fill-opacity="1"><g transform="translate(196.432412, 233.392344)"><g><path d="M -9.890625 5 L -9.890625 2.953125 L -8.40625 2.953125 L -8.40625 0 L -5.765625 0 L -5.765625 2.953125 L -0.5 2.953125 L -0.5 5.21875 L -5.40625 13.34375 L -8.40625 13.34375 L -8.40625 5 Z M -5.828125 10.734375 L -5.796875 10.734375 L -2.4375 5 L -5.765625 5 C -5.765625 6.675781 -5.785156 8.585938 -5.828125 10.734375 Z M -5.828125 10.734375 "/></g></g></g><g fill="#ffffff" fill-opacity="1"><g transform="translate(22.905295, 77.025542)"><g><path d="M 4.46875 0 L 4.46875 -9.1875 L 1.296875 -9.1875 L 1.296875 -11.03125 L 1.59375 -11.03125 C 2.664062 -11.03125 3.476562 -11.234375 4.03125 -11.640625 C 4.59375 -12.046875 4.894531 -12.613281 4.9375 -13.34375 L 7.109375 -13.34375 L 7.109375 0 Z M 4.46875 0 "/></g></g></g><g fill="#ffffff" fill-opacity="1"><g transform="translate(33.351385, 77.025542)"><g><path d="M 9.890625 -5 L 9.890625 -2.953125 L 8.40625 -2.953125 L 8.40625 0 L 5.765625 0 L 5.765625 -2.953125 L 0.5 -2.953125 L 0.5 -5.21875 L 5.40625 -13.34375 L 8.40625 -13.34375 L 8.40625 -5 Z M 5.828125 -10.734375 L 5.796875 -10.734375 L 2.4375 -5 L 5.765625 -5 C 5.765625 -6.675781 5.785156 -8.585938 5.828125 -10.734375 Z M 5.828125 -10.734375 "/></g></g></g><g transform="matrix(1, 0, 0, 1, 183, 254)"><g clip-path="url(#7480da41e4)"><g fill="#791026" fill-opacity="1"><g transform="translate(25.556427, 16.555058)"><g><path d="M -12.484375 -0.65625 L -8.46875 -0.65625 L -16.984375 30.28125 L -12.265625 30.28125 C -10.128906 30.28125 -8.445312 30.125 -7.21875 29.8125 C -5.988281 29.507812 -5.054688 29.03125 -4.421875 28.375 C -3.785156 27.726562 -3.269531 26.847656 -2.875 25.734375 L -1.796875 25.734375 L -4.28125 37.015625 L -22.90625 37.015625 Z M -12.484375 -0.65625 "/></g></g></g></g></g><g transform="matrix(1, 0, 0, 1, 13, 9)"><g clip-path="url(#84119c5bc7)"><g fill="#791026" fill-opacity="1"><g transform="translate(0.976719, 39.446214)"><g><path d="M 12.484375 0.65625 L 8.46875 0.65625 L 16.984375 -30.28125 L 12.265625 -30.28125 C 10.128906 -30.28125 8.445312 -30.125 7.21875 -29.8125 C 5.988281 -29.507812 5.054688 -29.03125 4.421875 -28.375 C 3.785156 -27.726562 3.269531 -26.847656 2.875 -25.734375 L 1.796875 -25.734375 L 4.28125 -37.015625 L 22.90625 -37.015625 Z M 12.484375 0.65625 "/></g></g></g></g></g></svg>