<svg xmlns="http://www.w3.org/2000/svg" xmlns:xlink="http://www.w3.org/1999/xlink" width="300" zoomAndPan="magnify" viewBox="0 0 224.87999 323.03998" height="420" preserveAspectRatio="xMidYMid meet" version="1.0"><defs><g/><clipPath id="71efab0727"><path d="M 0.273438 0 L 224.488281 0 L 224.488281 313.871094 L 0.273438 313.871094 Z M 0.273438 0 " clip-rule="nonzero"/></clipPath><clipPath id="714b122886"><path d="M 18.289062 0.691406 C 8.402344 0.714844 0.53125 8.722656 0.53125 18.488281 L 0.53125 295.582031 C 0.53125 305.484375 8.550781 313.378906 18.328125 313.378906 L 206.550781 313.378906 C 216.4375 313.378906 224.335938 305.371094 224.347656 295.609375 L 224.347656 18.460938 C 224.335938 8.585938 216.335938 0.714844 206.585938 0.691406 Z M 18.289062 0.691406 " clip-rule="nonzero"/></clipPath><clipPath id="1685e203cc"><path d="M 0.511719 0.480469 L 224.488281 0.480469 L 224.488281 313.46875 L 0.511719 313.46875 Z M 0.511719 0.480469 " clip-rule="nonzero"/></clipPath><clipPath id="38647dc785"><path d="M 18.289062 0.691406 C 8.402344 0.714844 0.53125 8.722656 0.53125 18.488281 L 0.53125 295.582031 C 0.53125 305.484375 8.550781 313.378906 18.328125 313.378906 L 206.550781 313.378906 C 216.4375 313.378906 224.335938 305.371094 224.347656 295.609375 L 224.347656 18.460938 C 224.335938 8.585938 216.335938 0.714844 206.585938 0.691406 Z M 18.289062 0.691406 " clip-rule="nonzero"/></clipPath><clipPath id="c9f345af9b"><rect x="0" width="225" y="0" height="314"/></clipPath><clipPath id="d8841d8924"><path d="M 0.273438 0 L 224.488281 0 L 224.488281 313.871094 L 0.273438 313.871094 Z M 0.273438 0 " clip-rule="nonzero"/></clipPath><clipPath id="f15d1dfcc2"><path d="M 206.550781 1.316406 C 215.988281 1.316406 223.71875 8.9375 223.71875 18.488281 L 223.71875 295.582031 C 223.71875 305.019531 216.101562 312.753906 206.550781 312.753906 L 18.328125 312.753906 C 8.890625 312.753906 1.15625 305.132812 1.15625 295.582031 L 1.15625 18.488281 C 1.15625 9.050781 8.777344 1.316406 18.328125 1.316406 Z M 13.527344 0.691406 C 7.171875 2.394531 2.222656 7.394531 0.53125 13.699219 L 0.53125 300.371094 C 2.234375 306.726562 7.234375 311.6875 13.539062 313.367188 L 211.351562 313.367188 C 217.703125 311.664062 222.667969 306.664062 224.347656 300.359375 L 224.347656 13.6875 C 222.65625 7.347656 217.640625 2.382812 211.335938 0.691406 Z M 13.527344 0.691406 " clip-rule="nonzero"/></clipPath><clipPath id="6230b6d52e"><path d="M 0.511719 0.480469 L 224.488281 0.480469 L 224.488281 313.46875 L 0.511719 313.46875 Z M 0.511719 0.480469 " clip-rule="nonzero"/></clipPath><clipPath id="794355c5c1"><path d="M 206.550781 1.316406 C 215.988281 1.316406 223.71875 8.9375 223.71875 18.488281 L 223.71875 295.582031 C 223.71875 305.019531 216.101562 312.753906 206.550781 312.753906 L 18.328125 312.753906 C 8.890625 312.753906 1.15625 305.132812 1.15625 295.582031 L 1.15625 18.488281 C 1.15625 9.050781 8.777344 1.316406 18.328125 1.316406 Z M 13.527344 0.691406 C 7.171875 2.394531 2.222656 7.394531 0.53125 13.699219 L 0.53125 300.371094 C 2.234375 306.726562 7.234375 311.6875 13.539062 313.367188 L 211.351562 313.367188 C 217.703125 311.664062 222.667969 306.664062 224.347656 300.359375 L 224.347656 13.6875 C 222.65625 7.347656 217.640625 2.382812 211.335938 0.691406 Z M 13.527344 0.691406 " clip-rule="nonzero"/></clipPath><clipPath id="8ac172d1fc"><rect x="0" width="225" y="0" height="314"/></clipPath><clipPath id="0490c90819"><path d="M 27.5 68.285156 L 197.378906 68.285156 L 197.378906 230.777344 L 27.5 230.777344 Z M 27.5 68.285156 " clip-rule="nonzero"/></clipPath><clipPath id="f296521e5f"><path d="M 112.4375 68.996094 L 138.632812 122.011719 L 197.164062 130.535156 L 154.800781 171.769531 L 164.828125 230.046875 L 112.4375 202.601562 L 60.175781 230.046875 L 70.074219 171.769531 L 27.839844 130.535156 L 86.367188 122.011719 Z M 112.4375 68.996094 " clip-rule="nonzero"/></clipPath><clipPath id="80dc7e3025"><path d="M 0.792969 0.914062 L 170.207031 0.914062 L 170.207031 162.195312 L 0.792969 162.195312 Z M 0.792969 0.914062 " clip-rule="nonzero"/></clipPath><clipPath id="d8d76bd487"><path d="M 85.4375 0.996094 L 111.632812 54.011719 L 170.164062 62.535156 L 127.800781 103.769531 L 137.828125 162.046875 L 85.4375 134.601562 L 33.175781 162.046875 L 43.074219 103.769531 L 0.839844 62.535156 L 59.367188 54.011719 Z M 85.4375 0.996094 " clip-rule="nonzero"/></clipPath><clipPath id="ccd6110daa"><rect x="0" width="171" y="0" height="163"/></clipPath><clipPath id="86daf02112"><path d="M 11 51.667969 L 56 51.667969 L 56 95 L 11 95 Z M 11 51.667969 " clip-rule="nonzero"/></clipPath><clipPath id="b129051877"><path d="M 33.640625 51.789062 L 40.523438 65.539062 L 55.824219 67.980469 L 44.734375 78.847656 L 47.390625 94.152344 L 33.640625 86.832031 L 19.894531 94.152344 L 22.550781 78.847656 L 11.246094 67.980469 L 26.773438 65.539062 Z M 33.640625 51.789062 " clip-rule="nonzero"/></clipPath><clipPath id="35eca66781"><path d="M 0.0429688 0.6875 L 45 0.6875 L 45 43.28125 L 0.0429688 43.28125 Z M 0.0429688 0.6875 " clip-rule="nonzero"/></clipPath><clipPath id="e1196edfe6"><path d="M 22.640625 0.789062 L 29.523438 14.539062 L 44.824219 16.980469 L 33.734375 27.847656 L 36.390625 43.152344 L 22.640625 35.832031 L 8.894531 43.152344 L 11.550781 27.847656 L 0.246094 16.980469 L 15.773438 14.539062 Z M 22.640625 0.789062 " clip-rule="nonzero"/></clipPath><clipPath id="1b39521047"><rect x="0" width="45" y="0" height="44"/></clipPath><clipPath id="2cf222e93c"><path d="M 173.375 219 L 218.613281 219 L 218.613281 262 L 173.375 262 Z M 173.375 219 " clip-rule="nonzero"/></clipPath><clipPath id="610437e3c2"><path d="M 195.894531 261.78125 L 189.015625 248.03125 L 173.710938 245.589844 L 184.804688 234.722656 L 182.148438 219.417969 L 195.894531 226.738281 L 209.644531 219.417969 L 206.988281 234.722656 L 218.292969 245.589844 L 202.765625 248.03125 Z M 195.894531 261.78125 " clip-rule="nonzero"/></clipPath><clipPath id="eedbef8991"><path d="M 0.519531 0.1875 L 45.503906 0.1875 L 45.503906 42.78125 L 0.519531 42.78125 Z M 0.519531 0.1875 " clip-rule="nonzero"/></clipPath><clipPath id="30fa3783c1"><path d="M 22.894531 42.78125 L 16.015625 29.03125 L 0.710938 26.589844 L 11.804688 15.722656 L 9.148438 0.417969 L 22.894531 7.738281 L 36.644531 0.417969 L 33.988281 15.722656 L 45.292969 26.589844 L 29.765625 29.03125 Z M 22.894531 42.78125 " clip-rule="nonzero"/></clipPath><clipPath id="65f94ee309"><rect x="0" width="46" y="0" height="43"/></clipPath><clipPath id="605235a919"><rect x="0" width="26" y="0" height="56"/></clipPath><clipPath id="d2baf38c63"><rect x="0" width="27" y="0" height="56"/></clipPath></defs><g clip-path="url(#71efab0727)"><g clip-path="url(#714b122886)"><g transform="matrix(1, 0, 0, 1, 0, 0)"><g clip-path="url(#c9f345af9b)"><g clip-path="url(#1685e203cc)"><g clip-path="url(#38647dc785)"><rect x="-49.473598" width="323.827186" fill="#f5f5f2" height="465.177571" y="-71.068796" fill-opacity="1"/></g></g></g></g></g></g><g clip-path="url(#d8841d8924)"><g clip-path="url(#f15d1dfcc2)"><g transform="matrix(1, 0, 0, 1, 0, 0)"><g clip-path="url(#8ac172d1fc)"><g clip-path="url(#6230b6d52e)"><g clip-path="url(#794355c5c1)"><rect x="-49.473598" width="323.827186" fill="#000000" height="465.177571" y="-71.068796" fill-opacity="1"/></g></g></g></g></g></g><g clip-path="url(#0490c90819)"><g clip-path="url(#f296521e5f)"><g transform="matrix(1, 0, 0, 1, 27, 68)"><g clip-path="url(#ccd6110daa)"><g clip-path="url(#80dc7e3025)"><g clip-path="url(#d8d76bd487)"><rect x="-76.473598" width="323.827186" fill="#7d1229" height="465.177571" y="-139.068796" fill-opacity="1"/></g></g></g></g></g></g><g clip-path="url(#86daf02112)"><g clip-path="url(#b129051877)"><g transform="matrix(1, 0, 0, 1, 11, 51)"><g clip-path="url(#1b39521047)"><g clip-path="url(#35eca66781)"><g clip-path="url(#e1196edfe6)"><rect x="-60.473598" width="323.827186" fill="#7d1229" height="465.177571" y="-122.068796" fill-opacity="1"/></g></g></g></g></g></g><g clip-path="url(#2cf222e93c)"><g clip-path="url(#610437e3c2)"><g transform="matrix(1, 0, 0, 1, 173, 219)"><g clip-path="url(#65f94ee309)"><g clip-path="url(#eedbef8991)"><g clip-path="url(#30fa3783c1)"><rect x="-222.473598" width="323.827186" fill="#7d1229" height="465.177571" y="-290.068796" fill-opacity="1"/></g></g></g></g></g></g><g fill="#ffffff" fill-opacity="1"><g transform="translate(201.655742, 233.392375)"><g><path d="M -7.859375 7.1875 C -8.566406 6.800781 -9.070312 6.359375 -9.375 5.859375 C -9.6875 5.359375 -9.84375 4.726562 -9.84375 3.96875 C -9.84375 3.1875 -9.65625 2.460938 -9.28125 1.796875 C -8.914062 1.140625 -8.382812 0.613281 -7.6875 0.21875 C -7 -0.164062 -6.175781 -0.359375 -5.21875 -0.359375 C -4.269531 -0.359375 -3.445312 -0.1875 -2.75 0.15625 C -2.050781 0.5 -1.515625 0.976562 -1.140625 1.59375 C -0.773438 2.21875 -0.59375 2.941406 -0.59375 3.765625 C -0.59375 4.597656 -0.769531 5.28125 -1.125 5.8125 C -1.476562 6.34375 -1.976562 6.769531 -2.625 7.09375 C -1.550781 7.625 -1.015625 8.492188 -1.015625 9.703125 C -1.015625 10.429688 -1.195312 11.066406 -1.5625 11.609375 C -1.925781 12.160156 -2.421875 12.585938 -3.046875 12.890625 C -3.679688 13.191406 -4.390625 13.34375 -5.171875 13.34375 C -6.023438 13.34375 -6.769531 13.191406 -7.40625 12.890625 C -8.039062 12.585938 -8.53125 12.171875 -8.875 11.640625 C -9.226562 11.117188 -9.40625 10.53125 -9.40625 9.875 C -9.40625 8.644531 -8.890625 7.75 -7.859375 7.1875 Z M -6.875 9.59375 C -6.875 10.070312 -6.726562 10.460938 -6.4375 10.765625 C -6.144531 11.078125 -5.769531 11.234375 -5.3125 11.234375 C -4.738281 11.234375 -4.296875 11.082031 -3.984375 10.78125 C -3.679688 10.488281 -3.53125 10.09375 -3.53125 9.59375 C -3.53125 9.144531 -3.691406 8.753906 -4.015625 8.421875 C -4.335938 8.097656 -4.75 7.9375 -5.25 7.9375 C -5.757812 7.9375 -6.15625 8.085938 -6.4375 8.390625 C -6.726562 8.703125 -6.875 9.101562 -6.875 9.59375 Z M -7.140625 3.859375 C -7.140625 4.472656 -6.960938 4.972656 -6.609375 5.359375 C -6.265625 5.742188 -5.785156 5.9375 -5.171875 5.9375 C -4.617188 5.9375 -4.171875 5.75 -3.828125 5.375 C -3.484375 5 -3.3125 4.5 -3.3125 3.875 C -3.3125 3.21875 -3.484375 2.695312 -3.828125 2.3125 C -4.171875 1.9375 -4.644531 1.75 -5.25 1.75 C -5.832031 1.75 -6.289062 1.945312 -6.625 2.34375 C -6.96875 2.738281 -7.140625 3.242188 -7.140625 3.859375 Z M -7.140625 3.859375 "/></g></g></g><g fill="#ffffff" fill-opacity="1"><g transform="translate(28.128055, 77.025535)"><g><path d="M 7.859375 -7.1875 C 8.566406 -6.800781 9.070312 -6.359375 9.375 -5.859375 C 9.6875 -5.359375 9.84375 -4.726562 9.84375 -3.96875 C 9.84375 -3.1875 9.65625 -2.460938 9.28125 -1.796875 C 8.914062 -1.140625 8.382812 -0.613281 7.6875 -0.21875 C 7 0.164062 6.175781 0.359375 5.21875 0.359375 C 4.269531 0.359375 3.445312 0.1875 2.75 -0.15625 C 2.050781 -0.5 1.515625 -0.976562 1.140625 -1.59375 C 0.773438 -2.21875 0.59375 -2.941406 0.59375 -3.765625 C 0.59375 -4.597656 0.769531 -5.28125 1.125 -5.8125 C 1.476562 -6.34375 1.976562 -6.769531 2.625 -7.09375 C 1.550781 -7.625 1.015625 -8.492188 1.015625 -9.703125 C 1.015625 -10.429688 1.195312 -11.066406 1.5625 -11.609375 C 1.925781 -12.160156 2.421875 -12.585938 3.046875 -12.890625 C 3.679688 -13.191406 4.390625 -13.34375 5.171875 -13.34375 C 6.023438 -13.34375 6.769531 -13.191406 7.40625 -12.890625 C 8.039062 -12.585938 8.53125 -12.171875 8.875 -11.640625 C 9.226562 -11.117188 9.40625 -10.53125 9.40625 -9.875 C 9.40625 -8.644531 8.890625 -7.75 7.859375 -7.1875 Z M 6.875 -9.59375 C 6.875 -10.070312 6.726562 -10.460938 6.4375 -10.765625 C 6.144531 -11.078125 5.769531 -11.234375 5.3125 -11.234375 C 4.738281 -11.234375 4.296875 -11.082031 3.984375 -10.78125 C 3.679688 -10.488281 3.53125 -10.09375 3.53125 -9.59375 C 3.53125 -9.144531 3.691406 -8.753906 4.015625 -8.421875 C 4.335938 -8.097656 4.75 -7.9375 5.25 -7.9375 C 5.757812 -7.9375 6.15625 -8.085938 6.4375 -8.390625 C 6.726562 -8.703125 6.875 -9.101562 6.875 -9.59375 Z M 7.140625 -3.859375 C 7.140625 -4.472656 6.960938 -4.972656 6.609375 -5.359375 C 6.265625 -5.742188 5.785156 -5.9375 5.171875 -5.9375 C 4.617188 -5.9375 4.171875 -5.75 3.828125 -5.375 C 3.484375 -5 3.3125 -4.5 3.3125 -3.875 C 3.3125 -3.21875 3.484375 -2.695312 3.828125 -2.3125 C 4.171875 -1.9375 4.644531 -1.75 5.25 -1.75 C 5.832031 -1.75 6.289062 -1.945312 6.625 -2.34375 C 6.96875 -2.738281 7.140625 -3.242188 7.140625 -3.859375 Z M 7.140625 -3.859375 "/></g></g></g><g transform="matrix(1, 0, 0, 1, 183, 254)"><g clip-path="url(#605235a919)"><g fill="#791026" fill-opacity="1"><g transform="translate(25.556427, 16.554998)"><g><path d="M -19.8125 37.609375 L -19.8125 13.734375 L -23.234375 13.734375 L -23.234375 8.140625 L -19.8125 8.140625 L -19.8125 0 L -12.484375 0 L -12.484375 8.140625 L -1.03125 8.140625 L -1.03125 13.734375 L -16.765625 37.609375 Z M -3.421875 13.734375 L -12.484375 13.734375 L -12.484375 27.625 L -12.375 27.625 Z M -3.421875 13.734375 "/></g></g></g></g></g><g transform="matrix(1, 0, 0, 1, 13, 9)"><g clip-path="url(#d2baf38c63)"><g fill="#791026" fill-opacity="1"><g transform="translate(0.976719, 39.446238)"><g><path d="M 19.8125 -37.609375 L 19.8125 -13.734375 L 23.234375 -13.734375 L 23.234375 -8.140625 L 19.8125 -8.140625 L 19.8125 0 L 12.484375 0 L 12.484375 -8.140625 L 1.03125 -8.140625 L 1.03125 -13.734375 L 16.765625 -37.609375 Z M 3.421875 -13.734375 L 12.484375 -13.734375 L 12.484375 -27.625 L 12.375 -27.625 Z M 3.421875 -13.734375 "/></g></g></g></g></g></svg>