<svg xmlns="http://www.w3.org/2000/svg" xmlns:xlink="http://www.w3.org/1999/xlink" width="300" zoomAndPan="magnify" viewBox="0 0 224.87999 323.03998" height="420" preserveAspectRatio="xMidYMid meet" version="1.0"><defs><g/><clipPath id="c1e2941ef5"><path d="M 0.273438 1 L 224.488281 1 L 224.488281 314 L 0.273438 314 Z M 0.273438 1 " clip-rule="nonzero"/></clipPath><clipPath id="92bee9e4fb"><path d="M 18.019531 1.011719 C 8.15625 1.035156 0.296875 9.019531 0.273438 18.757812 L 0.273438 295.941406 C 0.296875 305.816406 8.308594 313.6875 18.070312 313.6875 L 206.292969 313.6875 C 216.195312 313.6875 224.089844 305.664062 224.089844 295.890625 L 224.089844 18.808594 C 224.089844 8.917969 216.09375 1.035156 206.34375 1.011719 Z M 18.019531 1.011719 " clip-rule="nonzero"/></clipPath><clipPath id="a95ea641e0"><path d="M 0.273438 0 L 224.246094 0 L 224.246094 312.707031 L 0.273438 312.707031 Z M 0.273438 0 " clip-rule="nonzero"/></clipPath><clipPath id="4e6043d04b"><path d="M 18.019531 0.0117188 C 8.15625 0.0351562 0.296875 8.019531 0.273438 17.757812 L 0.273438 294.941406 C 0.296875 304.816406 8.308594 312.6875 18.070312 312.6875 L 206.292969 312.6875 C 216.195312 312.6875 224.089844 304.664062 224.089844 294.890625 L 224.089844 17.808594 C 224.089844 7.917969 216.09375 0.0351562 206.34375 0.0117188 Z M 18.019531 0.0117188 " clip-rule="nonzero"/></clipPath><clipPath id="c4e9751fa5"><rect x="0" width="225" y="0" height="313"/></clipPath><clipPath id="ebd6b72076"><path d="M 0.273438 1 L 224.488281 1 L 224.488281 314 L 0.273438 314 Z M 0.273438 1 " clip-rule="nonzero"/></clipPath><clipPath id="95d93e6a01"><path d="M 206.292969 1.636719 C 215.730469 1.636719 223.464844 9.257812 223.464844 18.808594 L 223.464844 295.902344 C 223.464844 305.339844 215.84375 313.074219 206.292969 313.074219 L 18.070312 313.074219 C 8.632812 313.074219 0.898438 305.453125 0.898438 295.902344 L 0.898438 18.808594 C 0.898438 9.371094 8.519531 1.636719 18.070312 1.636719 Z M 13.269531 1.011719 C 6.914062 2.714844 1.964844 7.714844 0.273438 14.019531 L 0.273438 300.691406 C 1.976562 307.042969 6.976562 312.007812 13.28125 313.6875 L 211.09375 313.6875 C 217.449219 311.984375 222.410156 306.980469 224.089844 300.679688 L 224.089844 14.007812 C 222.398438 7.664062 217.382812 2.703125 211.082031 1.011719 Z M 13.269531 1.011719 " clip-rule="nonzero"/></clipPath><clipPath id="218c37fd28"><path d="M 0.273438 0 L 224.246094 0 L 224.246094 312.707031 L 0.273438 312.707031 Z M 0.273438 0 " clip-rule="nonzero"/></clipPath><clipPath id="2b4c4a5894"><path d="M 206.292969 0.636719 C 215.730469 0.636719 223.464844 8.257812 223.464844 17.808594 L 223.464844 294.902344 C 223.464844 304.339844 215.84375 312.074219 206.292969 312.074219 L 18.070312 312.074219 C 8.632812 312.074219 0.898438 304.453125 0.898438 294.902344 L 0.898438 17.808594 C 0.898438 8.371094 8.519531 0.636719 18.070312 0.636719 Z M 13.269531 0.0117188 C 6.914062 1.714844 1.964844 6.714844 0.273438 13.019531 L 0.273438 299.691406 C 1.976562 306.042969 6.976562 311.007812 13.28125 312.6875 L 211.09375 312.6875 C 217.449219 310.984375 222.410156 305.980469 224.089844 299.679688 L 224.089844 13.007812 C 222.398438 6.664062 217.382812 1.703125 211.082031 0.0117188 Z M 13.269531 0.0117188 " clip-rule="nonzero"/></clipPath><clipPath id="2f157291e4"><rect x="0" width="225" y="0" height="313"/></clipPath><clipPath id="7d00dd5459"><path d="M 17.316406 113.183594 L 209.425781 113.183594 L 209.425781 178.730469 L 17.316406 178.730469 Z M 17.316406 113.183594 " clip-rule="nonzero"/></clipPath><clipPath id="611033782a"><path d="M 0.316406 0.183594 L 192.425781 0.183594 L 192.425781 65.730469 L 0.316406 65.730469 Z M 0.316406 0.183594 " clip-rule="nonzero"/></clipPath><clipPath id="71ec62969b"><rect x="0" width="193" y="0" height="66"/></clipPath><clipPath id="39342e2fac"><path d="M 80.597656 54.777344 L 146.132812 54.777344 L 146.132812 246.898438 L 80.597656 246.898438 Z M 80.597656 54.777344 " clip-rule="nonzero"/></clipPath><clipPath id="5d9332e97a"><path d="M 0.597656 0.777344 L 66.132812 0.777344 L 66.132812 192.898438 L 0.597656 192.898438 Z M 0.597656 0.777344 " clip-rule="nonzero"/></clipPath><clipPath id="56333f4f3a"><rect x="0" width="67" y="0" height="193"/></clipPath><clipPath id="f4599b9f9c"><path d="M 12.128906 61.421875 L 44.441406 61.421875 L 44.441406 72.488281 L 12.128906 72.488281 Z M 12.128906 61.421875 " clip-rule="nonzero"/></clipPath><clipPath id="996837885d"><path d="M 0.128906 0.421875 L 32.441406 0.421875 L 32.441406 11.488281 L 0.128906 11.488281 Z M 0.128906 0.421875 " clip-rule="nonzero"/></clipPath><clipPath id="b3a1070a23"><rect x="0" width="33" y="0" height="12"/></clipPath><clipPath id="c81947088e"><path d="M 22.746094 51.554688 L 33.8125 51.554688 L 33.8125 83.867188 L 22.746094 83.867188 Z M 22.746094 51.554688 " clip-rule="nonzero"/></clipPath><clipPath id="f4552f1c56"><path d="M 0.746094 0.554688 L 11.8125 0.554688 L 11.8125 32.867188 L 0.746094 32.867188 Z M 0.746094 0.554688 " clip-rule="nonzero"/></clipPath><clipPath id="8d3b1d325d"><rect x="0" width="12" y="0" height="33"/></clipPath><clipPath id="b22f964746"><path d="M 177.640625 242.949219 L 209.953125 242.949219 L 209.953125 254.015625 L 177.640625 254.015625 Z M 177.640625 242.949219 " clip-rule="nonzero"/></clipPath><clipPath id="0dcbf93e9c"><path d="M 0.640625 0.949219 L 32.953125 0.949219 L 32.953125 12.015625 L 0.640625 12.015625 Z M 0.640625 0.949219 " clip-rule="nonzero"/></clipPath><clipPath id="6e6f11bce2"><rect x="0" width="33" y="0" height="13"/></clipPath><clipPath id="09fdcb86a9"><path d="M 188.257812 231.570312 L 199.324219 231.570312 L 199.324219 263.878906 L 188.257812 263.878906 Z M 188.257812 231.570312 " clip-rule="nonzero"/></clipPath><clipPath id="4d4bb75f41"><path d="M 0.257812 0.570312 L 11.324219 0.570312 L 11.324219 32.878906 L 0.257812 32.878906 Z M 0.257812 0.570312 " clip-rule="nonzero"/></clipPath><clipPath id="7e7b6d32fc"><rect x="0" width="12" y="0" height="33"/></clipPath><clipPath id="7bf0bb06c3"><rect x="0" width="26" y="0" height="56"/></clipPath><clipPath id="0f75263e32"><rect x="0" width="27" y="0" height="56"/></clipPath></defs><g clip-path="url(#c1e2941ef5)"><g clip-path="url(#92bee9e4fb)"><g transform="matrix(1, 0, 0, 1, -0.000000000000000056, 1)"><g clip-path="url(#c4e9751fa5)"><g clip-path="url(#a95ea641e0)"><g clip-path="url(#4e6043d04b)"><rect x="-49.473598" width="323.827186" fill="#f5f5f2" height="465.177571" y="-72.068796" fill-opacity="1"/></g></g></g></g></g></g><g clip-path="url(#ebd6b72076)"><g clip-path="url(#95d93e6a01)"><g transform="matrix(1, 0, 0, 1, -0.000000000000000056, 1)"><g clip-path="url(#2f157291e4)"><g clip-path="url(#218c37fd28)"><g clip-path="url(#2b4c4a5894)"><rect x="-49.473598" width="323.827186" fill="#000000" height="465.177571" y="-72.068796" fill-opacity="1"/></g></g></g></g></g></g><g clip-path="url(#7d00dd5459)"><g transform="matrix(1, 0, 0, 1, 17, 113)"><g clip-path="url(#71ec62969b)"><g clip-path="url(#611033782a)"><rect x="-66.473598" width="323.827186" fill="#7d1229" height="465.177571" y="-184.068796" fill-opacity="1"/></g></g></g></g><g clip-path="url(#39342e2fac)"><g transform="matrix(1, 0, 0, 1, 80, 54)"><g clip-path="url(#56333f4f3a)"><g clip-path="url(#5d9332e97a)"><rect x="-129.473598" width="323.827186" fill="#7d1229" height="465.177571" y="-125.068796" fill-opacity="1"/></g></g></g></g><g clip-path="url(#f4599b9f9c)"><g transform="matrix(1, 0, 0, 1, 12, 61)"><g clip-path="url(#b3a1070a23)"><g clip-path="url(#996837885d)"><rect x="-61.473598" width="323.827186" fill="#7d1229" height="465.177571" y="-132.068796" fill-opacity="1"/></g></g></g></g><g clip-path="url(#c81947088e)"><g transform="matrix(1, 0, 0, 1, 22, 51)"><g clip-path="url(#8d3b1d325d)"><g clip-path="url(#f4552f1c56)"><rect x="-71.473598" width="323.827186" fill="#7d1229" height="465.177571" y="-122.068796" fill-opacity="1"/></g></g></g></g><g clip-path="url(#b22f964746)"><g transform="matrix(1, 0, 0, 1, 177, 242)"><g clip-path="url(#6e6f11bce2)"><g clip-path="url(#0dcbf93e9c)"><rect x="-226.473598" width="323.827186" fill="#7d1229" height="465.177571" y="-313.068796" fill-opacity="1"/></g></g></g></g><g clip-path="url(#09fdcb86a9)"><g transform="matrix(1, 0, 0, 1, 188, 231)"><g clip-path="url(#7e7b6d32fc)"><g clip-path="url(#4d4bb75f41)"><rect x="-237.473598" width="323.827186" fill="#7d1229" height="465.177571" y="-302.068796" fill-opacity="1"/></g></g></g></g><g transform="matrix(1, 0, 0, 1, 183, 254)"><g clip-path="url(#7bf0bb06c3)"><g fill="#791026" fill-opacity="1"><g transform="translate(25.556427, 16.555058)"><g><path d="M -20.25 30.28125 L -7.8125 30.28125 L -6.625 26.265625 C -11.832031 25.867188 -15.820312 24.476562 -18.59375 22.09375 C -21.363281 19.707031 -22.75 16.519531 -22.75 12.53125 C -22.75 10.039062 -22.175781 7.789062 -21.03125 5.78125 C -19.894531 3.769531 -18.320312 2.191406 -16.3125 1.046875 C -14.300781 -0.0859375 -12.046875 -0.65625 -9.546875 -0.65625 C -7.410156 -0.65625 -5.632812 -0.222656 -4.21875 0.640625 C -2.8125 1.515625 -2.109375 2.585938 -2.109375 3.859375 C -2.109375 4.578125 -2.351562 5.207031 -2.84375 5.75 C -3.332031 6.289062 -3.921875 6.5625 -4.609375 6.5625 C -5.265625 6.5625 -5.863281 6.398438 -6.40625 6.078125 C -6.945312 5.753906 -7.648438 5.226562 -8.515625 4.5 C -9.421875 3.738281 -10.207031 3.160156 -10.875 2.765625 C -11.550781 2.367188 -12.304688 2.171875 -13.140625 2.171875 C -14.660156 2.171875 -15.960938 2.703125 -17.046875 3.765625 C -18.128906 4.835938 -18.671875 6.148438 -18.671875 7.703125 C -18.671875 9.191406 -18.226562 10.785156 -17.34375 12.484375 C -16.457031 14.179688 -14.816406 15.671875 -12.421875 16.953125 C -10.035156 18.242188 -6.765625 18.890625 -2.609375 18.890625 L -2.171875 18.890625 L -7.8125 37.015625 L -22.90625 37.015625 Z M -20.25 30.28125 "/></g></g></g></g></g><g transform="matrix(1, 0, 0, 1, 13, 9)"><g clip-path="url(#0f75263e32)"><g fill="#791026" fill-opacity="1"><g transform="translate(0.976719, 39.446273)"><g><path d="M 20.25 -30.28125 L 7.8125 -30.28125 L 6.625 -26.265625 C 11.832031 -25.867188 15.820312 -24.476562 18.59375 -22.09375 C 21.363281 -19.707031 22.75 -16.519531 22.75 -12.53125 C 22.75 -10.039062 22.175781 -7.789062 21.03125 -5.78125 C 19.894531 -3.769531 18.320312 -2.191406 16.3125 -1.046875 C 14.300781 0.0859375 12.046875 0.65625 9.546875 0.65625 C 7.410156 0.65625 5.632812 0.222656 4.21875 -0.640625 C 2.8125 -1.515625 2.109375 -2.585938 2.109375 -3.859375 C 2.109375 -4.578125 2.351562 -5.207031 2.84375 -5.75 C 3.332031 -6.289062 3.921875 -6.5625 4.609375 -6.5625 C 5.265625 -6.5625 5.863281 -6.398438 6.40625 -6.078125 C 6.945312 -5.753906 7.648438 -5.226562 8.515625 -4.5 C 9.421875 -3.738281 10.207031 -3.160156 10.875 -2.765625 C 11.550781 -2.367188 12.304688 -2.171875 13.140625 -2.171875 C 14.660156 -2.171875 15.960938 -2.703125 17.046875 -3.765625 C 18.128906 -4.835938 18.671875 -6.148438 18.671875 -7.703125 C 18.671875 -9.191406 18.226562 -10.785156 17.34375 -12.484375 C 16.457031 -14.179688 14.816406 -15.671875 12.421875 -16.953125 C 10.035156 -18.242188 6.765625 -18.890625 2.609375 -18.890625 L 2.171875 -18.890625 L 7.8125 -37.015625 L 22.90625 -37.015625 Z M 20.25 -30.28125 "/></g></g></g></g></g></svg>