<svg xmlns="http://www.w3.org/2000/svg" xmlns:xlink="http://www.w3.org/1999/xlink" width="300" zoomAndPan="magnify" viewBox="0 0 224.87999 323.03998" height="420" preserveAspectRatio="xMidYMid meet" version="1.0"><defs><g/><clipPath id="5c79341ae8"><path d="M 0.273438 0 L 224.488281 0 L 224.488281 313.871094 L 0.273438 313.871094 Z M 0.273438 0 " clip-rule="nonzero"/></clipPath><clipPath id="5435373331"><path d="M 18.289062 0.691406 C 8.402344 0.714844 0.53125 8.722656 0.53125 18.488281 L 0.53125 295.582031 C 0.53125 305.484375 8.550781 313.378906 18.328125 313.378906 L 206.550781 313.378906 C 216.4375 313.378906 224.335938 305.371094 224.347656 295.609375 L 224.347656 18.460938 C 224.335938 8.585938 216.335938 0.714844 206.585938 0.691406 Z M 18.289062 0.691406 " clip-rule="nonzero"/></clipPath><clipPath id="a9c2ffde0c"><path d="M 0.511719 0.480469 L 224.488281 0.480469 L 224.488281 313.46875 L 0.511719 313.46875 Z M 0.511719 0.480469 " clip-rule="nonzero"/></clipPath><clipPath id="f6d7249a0d"><path d="M 18.289062 0.691406 C 8.402344 0.714844 0.53125 8.722656 0.53125 18.488281 L 0.53125 295.582031 C 0.53125 305.484375 8.550781 313.378906 18.328125 313.378906 L 206.550781 313.378906 C 216.4375 313.378906 224.335938 305.371094 224.347656 295.609375 L 224.347656 18.460938 C 224.335938 8.585938 216.335938 0.714844 206.585938 0.691406 Z M 18.289062 0.691406 " clip-rule="nonzero"/></clipPath><clipPath id="7f9db7c559"><rect x="0" width="225" y="0" height="314"/></clipPath><clipPath id="31103fbcda"><path d="M 0.273438 0 L 224.488281 0 L 224.488281 313.871094 L 0.273438 313.871094 Z M 0.273438 0 " clip-rule="nonzero"/></clipPath><clipPath id="db8336303b"><path d="M 206.550781 1.316406 C 215.988281 1.316406 223.71875 8.9375 223.71875 18.488281 L 223.71875 295.582031 C 223.71875 305.019531 216.101562 312.753906 206.550781 312.753906 L 18.328125 312.753906 C 8.890625 312.753906 1.15625 305.132812 1.15625 295.582031 L 1.15625 18.488281 C 1.15625 9.050781 8.777344 1.316406 18.328125 1.316406 Z M 13.527344 0.691406 C 7.171875 2.394531 2.222656 7.394531 0.53125 13.699219 L 0.53125 300.371094 C 2.234375 306.726562 7.234375 311.6875 13.539062 313.367188 L 211.351562 313.367188 C 217.703125 311.664062 222.667969 306.664062 224.347656 300.359375 L 224.347656 13.6875 C 222.65625 7.347656 217.640625 2.382812 211.335938 0.691406 Z M 13.527344 0.691406 " clip-rule="nonzero"/></clipPath><clipPath id="e469440fd9"><path d="M 0.511719 0.480469 L 224.488281 0.480469 L 224.488281 313.46875 L 0.511719 313.46875 Z M 0.511719 0.480469 " clip-rule="nonzero"/></clipPath><clipPath id="d2506dfba5"><path d="M 206.550781 1.316406 C 215.988281 1.316406 223.71875 8.9375 223.71875 18.488281 L 223.71875 295.582031 C 223.71875 305.019531 216.101562 312.753906 206.550781 312.753906 L 18.328125 312.753906 C 8.890625 312.753906 1.15625 305.132812 1.15625 295.582031 L 1.15625 18.488281 C 1.15625 9.050781 8.777344 1.316406 18.328125 1.316406 Z M 13.527344 0.691406 C 7.171875 2.394531 2.222656 7.394531 0.53125 13.699219 L 0.53125 300.371094 C 2.234375 306.726562 7.234375 311.6875 13.539062 313.367188 L 211.351562 313.367188 C 217.703125 311.664062 222.667969 306.664062 224.347656 300.359375 L 224.347656 13.6875 C 222.65625 7.347656 217.640625 2.382812 211.335938 0.691406 Z M 13.527344 0.691406 " clip-rule="nonzero"/></clipPath><clipPath id="d57f3906ac"><rect x="0" width="225" y="0" height="314"/></clipPath><clipPath id="7815fa8f12"><path d="M 27.5 68.285156 L 197.378906 68.285156 L 197.378906 230.777344 L 27.5 230.777344 Z M 27.5 68.285156 " clip-rule="nonzero"/></clipPath><clipPath id="aa2849f8b6"><path d="M 112.4375 68.996094 L 138.632812 122.011719 L 197.164062 130.535156 L 154.800781 171.769531 L 164.828125 230.046875 L 112.4375 202.601562 L 60.175781 230.046875 L 70.074219 171.769531 L 27.839844 130.535156 L 86.367188 122.011719 Z M 112.4375 68.996094 " clip-rule="nonzero"/></clipPath><clipPath id="ee50f2549c"><path d="M 0.792969 0.914062 L 170.207031 0.914062 L 170.207031 162.195312 L 0.792969 162.195312 Z M 0.792969 0.914062 " clip-rule="nonzero"/></clipPath><clipPath id="7c297a93df"><path d="M 85.4375 0.996094 L 111.632812 54.011719 L 170.164062 62.535156 L 127.800781 103.769531 L 137.828125 162.046875 L 85.4375 134.601562 L 33.175781 162.046875 L 43.074219 103.769531 L 0.839844 62.535156 L 59.367188 54.011719 Z M 85.4375 0.996094 " clip-rule="nonzero"/></clipPath><clipPath id="1c5e4d26fa"><rect x="0" width="171" y="0" height="163"/></clipPath><clipPath id="2a674399cc"><path d="M 11 51.664062 L 56 51.664062 L 56 95 L 11 95 Z M 11 51.664062 " clip-rule="nonzero"/></clipPath><clipPath id="5a54231c9d"><path d="M 33.640625 51.789062 L 40.523438 65.539062 L 55.824219 67.980469 L 44.734375 78.847656 L 47.390625 94.148438 L 33.640625 86.832031 L 19.894531 94.148438 L 22.550781 78.847656 L 11.246094 67.980469 L 26.773438 65.539062 Z M 33.640625 51.789062 " clip-rule="nonzero"/></clipPath><clipPath id="3b5910a813"><path d="M 0.0429688 0.6875 L 45 0.6875 L 45 43.28125 L 0.0429688 43.28125 Z M 0.0429688 0.6875 " clip-rule="nonzero"/></clipPath><clipPath id="8909b2f773"><path d="M 22.640625 0.789062 L 29.523438 14.539062 L 44.824219 16.980469 L 33.734375 27.847656 L 36.390625 43.148438 L 22.640625 35.832031 L 8.894531 43.148438 L 11.550781 27.847656 L 0.246094 16.980469 L 15.773438 14.539062 Z M 22.640625 0.789062 " clip-rule="nonzero"/></clipPath><clipPath id="0a6f3b9088"><rect x="0" width="45" y="0" height="44"/></clipPath><clipPath id="84a33a78a2"><path d="M 173.375 219 L 218.613281 219 L 218.613281 262 L 173.375 262 Z M 173.375 219 " clip-rule="nonzero"/></clipPath><clipPath id="c9a1acfb66"><path d="M 195.894531 261.78125 L 189.015625 248.03125 L 173.710938 245.589844 L 184.804688 234.722656 L 182.148438 219.417969 L 195.894531 226.738281 L 209.644531 219.417969 L 206.988281 234.722656 L 218.292969 245.589844 L 202.765625 248.03125 Z M 195.894531 261.78125 " clip-rule="nonzero"/></clipPath><clipPath id="b0ac3bb237"><path d="M 0.519531 0.1875 L 45.503906 0.1875 L 45.503906 42.78125 L 0.519531 42.78125 Z M 0.519531 0.1875 " clip-rule="nonzero"/></clipPath><clipPath id="bb0f9c985b"><path d="M 22.894531 42.78125 L 16.015625 29.03125 L 0.710938 26.589844 L 11.804688 15.722656 L 9.148438 0.417969 L 22.894531 7.738281 L 36.644531 0.417969 L 33.988281 15.722656 L 45.292969 26.589844 L 29.765625 29.03125 Z M 22.894531 42.78125 " clip-rule="nonzero"/></clipPath><clipPath id="88a81fd74e"><rect x="0" width="46" y="0" height="43"/></clipPath><clipPath id="dd9ab2ec65"><rect x="0" width="26" y="0" height="56"/></clipPath><clipPath id="0fe22375be"><rect x="0" width="27" y="0" height="56"/></clipPath></defs><g clip-path="url(#5c79341ae8)"><g clip-path="url(#5435373331)"><g transform="matrix(1, 0, 0, 1, 0, 0)"><g clip-path="url(#7f9db7c559)"><g clip-path="url(#a9c2ffde0c)"><g clip-path="url(#f6d7249a0d)"><rect x="-49.473598" width="323.827186" fill="#f5f5f2" height="465.177571" y="-71.068796" fill-opacity="1"/></g></g></g></g></g></g><g clip-path="url(#31103fbcda)"><g clip-path="url(#db8336303b)"><g transform="matrix(1, 0, 0, 1, 0, 0)"><g clip-path="url(#d57f3906ac)"><g clip-path="url(#e469440fd9)"><g clip-path="url(#d2506dfba5)"><rect x="-49.473598" width="323.827186" fill="#000000" height="465.177571" y="-71.068796" fill-opacity="1"/></g></g></g></g></g></g><g clip-path="url(#7815fa8f12)"><g clip-path="url(#aa2849f8b6)"><g transform="matrix(1, 0, 0, 1, 27, 68)"><g clip-path="url(#1c5e4d26fa)"><g clip-path="url(#ee50f2549c)"><g clip-path="url(#7c297a93df)"><rect x="-76.473598" width="323.827186" fill="#7d1229" height="465.177571" y="-139.068796" fill-opacity="1"/></g></g></g></g></g></g><g clip-path="url(#2a674399cc)"><g clip-path="url(#5a54231c9d)"><g transform="matrix(1, 0, 0, 1, 11, 51)"><g clip-path="url(#0a6f3b9088)"><g clip-path="url(#3b5910a813)"><g clip-path="url(#8909b2f773)"><rect x="-60.473598" width="323.827186" fill="#7d1229" height="465.177571" y="-122.068796" fill-opacity="1"/></g></g></g></g></g></g><g clip-path="url(#84a33a78a2)"><g clip-path="url(#c9a1acfb66)"><g transform="matrix(1, 0, 0, 1, 173, 219)"><g clip-path="url(#88a81fd74e)"><g clip-path="url(#b0ac3bb237)"><g clip-path="url(#bb0f9c985b)"><rect x="-222.473598" width="323.827186" fill="#7d1229" height="465.177571" y="-290.068796" fill-opacity="1"/></g></g></g></g></g></g><g fill="#ffffff" fill-opacity="1"><g transform="translate(206.878502, 233.392344)"><g><path d="M -4.46875 0 L -4.46875 9.1875 L -1.296875 9.1875 L -1.296875 11.03125 L -1.59375 11.03125 C -2.664062 11.03125 -3.476562 11.234375 -4.03125 11.640625 C -4.59375 12.046875 -4.894531 12.613281 -4.9375 13.34375 L -7.109375 13.34375 L -7.109375 0 Z M -4.46875 0 "/></g></g></g><g fill="#ffffff" fill-opacity="1"><g transform="translate(196.432412, 233.392344)"><g><path d="M -5.21875 -0.359375 C -3.65625 -0.359375 -2.492188 0.195312 -1.734375 1.3125 C -0.972656 2.425781 -0.59375 4.15625 -0.59375 6.5 C -0.59375 8.832031 -0.972656 10.554688 -1.734375 11.671875 C -2.492188 12.785156 -3.65625 13.34375 -5.21875 13.34375 C -6.789062 13.34375 -7.953125 12.785156 -8.703125 11.671875 C -9.460938 10.554688 -9.84375 8.832031 -9.84375 6.5 C -9.84375 4.15625 -9.460938 2.425781 -8.703125 1.3125 C -7.953125 0.195312 -6.789062 -0.359375 -5.21875 -0.359375 Z M -7.140625 6.484375 C -7.140625 7.765625 -7.070312 8.742188 -6.9375 9.421875 C -6.8125 10.109375 -6.609375 10.582031 -6.328125 10.84375 C -6.054688 11.101562 -5.679688 11.234375 -5.203125 11.234375 C -4.742188 11.234375 -4.378906 11.101562 -4.109375 10.84375 C -3.835938 10.582031 -3.632812 10.109375 -3.5 9.421875 C -3.375 8.742188 -3.3125 7.769531 -3.3125 6.5 C -3.3125 5.238281 -3.375 4.265625 -3.5 3.578125 C -3.632812 2.898438 -3.835938 2.425781 -4.109375 2.15625 C -4.390625 1.882812 -4.757812 1.75 -5.21875 1.75 C -5.6875 1.75 -6.054688 1.878906 -6.328125 2.140625 C -6.609375 2.398438 -6.8125 2.875 -6.9375 3.5625 C -7.070312 4.25 -7.140625 5.222656 -7.140625 6.484375 Z M -7.140625 6.484375 "/></g></g></g><g fill="#ffffff" fill-opacity="1"><g transform="translate(22.905295, 77.025542)"><g><path d="M 4.46875 0 L 4.46875 -9.1875 L 1.296875 -9.1875 L 1.296875 -11.03125 L 1.59375 -11.03125 C 2.664062 -11.03125 3.476562 -11.234375 4.03125 -11.640625 C 4.59375 -12.046875 4.894531 -12.613281 4.9375 -13.34375 L 7.109375 -13.34375 L 7.109375 0 Z M 4.46875 0 "/></g></g></g><g fill="#ffffff" fill-opacity="1"><g transform="translate(33.351385, 77.025542)"><g><path d="M 5.21875 0.359375 C 3.65625 0.359375 2.492188 -0.195312 1.734375 -1.3125 C 0.972656 -2.425781 0.59375 -4.15625 0.59375 -6.5 C 0.59375 -8.832031 0.972656 -10.554688 1.734375 -11.671875 C 2.492188 -12.785156 3.65625 -13.34375 5.21875 -13.34375 C 6.789062 -13.34375 7.953125 -12.785156 8.703125 -11.671875 C 9.460938 -10.554688 9.84375 -8.832031 9.84375 -6.5 C 9.84375 -4.15625 9.460938 -2.425781 8.703125 -1.3125 C 7.953125 -0.195312 6.789062 0.359375 5.21875 0.359375 Z M 7.140625 -6.484375 C 7.140625 -7.765625 7.070312 -8.742188 6.9375 -9.421875 C 6.8125 -10.109375 6.609375 -10.582031 6.328125 -10.84375 C 6.054688 -11.101562 5.679688 -11.234375 5.203125 -11.234375 C 4.742188 -11.234375 4.378906 -11.101562 4.109375 -10.84375 C 3.835938 -10.582031 3.632812 -10.109375 3.5 -9.421875 C 3.375 -8.742188 3.3125 -7.769531 3.3125 -6.5 C 3.3125 -5.238281 3.375 -4.265625 3.5 -3.578125 C 3.632812 -2.898438 3.835938 -2.425781 4.109375 -2.15625 C 4.390625 -1.882812 4.757812 -1.75 5.21875 -1.75 C 5.6875 -1.75 6.054688 -1.878906 6.328125 -2.140625 C 6.609375 -2.398438 6.8125 -2.875 6.9375 -3.5625 C 7.070312 -4.25 7.140625 -5.222656 7.140625 -6.484375 Z M 7.140625 -6.484375 "/></g></g></g><g transform="matrix(1, 0, 0, 1, 183, 254)"><g clip-path="url(#dd9ab2ec65)"><g fill="#791026" fill-opacity="1"><g transform="translate(25.556427, 16.555058)"><g><path d="M -20.25 30.28125 L -7.8125 30.28125 L -6.625 26.265625 C -11.832031 25.867188 -15.820312 24.476562 -18.59375 22.09375 C -21.363281 19.707031 -22.75 16.519531 -22.75 12.53125 C -22.75 10.039062 -22.175781 7.789062 -21.03125 5.78125 C -19.894531 3.769531 -18.320312 2.191406 -16.3125 1.046875 C -14.300781 -0.0859375 -12.046875 -0.65625 -9.546875 -0.65625 C -7.410156 -0.65625 -5.632812 -0.222656 -4.21875 0.640625 C -2.8125 1.515625 -2.109375 2.585938 -2.109375 3.859375 C -2.109375 4.578125 -2.351562 5.207031 -2.84375 5.75 C -3.332031 6.289062 -3.921875 6.5625 -4.609375 6.5625 C -5.265625 6.5625 -5.863281 6.398438 -6.40625 6.078125 C -6.945312 5.753906 -7.648438 5.226562 -8.515625 4.5 C -9.421875 3.738281 -10.207031 3.160156 -10.875 2.765625 C -11.550781 2.367188 -12.304688 2.171875 -13.140625 2.171875 C -14.660156 2.171875 -15.960938 2.703125 -17.046875 3.765625 C -18.128906 4.835938 -18.671875 6.148438 -18.671875 7.703125 C -18.671875 9.191406 -18.226562 10.785156 -17.34375 12.484375 C -16.457031 14.179688 -14.816406 15.671875 -12.421875 16.953125 C -10.035156 18.242188 -6.765625 18.890625 -2.609375 18.890625 L -2.171875 18.890625 L -7.8125 37.015625 L -22.90625 37.015625 Z M -20.25 30.28125 "/></g></g></g></g></g><g transform="matrix(1, 0, 0, 1, 13, 9)"><g clip-path="url(#0fe22375be)"><g fill="#791026" fill-opacity="1"><g transform="translate(0.976719, 39.446243)"><g><path d="M 20.25 -30.28125 L 7.8125 -30.28125 L 6.625 -26.265625 C 11.832031 -25.867188 15.820312 -24.476562 18.59375 -22.09375 C 21.363281 -19.707031 22.75 -16.519531 22.75 -12.53125 C 22.75 -10.039062 22.175781 -7.789062 21.03125 -5.78125 C 19.894531 -3.769531 18.320312 -2.191406 16.3125 -1.046875 C 14.300781 0.0859375 12.046875 0.65625 9.546875 0.65625 C 7.410156 0.65625 5.632812 0.222656 4.21875 -0.640625 C 2.8125 -1.515625 2.109375 -2.585938 2.109375 -3.859375 C 2.109375 -4.578125 2.351562 -5.207031 2.84375 -5.75 C 3.332031 -6.289062 3.921875 -6.5625 4.609375 -6.5625 C 5.265625 -6.5625 5.863281 -6.398438 6.40625 -6.078125 C 6.945312 -5.753906 7.648438 -5.226562 8.515625 -4.5 C 9.421875 -3.738281 10.207031 -3.160156 10.875 -2.765625 C 11.550781 -2.367188 12.304688 -2.171875 13.140625 -2.171875 C 14.660156 -2.171875 15.960938 -2.703125 17.046875 -3.765625 C 18.128906 -4.835938 18.671875 -6.148438 18.671875 -7.703125 C 18.671875 -9.191406 18.226562 -10.785156 17.34375 -12.484375 C 16.457031 -14.179688 14.816406 -15.671875 12.421875 -16.953125 C 10.035156 -18.242188 6.765625 -18.890625 2.609375 -18.890625 L 2.171875 -18.890625 L 7.8125 -37.015625 L 22.90625 -37.015625 Z M 20.25 -30.28125 "/></g></g></g></g></g></svg>