<svg xmlns="http://www.w3.org/2000/svg" xmlns:xlink="http://www.w3.org/1999/xlink" width="300" zoomAndPan="magnify" viewBox="0 0 224.87999 323.03998" height="420" preserveAspectRatio="xMidYMid meet" version="1.0"><defs><g/><clipPath id="e989289e01"><path d="M 0.273438 0 L 224.488281 0 L 224.488281 313.871094 L 0.273438 313.871094 Z M 0.273438 0 " clip-rule="nonzero"/></clipPath><clipPath id="95a75bcad2"><path d="M 18.289062 0.691406 C 8.402344 0.714844 0.53125 8.722656 0.53125 18.488281 L 0.53125 295.582031 C 0.53125 305.484375 8.550781 313.378906 18.328125 313.378906 L 206.550781 313.378906 C 216.4375 313.378906 224.335938 305.371094 224.347656 295.609375 L 224.347656 18.460938 C 224.335938 8.585938 216.335938 0.714844 206.585938 0.691406 Z M 18.289062 0.691406 " clip-rule="nonzero"/></clipPath><clipPath id="b5f70fbfdd"><path d="M 0.511719 0.480469 L 224.488281 0.480469 L 224.488281 313.46875 L 0.511719 313.46875 Z M 0.511719 0.480469 " clip-rule="nonzero"/></clipPath><clipPath id="afccb6765d"><path d="M 18.289062 0.691406 C 8.402344 0.714844 0.53125 8.722656 0.53125 18.488281 L 0.53125 295.582031 C 0.53125 305.484375 8.550781 313.378906 18.328125 313.378906 L 206.550781 313.378906 C 216.4375 313.378906 224.335938 305.371094 224.347656 295.609375 L 224.347656 18.460938 C 224.335938 8.585938 216.335938 0.714844 206.585938 0.691406 Z M 18.289062 0.691406 " clip-rule="nonzero"/></clipPath><clipPath id="471d0dd335"><rect x="0" width="225" y="0" height="314"/></clipPath><clipPath id="1873e2463d"><path d="M 0.273438 0 L 224.488281 0 L 224.488281 313.871094 L 0.273438 313.871094 Z M 0.273438 0 " clip-rule="nonzero"/></clipPath><clipPath id="e19a34c4ed"><path d="M 206.550781 1.316406 C 215.988281 1.316406 223.71875 8.9375 223.71875 18.488281 L 223.71875 295.582031 C 223.71875 305.019531 216.101562 312.753906 206.550781 312.753906 L 18.328125 312.753906 C 8.890625 312.753906 1.15625 305.132812 1.15625 295.582031 L 1.15625 18.488281 C 1.15625 9.050781 8.777344 1.316406 18.328125 1.316406 Z M 13.527344 0.691406 C 7.171875 2.394531 2.222656 7.394531 0.53125 13.699219 L 0.53125 300.371094 C 2.234375 306.726562 7.234375 311.6875 13.539062 313.367188 L 211.351562 313.367188 C 217.703125 311.664062 222.667969 306.664062 224.347656 300.359375 L 224.347656 13.6875 C 222.65625 7.347656 217.640625 2.382812 211.335938 0.691406 Z M 13.527344 0.691406 " clip-rule="nonzero"/></clipPath><clipPath id="ac612a5dca"><path d="M 0.511719 0.480469 L 224.488281 0.480469 L 224.488281 313.46875 L 0.511719 313.46875 Z M 0.511719 0.480469 " clip-rule="nonzero"/></clipPath><clipPath id="0e65770d81"><path d="M 206.550781 1.316406 C 215.988281 1.316406 223.71875 8.9375 223.71875 18.488281 L 223.71875 295.582031 C 223.71875 305.019531 216.101562 312.753906 206.550781 312.753906 L 18.328125 312.753906 C 8.890625 312.753906 1.15625 305.132812 1.15625 295.582031 L 1.15625 18.488281 C 1.15625 9.050781 8.777344 1.316406 18.328125 1.316406 Z M 13.527344 0.691406 C 7.171875 2.394531 2.222656 7.394531 0.53125 13.699219 L 0.53125 300.371094 C 2.234375 306.726562 7.234375 311.6875 13.539062 313.367188 L 211.351562 313.367188 C 217.703125 311.664062 222.667969 306.664062 224.347656 300.359375 L 224.347656 13.6875 C 222.65625 7.347656 217.640625 2.382812 211.335938 0.691406 Z M 13.527344 0.691406 " clip-rule="nonzero"/></clipPath><clipPath id="1d24ff287f"><rect x="0" width="225" y="0" height="314"/></clipPath><clipPath id="bc4f9829bf"><path d="M 27.5 68.285156 L 197.378906 68.285156 L 197.378906 230.777344 L 27.5 230.777344 Z M 27.5 68.285156 " clip-rule="nonzero"/></clipPath><clipPath id="8461fc8718"><path d="M 112.4375 68.996094 L 138.632812 122.011719 L 197.164062 130.535156 L 154.800781 171.769531 L 164.828125 230.046875 L 112.4375 202.601562 L 60.175781 230.046875 L 70.074219 171.769531 L 27.839844 130.535156 L 86.367188 122.011719 Z M 112.4375 68.996094 " clip-rule="nonzero"/></clipPath><clipPath id="e5660c1355"><path d="M 0.792969 0.914062 L 170.207031 0.914062 L 170.207031 162.195312 L 0.792969 162.195312 Z M 0.792969 0.914062 " clip-rule="nonzero"/></clipPath><clipPath id="e79bb1ea75"><path d="M 85.4375 0.996094 L 111.632812 54.011719 L 170.164062 62.535156 L 127.800781 103.769531 L 137.828125 162.046875 L 85.4375 134.601562 L 33.175781 162.046875 L 43.074219 103.769531 L 0.839844 62.535156 L 59.367188 54.011719 Z M 85.4375 0.996094 " clip-rule="nonzero"/></clipPath><clipPath id="a2c26452d8"><rect x="0" width="171" y="0" height="163"/></clipPath><clipPath id="dd5755cedd"><path d="M 11 51.664062 L 56 51.664062 L 56 95 L 11 95 Z M 11 51.664062 " clip-rule="nonzero"/></clipPath><clipPath id="80c5c2cec3"><path d="M 33.640625 51.789062 L 40.523438 65.539062 L 55.824219 67.980469 L 44.734375 78.847656 L 47.390625 94.148438 L 33.640625 86.832031 L 19.894531 94.148438 L 22.550781 78.847656 L 11.246094 67.980469 L 26.773438 65.539062 Z M 33.640625 51.789062 " clip-rule="nonzero"/></clipPath><clipPath id="38be933a82"><path d="M 0.0429688 0.6875 L 45 0.6875 L 45 43.28125 L 0.0429688 43.28125 Z M 0.0429688 0.6875 " clip-rule="nonzero"/></clipPath><clipPath id="4fc57f80af"><path d="M 22.640625 0.789062 L 29.523438 14.539062 L 44.824219 16.980469 L 33.734375 27.847656 L 36.390625 43.148438 L 22.640625 35.832031 L 8.894531 43.148438 L 11.550781 27.847656 L 0.246094 16.980469 L 15.773438 14.539062 Z M 22.640625 0.789062 " clip-rule="nonzero"/></clipPath><clipPath id="298cac6986"><rect x="0" width="45" y="0" height="44"/></clipPath><clipPath id="07b9b36cf7"><path d="M 173.375 219 L 218.613281 219 L 218.613281 262 L 173.375 262 Z M 173.375 219 " clip-rule="nonzero"/></clipPath><clipPath id="fa9feadfa3"><path d="M 195.894531 261.78125 L 189.015625 248.03125 L 173.710938 245.589844 L 184.804688 234.722656 L 182.148438 219.417969 L 195.894531 226.738281 L 209.644531 219.417969 L 206.988281 234.722656 L 218.292969 245.589844 L 202.765625 248.03125 Z M 195.894531 261.78125 " clip-rule="nonzero"/></clipPath><clipPath id="c56f0f1356"><path d="M 0.519531 0.1875 L 45.503906 0.1875 L 45.503906 42.78125 L 0.519531 42.78125 Z M 0.519531 0.1875 " clip-rule="nonzero"/></clipPath><clipPath id="f4412b5c69"><path d="M 22.894531 42.78125 L 16.015625 29.03125 L 0.710938 26.589844 L 11.804688 15.722656 L 9.148438 0.417969 L 22.894531 7.738281 L 36.644531 0.417969 L 33.988281 15.722656 L 45.292969 26.589844 L 29.765625 29.03125 Z M 22.894531 42.78125 " clip-rule="nonzero"/></clipPath><clipPath id="08e9e723ca"><rect x="0" width="46" y="0" height="43"/></clipPath><clipPath id="7ad3dd32e0"><rect x="0" width="26" y="0" height="56"/></clipPath><clipPath id="3dd4f29f3d"><rect x="0" width="27" y="0" height="56"/></clipPath></defs><g clip-path="url(#e989289e01)"><g clip-path="url(#95a75bcad2)"><g transform="matrix(1, 0, 0, 1, 0, 0)"><g clip-path="url(#471d0dd335)"><g clip-path="url(#b5f70fbfdd)"><g clip-path="url(#afccb6765d)"><rect x="-49.473598" width="323.827186" fill="#f5f5f2" height="465.177571" y="-71.068796" fill-opacity="1"/></g></g></g></g></g></g><g clip-path="url(#1873e2463d)"><g clip-path="url(#e19a34c4ed)"><g transform="matrix(1, 0, 0, 1, 0, 0)"><g clip-path="url(#1d24ff287f)"><g clip-path="url(#ac612a5dca)"><g clip-path="url(#0e65770d81)"><rect x="-49.473598" width="323.827186" fill="#000000" height="465.177571" y="-71.068796" fill-opacity="1"/></g></g></g></g></g></g><g clip-path="url(#bc4f9829bf)"><g clip-path="url(#8461fc8718)"><g transform="matrix(1, 0, 0, 1, 27, 68)"><g clip-path="url(#a2c26452d8)"><g clip-path="url(#e5660c1355)"><g clip-path="url(#e79bb1ea75)"><rect x="-76.473598" width="323.827186" fill="#7d1229" height="465.177571" y="-139.068796" fill-opacity="1"/></g></g></g></g></g></g><g clip-path="url(#dd5755cedd)"><g clip-path="url(#80c5c2cec3)"><g transform="matrix(1, 0, 0, 1, 11, 51)"><g clip-path="url(#298cac6986)"><g clip-path="url(#38be933a82)"><g clip-path="url(#4fc57f80af)"><rect x="-60.473598" width="323.827186" fill="#7d1229" height="465.177571" y="-122.068796" fill-opacity="1"/></g></g></g></g></g></g><g clip-path="url(#07b9b36cf7)"><g clip-path="url(#fa9feadfa3)"><g transform="matrix(1, 0, 0, 1, 173, 219)"><g clip-path="url(#08e9e723ca)"><g clip-path="url(#c56f0f1356)"><g clip-path="url(#f4412b5c69)"><rect x="-222.473598" width="323.827186" fill="#7d1229" height="465.177571" y="-290.068796" fill-opacity="1"/></g></g></g></g></g></g><g fill="#ffffff" fill-opacity="1"><g transform="translate(201.655742, 233.392404)"><g><path d="M -5.359375 11.234375 C -4.679688 11.234375 -4.160156 10.929688 -3.796875 10.328125 C -3.429688 9.734375 -3.21875 8.8125 -3.15625 7.5625 L -3.203125 7.515625 C -3.671875 8.253906 -4.503906 8.625 -5.703125 8.625 C -6.484375 8.625 -7.179688 8.445312 -7.796875 8.09375 C -8.421875 7.738281 -8.90625 7.242188 -9.25 6.609375 C -9.601562 5.984375 -9.78125 5.285156 -9.78125 4.515625 C -9.78125 3.566406 -9.597656 2.722656 -9.234375 1.984375 C -8.867188 1.253906 -8.351562 0.679688 -7.6875 0.265625 C -7.03125 -0.148438 -6.269531 -0.359375 -5.40625 -0.359375 C -3.800781 -0.359375 -2.59375 0.179688 -1.78125 1.265625 C -0.976562 2.359375 -0.578125 4.054688 -0.578125 6.359375 C -0.578125 8.734375 -0.988281 10.488281 -1.8125 11.625 C -2.644531 12.769531 -3.882812 13.34375 -5.53125 13.34375 C -7.894531 13.289062 -9.222656 12.164062 -9.515625 9.96875 L -6.90625 9.96875 C -6.851562 10.363281 -6.703125 10.671875 -6.453125 10.890625 C -6.203125 11.117188 -5.835938 11.234375 -5.359375 11.234375 Z M -7.140625 4.28125 C -7.140625 4.96875 -6.953125 5.507812 -6.578125 5.90625 C -6.210938 6.3125 -5.753906 6.515625 -5.203125 6.515625 C -4.617188 6.515625 -4.140625 6.3125 -3.765625 5.90625 C -3.398438 5.5 -3.21875 4.941406 -3.21875 4.234375 C -3.21875 3.503906 -3.40625 2.90625 -3.78125 2.4375 C -4.164062 1.976562 -4.671875 1.75 -5.296875 1.75 C -5.859375 1.75 -6.304688 1.972656 -6.640625 2.421875 C -6.972656 2.867188 -7.140625 3.488281 -7.140625 4.28125 Z M -7.140625 4.28125 "/></g></g></g><g fill="#ffffff" fill-opacity="1"><g transform="translate(28.128055, 77.025542)"><g><path d="M 5.359375 -11.234375 C 4.679688 -11.234375 4.160156 -10.929688 3.796875 -10.328125 C 3.429688 -9.734375 3.21875 -8.8125 3.15625 -7.5625 L 3.203125 -7.515625 C 3.671875 -8.253906 4.503906 -8.625 5.703125 -8.625 C 6.484375 -8.625 7.179688 -8.445312 7.796875 -8.09375 C 8.421875 -7.738281 8.90625 -7.242188 9.25 -6.609375 C 9.601562 -5.984375 9.78125 -5.285156 9.78125 -4.515625 C 9.78125 -3.566406 9.597656 -2.722656 9.234375 -1.984375 C 8.867188 -1.253906 8.351562 -0.679688 7.6875 -0.265625 C 7.03125 0.148438 6.269531 0.359375 5.40625 0.359375 C 3.800781 0.359375 2.59375 -0.179688 1.78125 -1.265625 C 0.976562 -2.359375 0.578125 -4.054688 0.578125 -6.359375 C 0.578125 -8.734375 0.988281 -10.488281 1.8125 -11.625 C 2.644531 -12.769531 3.882812 -13.34375 5.53125 -13.34375 C 7.894531 -13.289062 9.222656 -12.164062 9.515625 -9.96875 L 6.90625 -9.96875 C 6.851562 -10.363281 6.703125 -10.671875 6.453125 -10.890625 C 6.203125 -11.117188 5.835938 -11.234375 5.359375 -11.234375 Z M 7.140625 -4.28125 C 7.140625 -4.96875 6.953125 -5.507812 6.578125 -5.90625 C 6.210938 -6.3125 5.753906 -6.515625 5.203125 -6.515625 C 4.617188 -6.515625 4.140625 -6.3125 3.765625 -5.90625 C 3.398438 -5.5 3.21875 -4.941406 3.21875 -4.234375 C 3.21875 -3.503906 3.40625 -2.90625 3.78125 -2.4375 C 4.164062 -1.976562 4.671875 -1.75 5.296875 -1.75 C 5.859375 -1.75 6.304688 -1.972656 6.640625 -2.421875 C 6.972656 -2.867188 7.140625 -3.488281 7.140625 -4.28125 Z M 7.140625 -4.28125 "/></g></g></g><g transform="matrix(1, 0, 0, 1, 183, 254)"><g clip-path="url(#7ad3dd32e0)"><g fill="#791026" fill-opacity="1"><g transform="translate(25.556427, 16.555058)"><g><path d="M -12.21875 37.609375 C -14.5625 37.609375 -16.445312 36.910156 -17.875 35.515625 C -19.3125 34.128906 -20.03125 32.28125 -20.03125 29.96875 C -20.03125 28.40625 -19.6875 27.035156 -19 25.859375 C -18.3125 24.679688 -17.28125 23.660156 -15.90625 22.796875 C -17.789062 21.890625 -19.25 20.585938 -20.28125 18.890625 C -21.3125 17.191406 -21.828125 15.128906 -21.828125 12.703125 C -21.828125 10.023438 -21.28125 7.679688 -20.1875 5.671875 C -19.101562 3.660156 -17.566406 2.101562 -15.578125 1 C -13.585938 -0.101562 -11.269531 -0.65625 -8.625 -0.65625 C -6.351562 -0.65625 -4.523438 -0.25 -3.140625 0.5625 C -1.765625 1.382812 -1.078125 2.460938 -1.078125 3.796875 C -1.078125 4.554688 -1.3125 5.179688 -1.78125 5.671875 C -2.257812 6.160156 -2.84375 6.40625 -3.53125 6.40625 C -4.144531 6.40625 -4.675781 6.234375 -5.125 5.890625 C -5.582031 5.546875 -6.226562 4.992188 -7.0625 4.234375 C -7.925781 3.367188 -8.691406 2.707031 -9.359375 2.25 C -10.035156 1.800781 -10.804688 1.578125 -11.671875 1.578125 C -13.078125 1.578125 -14.25 2.09375 -15.1875 3.125 C -16.132812 4.15625 -16.609375 5.46875 -16.609375 7.0625 C -16.609375 9.738281 -15.753906 12.171875 -14.046875 14.359375 C -12.347656 16.546875 -10.160156 17.984375 -7.484375 18.671875 L -7.484375 19.765625 C -9.441406 20.265625 -10.9375 21.109375 -11.96875 22.296875 C -13 23.492188 -13.515625 25 -13.515625 26.8125 C -13.515625 28.507812 -13.039062 29.910156 -12.09375 31.015625 C -11.15625 32.117188 -9.960938 32.671875 -8.515625 32.671875 C -7.359375 32.671875 -6.351562 32.316406 -5.5 31.609375 C -4.65625 30.910156 -3.851562 29.890625 -3.09375 28.546875 L -2.109375 28.875 C -3.304688 31.914062 -4.707031 34.128906 -6.3125 35.515625 C -7.925781 36.910156 -9.894531 37.609375 -12.21875 37.609375 Z M -12.21875 37.609375 "/></g></g></g></g></g><g transform="matrix(1, 0, 0, 1, 13, 9)"><g clip-path="url(#3dd4f29f3d)"><g fill="#791026" fill-opacity="1"><g transform="translate(0.976719, 39.446331)"><g><path d="M 12.21875 -37.609375 C 14.5625 -37.609375 16.445312 -36.910156 17.875 -35.515625 C 19.3125 -34.128906 20.03125 -32.28125 20.03125 -29.96875 C 20.03125 -28.40625 19.6875 -27.035156 19 -25.859375 C 18.3125 -24.679688 17.28125 -23.660156 15.90625 -22.796875 C 17.789062 -21.890625 19.25 -20.585938 20.28125 -18.890625 C 21.3125 -17.191406 21.828125 -15.128906 21.828125 -12.703125 C 21.828125 -10.023438 21.28125 -7.679688 20.1875 -5.671875 C 19.101562 -3.660156 17.566406 -2.101562 15.578125 -1 C 13.585938 0.101562 11.269531 0.65625 8.625 0.65625 C 6.351562 0.65625 4.523438 0.25 3.140625 -0.5625 C 1.765625 -1.382812 1.078125 -2.460938 1.078125 -3.796875 C 1.078125 -4.554688 1.3125 -5.179688 1.78125 -5.671875 C 2.257812 -6.160156 2.84375 -6.40625 3.53125 -6.40625 C 4.144531 -6.40625 4.675781 -6.234375 5.125 -5.890625 C 5.582031 -5.546875 6.226562 -4.992188 7.0625 -4.234375 C 7.925781 -3.367188 8.691406 -2.707031 9.359375 -2.25 C 10.035156 -1.800781 10.804688 -1.578125 11.671875 -1.578125 C 13.078125 -1.578125 14.25 -2.09375 15.1875 -3.125 C 16.132812 -4.15625 16.609375 -5.46875 16.609375 -7.0625 C 16.609375 -9.738281 15.753906 -12.171875 14.046875 -14.359375 C 12.347656 -16.546875 10.160156 -17.984375 7.484375 -18.671875 L 7.484375 -19.765625 C 9.441406 -20.265625 10.9375 -21.109375 11.96875 -22.296875 C 13 -23.492188 13.515625 -25 13.515625 -26.8125 C 13.515625 -28.507812 13.039062 -29.910156 12.09375 -31.015625 C 11.15625 -32.117188 9.960938 -32.671875 8.515625 -32.671875 C 7.359375 -32.671875 6.351562 -32.316406 5.5 -31.609375 C 4.65625 -30.910156 3.851562 -29.890625 3.09375 -28.546875 L 2.109375 -28.875 C 3.304688 -31.914062 4.707031 -34.128906 6.3125 -35.515625 C 7.925781 -36.910156 9.894531 -37.609375 12.21875 -37.609375 Z M 12.21875 -37.609375 "/></g></g></g></g></g></svg>