<svg xmlns="http://www.w3.org/2000/svg" xmlns:xlink="http://www.w3.org/1999/xlink" width="300" zoomAndPan="magnify" viewBox="0 0 224.87999 323.03998" height="420" preserveAspectRatio="xMidYMid meet" version="1.0"><defs><g/><clipPath id="b499bd7ef9"><path d="M 0.273438 0 L 224.488281 0 L 224.488281 313.871094 L 0.273438 313.871094 Z M 0.273438 0 " clip-rule="nonzero"/></clipPath><clipPath id="95cfda5424"><path d="M 18.289062 0.691406 C 8.402344 0.714844 0.53125 8.722656 0.53125 18.488281 L 0.53125 295.582031 C 0.53125 305.484375 8.550781 313.378906 18.328125 313.378906 L 206.550781 313.378906 C 216.4375 313.378906 224.335938 305.371094 224.347656 295.609375 L 224.347656 18.460938 C 224.335938 8.585938 216.335938 0.714844 206.585938 0.691406 Z M 18.289062 0.691406 " clip-rule="nonzero"/></clipPath><clipPath id="e33a9664c8"><path d="M 0.511719 0.480469 L 224.488281 0.480469 L 224.488281 313.46875 L 0.511719 313.46875 Z M 0.511719 0.480469 " clip-rule="nonzero"/></clipPath><clipPath id="751102d48c"><path d="M 18.289062 0.691406 C 8.402344 0.714844 0.53125 8.722656 0.53125 18.488281 L 0.53125 295.582031 C 0.53125 305.484375 8.550781 313.378906 18.328125 313.378906 L 206.550781 313.378906 C 216.4375 313.378906 224.335938 305.371094 224.347656 295.609375 L 224.347656 18.460938 C 224.335938 8.585938 216.335938 0.714844 206.585938 0.691406 Z M 18.289062 0.691406 " clip-rule="nonzero"/></clipPath><clipPath id="2fe269732b"><rect x="0" width="225" y="0" height="314"/></clipPath><clipPath id="7e8283402e"><path d="M 0.273438 0 L 224.488281 0 L 224.488281 313.871094 L 0.273438 313.871094 Z M 0.273438 0 " clip-rule="nonzero"/></clipPath><clipPath id="37d962b25a"><path d="M 206.550781 1.316406 C 215.988281 1.316406 223.71875 8.9375 223.71875 18.488281 L 223.71875 295.582031 C 223.71875 305.019531 216.101562 312.753906 206.550781 312.753906 L 18.328125 312.753906 C 8.890625 312.753906 1.15625 305.132812 1.15625 295.582031 L 1.15625 18.488281 C 1.15625 9.050781 8.777344 1.316406 18.328125 1.316406 Z M 13.527344 0.691406 C 7.171875 2.394531 2.222656 7.394531 0.53125 13.699219 L 0.53125 300.371094 C 2.234375 306.726562 7.234375 311.6875 13.539062 313.367188 L 211.351562 313.367188 C 217.703125 311.664062 222.667969 306.664062 224.347656 300.359375 L 224.347656 13.6875 C 222.65625 7.347656 217.640625 2.382812 211.335938 0.691406 Z M 13.527344 0.691406 " clip-rule="nonzero"/></clipPath><clipPath id="1ea429d2cd"><path d="M 0.511719 0.480469 L 224.488281 0.480469 L 224.488281 313.46875 L 0.511719 313.46875 Z M 0.511719 0.480469 " clip-rule="nonzero"/></clipPath><clipPath id="b917658262"><path d="M 206.550781 1.316406 C 215.988281 1.316406 223.71875 8.9375 223.71875 18.488281 L 223.71875 295.582031 C 223.71875 305.019531 216.101562 312.753906 206.550781 312.753906 L 18.328125 312.753906 C 8.890625 312.753906 1.15625 305.132812 1.15625 295.582031 L 1.15625 18.488281 C 1.15625 9.050781 8.777344 1.316406 18.328125 1.316406 Z M 13.527344 0.691406 C 7.171875 2.394531 2.222656 7.394531 0.53125 13.699219 L 0.53125 300.371094 C 2.234375 306.726562 7.234375 311.6875 13.539062 313.367188 L 211.351562 313.367188 C 217.703125 311.664062 222.667969 306.664062 224.347656 300.359375 L 224.347656 13.6875 C 222.65625 7.347656 217.640625 2.382812 211.335938 0.691406 Z M 13.527344 0.691406 " clip-rule="nonzero"/></clipPath><clipPath id="cb1641594f"><rect x="0" width="225" y="0" height="314"/></clipPath><clipPath id="8a1aa30b29"><path d="M 27.5 68.285156 L 197.378906 68.285156 L 197.378906 230.777344 L 27.5 230.777344 Z M 27.5 68.285156 " clip-rule="nonzero"/></clipPath><clipPath id="9ad4db3a0b"><path d="M 112.4375 68.996094 L 138.632812 122.011719 L 197.164062 130.535156 L 154.800781 171.769531 L 164.828125 230.046875 L 112.4375 202.601562 L 60.175781 230.046875 L 70.074219 171.769531 L 27.839844 130.535156 L 86.367188 122.011719 Z M 112.4375 68.996094 " clip-rule="nonzero"/></clipPath><clipPath id="6dd4184bb6"><path d="M 0.792969 0.914062 L 170.207031 0.914062 L 170.207031 162.195312 L 0.792969 162.195312 Z M 0.792969 0.914062 " clip-rule="nonzero"/></clipPath><clipPath id="d7ca06f25d"><path d="M 85.4375 0.996094 L 111.632812 54.011719 L 170.164062 62.535156 L 127.800781 103.769531 L 137.828125 162.046875 L 85.4375 134.601562 L 33.175781 162.046875 L 43.074219 103.769531 L 0.839844 62.535156 L 59.367188 54.011719 Z M 85.4375 0.996094 " clip-rule="nonzero"/></clipPath><clipPath id="f3268efafc"><rect x="0" width="171" y="0" height="163"/></clipPath><clipPath id="4120829385"><path d="M 11 51.664062 L 56 51.664062 L 56 95 L 11 95 Z M 11 51.664062 " clip-rule="nonzero"/></clipPath><clipPath id="9552a8f63c"><path d="M 33.640625 51.789062 L 40.523438 65.539062 L 55.824219 67.980469 L 44.734375 78.847656 L 47.390625 94.148438 L 33.640625 86.832031 L 19.894531 94.148438 L 22.550781 78.847656 L 11.246094 67.980469 L 26.773438 65.539062 Z M 33.640625 51.789062 " clip-rule="nonzero"/></clipPath><clipPath id="510131eb4a"><path d="M 0.0429688 0.6875 L 45 0.6875 L 45 43.28125 L 0.0429688 43.28125 Z M 0.0429688 0.6875 " clip-rule="nonzero"/></clipPath><clipPath id="480e8c57de"><path d="M 22.640625 0.789062 L 29.523438 14.539062 L 44.824219 16.980469 L 33.734375 27.847656 L 36.390625 43.148438 L 22.640625 35.832031 L 8.894531 43.148438 L 11.550781 27.847656 L 0.246094 16.980469 L 15.773438 14.539062 Z M 22.640625 0.789062 " clip-rule="nonzero"/></clipPath><clipPath id="bc917d8f25"><rect x="0" width="45" y="0" height="44"/></clipPath><clipPath id="ad3e9efd01"><path d="M 173.375 219 L 218.613281 219 L 218.613281 262 L 173.375 262 Z M 173.375 219 " clip-rule="nonzero"/></clipPath><clipPath id="84c7b2e73b"><path d="M 195.894531 261.78125 L 189.015625 248.03125 L 173.710938 245.589844 L 184.804688 234.722656 L 182.148438 219.417969 L 195.894531 226.738281 L 209.644531 219.417969 L 206.988281 234.722656 L 218.292969 245.589844 L 202.765625 248.03125 Z M 195.894531 261.78125 " clip-rule="nonzero"/></clipPath><clipPath id="cab7ecdd9a"><path d="M 0.519531 0.1875 L 45.503906 0.1875 L 45.503906 42.78125 L 0.519531 42.78125 Z M 0.519531 0.1875 " clip-rule="nonzero"/></clipPath><clipPath id="50759b4dba"><path d="M 22.894531 42.78125 L 16.015625 29.03125 L 0.710938 26.589844 L 11.804688 15.722656 L 9.148438 0.417969 L 22.894531 7.738281 L 36.644531 0.417969 L 33.988281 15.722656 L 45.292969 26.589844 L 29.765625 29.03125 Z M 22.894531 42.78125 " clip-rule="nonzero"/></clipPath><clipPath id="e2328f980c"><rect x="0" width="46" y="0" height="43"/></clipPath><clipPath id="694384e6ed"><rect x="0" width="26" y="0" height="56"/></clipPath><clipPath id="2155e42e09"><rect x="0" width="27" y="0" height="56"/></clipPath></defs><g clip-path="url(#b499bd7ef9)"><g clip-path="url(#95cfda5424)"><g transform="matrix(1, 0, 0, 1, 0, 0)"><g clip-path="url(#2fe269732b)"><g clip-path="url(#e33a9664c8)"><g clip-path="url(#751102d48c)"><rect x="-49.473598" width="323.827186" fill="#f5f5f2" height="465.177571" y="-71.068796" fill-opacity="1"/></g></g></g></g></g></g><g clip-path="url(#7e8283402e)"><g clip-path="url(#37d962b25a)"><g transform="matrix(1, 0, 0, 1, 0, 0)"><g clip-path="url(#cb1641594f)"><g clip-path="url(#1ea429d2cd)"><g clip-path="url(#b917658262)"><rect x="-49.473598" width="323.827186" fill="#000000" height="465.177571" y="-71.068796" fill-opacity="1"/></g></g></g></g></g></g><g clip-path="url(#8a1aa30b29)"><g clip-path="url(#9ad4db3a0b)"><g transform="matrix(1, 0, 0, 1, 27, 68)"><g clip-path="url(#f3268efafc)"><g clip-path="url(#6dd4184bb6)"><g clip-path="url(#d7ca06f25d)"><rect x="-76.473598" width="323.827186" fill="#7d1229" height="465.177571" y="-139.068796" fill-opacity="1"/></g></g></g></g></g></g><g clip-path="url(#4120829385)"><g clip-path="url(#9552a8f63c)"><g transform="matrix(1, 0, 0, 1, 11, 51)"><g clip-path="url(#bc917d8f25)"><g clip-path="url(#510131eb4a)"><g clip-path="url(#480e8c57de)"><rect x="-60.473598" width="323.827186" fill="#7d1229" height="465.177571" y="-122.068796" fill-opacity="1"/></g></g></g></g></g></g><g clip-path="url(#ad3e9efd01)"><g clip-path="url(#84c7b2e73b)"><g transform="matrix(1, 0, 0, 1, 173, 219)"><g clip-path="url(#e2328f980c)"><g clip-path="url(#cab7ecdd9a)"><g clip-path="url(#50759b4dba)"><rect x="-222.473598" width="323.827186" fill="#7d1229" height="465.177571" y="-290.068796" fill-opacity="1"/></g></g></g></g></g></g><g fill="#ffffff" fill-opacity="1"><g transform="translate(201.655742, 233.392404)"><g><path d="M -9.890625 5 L -9.890625 2.953125 L -8.40625 2.953125 L -8.40625 0 L -5.765625 0 L -5.765625 2.953125 L -0.5 2.953125 L -0.5 5.21875 L -5.40625 13.34375 L -8.40625 13.34375 L -8.40625 5 Z M -5.828125 10.734375 L -5.796875 10.734375 L -2.4375 5 L -5.765625 5 C -5.765625 6.675781 -5.785156 8.585938 -5.828125 10.734375 Z M -5.828125 10.734375 "/></g></g></g><g fill="#ffffff" fill-opacity="1"><g transform="translate(28.128055, 77.025542)"><g><path d="M 9.890625 -5 L 9.890625 -2.953125 L 8.40625 -2.953125 L 8.40625 0 L 5.765625 0 L 5.765625 -2.953125 L 0.5 -2.953125 L 0.5 -5.21875 L 5.40625 -13.34375 L 8.40625 -13.34375 L 8.40625 -5 Z M 5.828125 -10.734375 L 5.796875 -10.734375 L 2.4375 -5 L 5.765625 -5 C 5.765625 -6.675781 5.785156 -8.585938 5.828125 -10.734375 Z M 5.828125 -10.734375 "/></g></g></g><g transform="matrix(1, 0, 0, 1, 183, 254)"><g clip-path="url(#694384e6ed)"><g fill="#791026" fill-opacity="1"><g transform="translate(25.556427, 16.555058)"><g><path d="M -11.671875 37.609375 C -14.347656 37.609375 -16.535156 36.722656 -18.234375 34.953125 C -19.941406 33.179688 -20.796875 30.847656 -20.796875 27.953125 C -20.796875 25.859375 -20.429688 23.832031 -19.703125 21.875 C -18.984375 19.914062 -17.707031 17.722656 -15.875 15.296875 C -14.050781 12.878906 -11.492188 10.023438 -8.203125 6.734375 L -15.84375 6.734375 C -17.289062 6.734375 -18.359375 7.046875 -19.046875 7.671875 C -19.734375 8.304688 -20.332031 9.332031 -20.84375 10.75 L -21.875 10.75 L -20.25 0 L -0.765625 0 L -0.765625 0.875 L -5.046875 6.140625 C -7.867188 9.609375 -9.941406 12.707031 -11.265625 15.4375 C -12.585938 18.175781 -13.25 20.882812 -13.25 23.5625 C -13.25 25.945312 -12.738281 27.832031 -11.71875 29.21875 C -10.707031 30.613281 -9.367188 31.3125 -7.703125 31.3125 C -6.472656 31.3125 -5.390625 30.90625 -4.453125 30.09375 C -3.515625 29.28125 -2.863281 28.1875 -2.5 26.8125 L -1.46875 27.140625 C -2.082031 30.398438 -3.285156 32.957031 -5.078125 34.8125 C -6.867188 36.675781 -9.066406 37.609375 -11.671875 37.609375 Z M -11.671875 37.609375 "/></g></g></g></g></g><g transform="matrix(1, 0, 0, 1, 13, 9)"><g clip-path="url(#2155e42e09)"><g fill="#791026" fill-opacity="1"><g transform="translate(0.976719, 39.446273)"><g><path d="M 11.671875 -37.609375 C 14.347656 -37.609375 16.535156 -36.722656 18.234375 -34.953125 C 19.941406 -33.179688 20.796875 -30.847656 20.796875 -27.953125 C 20.796875 -25.859375 20.429688 -23.832031 19.703125 -21.875 C 18.984375 -19.914062 17.707031 -17.722656 15.875 -15.296875 C 14.050781 -12.878906 11.492188 -10.023438 8.203125 -6.734375 L 15.84375 -6.734375 C 17.289062 -6.734375 18.359375 -7.046875 19.046875 -7.671875 C 19.734375 -8.304688 20.332031 -9.332031 20.84375 -10.75 L 21.875 -10.75 L 20.25 0 L 0.765625 0 L 0.765625 -0.875 L 5.046875 -6.140625 C 7.867188 -9.609375 9.941406 -12.707031 11.265625 -15.4375 C 12.585938 -18.175781 13.25 -20.882812 13.25 -23.5625 C 13.25 -25.945312 12.738281 -27.832031 11.71875 -29.21875 C 10.707031 -30.613281 9.367188 -31.3125 7.703125 -31.3125 C 6.472656 -31.3125 5.390625 -30.90625 4.453125 -30.09375 C 3.515625 -29.28125 2.863281 -28.1875 2.5 -26.8125 L 1.46875 -27.140625 C 2.082031 -30.398438 3.285156 -32.957031 5.078125 -34.8125 C 6.867188 -36.675781 9.066406 -37.609375 11.671875 -37.609375 Z M 11.671875 -37.609375 "/></g></g></g></g></g></svg>