<svg xmlns="http://www.w3.org/2000/svg" xmlns:xlink="http://www.w3.org/1999/xlink" width="300" zoomAndPan="magnify" viewBox="0 0 224.87999 323.03998" height="420" preserveAspectRatio="xMidYMid meet" version="1.0"><defs><g/><clipPath id="9f81c5445e"><path d="M 0.273438 1 L 224.488281 1 L 224.488281 314 L 0.273438 314 Z M 0.273438 1 " clip-rule="nonzero"/></clipPath><clipPath id="f967721d58"><path d="M 18.019531 1.011719 C 8.15625 1.035156 0.296875 9.019531 0.273438 18.757812 L 0.273438 295.941406 C 0.296875 305.816406 8.308594 313.6875 18.070312 313.6875 L 206.292969 313.6875 C 216.195312 313.6875 224.089844 305.664062 224.089844 295.890625 L 224.089844 18.808594 C 224.089844 8.917969 216.09375 1.035156 206.34375 1.011719 Z M 18.019531 1.011719 " clip-rule="nonzero"/></clipPath><clipPath id="496ee0aff5"><path d="M 0.273438 0 L 224.246094 0 L 224.246094 312.707031 L 0.273438 312.707031 Z M 0.273438 0 " clip-rule="nonzero"/></clipPath><clipPath id="68c3055ac8"><path d="M 18.019531 0.0117188 C 8.15625 0.0351562 0.296875 8.019531 0.273438 17.757812 L 0.273438 294.941406 C 0.296875 304.816406 8.308594 312.6875 18.070312 312.6875 L 206.292969 312.6875 C 216.195312 312.6875 224.089844 304.664062 224.089844 294.890625 L 224.089844 17.808594 C 224.089844 7.917969 216.09375 0.0351562 206.34375 0.0117188 Z M 18.019531 0.0117188 " clip-rule="nonzero"/></clipPath><clipPath id="3725a6948c"><rect x="0" width="225" y="0" height="313"/></clipPath><clipPath id="8cdf738157"><path d="M 0.273438 1 L 224.488281 1 L 224.488281 314 L 0.273438 314 Z M 0.273438 1 " clip-rule="nonzero"/></clipPath><clipPath id="d41d755a72"><path d="M 206.292969 1.636719 C 215.730469 1.636719 223.464844 9.257812 223.464844 18.808594 L 223.464844 295.902344 C 223.464844 305.339844 215.84375 313.074219 206.292969 313.074219 L 18.070312 313.074219 C 8.632812 313.074219 0.898438 305.453125 0.898438 295.902344 L 0.898438 18.808594 C 0.898438 9.371094 8.519531 1.636719 18.070312 1.636719 Z M 13.269531 1.011719 C 6.914062 2.714844 1.964844 7.714844 0.273438 14.019531 L 0.273438 300.691406 C 1.976562 307.042969 6.976562 312.007812 13.28125 313.6875 L 211.09375 313.6875 C 217.449219 311.984375 222.410156 306.980469 224.089844 300.679688 L 224.089844 14.007812 C 222.398438 7.664062 217.382812 2.703125 211.082031 1.011719 Z M 13.269531 1.011719 " clip-rule="nonzero"/></clipPath><clipPath id="93c2d15ddd"><path d="M 0.273438 0 L 224.246094 0 L 224.246094 312.707031 L 0.273438 312.707031 Z M 0.273438 0 " clip-rule="nonzero"/></clipPath><clipPath id="070f6c1400"><path d="M 206.292969 0.636719 C 215.730469 0.636719 223.464844 8.257812 223.464844 17.808594 L 223.464844 294.902344 C 223.464844 304.339844 215.84375 312.074219 206.292969 312.074219 L 18.070312 312.074219 C 8.632812 312.074219 0.898438 304.453125 0.898438 294.902344 L 0.898438 17.808594 C 0.898438 8.371094 8.519531 0.636719 18.070312 0.636719 Z M 13.269531 0.0117188 C 6.914062 1.714844 1.964844 6.714844 0.273438 13.019531 L 0.273438 299.691406 C 1.976562 306.042969 6.976562 311.007812 13.28125 312.6875 L 211.09375 312.6875 C 217.449219 310.984375 222.410156 305.980469 224.089844 299.679688 L 224.089844 13.007812 C 222.398438 6.664062 217.382812 1.703125 211.082031 0.0117188 Z M 13.269531 0.0117188 " clip-rule="nonzero"/></clipPath><clipPath id="42205906f6"><rect x="0" width="225" y="0" height="313"/></clipPath><clipPath id="7e0b9f9cf3"><path d="M 17.316406 113.183594 L 209.425781 113.183594 L 209.425781 178.730469 L 17.316406 178.730469 Z M 17.316406 113.183594 " clip-rule="nonzero"/></clipPath><clipPath id="c47d0151e5"><path d="M 0.316406 0.183594 L 192.425781 0.183594 L 192.425781 65.730469 L 0.316406 65.730469 Z M 0.316406 0.183594 " clip-rule="nonzero"/></clipPath><clipPath id="c90f0eee5a"><rect x="0" width="193" y="0" height="66"/></clipPath><clipPath id="c1af42d538"><path d="M 80.597656 54.777344 L 146.132812 54.777344 L 146.132812 246.898438 L 80.597656 246.898438 Z M 80.597656 54.777344 " clip-rule="nonzero"/></clipPath><clipPath id="f622658700"><path d="M 0.597656 0.777344 L 66.132812 0.777344 L 66.132812 192.898438 L 0.597656 192.898438 Z M 0.597656 0.777344 " clip-rule="nonzero"/></clipPath><clipPath id="ec1c864043"><rect x="0" width="67" y="0" height="193"/></clipPath><clipPath id="7e46ca86ac"><path d="M 12.128906 61.421875 L 44.441406 61.421875 L 44.441406 72.488281 L 12.128906 72.488281 Z M 12.128906 61.421875 " clip-rule="nonzero"/></clipPath><clipPath id="9c2e8eb87a"><path d="M 0.128906 0.421875 L 32.441406 0.421875 L 32.441406 11.488281 L 0.128906 11.488281 Z M 0.128906 0.421875 " clip-rule="nonzero"/></clipPath><clipPath id="d87c9572ed"><rect x="0" width="33" y="0" height="12"/></clipPath><clipPath id="81380e2579"><path d="M 22.746094 51.554688 L 33.8125 51.554688 L 33.8125 83.867188 L 22.746094 83.867188 Z M 22.746094 51.554688 " clip-rule="nonzero"/></clipPath><clipPath id="a83d44798b"><path d="M 0.746094 0.554688 L 11.8125 0.554688 L 11.8125 32.867188 L 0.746094 32.867188 Z M 0.746094 0.554688 " clip-rule="nonzero"/></clipPath><clipPath id="3c40ee2bb9"><rect x="0" width="12" y="0" height="33"/></clipPath><clipPath id="7170c110d4"><path d="M 177.640625 242.949219 L 209.953125 242.949219 L 209.953125 254.015625 L 177.640625 254.015625 Z M 177.640625 242.949219 " clip-rule="nonzero"/></clipPath><clipPath id="7cb3d53ce3"><path d="M 0.640625 0.949219 L 32.953125 0.949219 L 32.953125 12.015625 L 0.640625 12.015625 Z M 0.640625 0.949219 " clip-rule="nonzero"/></clipPath><clipPath id="4ec7b6e5dc"><rect x="0" width="33" y="0" height="13"/></clipPath><clipPath id="269dc8fa34"><path d="M 188.257812 231.570312 L 199.324219 231.570312 L 199.324219 263.878906 L 188.257812 263.878906 Z M 188.257812 231.570312 " clip-rule="nonzero"/></clipPath><clipPath id="c1cd85ea42"><path d="M 0.257812 0.570312 L 11.324219 0.570312 L 11.324219 32.878906 L 0.257812 32.878906 Z M 0.257812 0.570312 " clip-rule="nonzero"/></clipPath><clipPath id="9e3247fe05"><rect x="0" width="12" y="0" height="33"/></clipPath><clipPath id="180de89f8c"><rect x="0" width="26" y="0" height="56"/></clipPath><clipPath id="ef5e61d1a1"><rect x="0" width="27" y="0" height="56"/></clipPath></defs><g clip-path="url(#9f81c5445e)"><g clip-path="url(#f967721d58)"><g transform="matrix(1, 0, 0, 1, -0.000000000000000056, 1)"><g clip-path="url(#3725a6948c)"><g clip-path="url(#496ee0aff5)"><g clip-path="url(#68c3055ac8)"><rect x="-49.473598" width="323.827186" fill="#f5f5f2" height="465.177571" y="-72.068796" fill-opacity="1"/></g></g></g></g></g></g><g clip-path="url(#8cdf738157)"><g clip-path="url(#d41d755a72)"><g transform="matrix(1, 0, 0, 1, -0.000000000000000056, 1)"><g clip-path="url(#42205906f6)"><g clip-path="url(#93c2d15ddd)"><g clip-path="url(#070f6c1400)"><rect x="-49.473598" width="323.827186" fill="#000000" height="465.177571" y="-72.068796" fill-opacity="1"/></g></g></g></g></g></g><g clip-path="url(#7e0b9f9cf3)"><g transform="matrix(1, 0, 0, 1, 17, 113)"><g clip-path="url(#c90f0eee5a)"><g clip-path="url(#c47d0151e5)"><rect x="-66.473598" width="323.827186" fill="#7d1229" height="465.177571" y="-184.068796" fill-opacity="1"/></g></g></g></g><g clip-path="url(#c1af42d538)"><g transform="matrix(1, 0, 0, 1, 80, 54)"><g clip-path="url(#ec1c864043)"><g clip-path="url(#f622658700)"><rect x="-129.473598" width="323.827186" fill="#7d1229" height="465.177571" y="-125.068796" fill-opacity="1"/></g></g></g></g><g clip-path="url(#7e46ca86ac)"><g transform="matrix(1, 0, 0, 1, 12, 61)"><g clip-path="url(#d87c9572ed)"><g clip-path="url(#9c2e8eb87a)"><rect x="-61.473598" width="323.827186" fill="#7d1229" height="465.177571" y="-132.068796" fill-opacity="1"/></g></g></g></g><g clip-path="url(#81380e2579)"><g transform="matrix(1, 0, 0, 1, 22, 51)"><g clip-path="url(#3c40ee2bb9)"><g clip-path="url(#a83d44798b)"><rect x="-71.473598" width="323.827186" fill="#7d1229" height="465.177571" y="-122.068796" fill-opacity="1"/></g></g></g></g><g clip-path="url(#7170c110d4)"><g transform="matrix(1, 0, 0, 1, 177, 242)"><g clip-path="url(#4ec7b6e5dc)"><g clip-path="url(#7cb3d53ce3)"><rect x="-226.473598" width="323.827186" fill="#7d1229" height="465.177571" y="-313.068796" fill-opacity="1"/></g></g></g></g><g clip-path="url(#269dc8fa34)"><g transform="matrix(1, 0, 0, 1, 188, 231)"><g clip-path="url(#9e3247fe05)"><g clip-path="url(#c1cd85ea42)"><rect x="-237.473598" width="323.827186" fill="#7d1229" height="465.177571" y="-302.068796" fill-opacity="1"/></g></g></g></g><g transform="matrix(1, 0, 0, 1, 183, 254)"><g clip-path="url(#180de89f8c)"><g fill="#791026" fill-opacity="1"><g transform="translate(25.556427, 16.554998)"><g><path d="M -11.671875 37.609375 C -14.347656 37.609375 -16.535156 36.722656 -18.234375 34.953125 C -19.941406 33.179688 -20.796875 30.847656 -20.796875 27.953125 C -20.796875 25.859375 -20.429688 23.832031 -19.703125 21.875 C -18.984375 19.914062 -17.707031 17.722656 -15.875 15.296875 C -14.050781 12.878906 -11.492188 10.023438 -8.203125 6.734375 L -15.84375 6.734375 C -17.289062 6.734375 -18.359375 7.046875 -19.046875 7.671875 C -19.734375 8.304688 -20.332031 9.332031 -20.84375 10.75 L -21.875 10.75 L -20.25 0 L -0.765625 0 L -0.765625 0.875 L -5.046875 6.140625 C -7.867188 9.609375 -9.941406 12.707031 -11.265625 15.4375 C -12.585938 18.175781 -13.25 20.882812 -13.25 23.5625 C -13.25 25.945312 -12.738281 27.832031 -11.71875 29.21875 C -10.707031 30.613281 -9.367188 31.3125 -7.703125 31.3125 C -6.472656 31.3125 -5.390625 30.90625 -4.453125 30.09375 C -3.515625 29.28125 -2.863281 28.1875 -2.5 26.8125 L -1.46875 27.140625 C -2.082031 30.398438 -3.285156 32.957031 -5.078125 34.8125 C -6.867188 36.675781 -9.066406 37.609375 -11.671875 37.609375 Z M -11.671875 37.609375 "/></g></g></g></g></g><g transform="matrix(1, 0, 0, 1, 13, 9)"><g clip-path="url(#ef5e61d1a1)"><g fill="#791026" fill-opacity="1"><g transform="translate(0.976719, 39.446238)"><g><path d="M 11.671875 -37.609375 C 14.347656 -37.609375 16.535156 -36.722656 18.234375 -34.953125 C 19.941406 -33.179688 20.796875 -30.847656 20.796875 -27.953125 C 20.796875 -25.859375 20.429688 -23.832031 19.703125 -21.875 C 18.984375 -19.914062 17.707031 -17.722656 15.875 -15.296875 C 14.050781 -12.878906 11.492188 -10.023438 8.203125 -6.734375 L 15.84375 -6.734375 C 17.289062 -6.734375 18.359375 -7.046875 19.046875 -7.671875 C 19.734375 -8.304688 20.332031 -9.332031 20.84375 -10.75 L 21.875 -10.75 L 20.25 0 L 0.765625 0 L 0.765625 -0.875 L 5.046875 -6.140625 C 7.867188 -9.609375 9.941406 -12.707031 11.265625 -15.4375 C 12.585938 -18.175781 13.25 -20.882812 13.25 -23.5625 C 13.25 -25.945312 12.738281 -27.832031 11.71875 -29.21875 C 10.707031 -30.613281 9.367188 -31.3125 7.703125 -31.3125 C 6.472656 -31.3125 5.390625 -30.90625 4.453125 -30.09375 C 3.515625 -29.28125 2.863281 -28.1875 2.5 -26.8125 L 1.46875 -27.140625 C 2.082031 -30.398438 3.285156 -32.957031 5.078125 -34.8125 C 6.867188 -36.675781 9.066406 -37.609375 11.671875 -37.609375 Z M 11.671875 -37.609375 "/></g></g></g></g></g></svg>