<svg xmlns="http://www.w3.org/2000/svg" xmlns:xlink="http://www.w3.org/1999/xlink" width="300" zoomAndPan="magnify" viewBox="0 0 224.87999 323.03998" height="420" preserveAspectRatio="xMidYMid meet" version="1.0"><defs><g/><clipPath id="afce4a0435"><path d="M 0.273438 1 L 224.488281 1 L 224.488281 314 L 0.273438 314 Z M 0.273438 1 " clip-rule="nonzero"/></clipPath><clipPath id="dbe1eb8ff6"><path d="M 18.019531 1.011719 C 8.15625 1.035156 0.296875 9.019531 0.273438 18.757812 L 0.273438 295.941406 C 0.296875 305.816406 8.308594 313.6875 18.070312 313.6875 L 206.292969 313.6875 C 216.195312 313.6875 224.089844 305.664062 224.089844 295.890625 L 224.089844 18.808594 C 224.089844 8.917969 216.09375 1.035156 206.34375 1.011719 Z M 18.019531 1.011719 " clip-rule="nonzero"/></clipPath><clipPath id="e4af5d45c9"><path d="M 0.273438 0 L 224.246094 0 L 224.246094 312.707031 L 0.273438 312.707031 Z M 0.273438 0 " clip-rule="nonzero"/></clipPath><clipPath id="8bb78c62ae"><path d="M 18.019531 0.0117188 C 8.15625 0.0351562 0.296875 8.019531 0.273438 17.757812 L 0.273438 294.941406 C 0.296875 304.816406 8.308594 312.6875 18.070312 312.6875 L 206.292969 312.6875 C 216.195312 312.6875 224.089844 304.664062 224.089844 294.890625 L 224.089844 17.808594 C 224.089844 7.917969 216.09375 0.0351562 206.34375 0.0117188 Z M 18.019531 0.0117188 " clip-rule="nonzero"/></clipPath><clipPath id="8d1b30829f"><rect x="0" width="225" y="0" height="313"/></clipPath><clipPath id="787c9bd360"><path d="M 0.273438 1 L 224.488281 1 L 224.488281 314 L 0.273438 314 Z M 0.273438 1 " clip-rule="nonzero"/></clipPath><clipPath id="0628e884ae"><path d="M 206.292969 1.636719 C 215.730469 1.636719 223.464844 9.257812 223.464844 18.808594 L 223.464844 295.902344 C 223.464844 305.339844 215.84375 313.074219 206.292969 313.074219 L 18.070312 313.074219 C 8.632812 313.074219 0.898438 305.453125 0.898438 295.902344 L 0.898438 18.808594 C 0.898438 9.371094 8.519531 1.636719 18.070312 1.636719 Z M 13.269531 1.011719 C 6.914062 2.714844 1.964844 7.714844 0.273438 14.019531 L 0.273438 300.691406 C 1.976562 307.042969 6.976562 312.007812 13.28125 313.6875 L 211.09375 313.6875 C 217.449219 311.984375 222.410156 306.980469 224.089844 300.679688 L 224.089844 14.007812 C 222.398438 7.664062 217.382812 2.703125 211.082031 1.011719 Z M 13.269531 1.011719 " clip-rule="nonzero"/></clipPath><clipPath id="1df10a791e"><path d="M 0.273438 0 L 224.246094 0 L 224.246094 312.707031 L 0.273438 312.707031 Z M 0.273438 0 " clip-rule="nonzero"/></clipPath><clipPath id="20b6235fb8"><path d="M 206.292969 0.636719 C 215.730469 0.636719 223.464844 8.257812 223.464844 17.808594 L 223.464844 294.902344 C 223.464844 304.339844 215.84375 312.074219 206.292969 312.074219 L 18.070312 312.074219 C 8.632812 312.074219 0.898438 304.453125 0.898438 294.902344 L 0.898438 17.808594 C 0.898438 8.371094 8.519531 0.636719 18.070312 0.636719 Z M 13.269531 0.0117188 C 6.914062 1.714844 1.964844 6.714844 0.273438 13.019531 L 0.273438 299.691406 C 1.976562 306.042969 6.976562 311.007812 13.28125 312.6875 L 211.09375 312.6875 C 217.449219 310.984375 222.410156 305.980469 224.089844 299.679688 L 224.089844 13.007812 C 222.398438 6.664062 217.382812 1.703125 211.082031 0.0117188 Z M 13.269531 0.0117188 " clip-rule="nonzero"/></clipPath><clipPath id="36b6163a33"><rect x="0" width="225" y="0" height="313"/></clipPath><clipPath id="5dc07817d5"><path d="M 17.316406 113.183594 L 209.425781 113.183594 L 209.425781 178.730469 L 17.316406 178.730469 Z M 17.316406 113.183594 " clip-rule="nonzero"/></clipPath><clipPath id="8a1c8e109a"><path d="M 0.316406 0.183594 L 192.425781 0.183594 L 192.425781 65.730469 L 0.316406 65.730469 Z M 0.316406 0.183594 " clip-rule="nonzero"/></clipPath><clipPath id="fe3d809621"><rect x="0" width="193" y="0" height="66"/></clipPath><clipPath id="d8117d74b9"><path d="M 80.597656 54.777344 L 146.132812 54.777344 L 146.132812 246.898438 L 80.597656 246.898438 Z M 80.597656 54.777344 " clip-rule="nonzero"/></clipPath><clipPath id="b0f77518f8"><path d="M 0.597656 0.777344 L 66.132812 0.777344 L 66.132812 192.898438 L 0.597656 192.898438 Z M 0.597656 0.777344 " clip-rule="nonzero"/></clipPath><clipPath id="1158ed2ac6"><rect x="0" width="67" y="0" height="193"/></clipPath><clipPath id="f842a21f69"><path d="M 12.128906 61.421875 L 44.441406 61.421875 L 44.441406 72.488281 L 12.128906 72.488281 Z M 12.128906 61.421875 " clip-rule="nonzero"/></clipPath><clipPath id="3e258774a0"><path d="M 0.128906 0.421875 L 32.441406 0.421875 L 32.441406 11.488281 L 0.128906 11.488281 Z M 0.128906 0.421875 " clip-rule="nonzero"/></clipPath><clipPath id="229825251b"><rect x="0" width="33" y="0" height="12"/></clipPath><clipPath id="c2cb334a8c"><path d="M 22.746094 51.554688 L 33.8125 51.554688 L 33.8125 83.867188 L 22.746094 83.867188 Z M 22.746094 51.554688 " clip-rule="nonzero"/></clipPath><clipPath id="35df53b18f"><path d="M 0.746094 0.554688 L 11.8125 0.554688 L 11.8125 32.867188 L 0.746094 32.867188 Z M 0.746094 0.554688 " clip-rule="nonzero"/></clipPath><clipPath id="a0c50876a6"><rect x="0" width="12" y="0" height="33"/></clipPath><clipPath id="a4ad0acce1"><path d="M 177.640625 242.949219 L 209.953125 242.949219 L 209.953125 254.015625 L 177.640625 254.015625 Z M 177.640625 242.949219 " clip-rule="nonzero"/></clipPath><clipPath id="75acf52516"><path d="M 0.640625 0.949219 L 32.953125 0.949219 L 32.953125 12.015625 L 0.640625 12.015625 Z M 0.640625 0.949219 " clip-rule="nonzero"/></clipPath><clipPath id="5c7136ca09"><rect x="0" width="33" y="0" height="13"/></clipPath><clipPath id="77784c2c0f"><path d="M 188.257812 231.570312 L 199.324219 231.570312 L 199.324219 263.878906 L 188.257812 263.878906 Z M 188.257812 231.570312 " clip-rule="nonzero"/></clipPath><clipPath id="16bf8f31aa"><path d="M 0.257812 0.570312 L 11.324219 0.570312 L 11.324219 32.878906 L 0.257812 32.878906 Z M 0.257812 0.570312 " clip-rule="nonzero"/></clipPath><clipPath id="1b8e0bb1c9"><rect x="0" width="12" y="0" height="33"/></clipPath><clipPath id="2657a3fc66"><rect x="0" width="26" y="0" height="56"/></clipPath><clipPath id="5b56177866"><rect x="0" width="27" y="0" height="56"/></clipPath></defs><g clip-path="url(#afce4a0435)"><g clip-path="url(#dbe1eb8ff6)"><g transform="matrix(1, 0, 0, 1, -0.000000000000000056, 1)"><g clip-path="url(#8d1b30829f)"><g clip-path="url(#e4af5d45c9)"><g clip-path="url(#8bb78c62ae)"><rect x="-49.473598" width="323.827186" fill="#f5f5f2" height="465.177571" y="-72.068796" fill-opacity="1"/></g></g></g></g></g></g><g clip-path="url(#787c9bd360)"><g clip-path="url(#0628e884ae)"><g transform="matrix(1, 0, 0, 1, -0.000000000000000056, 1)"><g clip-path="url(#36b6163a33)"><g clip-path="url(#1df10a791e)"><g clip-path="url(#20b6235fb8)"><rect x="-49.473598" width="323.827186" fill="#000000" height="465.177571" y="-72.068796" fill-opacity="1"/></g></g></g></g></g></g><g clip-path="url(#5dc07817d5)"><g transform="matrix(1, 0, 0, 1, 17, 113)"><g clip-path="url(#fe3d809621)"><g clip-path="url(#8a1c8e109a)"><rect x="-66.473598" width="323.827186" fill="#7d1229" height="465.177571" y="-184.068796" fill-opacity="1"/></g></g></g></g><g clip-path="url(#d8117d74b9)"><g transform="matrix(1, 0, 0, 1, 80, 54)"><g clip-path="url(#1158ed2ac6)"><g clip-path="url(#b0f77518f8)"><rect x="-129.473598" width="323.827186" fill="#7d1229" height="465.177571" y="-125.068796" fill-opacity="1"/></g></g></g></g><g clip-path="url(#f842a21f69)"><g transform="matrix(1, 0, 0, 1, 12, 61)"><g clip-path="url(#229825251b)"><g clip-path="url(#3e258774a0)"><rect x="-61.473598" width="323.827186" fill="#7d1229" height="465.177571" y="-132.068796" fill-opacity="1"/></g></g></g></g><g clip-path="url(#c2cb334a8c)"><g transform="matrix(1, 0, 0, 1, 22, 51)"><g clip-path="url(#a0c50876a6)"><g clip-path="url(#35df53b18f)"><rect x="-71.473598" width="323.827186" fill="#7d1229" height="465.177571" y="-122.068796" fill-opacity="1"/></g></g></g></g><g clip-path="url(#a4ad0acce1)"><g transform="matrix(1, 0, 0, 1, 177, 242)"><g clip-path="url(#5c7136ca09)"><g clip-path="url(#75acf52516)"><rect x="-226.473598" width="323.827186" fill="#7d1229" height="465.177571" y="-313.068796" fill-opacity="1"/></g></g></g></g><g clip-path="url(#77784c2c0f)"><g transform="matrix(1, 0, 0, 1, 188, 231)"><g clip-path="url(#1b8e0bb1c9)"><g clip-path="url(#16bf8f31aa)"><rect x="-237.473598" width="323.827186" fill="#7d1229" height="465.177571" y="-302.068796" fill-opacity="1"/></g></g></g></g><g transform="matrix(1, 0, 0, 1, 183, 254)"><g clip-path="url(#2657a3fc66)"><g fill="#791026" fill-opacity="1"><g transform="translate(25.556427, 16.555058)"><g><path d="M -12.484375 -0.65625 L -8.46875 -0.65625 L -16.984375 30.28125 L -12.265625 30.28125 C -10.128906 30.28125 -8.445312 30.125 -7.21875 29.8125 C -5.988281 29.507812 -5.054688 29.03125 -4.421875 28.375 C -3.785156 27.726562 -3.269531 26.847656 -2.875 25.734375 L -1.796875 25.734375 L -4.28125 37.015625 L -22.90625 37.015625 Z M -12.484375 -0.65625 "/></g></g></g></g></g><g transform="matrix(1, 0, 0, 1, 13, 9)"><g clip-path="url(#5b56177866)"><g fill="#791026" fill-opacity="1"><g transform="translate(0.976719, 39.446214)"><g><path d="M 12.484375 0.65625 L 8.46875 0.65625 L 16.984375 -30.28125 L 12.265625 -30.28125 C 10.128906 -30.28125 8.445312 -30.125 7.21875 -29.8125 C 5.988281 -29.507812 5.054688 -29.03125 4.421875 -28.375 C 3.785156 -27.726562 3.269531 -26.847656 2.875 -25.734375 L 1.796875 -25.734375 L 4.28125 -37.015625 L 22.90625 -37.015625 Z M 12.484375 0.65625 "/></g></g></g></g></g></svg>