<svg xmlns="http://www.w3.org/2000/svg" xmlns:xlink="http://www.w3.org/1999/xlink" width="300" zoomAndPan="magnify" viewBox="0 0 224.87999 323.03998" height="420" preserveAspectRatio="xMidYMid meet" version="1.0"><defs><g/><clipPath id="ee07f3559c"><path d="M 1 0 L 224.488281 0 L 224.488281 312 L 1 312 Z M 1 0 " clip-rule="nonzero"/></clipPath><clipPath id="f6163a613e"><path d="M 0.273438 0 L 224.488281 0 L 224.488281 314.066406 L 0.273438 314.066406 Z M 0.273438 0 " clip-rule="nonzero"/></clipPath><clipPath id="11a6bea22e"><path d="M 4.894531 8.132812 L 180.875 8.132812 L 180.875 218.746094 L 4.894531 218.746094 Z M 4.894531 8.132812 " clip-rule="nonzero"/></clipPath><clipPath id="59b646bec9"><path d="M 19.980469 8.132812 L 165.789062 8.132812 C 174.121094 8.132812 180.875 14.886719 180.875 23.21875 L 180.875 203.628906 C 180.875 211.960938 174.121094 218.714844 165.789062 218.714844 L 19.980469 218.714844 C 11.648438 218.714844 4.894531 211.960938 4.894531 203.628906 L 4.894531 23.21875 C 4.894531 14.886719 11.648438 8.132812 19.980469 8.132812 Z M 19.980469 8.132812 " clip-rule="nonzero"/></clipPath><clipPath id="00958ab822"><path d="M 19.980469 8.132812 L 165.789062 8.132812 C 174.121094 8.132812 180.875 14.886719 180.875 23.21875 L 180.875 203.628906 C 180.875 211.960938 174.121094 218.714844 165.789062 218.714844 L 19.980469 218.714844 C 11.648438 218.714844 4.894531 211.960938 4.894531 203.628906 L 4.894531 23.21875 C 4.894531 14.886719 11.648438 8.132812 19.980469 8.132812 Z M 19.980469 8.132812 " clip-rule="nonzero"/></clipPath><clipPath id="e2923d07d5"><path d="M 38.65625 90.847656 L 214.636719 90.847656 L 214.636719 301.230469 L 38.65625 301.230469 Z M 38.65625 90.847656 " clip-rule="nonzero"/></clipPath><clipPath id="b9716f2273"><path d="M 53.742188 90.847656 L 199.550781 90.847656 C 207.882812 90.847656 214.636719 97.601562 214.636719 105.929688 L 214.636719 286.34375 C 214.636719 294.675781 207.882812 301.429688 199.550781 301.429688 L 53.742188 301.429688 C 45.410156 301.429688 38.65625 294.675781 38.65625 286.34375 L 38.65625 105.929688 C 38.65625 97.601562 45.410156 90.847656 53.742188 90.847656 Z M 53.742188 90.847656 " clip-rule="nonzero"/></clipPath><clipPath id="5330ab318d"><path d="M 53.742188 90.847656 L 199.550781 90.847656 C 207.882812 90.847656 214.636719 97.601562 214.636719 105.929688 L 214.636719 286.34375 C 214.636719 294.675781 207.882812 301.429688 199.550781 301.429688 L 53.742188 301.429688 C 45.410156 301.429688 38.65625 294.675781 38.65625 286.34375 L 38.65625 105.929688 C 38.65625 97.601562 45.410156 90.847656 53.742188 90.847656 Z M 53.742188 90.847656 " clip-rule="nonzero"/></clipPath><clipPath id="4deaff6da9"><path d="M 22.707031 22.433594 L 90.007812 22.433594 L 90.007812 89.734375 L 22.707031 89.734375 Z M 22.707031 22.433594 " clip-rule="nonzero"/></clipPath><clipPath id="8447472396"><path d="M 0.707031 0.433594 L 68.007812 0.433594 L 68.007812 67.734375 L 0.707031 67.734375 Z M 0.707031 0.433594 " clip-rule="nonzero"/></clipPath><clipPath id="30aff35c79"><rect x="0" width="69" y="0" height="68"/></clipPath><clipPath id="7213ce3959"><path d="M 134.875 224.332031 L 202.171875 224.332031 L 202.171875 291.632812 L 134.875 291.632812 Z M 134.875 224.332031 " clip-rule="nonzero"/></clipPath><clipPath id="61d8716780"><path d="M 0.875 0.332031 L 68.171875 0.332031 L 68.171875 67.632812 L 0.875 67.632812 Z M 0.875 0.332031 " clip-rule="nonzero"/></clipPath><clipPath id="1342d61397"><rect x="0" width="69" y="0" height="68"/></clipPath></defs><g clip-path="url(#ee07f3559c)"><path fill="#f5f5f2" d="M 224.101562 293.863281 C 224.101562 303.578125 216.253906 311.554688 206.414062 311.554688 L 19.296875 311.554688 C 9.582031 311.554688 1.605469 303.703125 1.605469 293.863281 L 1.605469 18.421875 C 1.605469 8.703125 9.457031 0.730469 19.296875 0.730469 L 206.414062 0.730469 C 216.128906 0.730469 224.101562 8.578125 224.101562 18.421875 Z M 224.101562 293.863281 " fill-opacity="1" fill-rule="nonzero"/></g><g clip-path="url(#f6163a613e)"><path stroke-linecap="butt" transform="matrix(1.245774, 0, 0, 1.245774, -3.749194, -2.258316)" fill="none" stroke-linejoin="miter" d="M 182.898938 237.700882 C 182.898938 245.499121 176.599517 251.902018 168.700939 251.902018 L 18.499397 251.902018 C 10.701158 251.902018 4.298262 245.59946 4.298262 237.700882 L 4.298262 16.600274 C 4.298262 8.7989 10.600819 2.399139 18.499397 2.399139 L 168.700939 2.399139 C 176.499178 2.399139 182.898938 8.698561 182.898938 16.600274 Z M 182.898938 237.700882 " stroke="#000000" stroke-width="1" stroke-opacity="1" stroke-miterlimit="4"/></g><path fill="#f5f5f2" d="M 189.34375 156.953125 C 189.34375 158.117188 189.316406 159.285156 189.261719 160.449219 C 189.203125 161.613281 189.117188 162.777344 189.003906 163.9375 C 188.886719 165.097656 188.746094 166.253906 188.574219 167.40625 C 188.402344 168.5625 188.203125 169.710938 187.976562 170.851562 C 187.75 171.996094 187.492188 173.132812 187.210938 174.265625 C 186.925781 175.398438 186.617188 176.519531 186.277344 177.636719 C 185.9375 178.753906 185.574219 179.859375 185.179688 180.957031 C 184.785156 182.054688 184.367188 183.144531 183.921875 184.222656 C 183.476562 185.296875 183.003906 186.363281 182.503906 187.417969 C 182.007812 188.472656 181.480469 189.515625 180.933594 190.542969 C 180.382812 191.570312 179.808594 192.585938 179.207031 193.585938 C 178.609375 194.585938 177.984375 195.570312 177.335938 196.542969 C 176.6875 197.511719 176.015625 198.464844 175.324219 199.398438 C 174.628906 200.335938 173.910156 201.257812 173.171875 202.15625 C 172.429688 203.058594 171.667969 203.941406 170.886719 204.804688 C 170.101562 205.671875 169.300781 206.515625 168.472656 207.339844 C 167.648438 208.164062 166.804688 208.96875 165.941406 209.75 C 165.078125 210.535156 164.195312 211.292969 163.292969 212.035156 C 162.390625 212.773438 161.472656 213.492188 160.535156 214.1875 C 159.597656 214.882812 158.644531 215.550781 157.675781 216.199219 C 156.707031 216.847656 155.722656 217.472656 154.722656 218.070312 C 153.722656 218.671875 152.707031 219.246094 151.679688 219.796875 C 150.652344 220.34375 149.609375 220.871094 148.554688 221.367188 C 147.5 221.867188 146.433594 222.339844 145.355469 222.785156 C 144.277344 223.230469 143.191406 223.652344 142.09375 224.042969 C 140.996094 224.4375 139.886719 224.804688 138.773438 225.140625 C 137.65625 225.480469 136.535156 225.789062 135.402344 226.074219 C 134.269531 226.359375 133.132812 226.613281 131.988281 226.839844 C 130.84375 227.066406 129.695312 227.269531 128.542969 227.4375 C 127.390625 227.609375 126.234375 227.75 125.070312 227.867188 C 123.910156 227.980469 122.75 228.066406 121.585938 228.125 C 120.417969 228.183594 119.253906 228.210938 118.085938 228.210938 C 116.921875 228.210938 115.757812 228.183594 114.589844 228.125 C 113.425781 228.066406 112.265625 227.980469 111.101562 227.867188 C 109.941406 227.75 108.785156 227.609375 107.632812 227.4375 C 106.476562 227.269531 105.332031 227.066406 104.183594 226.839844 C 103.042969 226.613281 101.902344 226.359375 100.773438 226.074219 C 99.640625 225.789062 98.519531 225.480469 97.402344 225.140625 C 96.285156 224.804688 95.179688 224.4375 94.082031 224.042969 C 92.984375 223.652344 91.894531 223.230469 90.820312 222.785156 C 89.738281 222.339844 88.675781 221.867188 87.621094 221.367188 C 86.566406 220.871094 85.523438 220.34375 84.496094 219.796875 C 83.46875 219.246094 82.453125 218.671875 81.453125 218.070312 C 80.453125 217.472656 79.46875 216.847656 78.5 216.199219 C 77.527344 215.550781 76.578125 214.882812 75.640625 214.1875 C 74.703125 213.492188 73.785156 212.773438 72.882812 212.035156 C 71.980469 211.292969 71.097656 210.535156 70.234375 209.75 C 69.371094 208.96875 68.527344 208.164062 67.699219 207.339844 C 66.875 206.515625 66.070312 205.671875 65.289062 204.804688 C 64.503906 203.941406 63.742188 203.058594 63.003906 202.15625 C 62.265625 201.257812 61.546875 200.335938 60.851562 199.398438 C 60.15625 198.464844 59.484375 197.511719 58.839844 196.542969 C 58.191406 195.570312 57.566406 194.585938 56.96875 193.585938 C 56.367188 192.585938 55.792969 191.570312 55.242188 190.542969 C 54.691406 189.515625 54.167969 188.472656 53.671875 187.417969 C 53.171875 186.363281 52.699219 185.296875 52.253906 184.222656 C 51.804688 183.144531 51.386719 182.054688 50.996094 180.957031 C 50.601562 179.859375 50.238281 178.753906 49.898438 177.636719 C 49.558594 176.519531 49.246094 175.398438 48.964844 174.265625 C 48.679688 173.132812 48.425781 171.996094 48.199219 170.851562 C 47.96875 169.710938 47.773438 168.5625 47.601562 167.40625 C 47.429688 166.253906 47.285156 165.097656 47.171875 163.9375 C 47.058594 162.777344 46.972656 161.613281 46.914062 160.449219 C 46.859375 159.285156 46.828125 158.117188 46.828125 156.953125 C 46.828125 155.785156 46.859375 154.621094 46.914062 153.457031 C 46.972656 152.289062 47.058594 151.128906 47.171875 149.964844 C 47.285156 148.804688 47.429688 147.648438 47.601562 146.496094 C 47.773438 145.34375 47.96875 144.195312 48.199219 143.050781 C 48.425781 141.90625 48.679688 140.769531 48.964844 139.636719 C 49.246094 138.507812 49.558594 137.382812 49.898438 136.265625 C 50.238281 135.148438 50.601562 134.042969 50.996094 132.945312 C 51.386719 131.847656 51.804688 130.757812 52.253906 129.683594 C 52.699219 128.605469 53.171875 127.539062 53.671875 126.484375 C 54.167969 125.429688 54.691406 124.390625 55.242188 123.359375 C 55.792969 122.332031 56.367188 121.316406 56.96875 120.316406 C 57.566406 119.316406 58.191406 118.332031 58.839844 117.363281 C 59.484375 116.394531 60.15625 115.4375 60.851562 114.503906 C 61.546875 113.566406 62.265625 112.648438 63.003906 111.746094 C 63.742188 110.84375 64.503906 109.960938 65.289062 109.097656 C 66.070312 108.234375 66.875 107.386719 67.699219 106.5625 C 68.527344 105.738281 69.371094 104.9375 70.234375 104.152344 C 71.097656 103.367188 71.980469 102.609375 72.882812 101.867188 C 73.785156 101.128906 74.703125 100.410156 75.640625 99.714844 C 76.578125 99.023438 77.527344 98.351562 78.5 97.703125 C 79.46875 97.054688 80.453125 96.429688 81.453125 95.832031 C 82.453125 95.230469 83.46875 94.65625 84.496094 94.109375 C 85.523438 93.558594 86.566406 93.035156 87.621094 92.535156 C 88.675781 92.035156 89.738281 91.5625 90.820312 91.117188 C 91.894531 90.671875 92.984375 90.25 94.082031 89.859375 C 95.179688 89.464844 96.285156 89.101562 97.402344 88.761719 C 98.519531 88.421875 99.640625 88.113281 100.773438 87.828125 C 101.902344 87.546875 103.042969 87.289062 104.183594 87.0625 C 105.332031 86.835938 106.476562 86.636719 107.632812 86.464844 C 108.785156 86.292969 109.941406 86.152344 111.101562 86.035156 C 112.265625 85.921875 113.425781 85.835938 114.589844 85.78125 C 115.757812 85.722656 116.921875 85.691406 118.085938 85.691406 C 119.253906 85.691406 120.417969 85.722656 121.585938 85.78125 C 122.75 85.835938 123.910156 85.921875 125.070312 86.035156 C 126.234375 86.152344 127.390625 86.292969 128.542969 86.464844 C 129.695312 86.636719 130.84375 86.835938 131.988281 87.0625 C 133.132812 87.289062 134.269531 87.546875 135.402344 87.828125 C 136.535156 88.113281 137.65625 88.421875 138.773438 88.761719 C 139.886719 89.101562 140.996094 89.464844 142.09375 89.859375 C 143.191406 90.25 144.277344 90.671875 145.355469 91.117188 C 146.433594 91.5625 147.5 92.035156 148.554688 92.535156 C 149.609375 93.035156 150.652344 93.558594 151.679688 94.109375 C 152.707031 94.65625 153.722656 95.230469 154.722656 95.832031 C 155.722656 96.429688 156.707031 97.054688 157.675781 97.703125 C 158.644531 98.351562 159.597656 99.023438 160.535156 99.714844 C 161.472656 100.410156 162.390625 101.128906 163.292969 101.867188 C 164.195312 102.609375 165.078125 103.367188 165.941406 104.152344 C 166.804688 104.9375 167.648438 105.738281 168.472656 106.5625 C 169.300781 107.386719 170.101562 108.234375 170.886719 109.097656 C 171.667969 109.960938 172.429688 110.84375 173.171875 111.746094 C 173.910156 112.648438 174.628906 113.566406 175.324219 114.503906 C 176.015625 115.4375 176.6875 116.394531 177.335938 117.363281 C 177.984375 118.332031 178.609375 119.316406 179.207031 120.316406 C 179.808594 121.316406 180.382812 122.332031 180.933594 123.359375 C 181.480469 124.390625 182.007812 125.429688 182.503906 126.484375 C 183.003906 127.539062 183.476562 128.605469 183.921875 129.683594 C 184.367188 130.757812 184.785156 131.847656 185.179688 132.945312 C 185.574219 134.042969 185.9375 135.148438 186.277344 136.265625 C 186.617188 137.382812 186.925781 138.507812 187.210938 139.636719 C 187.492188 140.769531 187.75 141.90625 187.976562 143.050781 C 188.203125 144.195312 188.402344 145.34375 188.574219 146.496094 C 188.746094 147.648438 188.886719 148.804688 189.003906 149.964844 C 189.117188 151.128906 189.203125 152.289062 189.261719 153.457031 C 189.316406 154.621094 189.34375 155.785156 189.34375 156.953125 Z M 189.34375 156.953125 " fill-opacity="1" fill-rule="nonzero"/><path fill="#f5f5f2" d="M 37.234375 65.636719 C 37.234375 66.015625 37.21875 66.394531 37.179688 66.773438 C 37.144531 67.148438 37.089844 67.523438 37.015625 67.898438 C 36.941406 68.269531 36.847656 68.636719 36.738281 69 C 36.628906 69.363281 36.5 69.71875 36.355469 70.070312 C 36.210938 70.421875 36.046875 70.761719 35.867188 71.097656 C 35.691406 71.433594 35.496094 71.757812 35.285156 72.074219 C 35.074219 72.386719 34.847656 72.691406 34.605469 72.984375 C 34.367188 73.28125 34.113281 73.558594 33.84375 73.828125 C 33.574219 74.097656 33.292969 74.351562 33 74.59375 C 32.707031 74.832031 32.402344 75.058594 32.085938 75.269531 C 31.773438 75.480469 31.445312 75.675781 31.113281 75.855469 C 30.777344 76.03125 30.433594 76.195312 30.085938 76.339844 C 29.734375 76.484375 29.378906 76.613281 29.015625 76.722656 C 28.652344 76.832031 28.28125 76.925781 27.910156 77 C 27.539062 77.074219 27.164062 77.128906 26.785156 77.167969 C 26.410156 77.203125 26.03125 77.222656 25.652344 77.222656 C 25.269531 77.222656 24.894531 77.203125 24.515625 77.167969 C 24.136719 77.128906 23.761719 77.074219 23.390625 77 C 23.019531 76.925781 22.652344 76.832031 22.289062 76.722656 C 21.925781 76.613281 21.566406 76.484375 21.21875 76.339844 C 20.867188 76.195312 20.523438 76.03125 20.1875 75.855469 C 19.855469 75.675781 19.53125 75.480469 19.214844 75.269531 C 18.898438 75.058594 18.59375 74.832031 18.300781 74.59375 C 18.007812 74.351562 17.726562 74.097656 17.460938 73.828125 C 17.191406 73.558594 16.933594 73.28125 16.695312 72.984375 C 16.453125 72.691406 16.226562 72.386719 16.015625 72.074219 C 15.808594 71.757812 15.613281 71.433594 15.433594 71.097656 C 15.253906 70.761719 15.09375 70.421875 14.949219 70.070312 C 14.800781 69.71875 14.675781 69.363281 14.566406 69 C 14.453125 68.636719 14.363281 68.269531 14.289062 67.898438 C 14.214844 67.523438 14.15625 67.148438 14.121094 66.773438 C 14.082031 66.394531 14.066406 66.015625 14.066406 65.636719 C 14.066406 65.257812 14.082031 64.878906 14.121094 64.5 C 14.15625 64.121094 14.214844 63.75 14.289062 63.375 C 14.363281 63.003906 14.453125 62.636719 14.566406 62.273438 C 14.675781 61.910156 14.800781 61.554688 14.949219 61.203125 C 15.09375 60.851562 15.253906 60.507812 15.433594 60.175781 C 15.613281 59.839844 15.808594 59.515625 16.015625 59.199219 C 16.226562 58.882812 16.453125 58.582031 16.695312 58.285156 C 16.933594 57.992188 17.191406 57.710938 17.460938 57.445312 C 17.726562 57.175781 18.007812 56.921875 18.300781 56.679688 C 18.59375 56.441406 18.898438 56.214844 19.214844 56.003906 C 19.53125 55.792969 19.855469 55.597656 20.1875 55.417969 C 20.523438 55.242188 20.867188 55.078125 21.21875 54.933594 C 21.566406 54.789062 21.925781 54.660156 22.289062 54.550781 C 22.652344 54.4375 23.019531 54.347656 23.390625 54.273438 C 23.761719 54.199219 24.136719 54.144531 24.515625 54.105469 C 24.894531 54.070312 25.269531 54.050781 25.652344 54.050781 C 26.03125 54.050781 26.410156 54.070312 26.785156 54.105469 C 27.164062 54.144531 27.539062 54.199219 27.910156 54.273438 C 28.28125 54.347656 28.652344 54.4375 29.015625 54.550781 C 29.378906 54.660156 29.734375 54.789062 30.085938 54.933594 C 30.433594 55.078125 30.777344 55.242188 31.113281 55.417969 C 31.445312 55.597656 31.773438 55.792969 32.085938 56.003906 C 32.402344 56.214844 32.707031 56.441406 33 56.679688 C 33.292969 56.921875 33.574219 57.175781 33.84375 57.445312 C 34.113281 57.710938 34.367188 57.992188 34.605469 58.285156 C 34.847656 58.582031 35.074219 58.882812 35.285156 59.199219 C 35.496094 59.515625 35.691406 59.839844 35.867188 60.175781 C 36.046875 60.507812 36.210938 60.851562 36.355469 61.203125 C 36.5 61.554688 36.628906 61.910156 36.738281 62.273438 C 36.847656 62.636719 36.941406 63.003906 37.015625 63.375 C 37.089844 63.75 37.144531 64.121094 37.179688 64.5 C 37.21875 64.878906 37.234375 65.257812 37.234375 65.636719 Z M 37.234375 65.636719 " fill-opacity="1" fill-rule="nonzero"/><path fill="#791026" d="M 21.300781 35.820312 L 24.015625 36.257812 L 24.015625 37.128906 L 16.851562 37.128906 L 16.851562 36.257812 L 19.273438 35.820312 L 26.734375 25.898438 L 20.363281 16.472656 L 17.890625 16.046875 L 17.890625 15.183594 L 26.945312 15.183594 L 26.945312 16.046875 L 24.164062 16.472656 L 28.710938 23.25 L 33.800781 16.472656 L 31.085938 16.046875 L 31.085938 15.183594 L 38.269531 15.183594 L 38.269531 16.046875 L 35.847656 16.472656 L 29.679688 24.691406 L 37.222656 35.820312 L 39.710938 36.257812 L 39.710938 37.128906 L 30.660156 37.128906 L 30.660156 36.257812 L 33.4375 35.820312 L 27.683594 27.3125 Z M 21.300781 35.820312 " fill-opacity="1" fill-rule="nonzero"/><path fill="#f5f5f2" d="M 201.054688 244.65625 C 201.054688 245.035156 201.039062 245.414062 201 245.789062 C 200.964844 246.167969 200.90625 246.542969 200.832031 246.914062 C 200.757812 247.289062 200.667969 247.652344 200.558594 248.015625 C 200.449219 248.382812 200.320312 248.738281 200.171875 249.089844 C 200.027344 249.4375 199.867188 249.78125 199.6875 250.117188 C 199.507812 250.449219 199.3125 250.773438 199.101562 251.089844 C 198.894531 251.40625 198.667969 251.710938 198.425781 252.003906 C 198.1875 252.296875 197.929688 252.578125 197.664062 252.847656 C 197.394531 253.113281 197.113281 253.367188 196.820312 253.609375 C 196.527344 253.851562 196.222656 254.078125 195.90625 254.289062 C 195.59375 254.5 195.265625 254.691406 194.929688 254.871094 C 194.597656 255.050781 194.253906 255.214844 193.902344 255.359375 C 193.554688 255.503906 193.195312 255.628906 192.832031 255.742188 C 192.472656 255.851562 192.101562 255.941406 191.730469 256.015625 C 191.359375 256.089844 190.984375 256.148438 190.605469 256.183594 C 190.226562 256.21875 189.851562 256.238281 189.46875 256.238281 C 189.089844 256.238281 188.710938 256.21875 188.335938 256.183594 C 187.957031 256.148438 187.582031 256.089844 187.210938 256.015625 C 186.835938 255.941406 186.46875 255.851562 186.105469 255.742188 C 185.742188 255.628906 185.386719 255.503906 185.035156 255.359375 C 184.6875 255.214844 184.34375 255.050781 184.007812 254.871094 C 183.675781 254.691406 183.347656 254.5 183.035156 254.289062 C 182.71875 254.078125 182.414062 253.851562 182.121094 253.609375 C 181.828125 253.367188 181.546875 253.113281 181.277344 252.847656 C 181.007812 252.578125 180.753906 252.296875 180.515625 252.003906 C 180.273438 251.710938 180.046875 251.40625 179.835938 251.089844 C 179.625 250.773438 179.433594 250.449219 179.253906 250.117188 C 179.074219 249.78125 178.910156 249.4375 178.765625 249.089844 C 178.621094 248.738281 178.492188 248.382812 178.382812 248.015625 C 178.273438 247.652344 178.179688 247.289062 178.105469 246.914062 C 178.03125 246.542969 177.976562 246.167969 177.941406 245.789062 C 177.902344 245.414062 177.886719 245.035156 177.886719 244.65625 C 177.886719 244.273438 177.902344 243.894531 177.941406 243.519531 C 177.976562 243.140625 178.03125 242.765625 178.105469 242.394531 C 178.179688 242.023438 178.273438 241.652344 178.382812 241.292969 C 178.492188 240.929688 178.621094 240.570312 178.765625 240.222656 C 178.910156 239.871094 179.074219 239.527344 179.253906 239.191406 C 179.433594 238.859375 179.625 238.53125 179.835938 238.21875 C 180.046875 237.902344 180.273438 237.597656 180.515625 237.304688 C 180.753906 237.011719 181.007812 236.730469 181.277344 236.460938 C 181.546875 236.195312 181.828125 235.941406 182.121094 235.699219 C 182.414062 235.457031 182.71875 235.230469 183.035156 235.023438 C 183.347656 234.808594 183.675781 234.613281 184.007812 234.4375 C 184.34375 234.257812 184.6875 234.097656 185.035156 233.949219 C 185.386719 233.804688 185.742188 233.675781 186.105469 233.566406 C 186.46875 233.457031 186.835938 233.367188 187.210938 233.292969 C 187.582031 233.21875 187.957031 233.164062 188.335938 233.125 C 188.710938 233.085938 189.089844 233.066406 189.46875 233.066406 C 189.851562 233.066406 190.226562 233.085938 190.605469 233.125 C 190.984375 233.160156 191.359375 233.21875 191.730469 233.292969 C 192.101562 233.367188 192.472656 233.457031 192.832031 233.566406 C 193.195312 233.675781 193.554688 233.804688 193.902344 233.949219 C 194.253906 234.097656 194.597656 234.257812 194.929688 234.4375 C 195.265625 234.613281 195.59375 234.808594 195.90625 235.023438 C 196.222656 235.230469 196.527344 235.457031 196.820312 235.699219 C 197.113281 235.941406 197.394531 236.195312 197.664062 236.460938 C 197.929688 236.730469 198.1875 237.011719 198.425781 237.304688 C 198.667969 237.597656 198.894531 237.902344 199.101562 238.21875 C 199.3125 238.53125 199.507812 238.859375 199.6875 239.191406 C 199.867188 239.527344 200.027344 239.871094 200.171875 240.222656 C 200.320312 240.570312 200.449219 240.929688 200.558594 241.292969 C 200.667969 241.652344 200.757812 242.023438 200.832031 242.394531 C 200.90625 242.765625 200.964844 243.140625 201 243.519531 C 201.039062 243.894531 201.054688 244.273438 201.054688 244.65625 Z M 201.054688 244.65625 " fill-opacity="1" fill-rule="nonzero"/><path fill="#791026" d="M 185.046875 291.253906 L 187.765625 291.691406 L 187.765625 292.558594 L 180.597656 292.558594 L 180.597656 291.691406 L 183.019531 291.253906 L 190.484375 281.332031 L 184.109375 271.90625 L 181.640625 271.480469 L 181.640625 270.617188 L 190.691406 270.617188 L 190.691406 271.480469 L 187.914062 271.90625 L 192.460938 278.683594 L 197.550781 271.90625 L 194.832031 271.480469 L 194.832031 270.617188 L 202.019531 270.617188 L 202.019531 271.480469 L 199.597656 271.90625 L 193.429688 280.125 L 200.96875 291.253906 L 203.460938 291.691406 L 203.460938 292.558594 L 194.40625 292.558594 L 194.40625 291.691406 L 197.1875 291.253906 L 191.433594 282.746094 Z M 185.046875 291.253906 " fill-opacity="1" fill-rule="nonzero"/><g clip-path="url(#11a6bea22e)"><g clip-path="url(#59b646bec9)"><g clip-path="url(#00958ab822)"><path fill="#f5f5f2" d="M 4.894531 8.132812 L 180.875 8.132812 L 180.875 218.480469 L 4.894531 218.480469 Z M 4.894531 8.132812 " fill-opacity="1" fill-rule="nonzero"/></g></g></g><g clip-path="url(#e2923d07d5)"><g clip-path="url(#b9716f2273)"><g clip-path="url(#5330ab318d)"><path fill="#f5f5f2" d="M 38.65625 90.847656 L 214.636719 90.847656 L 214.636719 301.195312 L 38.65625 301.195312 Z M 38.65625 90.847656 " fill-opacity="1" fill-rule="nonzero"/></g></g></g><path fill="#780f26" d="M 60.15625 111.339844 C 60.203125 110.84375 60.453125 110.46875 60.910156 110.21875 C 61.367188 109.96875 61.957031 109.839844 62.683594 109.839844 C 63.363281 109.886719 63.984375 110.058594 64.550781 110.351562 C 65.121094 110.648438 65.453125 111 65.542969 111.40625 L 74.472656 142.285156 L 76.855469 134.445312 L 78.496094 128.925781 C 79.175781 126.835938 79.859375 124.675781 80.535156 122.449219 C 81.21875 120.222656 81.875 117.929688 82.515625 115.566406 C 82.96875 114.839844 83.855469 114.476562 85.175781 114.476562 L 85.445312 114.476562 C 86.765625 114.566406 87.582031 115.089844 87.898438 116.039062 C 86.445312 120.996094 84.945312 125.960938 83.402344 130.933594 C 81.855469 135.910156 80.289062 140.875 78.699219 145.828125 L 77.335938 150.257812 C 77.015625 151.121094 76.152344 151.550781 74.742188 151.550781 C 73.429688 151.550781 72.496094 151.121094 71.953125 150.257812 C 70.363281 145.988281 68.917969 141.910156 67.621094 138.027344 C 66.328125 134.140625 65.15625 130.425781 64.113281 126.878906 L 63.703125 125.316406 L 62.339844 130.558594 C 61.613281 133.46875 60.964844 136.003906 60.398438 138.164062 C 59.832031 140.320312 59.296875 142.261719 58.796875 143.992188 C 58.292969 145.71875 57.792969 147.410156 57.292969 149.070312 C 56.796875 150.726562 56.226562 152.554688 55.59375 154.554688 C 55.273438 155.417969 54.410156 155.847656 53.003906 155.847656 C 52.414062 155.800781 51.855469 155.652344 51.335938 155.402344 C 50.8125 155.152344 50.4375 154.847656 50.207031 154.484375 C 49.117188 150.625 47.957031 146.320312 46.730469 141.570312 C 45.507812 136.820312 44.1875 131.605469 42.78125 125.925781 L 41.488281 120.75 C 40.941406 118.75 40.453125 116.886719 40.019531 115.160156 C 39.589844 113.429688 39.214844 111.839844 38.894531 110.382812 C 38.894531 109.386719 39.640625 108.886719 41.140625 108.886719 L 41.417969 108.886719 C 42.140625 108.886719 42.765625 109.023438 43.285156 109.300781 C 43.8125 109.570312 44.121094 109.957031 44.210938 110.453125 C 44.847656 113.089844 45.652344 116.375 46.625 120.304688 C 47.601562 124.234375 48.773438 128.769531 50.136719 133.898438 L 52.9375 144.667969 L 57.09375 129.535156 L 57.707031 127.285156 C 58.207031 125.15625 58.742188 123.078125 59.308594 121.054688 C 59.875 119.03125 60.453125 117.042969 61.046875 115.089844 Z M 60.15625 111.339844 " fill-opacity="1" fill-rule="nonzero"/><path fill="#780f26" d="M 90.082031 100.363281 C 90.082031 99.867188 90.316406 99.472656 90.796875 99.175781 C 91.273438 98.878906 91.851562 98.730469 92.535156 98.730469 C 93.214844 98.730469 93.828125 98.871094 94.375 99.144531 C 94.921875 99.414062 95.285156 99.753906 95.464844 100.160156 L 97.304688 131.71875 C 99.03125 130.765625 100.917969 130.289062 102.960938 130.289062 C 106.324219 130.289062 108.949219 130.777344 110.835938 131.753906 C 112.71875 132.730469 114.003906 134.21875 114.6875 136.214844 C 115.367188 138.171875 115.707031 140.761719 115.707031 143.984375 C 115.707031 147.757812 115.300781 151.390625 114.484375 154.890625 C 114.347656 155.300781 113.992188 155.644531 113.421875 155.914062 C 112.855469 156.1875 112.230469 156.320312 111.550781 156.320312 C 110.824219 156.320312 110.230469 156.1875 109.773438 155.914062 C 109.320312 155.644531 109.097656 155.234375 109.097656 154.6875 C 109.914062 151.054688 110.324219 147.417969 110.324219 143.78125 C 110.324219 136.832031 107.914062 133.265625 103.101562 133.085938 C 100.875 132.996094 98.988281 134.585938 97.445312 137.855469 L 97.988281 154.148438 C 97.667969 155.097656 96.828125 155.578125 95.464844 155.578125 C 94.875 155.578125 94.304688 155.460938 93.757812 155.230469 C 93.210938 155.003906 92.824219 154.710938 92.601562 154.351562 C 92.417969 148.941406 92.214844 144.371094 91.992188 140.644531 C 91.945312 140.421875 91.921875 140.160156 91.921875 139.863281 C 91.921875 139.566406 91.921875 139.214844 91.921875 138.808594 C 91.46875 130.945312 91.125 124.199219 90.898438 118.566406 C 90.578125 112.339844 90.304688 106.273438 90.082031 100.363281 Z M 90.082031 100.363281 " fill-opacity="1" fill-rule="nonzero"/><path fill="#780f26" d="M 121.636719 141.261719 C 121.636719 138.765625 122.148438 136.460938 123.171875 134.347656 C 124.195312 132.234375 125.546875 130.5625 127.226562 129.332031 C 128.953125 128.152344 130.769531 127.5625 132.679688 127.5625 C 135.589844 127.5625 138.15625 128.789062 140.382812 131.242188 C 141.0625 131.925781 141.519531 132.777344 141.746094 133.800781 C 141.96875 134.824219 142.082031 136.152344 142.082031 137.785156 C 142.082031 139.511719 141.855469 141.339844 141.398438 143.269531 C 140.945312 145.203125 140.34375 146.964844 139.59375 148.558594 C 138.84375 150.148438 138.019531 151.304688 137.109375 152.035156 C 135.835938 153.167969 134.085938 153.734375 131.859375 153.734375 C 129.769531 153.734375 127.949219 153.132812 126.40625 151.929688 C 124.863281 150.726562 123.679688 149.125 122.863281 147.121094 C 122.046875 145.214844 121.636719 143.261719 121.636719 141.261719 Z M 136.5625 138.464844 C 136.5625 135.695312 136.21875 133.605469 135.539062 132.199219 C 134.8125 130.789062 133.925781 130.082031 132.882812 130.082031 C 131.929688 130.082031 131.03125 130.585938 130.191406 131.585938 C 129.347656 132.585938 128.65625 133.992188 128.113281 135.808594 C 127.523438 137.535156 127.226562 139.648438 127.226562 142.148438 C 127.226562 144.648438 127.644531 146.75 128.484375 148.453125 C 129.324219 150.160156 130.542969 151.011719 132.132812 151.011719 C 133.042969 150.644531 133.828125 149.882812 134.484375 148.722656 C 135.140625 147.566406 135.652344 146.136719 136.011719 144.433594 C 136.378906 142.730469 136.5625 140.96875 136.5625 139.148438 Z M 136.5625 138.464844 " fill-opacity="1" fill-rule="nonzero"/><path fill="#780f26" d="M 143.109375 120.335938 C 141.472656 120.109375 140.65625 119.65625 140.65625 118.972656 C 140.65625 118.703125 140.882812 118.429688 141.332031 118.152344 C 141.746094 117.882812 142.335938 117.703125 143.109375 117.613281 L 148.082031 117.613281 L 148.351562 114.476562 C 148.582031 114.113281 148.96875 113.820312 149.511719 113.59375 C 150.054688 113.363281 150.625 113.25 151.21875 113.25 C 152.582031 113.25 153.421875 113.726562 153.738281 114.679688 L 153.535156 117.476562 C 153.988281 117.433594 154.703125 117.410156 155.679688 117.410156 C 156.65625 117.410156 157.917969 117.410156 159.460938 117.410156 C 160.417969 117.410156 161.121094 117.542969 161.574219 117.816406 C 162.078125 118.085938 162.328125 118.40625 162.328125 118.769531 C 162.328125 119.316406 161.78125 119.703125 160.695312 119.929688 C 160.191406 120.019531 159.554688 120.085938 158.785156 120.132812 C 158.011719 120.179688 157.125 120.199219 156.121094 120.199219 L 153.261719 120.199219 L 153.128906 123.335938 C 152.945312 126.246094 152.808594 128.746094 152.714844 130.835938 C 152.625 132.921875 152.578125 134.625 152.578125 135.945312 C 152.578125 146.851562 154.03125 152.304688 156.941406 152.304688 C 157.621094 152.304688 158.226562 152.15625 158.746094 151.859375 C 159.269531 151.566406 160.054688 150.964844 161.101562 150.054688 L 162.191406 148.828125 C 162.738281 148.285156 163.644531 148.007812 164.914062 148.007812 C 166.503906 148.007812 167.300781 148.464844 167.300781 149.371094 C 167.300781 149.601562 167.277344 149.738281 167.230469 149.785156 C 166.050781 151.464844 164.519531 152.769531 162.636719 153.703125 C 160.75 154.632812 158.761719 155.097656 156.671875 155.097656 C 154.988281 155.097656 153.523438 154.8125 152.269531 154.246094 C 151.019531 153.679688 150.148438 152.78125 149.652344 151.550781 C 148.0625 147.191406 147.265625 141.398438 147.265625 134.175781 C 147.265625 130.175781 147.46875 125.5625 147.878906 120.335938 Z M 143.109375 120.335938 " fill-opacity="1" fill-rule="nonzero"/><path fill="#780f26" d="M 163.050781 197.703125 C 163.003906 198.199219 162.753906 198.574219 162.296875 198.828125 C 161.839844 199.074219 161.25 199.203125 160.523438 199.203125 C 159.84375 199.15625 159.222656 198.988281 158.65625 198.691406 C 158.085938 198.394531 157.753906 198.042969 157.664062 197.636719 L 148.734375 166.757812 L 146.351562 174.597656 L 144.710938 180.117188 C 144.03125 182.207031 143.347656 184.367188 142.671875 186.59375 C 141.992188 188.820312 141.332031 191.113281 140.691406 193.476562 C 140.238281 194.203125 139.351562 194.570312 138.03125 194.570312 L 137.761719 194.570312 C 136.441406 194.476562 135.625 193.957031 135.308594 193.003906 C 136.761719 188.050781 138.261719 183.082031 139.804688 178.109375 C 141.351562 173.132812 142.917969 168.171875 144.507812 163.214844 L 145.871094 158.785156 C 146.191406 157.921875 147.054688 157.492188 148.464844 157.492188 C 149.78125 157.492188 150.710938 157.921875 151.253906 158.785156 C 152.84375 163.058594 154.289062 167.136719 155.585938 171.015625 C 156.882812 174.902344 158.050781 178.617188 159.09375 182.164062 L 159.507812 183.730469 L 160.867188 178.484375 C 161.59375 175.578125 162.242188 173.042969 162.808594 170.882812 C 163.375 168.726562 163.910156 166.78125 164.410156 165.050781 C 164.914062 163.328125 165.414062 161.632812 165.914062 159.972656 C 166.414062 158.320312 166.980469 156.488281 167.617188 154.492188 C 167.933594 153.628906 168.796875 153.195312 170.203125 153.195312 C 170.796875 153.242188 171.351562 153.390625 171.875 153.640625 C 172.394531 153.890625 172.773438 154.199219 173 154.558594 C 174.089844 158.417969 175.25 162.722656 176.476562 167.472656 C 177.699219 172.222656 179.019531 177.4375 180.425781 183.121094 L 181.71875 188.296875 C 182.265625 190.296875 182.753906 192.160156 183.1875 193.882812 C 183.617188 195.613281 183.996094 197.207031 184.316406 198.660156 C 184.316406 199.660156 183.566406 200.15625 182.066406 200.15625 L 181.789062 200.15625 C 181.066406 200.15625 180.441406 200.019531 179.921875 199.746094 C 179.394531 199.472656 179.085938 199.089844 178.996094 198.59375 C 178.359375 195.953125 177.554688 192.671875 176.582031 188.738281 C 175.605469 184.808594 174.433594 180.277344 173.070312 175.144531 L 170.269531 164.375 L 166.113281 179.507812 L 165.5 181.757812 C 165 183.890625 164.464844 185.964844 163.898438 187.988281 C 163.332031 190.011719 162.753906 192 162.160156 193.953125 Z M 163.050781 197.703125 " fill-opacity="1" fill-rule="nonzero"/><path fill="#780f26" d="M 133.125 208.679688 C 133.125 209.175781 132.890625 209.574219 132.410156 209.867188 C 131.9375 210.164062 131.355469 210.3125 130.675781 210.3125 C 129.992188 210.3125 129.378906 210.171875 128.832031 209.898438 C 128.285156 209.628906 127.921875 209.289062 127.742188 208.882812 L 125.90625 177.328125 C 124.175781 178.277344 122.289062 178.757812 120.246094 178.757812 C 116.882812 178.757812 114.257812 178.265625 112.371094 177.289062 C 110.488281 176.3125 109.203125 174.824219 108.519531 172.828125 C 107.839844 170.871094 107.5 168.28125 107.5 165.058594 C 107.5 161.285156 107.910156 157.652344 108.726562 154.152344 C 108.859375 153.742188 109.214844 153.398438 109.785156 153.128906 C 110.351562 152.855469 110.976562 152.722656 111.65625 152.722656 C 112.386719 152.722656 112.976562 152.855469 113.433594 153.128906 C 113.886719 153.398438 114.109375 153.808594 114.109375 154.355469 C 113.292969 157.992188 112.882812 161.625 112.882812 165.261719 C 112.882812 172.210938 115.292969 175.777344 120.105469 175.957031 C 122.332031 176.046875 124.21875 174.457031 125.761719 171.191406 L 125.21875 154.898438 C 125.539062 153.945312 126.378906 153.46875 127.742188 153.46875 C 128.332031 153.46875 128.902344 153.582031 129.449219 153.8125 C 129.996094 154.039062 130.382812 154.332031 130.605469 154.695312 C 130.789062 160.105469 130.992188 164.671875 131.214844 168.398438 C 131.261719 168.621094 131.285156 168.886719 131.285156 169.179688 C 131.285156 169.476562 131.285156 169.828125 131.285156 170.234375 C 131.738281 178.097656 132.082031 184.84375 132.308594 190.476562 C 132.628906 196.703125 132.902344 202.773438 133.125 208.679688 Z M 133.125 208.679688 " fill-opacity="1" fill-rule="nonzero"/><path fill="#780f26" d="M 101.570312 167.78125 C 101.570312 170.277344 101.058594 172.582031 100.035156 174.695312 C 99.011719 176.8125 97.660156 178.480469 95.980469 179.710938 C 94.253906 180.890625 92.4375 181.480469 90.527344 181.480469 C 87.617188 181.480469 85.050781 180.253906 82.824219 177.800781 C 82.144531 177.117188 81.691406 176.265625 81.464844 175.246094 C 81.238281 174.222656 81.125 172.890625 81.125 171.257812 C 81.125 169.53125 81.351562 167.703125 81.808594 165.773438 C 82.261719 163.839844 82.863281 162.078125 83.613281 160.484375 C 84.363281 158.894531 85.191406 157.738281 86.097656 157.011719 C 87.371094 155.875 89.121094 155.308594 91.347656 155.308594 C 93.4375 155.308594 95.257812 155.910156 96.800781 157.117188 C 98.34375 158.320312 99.527344 159.921875 100.34375 161.921875 C 101.160156 163.828125 101.570312 165.78125 101.570312 167.78125 Z M 86.644531 170.578125 C 86.644531 173.347656 86.988281 175.4375 87.667969 176.847656 C 88.394531 178.253906 89.28125 178.960938 90.324219 178.960938 C 91.277344 178.960938 92.175781 178.457031 93.015625 177.457031 C 93.859375 176.457031 94.550781 175.050781 95.09375 173.234375 C 95.683594 171.511719 95.980469 169.394531 95.980469 166.894531 C 95.980469 164.394531 95.5625 162.292969 94.722656 160.589844 C 93.882812 158.886719 92.664062 158.035156 91.074219 158.035156 C 90.164062 158.398438 89.378906 159.160156 88.722656 160.320312 C 88.066406 161.476562 87.554688 162.90625 87.195312 164.609375 C 86.828125 166.3125 86.644531 168.074219 86.644531 169.894531 Z M 86.644531 170.578125 " fill-opacity="1" fill-rule="nonzero"/><path fill="#780f26" d="M 80.097656 188.707031 C 81.734375 188.933594 82.550781 189.386719 82.550781 190.070312 C 82.550781 190.339844 82.324219 190.613281 81.875 190.890625 C 81.460938 191.160156 80.871094 191.339844 80.097656 191.433594 L 75.125 191.433594 L 74.855469 194.570312 C 74.625 194.929688 74.238281 195.222656 73.695312 195.449219 C 73.152344 195.679688 72.582031 195.792969 71.992188 195.792969 C 70.625 195.792969 69.789062 195.316406 69.46875 194.363281 L 69.671875 191.566406 C 69.21875 191.613281 68.503906 191.636719 67.527344 191.636719 C 66.550781 191.636719 65.289062 191.636719 63.746094 191.636719 C 62.789062 191.636719 62.085938 191.5 61.632812 191.230469 C 61.132812 190.957031 60.878906 190.636719 60.878906 190.273438 C 60.878906 189.726562 61.425781 189.339844 62.511719 189.113281 C 63.015625 189.023438 63.652344 188.957031 64.421875 188.910156 C 65.195312 188.867188 66.082031 188.84375 67.085938 188.84375 L 69.945312 188.84375 L 70.078125 185.707031 C 70.261719 182.800781 70.398438 180.296875 70.492188 178.207031 C 70.582031 176.121094 70.628906 174.417969 70.628906 173.101562 C 70.628906 162.191406 69.175781 156.738281 66.265625 156.738281 C 65.585938 156.738281 64.984375 156.886719 64.460938 157.183594 C 63.941406 157.480469 63.152344 158.078125 62.105469 158.988281 L 61.015625 160.214844 C 60.46875 160.761719 59.5625 161.035156 58.292969 161.035156 C 56.703125 161.035156 55.90625 160.578125 55.90625 159.671875 C 55.90625 159.441406 55.929688 159.304688 55.976562 159.257812 C 57.15625 157.578125 58.6875 156.273438 60.570312 155.339844 C 62.457031 154.410156 64.445312 153.949219 66.535156 153.949219 C 68.21875 153.949219 69.683594 154.230469 70.9375 154.796875 C 72.1875 155.367188 73.058594 156.261719 73.554688 157.492188 C 75.144531 161.855469 75.941406 167.644531 75.941406 174.867188 C 75.941406 178.867188 75.738281 183.484375 75.332031 188.707031 Z M 80.097656 188.707031 " fill-opacity="1" fill-rule="nonzero"/><path fill="#780f26" d="M 60.417969 81.171875 C 60.417969 81.25 60.417969 81.324219 60.417969 81.394531 C 60.417969 81.464844 60.40625 81.539062 60.386719 81.617188 C 60.265625 82.402344 60.117188 82.796875 59.941406 82.796875 C 59.882812 82.796875 59.855469 82.75 59.855469 82.652344 C 59.796875 82.355469 59.628906 82.082031 59.363281 81.835938 C 59.101562 81.589844 58.773438 81.429688 58.378906 81.351562 C 57.886719 81.230469 57.28125 81.171875 56.574219 81.171875 C 55.726562 81.171875 54.808594 81.238281 53.824219 81.363281 C 52.839844 81.492188 51.882812 81.628906 50.964844 81.777344 C 50.046875 81.921875 49.253906 82.039062 48.585938 82.121094 C 48.445312 82.355469 48.1875 82.472656 47.816406 82.472656 C 47.738281 82.472656 47.664062 82.464844 47.59375 82.453125 C 47.523438 82.445312 47.441406 82.433594 47.339844 82.417969 C 47.183594 82.375 47.066406 82.273438 46.992188 82.113281 C 46.910156 81.957031 46.851562 81.8125 46.8125 81.675781 C 46.753906 81.441406 46.726562 81.230469 46.726562 81.054688 C 46.726562 80.597656 46.941406 80.164062 47.371094 79.753906 C 48.238281 78.902344 48.996094 78.15625 49.644531 77.503906 C 50.300781 76.851562 50.890625 76.234375 51.421875 75.65625 C 51.953125 75.074219 52.464844 74.472656 52.949219 73.851562 C 53.433594 73.230469 53.941406 72.539062 54.472656 71.769531 C 55.003906 70.996094 55.59375 70.097656 56.246094 69.074219 C 56.640625 68.484375 56.980469 67.765625 57.261719 66.917969 C 57.550781 66.070312 57.695312 65.269531 57.695312 64.523438 C 57.695312 63.867188 57.546875 63.320312 57.25 62.875 C 56.953125 62.433594 56.433594 62.210938 55.683594 62.210938 L 55.539062 62.210938 C 54.925781 62.210938 54.25 62.40625 53.511719 62.789062 C 52.769531 63.171875 52.058594 63.660156 51.378906 64.25 C 50.699219 64.84375 50.140625 65.457031 49.695312 66.085938 C 49.25 66.71875 49.03125 67.28125 49.03125 67.777344 C 49.03125 68.050781 49.117188 68.296875 49.296875 68.515625 C 49.371094 68.59375 49.410156 68.660156 49.410156 68.71875 C 49.410156 68.796875 49.371094 68.835938 49.296875 68.835938 C 49.238281 68.835938 49.128906 68.785156 48.96875 68.6875 C 48.832031 68.609375 48.640625 68.417969 48.394531 68.113281 C 48.148438 67.804688 47.925781 67.464844 47.730469 67.089844 C 47.53125 66.71875 47.433594 66.394531 47.433594 66.117188 L 47.433594 65.96875 C 47.511719 65.632812 47.773438 65.195312 48.214844 64.652344 C 48.660156 64.109375 49.179688 63.621094 49.769531 63.191406 C 50.714844 62.5 51.652344 61.992188 52.578125 61.667969 C 53.507812 61.339844 54.367188 61.175781 55.15625 61.175781 C 56.121094 61.175781 56.972656 61.375 57.710938 61.765625 C 58.453125 62.160156 59.03125 62.699219 59.457031 63.382812 C 59.878906 64.058594 60.089844 64.851562 60.089844 65.761719 C 60.089844 66.527344 59.90625 67.363281 59.542969 68.261719 C 59.179688 69.160156 58.59375 70.082031 57.785156 71.027344 C 56.820312 72.128906 55.824219 73.117188 54.796875 73.988281 C 53.769531 74.855469 52.765625 75.726562 51.777344 76.605469 C 50.792969 77.480469 49.863281 78.488281 49 79.632812 C 48.878906 79.75 48.800781 79.910156 48.765625 80.105469 C 49.355469 80.046875 50.015625 79.976562 50.742188 79.890625 C 51.472656 79.800781 52.210938 79.710938 52.960938 79.617188 C 53.714844 79.53125 54.398438 79.457031 55.019531 79.410156 C 55.640625 79.359375 56.128906 79.335938 56.484375 79.335938 L 57.046875 79.335938 C 57.578125 79.335938 58.101562 79.371094 58.625 79.441406 C 59.148438 79.511719 59.578125 79.675781 59.914062 79.933594 C 60.25 80.1875 60.417969 80.601562 60.417969 81.171875 Z M 60.417969 81.171875 " fill-opacity="1" fill-rule="nonzero"/><path fill="#780f26" d="M 73.730469 70.523438 C 73.730469 71.863281 73.582031 73.207031 73.285156 74.558594 C 72.992188 75.914062 72.554688 77.152344 71.980469 78.289062 C 71.410156 79.421875 70.707031 80.332031 69.878906 81.011719 C 69.054688 81.6875 68.097656 82.039062 67.011719 82.058594 C 66.046875 82.078125 65.199219 81.820312 64.46875 81.277344 C 63.742188 80.734375 63.132812 79.996094 62.636719 79.058594 C 62.144531 78.121094 61.769531 77.066406 61.511719 75.898438 C 61.253906 74.722656 61.128906 73.511719 61.128906 72.269531 C 61.128906 70.929688 61.277344 69.613281 61.570312 68.324219 C 61.867188 67.03125 62.316406 65.863281 62.914062 64.816406 C 63.519531 63.769531 64.273438 62.9375 65.175781 62.316406 C 66.085938 61.695312 67.160156 61.386719 68.40625 61.386719 C 68.71875 61.386719 68.875 61.476562 68.875 61.652344 C 68.875 61.890625 68.660156 62.015625 68.226562 62.03125 C 67.496094 62.054688 66.847656 62.382812 66.285156 63.023438 C 65.726562 63.664062 65.253906 64.503906 64.867188 65.539062 C 64.480469 66.574219 64.191406 67.71875 63.992188 68.972656 C 63.796875 70.226562 63.699219 71.492188 63.699219 72.773438 C 63.699219 74.230469 63.835938 75.601562 64.109375 76.882812 C 64.390625 78.164062 64.808594 79.195312 65.367188 79.976562 C 65.929688 80.753906 66.636719 81.140625 67.488281 81.140625 C 68.179688 81.121094 68.777344 80.84375 69.289062 80.316406 C 69.800781 79.78125 70.230469 79.078125 70.574219 78.203125 C 70.921875 77.324219 71.179688 76.347656 71.359375 75.273438 C 71.539062 74.199219 71.628906 73.097656 71.628906 71.972656 C 71.628906 70.589844 71.496094 69.292969 71.226562 68.070312 C 70.960938 66.847656 70.570312 65.851562 70.058594 65.082031 C 69.546875 64.316406 68.898438 63.929688 68.109375 63.929688 C 67.96875 63.929688 67.839844 63.945312 67.722656 63.972656 C 67.601562 64.003906 67.484375 64.015625 67.371094 64.015625 C 67.152344 64.015625 67.042969 63.898438 67.042969 63.660156 C 67.042969 63.546875 67.078125 63.410156 67.144531 63.253906 C 67.210938 63.09375 67.316406 62.964844 67.457031 62.863281 C 67.613281 62.726562 67.851562 62.628906 68.179688 62.582031 C 68.507812 62.53125 68.769531 62.507812 68.964844 62.507812 C 70.050781 62.507812 70.941406 62.882812 71.640625 63.632812 C 72.34375 64.382812 72.867188 65.363281 73.210938 66.574219 C 73.558594 67.785156 73.730469 69.101562 73.730469 70.523438 Z M 73.730469 70.523438 " fill-opacity="1" fill-rule="nonzero"/><path fill="#780f26" d="M 164.175781 230.835938 C 164.175781 230.757812 164.175781 230.683594 164.175781 230.613281 C 164.175781 230.542969 164.1875 230.46875 164.207031 230.390625 C 164.328125 229.605469 164.476562 229.210938 164.648438 229.210938 C 164.707031 229.210938 164.738281 229.257812 164.738281 229.355469 C 164.796875 229.652344 164.964844 229.925781 165.230469 230.171875 C 165.492188 230.417969 165.820312 230.578125 166.214844 230.65625 C 166.707031 230.777344 167.3125 230.835938 168.019531 230.835938 C 168.867188 230.835938 169.785156 230.769531 170.769531 230.644531 C 171.753906 230.515625 172.707031 230.378906 173.628906 230.230469 C 174.546875 230.085938 175.339844 229.96875 176.007812 229.886719 C 176.148438 229.652344 176.40625 229.535156 176.777344 229.535156 C 176.855469 229.535156 176.929688 229.542969 177 229.554688 C 177.070312 229.5625 177.152344 229.574219 177.25 229.589844 C 177.410156 229.632812 177.527344 229.734375 177.601562 229.894531 C 177.679688 230.050781 177.742188 230.195312 177.78125 230.332031 C 177.839844 230.566406 177.867188 230.777344 177.867188 230.953125 C 177.867188 231.410156 177.652344 231.84375 177.222656 232.253906 C 176.355469 233.105469 175.597656 233.851562 174.945312 234.503906 C 174.292969 235.15625 173.703125 235.773438 173.171875 236.351562 C 172.640625 236.933594 172.128906 237.535156 171.644531 238.15625 C 171.160156 238.777344 170.652344 239.46875 170.121094 240.238281 C 169.589844 241.011719 168.996094 241.910156 168.347656 242.933594 C 167.953125 243.523438 167.613281 244.242188 167.332031 245.089844 C 167.042969 245.9375 166.898438 246.738281 166.898438 247.484375 C 166.898438 248.140625 167.046875 248.6875 167.34375 249.132812 C 167.640625 249.574219 168.160156 249.796875 168.910156 249.796875 L 169.054688 249.796875 C 169.667969 249.796875 170.34375 249.601562 171.082031 249.21875 C 171.824219 248.835938 172.535156 248.347656 173.214844 247.757812 C 173.894531 247.164062 174.453125 246.550781 174.898438 245.921875 C 175.339844 245.289062 175.5625 244.726562 175.5625 244.230469 C 175.5625 243.957031 175.476562 243.710938 175.296875 243.492188 C 175.222656 243.414062 175.179688 243.347656 175.179688 243.289062 C 175.179688 243.210938 175.222656 243.171875 175.296875 243.171875 C 175.355469 243.171875 175.464844 243.222656 175.625 243.320312 C 175.761719 243.398438 175.953125 243.589844 176.199219 243.894531 C 176.445312 244.203125 176.667969 244.542969 176.863281 244.917969 C 177.0625 245.289062 177.160156 245.613281 177.160156 245.890625 L 177.160156 246.039062 C 177.082031 246.375 176.820312 246.8125 176.375 247.355469 C 175.933594 247.898438 175.414062 248.386719 174.824219 248.816406 C 173.878906 249.507812 172.941406 250.015625 172.015625 250.339844 C 171.085938 250.667969 170.226562 250.832031 169.4375 250.832031 C 168.472656 250.832031 167.621094 250.632812 166.882812 250.242188 C 166.140625 249.847656 165.5625 249.308594 165.136719 248.625 C 164.714844 247.949219 164.503906 247.15625 164.503906 246.246094 C 164.503906 245.480469 164.6875 244.644531 165.050781 243.746094 C 165.414062 242.847656 166 241.925781 166.808594 240.980469 C 167.773438 239.878906 168.769531 238.890625 169.796875 238.019531 C 170.824219 237.152344 171.828125 236.28125 172.816406 235.402344 C 173.800781 234.527344 174.726562 233.519531 175.59375 232.375 C 175.714844 232.257812 175.792969 232.097656 175.828125 231.902344 C 175.238281 231.960938 174.578125 232.03125 173.851562 232.117188 C 173.121094 232.207031 172.378906 232.296875 171.632812 232.390625 C 170.878906 232.476562 170.195312 232.550781 169.574219 232.597656 C 168.953125 232.648438 168.464844 232.671875 168.105469 232.671875 L 167.546875 232.671875 C 167.015625 232.671875 166.492188 232.636719 165.96875 232.566406 C 165.445312 232.496094 165.015625 232.332031 164.679688 232.074219 C 164.34375 231.820312 164.175781 231.40625 164.175781 230.835938 Z M 164.175781 230.835938 " fill-opacity="1" fill-rule="nonzero"/><path fill="#780f26" d="M 150.863281 241.484375 C 150.863281 240.144531 151.011719 238.800781 151.308594 237.449219 C 151.601562 236.09375 152.039062 234.855469 152.613281 233.71875 C 153.183594 232.585938 153.886719 231.675781 154.714844 230.996094 C 155.539062 230.320312 156.496094 229.96875 157.578125 229.949219 C 158.546875 229.929688 159.394531 230.1875 160.125 230.730469 C 160.851562 231.273438 161.460938 232.011719 161.953125 232.949219 C 162.449219 233.886719 162.824219 234.941406 163.082031 236.109375 C 163.339844 237.285156 163.464844 238.496094 163.464844 239.738281 C 163.464844 241.078125 163.316406 242.394531 163.019531 243.683594 C 162.726562 244.976562 162.277344 246.144531 161.679688 247.191406 C 161.074219 248.238281 160.320312 249.070312 159.417969 249.691406 C 158.507812 250.3125 157.433594 250.621094 156.1875 250.621094 C 155.875 250.621094 155.71875 250.53125 155.71875 250.355469 C 155.71875 250.117188 155.933594 249.992188 156.367188 249.976562 C 157.097656 249.953125 157.746094 249.625 158.308594 248.984375 C 158.867188 248.34375 159.339844 247.503906 159.722656 246.46875 C 160.109375 245.433594 160.402344 244.289062 160.597656 243.035156 C 160.796875 241.78125 160.894531 240.515625 160.894531 239.234375 C 160.894531 237.777344 160.757812 236.40625 160.480469 235.125 C 160.203125 233.84375 159.785156 232.8125 159.226562 232.03125 C 158.664062 231.253906 157.957031 230.867188 157.105469 230.867188 C 156.414062 230.886719 155.816406 231.164062 155.304688 231.691406 C 154.792969 232.226562 154.363281 232.929688 154.019531 233.804688 C 153.671875 234.683594 153.414062 235.660156 153.234375 236.734375 C 153.054688 237.808594 152.964844 238.910156 152.964844 240.035156 C 152.964844 241.417969 153.097656 242.714844 153.363281 243.9375 C 153.632812 245.160156 154.023438 246.15625 154.535156 246.925781 C 155.046875 247.691406 155.695312 248.078125 156.484375 248.078125 C 156.625 248.078125 156.753906 248.0625 156.871094 248.035156 C 156.992188 248.003906 157.109375 247.992188 157.222656 247.992188 C 157.441406 247.992188 157.550781 248.109375 157.550781 248.347656 C 157.550781 248.460938 157.515625 248.597656 157.449219 248.753906 C 157.382812 248.914062 157.277344 249.042969 157.136719 249.144531 C 156.980469 249.28125 156.742188 249.378906 156.414062 249.425781 C 156.085938 249.476562 155.824219 249.5 155.625 249.5 C 154.542969 249.5 153.652344 249.125 152.953125 248.375 C 152.25 247.625 151.726562 246.644531 151.382812 245.433594 C 151.035156 244.222656 150.863281 242.90625 150.863281 241.484375 Z M 150.863281 241.484375 " fill-opacity="1" fill-rule="nonzero"/><g clip-path="url(#4deaff6da9)"><g transform="matrix(1, 0, 0, 1, 22, 22)"><g clip-path="url(#30aff35c79)"><g clip-path="url(#8447472396)"><path fill="#f5f5f2" d="M 0.707031 0.433594 L 68.007812 0.433594 L 68.007812 67.734375 L 0.707031 67.734375 Z M 0.707031 0.433594 " fill-opacity="1" fill-rule="nonzero"/></g></g></g></g><g clip-path="url(#7213ce3959)"><g transform="matrix(1, 0, 0, 1, 134, 224)"><g clip-path="url(#1342d61397)"><g clip-path="url(#61d8716780)"><path fill="#f5f5f2" d="M 0.875 0.332031 L 68.171875 0.332031 L 68.171875 67.632812 L 0.875 67.632812 Z M 0.875 0.332031 " fill-opacity="1" fill-rule="nonzero"/></g></g></g></g><g fill="#791026" fill-opacity="1"><g transform="translate(192.602637, 248.444001)"><g><path d="M -26.328125 1.078125 C -26.328125 0.941406 -26.328125 0.804688 -26.328125 0.671875 C -26.328125 0.546875 -26.304688 0.410156 -26.265625 0.265625 C -26.054688 -1.179688 -25.785156 -1.90625 -25.453125 -1.90625 C -25.347656 -1.90625 -25.296875 -1.8125 -25.296875 -1.625 C -25.179688 -1.082031 -24.878906 -0.582031 -24.390625 -0.125 C -23.910156 0.320312 -23.304688 0.617188 -22.578125 0.765625 C -21.671875 0.972656 -20.566406 1.078125 -19.265625 1.078125 C -17.710938 1.078125 -16.03125 0.957031 -14.21875 0.71875 C -12.40625 0.488281 -10.65625 0.238281 -8.96875 -0.03125 C -7.289062 -0.300781 -5.835938 -0.507812 -4.609375 -0.65625 C -4.359375 -1.082031 -3.890625 -1.296875 -3.203125 -1.296875 C -3.054688 -1.296875 -2.921875 -1.285156 -2.796875 -1.265625 C -2.671875 -1.253906 -2.515625 -1.226562 -2.328125 -1.1875 C -2.046875 -1.113281 -1.832031 -0.929688 -1.6875 -0.640625 C -1.539062 -0.359375 -1.429688 -0.09375 -1.359375 0.15625 C -1.242188 0.59375 -1.1875 0.972656 -1.1875 1.296875 C -1.1875 2.128906 -1.585938 2.925781 -2.390625 3.6875 C -3.984375 5.25 -5.375 6.625 -6.5625 7.8125 C -7.757812 9.007812 -8.847656 10.140625 -9.828125 11.203125 C -10.804688 12.273438 -11.738281 13.378906 -12.625 14.515625 C -13.507812 15.660156 -14.4375 16.9375 -15.40625 18.34375 C -16.382812 19.757812 -17.472656 21.40625 -18.671875 23.28125 C -19.398438 24.375 -20.023438 25.695312 -20.546875 27.25 C -21.066406 28.800781 -21.328125 30.265625 -21.328125 31.640625 C -21.328125 32.835938 -21.054688 33.84375 -20.515625 34.65625 C -19.972656 35.46875 -19.015625 35.875 -17.640625 35.875 L -17.375 35.875 C -16.25 35.875 -15.003906 35.519531 -13.640625 34.8125 C -12.285156 34.113281 -10.984375 33.21875 -9.734375 32.125 C -8.492188 31.039062 -7.460938 29.921875 -6.640625 28.765625 C -5.828125 27.609375 -5.421875 26.578125 -5.421875 25.671875 C -5.421875 25.171875 -5.585938 24.71875 -5.921875 24.3125 C -6.066406 24.164062 -6.140625 24.039062 -6.140625 23.9375 C -6.140625 23.789062 -6.066406 23.71875 -5.921875 23.71875 C -5.804688 23.71875 -5.601562 23.8125 -5.3125 24 C -5.0625 24.132812 -4.707031 24.484375 -4.25 25.046875 C -3.800781 25.609375 -3.394531 26.234375 -3.03125 26.921875 C -2.675781 27.609375 -2.5 28.207031 -2.5 28.71875 L -2.5 28.984375 C -2.644531 29.597656 -3.125 30.398438 -3.9375 31.390625 C -4.75 32.390625 -5.695312 33.289062 -6.78125 34.09375 C -8.519531 35.351562 -10.238281 36.28125 -11.9375 36.875 C -13.644531 37.476562 -15.222656 37.78125 -16.671875 37.78125 C -18.441406 37.78125 -20.003906 37.414062 -21.359375 36.6875 C -22.710938 35.96875 -23.78125 34.984375 -24.5625 33.734375 C -25.34375 32.484375 -25.734375 31.023438 -25.734375 29.359375 C -25.734375 27.953125 -25.394531 26.425781 -24.71875 24.78125 C -24.050781 23.132812 -22.976562 21.441406 -21.5 19.703125 C -19.71875 17.679688 -17.882812 15.875 -16 14.28125 C -14.125 12.6875 -12.28125 11.082031 -10.46875 9.46875 C -8.664062 7.863281 -6.96875 6.007812 -5.375 3.90625 C -5.15625 3.6875 -5.007812 3.398438 -4.9375 3.046875 C -6.019531 3.148438 -7.226562 3.28125 -8.5625 3.4375 C -9.90625 3.601562 -11.265625 3.765625 -12.640625 3.921875 C -14.015625 4.085938 -15.269531 4.21875 -16.40625 4.3125 C -17.550781 4.40625 -18.453125 4.453125 -19.109375 4.453125 L -20.140625 4.453125 C -21.117188 4.453125 -22.085938 4.390625 -23.046875 4.265625 C -24.003906 4.140625 -24.789062 3.835938 -25.40625 3.359375 C -26.019531 2.890625 -26.328125 2.128906 -26.328125 1.078125 Z M -26.328125 1.078125 "/></g></g></g><g fill="#791026" fill-opacity="1"><g transform="translate(165.846364, 248.444001)"><g><path d="M -24 20.625 C -24 18.164062 -23.722656 15.695312 -23.171875 13.21875 C -22.628906 10.738281 -21.832031 8.457031 -20.78125 6.375 C -19.738281 4.289062 -18.457031 2.625 -16.9375 1.375 C -15.414062 0.132812 -13.660156 -0.503906 -11.671875 -0.546875 C -9.898438 -0.578125 -8.34375 -0.0976562 -7 0.890625 C -5.664062 1.890625 -4.546875 3.25 -3.640625 4.96875 C -2.734375 6.6875 -2.046875 8.617188 -1.578125 10.765625 C -1.109375 12.921875 -0.875 15.140625 -0.875 17.421875 C -0.875 19.878906 -1.144531 22.289062 -1.6875 24.65625 C -2.226562 27.03125 -3.050781 29.175781 -4.15625 31.09375 C -5.257812 33.019531 -6.640625 34.550781 -8.296875 35.6875 C -9.960938 36.832031 -11.9375 37.40625 -14.21875 37.40625 C -14.800781 37.40625 -15.09375 37.238281 -15.09375 36.90625 C -15.09375 36.476562 -14.691406 36.242188 -13.890625 36.203125 C -12.554688 36.171875 -11.375 35.566406 -10.34375 34.390625 C -9.3125 33.210938 -8.441406 31.671875 -7.734375 29.765625 C -7.023438 27.867188 -6.488281 25.769531 -6.125 23.46875 C -5.769531 21.175781 -5.59375 18.851562 -5.59375 16.5 C -5.59375 13.820312 -5.84375 11.304688 -6.34375 8.953125 C -6.851562 6.597656 -7.625 4.707031 -8.65625 3.28125 C -9.6875 1.851562 -10.976562 1.140625 -12.53125 1.140625 C -13.800781 1.171875 -14.90625 1.675781 -15.84375 2.65625 C -16.789062 3.632812 -17.578125 4.925781 -18.203125 6.53125 C -18.835938 8.144531 -19.316406 9.9375 -19.640625 11.90625 C -19.972656 13.882812 -20.140625 15.90625 -20.140625 17.96875 C -20.140625 20.5 -19.894531 22.882812 -19.40625 25.125 C -18.914062 27.375 -18.195312 29.203125 -17.25 30.609375 C -16.3125 32.023438 -15.117188 32.734375 -13.671875 32.734375 C -13.421875 32.734375 -13.1875 32.703125 -12.96875 32.640625 C -12.75 32.585938 -12.535156 32.5625 -12.328125 32.5625 C -11.921875 32.5625 -11.71875 32.78125 -11.71875 33.21875 C -11.71875 33.4375 -11.78125 33.691406 -11.90625 33.984375 C -12.039062 34.273438 -12.234375 34.507812 -12.484375 34.6875 C -12.773438 34.9375 -13.21875 35.109375 -13.8125 35.203125 C -14.40625 35.296875 -14.882812 35.34375 -15.25 35.34375 C -17.238281 35.34375 -18.875 34.65625 -20.15625 33.28125 C -21.445312 31.90625 -22.410156 30.101562 -23.046875 27.875 C -23.679688 25.644531 -24 23.226562 -24 20.625 Z M -24 20.625 "/></g></g></g><g fill="#791026" fill-opacity="1"><g transform="translate(32.275884, 65.611417)"><g><path d="M 26.328125 -1.078125 C 26.328125 -0.941406 26.328125 -0.804688 26.328125 -0.671875 C 26.328125 -0.546875 26.304688 -0.410156 26.265625 -0.265625 C 26.054688 1.179688 25.785156 1.90625 25.453125 1.90625 C 25.347656 1.90625 25.296875 1.8125 25.296875 1.625 C 25.179688 1.082031 24.878906 0.582031 24.390625 0.125 C 23.910156 -0.320312 23.304688 -0.617188 22.578125 -0.765625 C 21.671875 -0.972656 20.566406 -1.078125 19.265625 -1.078125 C 17.710938 -1.078125 16.03125 -0.957031 14.21875 -0.71875 C 12.40625 -0.488281 10.65625 -0.238281 8.96875 0.03125 C 7.289062 0.300781 5.835938 0.507812 4.609375 0.65625 C 4.359375 1.082031 3.890625 1.296875 3.203125 1.296875 C 3.054688 1.296875 2.921875 1.285156 2.796875 1.265625 C 2.671875 1.253906 2.515625 1.226562 2.328125 1.1875 C 2.046875 1.113281 1.832031 0.929688 1.6875 0.640625 C 1.539062 0.359375 1.429688 0.09375 1.359375 -0.15625 C 1.242188 -0.59375 1.1875 -0.972656 1.1875 -1.296875 C 1.1875 -2.128906 1.585938 -2.925781 2.390625 -3.6875 C 3.984375 -5.25 5.375 -6.625 6.5625 -7.8125 C 7.757812 -9.007812 8.847656 -10.140625 9.828125 -11.203125 C 10.804688 -12.273438 11.738281 -13.378906 12.625 -14.515625 C 13.507812 -15.660156 14.4375 -16.9375 15.40625 -18.34375 C 16.382812 -19.757812 17.472656 -21.40625 18.671875 -23.28125 C 19.398438 -24.375 20.023438 -25.695312 20.546875 -27.25 C 21.066406 -28.800781 21.328125 -30.265625 21.328125 -31.640625 C 21.328125 -32.835938 21.054688 -33.84375 20.515625 -34.65625 C 19.972656 -35.46875 19.015625 -35.875 17.640625 -35.875 L 17.375 -35.875 C 16.25 -35.875 15.003906 -35.519531 13.640625 -34.8125 C 12.285156 -34.113281 10.984375 -33.21875 9.734375 -32.125 C 8.492188 -31.039062 7.460938 -29.921875 6.640625 -28.765625 C 5.828125 -27.609375 5.421875 -26.578125 5.421875 -25.671875 C 5.421875 -25.171875 5.585938 -24.71875 5.921875 -24.3125 C 6.066406 -24.164062 6.140625 -24.039062 6.140625 -23.9375 C 6.140625 -23.789062 6.066406 -23.71875 5.921875 -23.71875 C 5.804688 -23.71875 5.601562 -23.8125 5.3125 -24 C 5.0625 -24.132812 4.707031 -24.484375 4.25 -25.046875 C 3.800781 -25.609375 3.394531 -26.234375 3.03125 -26.921875 C 2.675781 -27.609375 2.5 -28.207031 2.5 -28.71875 L 2.5 -28.984375 C 2.644531 -29.597656 3.125 -30.398438 3.9375 -31.390625 C 4.75 -32.390625 5.695312 -33.289062 6.78125 -34.09375 C 8.519531 -35.351562 10.238281 -36.28125 11.9375 -36.875 C 13.644531 -37.476562 15.222656 -37.78125 16.671875 -37.78125 C 18.441406 -37.78125 20.003906 -37.414062 21.359375 -36.6875 C 22.710938 -35.96875 23.78125 -34.984375 24.5625 -33.734375 C 25.34375 -32.484375 25.734375 -31.023438 25.734375 -29.359375 C 25.734375 -27.953125 25.394531 -26.425781 24.71875 -24.78125 C 24.050781 -23.132812 22.976562 -21.441406 21.5 -19.703125 C 19.71875 -17.679688 17.882812 -15.875 16 -14.28125 C 14.125 -12.6875 12.28125 -11.082031 10.46875 -9.46875 C 8.664062 -7.863281 6.96875 -6.007812 5.375 -3.90625 C 5.15625 -3.6875 5.007812 -3.398438 4.9375 -3.046875 C 6.019531 -3.148438 7.226562 -3.28125 8.5625 -3.4375 C 9.90625 -3.601562 11.265625 -3.765625 12.640625 -3.921875 C 14.015625 -4.085938 15.269531 -4.21875 16.40625 -4.3125 C 17.550781 -4.40625 18.453125 -4.453125 19.109375 -4.453125 L 20.140625 -4.453125 C 21.117188 -4.453125 22.085938 -4.390625 23.046875 -4.265625 C 24.003906 -4.140625 24.789062 -3.835938 25.40625 -3.359375 C 26.019531 -2.890625 26.328125 -2.128906 26.328125 -1.078125 Z M 26.328125 -1.078125 "/></g></g></g><g fill="#791026" fill-opacity="1"><g transform="translate(59.032157, 65.611417)"><g><path d="M 24 -20.625 C 24 -18.164062 23.722656 -15.695312 23.171875 -13.21875 C 22.628906 -10.738281 21.832031 -8.457031 20.78125 -6.375 C 19.738281 -4.289062 18.457031 -2.625 16.9375 -1.375 C 15.414062 -0.132812 13.660156 0.503906 11.671875 0.546875 C 9.898438 0.578125 8.34375 0.0976562 7 -0.890625 C 5.664062 -1.890625 4.546875 -3.25 3.640625 -4.96875 C 2.734375 -6.6875 2.046875 -8.617188 1.578125 -10.765625 C 1.109375 -12.921875 0.875 -15.140625 0.875 -17.421875 C 0.875 -19.878906 1.144531 -22.289062 1.6875 -24.65625 C 2.226562 -27.03125 3.050781 -29.175781 4.15625 -31.09375 C 5.257812 -33.019531 6.640625 -34.550781 8.296875 -35.6875 C 9.960938 -36.832031 11.9375 -37.40625 14.21875 -37.40625 C 14.800781 -37.40625 15.09375 -37.238281 15.09375 -36.90625 C 15.09375 -36.476562 14.691406 -36.242188 13.890625 -36.203125 C 12.554688 -36.171875 11.375 -35.566406 10.34375 -34.390625 C 9.3125 -33.210938 8.441406 -31.671875 7.734375 -29.765625 C 7.023438 -27.867188 6.488281 -25.769531 6.125 -23.46875 C 5.769531 -21.175781 5.59375 -18.851562 5.59375 -16.5 C 5.59375 -13.820312 5.84375 -11.304688 6.34375 -8.953125 C 6.851562 -6.597656 7.625 -4.707031 8.65625 -3.28125 C 9.6875 -1.851562 10.976562 -1.140625 12.53125 -1.140625 C 13.800781 -1.171875 14.90625 -1.675781 15.84375 -2.65625 C 16.789062 -3.632812 17.578125 -4.925781 18.203125 -6.53125 C 18.835938 -8.144531 19.316406 -9.9375 19.640625 -11.90625 C 19.972656 -13.882812 20.140625 -15.90625 20.140625 -17.96875 C 20.140625 -20.5 19.894531 -22.882812 19.40625 -25.125 C 18.914062 -27.375 18.195312 -29.203125 17.25 -30.609375 C 16.3125 -32.023438 15.117188 -32.734375 13.671875 -32.734375 C 13.421875 -32.734375 13.1875 -32.703125 12.96875 -32.640625 C 12.75 -32.585938 12.535156 -32.5625 12.328125 -32.5625 C 11.921875 -32.5625 11.71875 -32.78125 11.71875 -33.21875 C 11.71875 -33.4375 11.78125 -33.691406 11.90625 -33.984375 C 12.039062 -34.273438 12.234375 -34.507812 12.484375 -34.6875 C 12.773438 -34.9375 13.21875 -35.109375 13.8125 -35.203125 C 14.40625 -35.296875 14.882812 -35.34375 15.25 -35.34375 C 17.238281 -35.34375 18.875 -34.65625 20.15625 -33.28125 C 21.445312 -31.90625 22.410156 -30.101562 23.046875 -27.875 C 23.679688 -25.644531 24 -23.226562 24 -20.625 Z M 24 -20.625 "/></g></g></g></svg>