<svg xmlns="http://www.w3.org/2000/svg" xmlns:xlink="http://www.w3.org/1999/xlink" width="300" zoomAndPan="magnify" viewBox="0 0 224.87999 323.03998" height="420" preserveAspectRatio="xMidYMid meet" version="1.0"><defs><g/><clipPath id="54a8543a35"><path d="M 0.273438 0 L 224.488281 0 L 224.488281 313.871094 L 0.273438 313.871094 Z M 0.273438 0 " clip-rule="nonzero"/></clipPath><clipPath id="63e6aaa4d1"><path d="M 18.328125 0.691406 C 8.425781 0.691406 0.53125 8.710938 0.53125 18.488281 L 0.53125 295.582031 C 0.53125 305.472656 8.527344 313.355469 18.289062 313.378906 L 206.597656 313.378906 C 216.464844 313.355469 224.335938 305.371094 224.359375 295.621094 L 224.359375 18.449219 C 224.335938 8.5625 216.3125 0.691406 206.550781 0.691406 Z M 18.328125 0.691406 " clip-rule="nonzero"/></clipPath><clipPath id="87a3873335"><path d="M 0.511719 0.480469 L 224.488281 0.480469 L 224.488281 313.46875 L 0.511719 313.46875 Z M 0.511719 0.480469 " clip-rule="nonzero"/></clipPath><clipPath id="51572d74d9"><path d="M 18.328125 0.691406 C 8.425781 0.691406 0.53125 8.710938 0.53125 18.488281 L 0.53125 295.582031 C 0.53125 305.472656 8.527344 313.355469 18.289062 313.378906 L 206.597656 313.378906 C 216.464844 313.355469 224.335938 305.371094 224.359375 295.621094 L 224.359375 18.449219 C 224.335938 8.5625 216.3125 0.691406 206.550781 0.691406 Z M 18.328125 0.691406 " clip-rule="nonzero"/></clipPath><clipPath id="c9376e25bb"><rect x="0" width="225" y="0" height="314"/></clipPath><clipPath id="aa16550e53"><path d="M 0.273438 0 L 224.488281 0 L 224.488281 313.871094 L 0.273438 313.871094 Z M 0.273438 0 " clip-rule="nonzero"/></clipPath><clipPath id="4399c2aaa3"><path d="M 206.550781 1.316406 C 215.988281 1.316406 223.71875 8.9375 223.71875 18.488281 L 223.71875 295.582031 C 223.71875 305.019531 216.101562 312.753906 206.550781 312.753906 L 18.328125 312.753906 C 8.890625 312.753906 1.15625 305.132812 1.15625 295.582031 L 1.15625 18.488281 C 1.15625 9.050781 8.777344 1.316406 18.328125 1.316406 Z M 13.527344 0.691406 C 7.183594 2.394531 2.222656 7.394531 0.53125 13.699219 L 0.53125 300.371094 C 2.234375 306.726562 7.234375 311.6875 13.539062 313.367188 L 211.351562 313.367188 C 217.703125 311.664062 222.667969 306.664062 224.347656 300.359375 L 224.347656 13.6875 C 222.65625 7.347656 217.640625 2.382812 211.335938 0.691406 Z M 13.527344 0.691406 " clip-rule="nonzero"/></clipPath><clipPath id="60724ebee1"><path d="M 0.511719 0.480469 L 224.488281 0.480469 L 224.488281 313.46875 L 0.511719 313.46875 Z M 0.511719 0.480469 " clip-rule="nonzero"/></clipPath><clipPath id="a4a44bdfee"><path d="M 206.550781 1.316406 C 215.988281 1.316406 223.71875 8.9375 223.71875 18.488281 L 223.71875 295.582031 C 223.71875 305.019531 216.101562 312.753906 206.550781 312.753906 L 18.328125 312.753906 C 8.890625 312.753906 1.15625 305.132812 1.15625 295.582031 L 1.15625 18.488281 C 1.15625 9.050781 8.777344 1.316406 18.328125 1.316406 Z M 13.527344 0.691406 C 7.183594 2.394531 2.222656 7.394531 0.53125 13.699219 L 0.53125 300.371094 C 2.234375 306.726562 7.234375 311.6875 13.539062 313.367188 L 211.351562 313.367188 C 217.703125 311.664062 222.667969 306.664062 224.347656 300.359375 L 224.347656 13.6875 C 222.65625 7.347656 217.640625 2.382812 211.335938 0.691406 Z M 13.527344 0.691406 " clip-rule="nonzero"/></clipPath><clipPath id="3872972552"><rect x="0" width="225" y="0" height="314"/></clipPath><clipPath id="9a5ac75e10"><path d="M 45.042969 91.367188 L 170.605469 91.367188 L 170.605469 212 L 45.042969 212 Z M 45.042969 91.367188 " clip-rule="nonzero"/></clipPath><clipPath id="84fa542009"><path d="M 107.925781 91.679688 L 45.261719 211.988281 L 170.578125 211.988281 Z M 107.925781 91.679688 " clip-rule="nonzero"/></clipPath><clipPath id="7e8cfd12da"><path d="M 0.257812 0.648438 L 125.605469 0.648438 L 125.605469 121 L 0.257812 121 Z M 0.257812 0.648438 " clip-rule="nonzero"/></clipPath><clipPath id="37b2ab8864"><path d="M 62.925781 0.679688 L 0.261719 120.988281 L 125.578125 120.988281 Z M 62.925781 0.679688 " clip-rule="nonzero"/></clipPath><clipPath id="6469ea098a"><rect x="0" width="126" y="0" height="121"/></clipPath><clipPath id="8dbcb6af5a"><path d="M 41 86 L 175 86 L 175 215 L 41 215 Z M 41 86 " clip-rule="nonzero"/></clipPath><clipPath id="c38b8c6e52"><path d="M 110.15625 92.835938 L 47.492188 213.140625 L 45.273438 211.988281 L 45.273438 209.480469 L 170.59375 209.480469 L 170.59375 211.988281 L 168.375 213.140625 L 105.707031 92.835938 L 107.925781 91.679688 L 110.144531 92.835938 M 105.695312 90.515625 L 107.914062 86.242188 L 110.132812 90.515625 L 172.796875 210.820312 L 174.703125 214.480469 L 41.136719 214.480469 L 43.042969 210.820312 L 105.707031 90.515625 Z M 105.695312 90.515625 " clip-rule="nonzero"/></clipPath><clipPath id="016b531299"><path d="M 0 0.144531 L 133.714844 0.144531 L 133.714844 128.640625 L 0 128.640625 Z M 0 0.144531 " clip-rule="nonzero"/></clipPath><clipPath id="98d228c950"><path d="M 69.15625 6.835938 L 6.492188 127.140625 L 4.273438 125.988281 L 4.273438 123.480469 L 129.59375 123.480469 L 129.59375 125.988281 L 127.375 127.140625 L 64.707031 6.835938 L 66.925781 5.679688 L 69.144531 6.835938 M 64.695312 4.515625 L 66.914062 0.242188 L 69.132812 4.515625 L 131.796875 124.820312 L 133.703125 128.480469 L 0.136719 128.480469 L 2.042969 124.820312 L 64.707031 4.515625 Z M 64.695312 4.515625 " clip-rule="nonzero"/></clipPath><clipPath id="ccc3ee1a7f"><rect x="0" width="134" y="0" height="129"/></clipPath><clipPath id="ea0dac8a12"><path d="M 10 52 L 41 52 L 41 82 L 10 82 Z M 10 52 " clip-rule="nonzero"/></clipPath><clipPath id="0bcd7543d2"><path d="M 25.558594 52.515625 L 10.332031 81.753906 L 40.785156 81.753906 Z M 25.558594 52.515625 " clip-rule="nonzero"/></clipPath><clipPath id="363b431874"><path d="M 0.324219 0.402344 L 30.953125 0.402344 L 30.953125 29.835938 L 0.324219 29.835938 Z M 0.324219 0.402344 " clip-rule="nonzero"/></clipPath><clipPath id="42106ecf69"><path d="M 15.558594 0.515625 L 0.332031 29.753906 L 30.785156 29.753906 Z M 15.558594 0.515625 " clip-rule="nonzero"/></clipPath><clipPath id="8d607630fc"><rect x="0" width="31" y="0" height="30"/></clipPath><clipPath id="be9693c638"><path d="M 7.1875 49 L 44 49 L 44 83.980469 L 7.1875 83.980469 Z M 7.1875 49 " clip-rule="nonzero"/></clipPath><clipPath id="a85332113a"><path d="M 26.910156 53.21875 L 11.683594 82.457031 L 10.332031 81.753906 L 10.332031 80.226562 L 40.785156 80.226562 L 40.785156 81.753906 L 39.433594 82.457031 L 24.203125 53.21875 L 25.558594 52.515625 L 26.910156 53.21875 M 24.203125 51.8125 L 25.558594 49.21875 L 26.910156 51.8125 L 42.140625 81.039062 L 43.304688 83.273438 L 7.835938 83.273438 L 9.003906 81.039062 L 24.203125 51.800781 Z M 24.203125 51.8125 " clip-rule="nonzero"/></clipPath><clipPath id="af7ea80edb"><path d="M 0.691406 0.0546875 L 36.34375 0.0546875 L 36.34375 34.273438 L 0.691406 34.273438 Z M 0.691406 0.0546875 " clip-rule="nonzero"/></clipPath><clipPath id="fe055aac56"><path d="M 19.910156 4.21875 L 4.683594 33.457031 L 3.332031 32.753906 L 3.332031 31.226562 L 33.785156 31.226562 L 33.785156 32.753906 L 32.433594 33.457031 L 17.203125 4.21875 L 18.558594 3.515625 L 19.910156 4.21875 M 17.203125 2.8125 L 18.558594 0.21875 L 19.910156 2.8125 L 35.140625 32.039062 L 36.304688 34.273438 L 0.835938 34.273438 L 2.003906 32.039062 L 17.203125 2.800781 Z M 17.203125 2.8125 " clip-rule="nonzero"/></clipPath><clipPath id="ad0ae1292b"><rect x="0" width="37" y="0" height="35"/></clipPath><clipPath id="b443dece2d"><path d="M 178 231.699219 L 209 231.699219 L 209 261.246094 L 178 261.246094 Z M 178 231.699219 " clip-rule="nonzero"/></clipPath><clipPath id="adfbffd0f5"><path d="M 193.339844 261.117188 L 208.566406 231.878906 L 178.113281 231.878906 Z M 193.339844 261.117188 " clip-rule="nonzero"/></clipPath><clipPath id="8764f8e919"><path d="M 0.0664062 0.871094 L 30.695312 0.871094 L 30.695312 30.246094 L 0.0664062 30.246094 Z M 0.0664062 0.871094 " clip-rule="nonzero"/></clipPath><clipPath id="99b854bf8e"><path d="M 15.339844 30.117188 L 30.566406 0.878906 L 0.113281 0.878906 Z M 15.339844 30.117188 " clip-rule="nonzero"/></clipPath><clipPath id="73d0df2d18"><rect x="0" width="31" y="0" height="31"/></clipPath><clipPath id="e85bd818d0"><path d="M 175.222656 230 L 211.226562 230 L 211.226562 264.9375 L 175.222656 264.9375 Z M 175.222656 230 " clip-rule="nonzero"/></clipPath><clipPath id="1cc4e585a4"><path d="M 191.984375 260.402344 L 207.214844 231.164062 L 208.566406 231.863281 L 208.566406 233.394531 L 178.113281 233.394531 L 178.113281 231.863281 L 179.464844 231.164062 L 194.691406 260.402344 L 193.339844 261.105469 L 191.984375 260.402344 M 194.691406 261.804688 L 193.339844 264.402344 L 191.984375 261.804688 L 176.757812 232.566406 L 175.59375 230.335938 L 211.0625 230.335938 L 209.894531 232.566406 L 194.667969 261.804688 Z M 194.691406 261.804688 " clip-rule="nonzero"/></clipPath><clipPath id="925546f241"><path d="M 0.433594 0.195312 L 36.085938 0.195312 L 36.085938 34.414062 L 0.433594 34.414062 Z M 0.433594 0.195312 " clip-rule="nonzero"/></clipPath><clipPath id="5798d27772"><path d="M 16.984375 30.402344 L 32.214844 1.164062 L 33.566406 1.863281 L 33.566406 3.394531 L 3.113281 3.394531 L 3.113281 1.863281 L 4.464844 1.164062 L 19.691406 30.402344 L 18.339844 31.105469 L 16.984375 30.402344 M 19.691406 31.804688 L 18.339844 34.402344 L 16.984375 31.804688 L 1.757812 2.566406 L 0.59375 0.335938 L 36.0625 0.335938 L 34.894531 2.566406 L 19.667969 31.804688 Z M 19.691406 31.804688 " clip-rule="nonzero"/></clipPath><clipPath id="588055ca33"><rect x="0" width="37" y="0" height="35"/></clipPath><clipPath id="1d75d831d0"><path d="M 0.273438 9 L 52 9 L 52 65 L 0.273438 65 Z M 0.273438 9 " clip-rule="nonzero"/></clipPath><clipPath id="2fc3fa47fc"><rect x="0" width="52" y="0" height="56"/></clipPath><clipPath id="6bc862da1a"><rect x="0" width="51" y="0" height="56"/></clipPath></defs><g clip-path="url(#54a8543a35)"><g clip-path="url(#63e6aaa4d1)"><g transform="matrix(1, 0, 0, 1, 0, 0)"><g clip-path="url(#c9376e25bb)"><g clip-path="url(#87a3873335)"><g clip-path="url(#51572d74d9)"><rect x="-49.473598" width="323.827186" fill="#f5f5f2" height="465.177571" y="-71.068796" fill-opacity="1"/></g></g></g></g></g></g><g clip-path="url(#aa16550e53)"><g clip-path="url(#4399c2aaa3)"><g transform="matrix(1, 0, 0, 1, 0, 0)"><g clip-path="url(#3872972552)"><g clip-path="url(#60724ebee1)"><g clip-path="url(#a4a44bdfee)"><rect x="-49.473598" width="323.827186" fill="#000000" height="465.177571" y="-71.068796" fill-opacity="1"/></g></g></g></g></g></g><g clip-path="url(#9a5ac75e10)"><g clip-path="url(#84fa542009)"><g transform="matrix(1, 0, 0, 1, 45, 91)"><g clip-path="url(#6469ea098a)"><g clip-path="url(#7e8cfd12da)"><g clip-path="url(#37b2ab8864)"><rect x="-94.473598" width="323.827186" fill="#780f26" height="465.177571" y="-162.068796" fill-opacity="1"/></g></g></g></g></g></g><g clip-path="url(#8dbcb6af5a)"><g clip-path="url(#c38b8c6e52)"><g transform="matrix(1, 0, 0, 1, 41, 86)"><g clip-path="url(#ccc3ee1a7f)"><g clip-path="url(#016b531299)"><g clip-path="url(#98d228c950)"><rect x="-90.473598" width="323.827186" fill="#780f26" height="465.177571" y="-157.068796" fill-opacity="1"/></g></g></g></g></g></g><g clip-path="url(#ea0dac8a12)"><g clip-path="url(#0bcd7543d2)"><g transform="matrix(1, 0, 0, 1, 10, 52)"><g clip-path="url(#8d607630fc)"><g clip-path="url(#363b431874)"><g clip-path="url(#42106ecf69)"><rect x="-59.473598" width="323.827186" fill="#780f26" height="465.177571" y="-123.068796" fill-opacity="1"/></g></g></g></g></g></g><g clip-path="url(#be9693c638)"><g clip-path="url(#a85332113a)"><g transform="matrix(1, 0, 0, 1, 7, 49)"><g clip-path="url(#ad0ae1292b)"><g clip-path="url(#af7ea80edb)"><g clip-path="url(#fe055aac56)"><rect x="-56.473598" width="323.827186" fill="#780f26" height="465.177571" y="-120.068796" fill-opacity="1"/></g></g></g></g></g></g><g clip-path="url(#b443dece2d)"><g clip-path="url(#adfbffd0f5)"><g transform="matrix(1, 0, 0, 1, 178, 231)"><g clip-path="url(#73d0df2d18)"><g clip-path="url(#8764f8e919)"><g clip-path="url(#99b854bf8e)"><rect x="-227.473598" width="323.827186" fill="#780f26" height="465.177571" y="-302.068796" fill-opacity="1"/></g></g></g></g></g></g><g clip-path="url(#e85bd818d0)"><g clip-path="url(#1cc4e585a4)"><g transform="matrix(1, 0, 0, 1, 175, 230)"><g clip-path="url(#588055ca33)"><g clip-path="url(#925546f241)"><g clip-path="url(#5798d27772)"><rect x="-224.473598" width="323.827186" fill="#780f26" height="465.177571" y="-301.068796" fill-opacity="1"/></g></g></g></g></g></g><g clip-path="url(#1d75d831d0)"><g transform="matrix(1, 0, 0, 1, -0.000000000000000111, 9)"><g clip-path="url(#2fc3fa47fc)"><g fill="#791026" fill-opacity="1"><g transform="translate(1.831194, 39.446238)"><g><path d="M 16.34375 -37.609375 L 16.34375 -5.3125 C 16.34375 -3.65625 16.640625 -2.519531 17.234375 -1.90625 C 17.828125 -1.289062 18.671875 -0.984375 19.765625 -0.984375 L 21.21875 -0.984375 L 21.21875 0 L 3.046875 0 L 3.046875 -0.984375 L 4.453125 -0.984375 C 5.859375 -0.984375 6.882812 -1.257812 7.53125 -1.8125 C 8.1875 -2.375 8.515625 -3.5625 8.515625 -5.375 L 8.515625 -25.671875 C 8.515625 -27.953125 8.304688 -29.515625 7.890625 -30.359375 C 7.484375 -31.210938 6.71875 -31.640625 5.59375 -31.640625 C 4.9375 -31.640625 3.882812 -31.40625 2.4375 -30.9375 L 2.109375 -31.859375 L 15.359375 -37.609375 Z M 16.34375 -37.609375 "/></g></g></g><g fill="#791026" fill-opacity="1"><g transform="translate(26.14205, 39.446238)"><g><path d="M 11.671875 -37.609375 C 14.347656 -37.609375 16.535156 -36.722656 18.234375 -34.953125 C 19.941406 -33.179688 20.796875 -30.847656 20.796875 -27.953125 C 20.796875 -25.859375 20.429688 -23.832031 19.703125 -21.875 C 18.984375 -19.914062 17.707031 -17.722656 15.875 -15.296875 C 14.050781 -12.878906 11.492188 -10.023438 8.203125 -6.734375 L 15.84375 -6.734375 C 17.289062 -6.734375 18.359375 -7.046875 19.046875 -7.671875 C 19.734375 -8.304688 20.332031 -9.332031 20.84375 -10.75 L 21.875 -10.75 L 20.25 0 L 0.765625 0 L 0.765625 -0.875 L 5.046875 -6.140625 C 7.867188 -9.609375 9.941406 -12.707031 11.265625 -15.4375 C 12.585938 -18.175781 13.25 -20.882812 13.25 -23.5625 C 13.25 -25.945312 12.738281 -27.832031 11.71875 -29.21875 C 10.707031 -30.613281 9.367188 -31.3125 7.703125 -31.3125 C 6.472656 -31.3125 5.390625 -30.90625 4.453125 -30.09375 C 3.515625 -29.28125 2.863281 -28.1875 2.5 -26.8125 L 1.46875 -27.140625 C 2.082031 -30.398438 3.285156 -32.957031 5.078125 -34.8125 C 6.867188 -36.675781 9.066406 -37.609375 11.671875 -37.609375 Z M 11.671875 -37.609375 "/></g></g></g></g></g></g><g transform="matrix(1, 0, 0, 1, 171, 254)"><g clip-path="url(#6bc862da1a)"><g fill="#791026" fill-opacity="1"><g transform="translate(49.701952, 16.554998)"><g><path d="M -16.34375 37.609375 L -16.34375 5.3125 C -16.34375 3.65625 -16.640625 2.519531 -17.234375 1.90625 C -17.828125 1.289062 -18.671875 0.984375 -19.765625 0.984375 L -21.21875 0.984375 L -21.21875 0 L -3.046875 0 L -3.046875 0.984375 L -4.453125 0.984375 C -5.859375 0.984375 -6.882812 1.257812 -7.53125 1.8125 C -8.1875 2.375 -8.515625 3.5625 -8.515625 5.375 L -8.515625 25.671875 C -8.515625 27.953125 -8.304688 29.515625 -7.890625 30.359375 C -7.484375 31.210938 -6.71875 31.640625 -5.59375 31.640625 C -4.9375 31.640625 -3.882812 31.40625 -2.4375 30.9375 L -2.109375 31.859375 L -15.359375 37.609375 Z M -16.34375 37.609375 "/></g></g></g><g fill="#791026" fill-opacity="1"><g transform="translate(25.391096, 16.554998)"><g><path d="M -11.671875 37.609375 C -14.347656 37.609375 -16.535156 36.722656 -18.234375 34.953125 C -19.941406 33.179688 -20.796875 30.847656 -20.796875 27.953125 C -20.796875 25.859375 -20.429688 23.832031 -19.703125 21.875 C -18.984375 19.914062 -17.707031 17.722656 -15.875 15.296875 C -14.050781 12.878906 -11.492188 10.023438 -8.203125 6.734375 L -15.84375 6.734375 C -17.289062 6.734375 -18.359375 7.046875 -19.046875 7.671875 C -19.734375 8.304688 -20.332031 9.332031 -20.84375 10.75 L -21.875 10.75 L -20.25 0 L -0.765625 0 L -0.765625 0.875 L -5.046875 6.140625 C -7.867188 9.609375 -9.941406 12.707031 -11.265625 15.4375 C -12.585938 18.175781 -13.25 20.882812 -13.25 23.5625 C -13.25 25.945312 -12.738281 27.832031 -11.71875 29.21875 C -10.707031 30.613281 -9.367188 31.3125 -7.703125 31.3125 C -6.472656 31.3125 -5.390625 30.90625 -4.453125 30.09375 C -3.515625 29.28125 -2.863281 28.1875 -2.5 26.8125 L -1.46875 27.140625 C -2.082031 30.398438 -3.285156 32.957031 -5.078125 34.8125 C -6.867188 36.675781 -9.066406 37.609375 -11.671875 37.609375 Z M -11.671875 37.609375 "/></g></g></g></g></g></svg>