<svg xmlns="http://www.w3.org/2000/svg" xmlns:xlink="http://www.w3.org/1999/xlink" width="300" zoomAndPan="magnify" viewBox="0 0 224.87999 323.03998" height="420" preserveAspectRatio="xMidYMid meet" version="1.0"><defs><g/><clipPath id="b4b74e38bb"><path d="M 0.273438 0 L 224.488281 0 L 224.488281 313.871094 L 0.273438 313.871094 Z M 0.273438 0 " clip-rule="nonzero"/></clipPath><clipPath id="5263a18acf"><path d="M 18.289062 0.691406 C 8.402344 0.714844 0.53125 8.722656 0.53125 18.488281 L 0.53125 295.582031 C 0.53125 305.484375 8.550781 313.378906 18.328125 313.378906 L 206.550781 313.378906 C 216.4375 313.378906 224.335938 305.371094 224.347656 295.609375 L 224.347656 18.460938 C 224.335938 8.585938 216.335938 0.714844 206.585938 0.691406 Z M 18.289062 0.691406 " clip-rule="nonzero"/></clipPath><clipPath id="fec8cc94fb"><path d="M 0.511719 0.480469 L 224.488281 0.480469 L 224.488281 313.46875 L 0.511719 313.46875 Z M 0.511719 0.480469 " clip-rule="nonzero"/></clipPath><clipPath id="752e3ecb9d"><path d="M 18.289062 0.691406 C 8.402344 0.714844 0.53125 8.722656 0.53125 18.488281 L 0.53125 295.582031 C 0.53125 305.484375 8.550781 313.378906 18.328125 313.378906 L 206.550781 313.378906 C 216.4375 313.378906 224.335938 305.371094 224.347656 295.609375 L 224.347656 18.460938 C 224.335938 8.585938 216.335938 0.714844 206.585938 0.691406 Z M 18.289062 0.691406 " clip-rule="nonzero"/></clipPath><clipPath id="77ca7fcf73"><rect x="0" width="225" y="0" height="314"/></clipPath><clipPath id="d64e213979"><path d="M 0.273438 0 L 224.488281 0 L 224.488281 313.871094 L 0.273438 313.871094 Z M 0.273438 0 " clip-rule="nonzero"/></clipPath><clipPath id="a857fb148d"><path d="M 206.550781 1.316406 C 215.988281 1.316406 223.71875 8.9375 223.71875 18.488281 L 223.71875 295.582031 C 223.71875 305.019531 216.101562 312.753906 206.550781 312.753906 L 18.328125 312.753906 C 8.890625 312.753906 1.15625 305.132812 1.15625 295.582031 L 1.15625 18.488281 C 1.15625 9.050781 8.777344 1.316406 18.328125 1.316406 Z M 13.527344 0.691406 C 7.171875 2.394531 2.222656 7.394531 0.53125 13.699219 L 0.53125 300.371094 C 2.234375 306.726562 7.234375 311.6875 13.539062 313.367188 L 211.351562 313.367188 C 217.703125 311.664062 222.667969 306.664062 224.347656 300.359375 L 224.347656 13.6875 C 222.65625 7.347656 217.640625 2.382812 211.335938 0.691406 Z M 13.527344 0.691406 " clip-rule="nonzero"/></clipPath><clipPath id="4aded2d769"><path d="M 0.511719 0.480469 L 224.488281 0.480469 L 224.488281 313.46875 L 0.511719 313.46875 Z M 0.511719 0.480469 " clip-rule="nonzero"/></clipPath><clipPath id="92789767e5"><path d="M 206.550781 1.316406 C 215.988281 1.316406 223.71875 8.9375 223.71875 18.488281 L 223.71875 295.582031 C 223.71875 305.019531 216.101562 312.753906 206.550781 312.753906 L 18.328125 312.753906 C 8.890625 312.753906 1.15625 305.132812 1.15625 295.582031 L 1.15625 18.488281 C 1.15625 9.050781 8.777344 1.316406 18.328125 1.316406 Z M 13.527344 0.691406 C 7.171875 2.394531 2.222656 7.394531 0.53125 13.699219 L 0.53125 300.371094 C 2.234375 306.726562 7.234375 311.6875 13.539062 313.367188 L 211.351562 313.367188 C 217.703125 311.664062 222.667969 306.664062 224.347656 300.359375 L 224.347656 13.6875 C 222.65625 7.347656 217.640625 2.382812 211.335938 0.691406 Z M 13.527344 0.691406 " clip-rule="nonzero"/></clipPath><clipPath id="088525d7fb"><rect x="0" width="225" y="0" height="314"/></clipPath><clipPath id="ce9ebbcd04"><path d="M 27.5 68.285156 L 197.378906 68.285156 L 197.378906 230.777344 L 27.5 230.777344 Z M 27.5 68.285156 " clip-rule="nonzero"/></clipPath><clipPath id="f3f8e3f775"><path d="M 112.4375 68.996094 L 138.632812 122.011719 L 197.164062 130.535156 L 154.800781 171.769531 L 164.828125 230.046875 L 112.4375 202.601562 L 60.175781 230.046875 L 70.074219 171.769531 L 27.839844 130.535156 L 86.367188 122.011719 Z M 112.4375 68.996094 " clip-rule="nonzero"/></clipPath><clipPath id="6819001db7"><path d="M 0.792969 0.914062 L 170.207031 0.914062 L 170.207031 162.195312 L 0.792969 162.195312 Z M 0.792969 0.914062 " clip-rule="nonzero"/></clipPath><clipPath id="f3b67c58f8"><path d="M 85.4375 0.996094 L 111.632812 54.011719 L 170.164062 62.535156 L 127.800781 103.769531 L 137.828125 162.046875 L 85.4375 134.601562 L 33.175781 162.046875 L 43.074219 103.769531 L 0.839844 62.535156 L 59.367188 54.011719 Z M 85.4375 0.996094 " clip-rule="nonzero"/></clipPath><clipPath id="cc7bd8e364"><rect x="0" width="171" y="0" height="163"/></clipPath><clipPath id="74777eb39c"><path d="M 11 51.664062 L 56 51.664062 L 56 95 L 11 95 Z M 11 51.664062 " clip-rule="nonzero"/></clipPath><clipPath id="def6d08021"><path d="M 33.640625 51.789062 L 40.523438 65.539062 L 55.824219 67.980469 L 44.734375 78.847656 L 47.390625 94.148438 L 33.640625 86.832031 L 19.894531 94.148438 L 22.550781 78.847656 L 11.246094 67.980469 L 26.773438 65.539062 Z M 33.640625 51.789062 " clip-rule="nonzero"/></clipPath><clipPath id="e9bea44ca8"><path d="M 0.0429688 0.6875 L 45 0.6875 L 45 43.28125 L 0.0429688 43.28125 Z M 0.0429688 0.6875 " clip-rule="nonzero"/></clipPath><clipPath id="2fbddf74c4"><path d="M 22.640625 0.789062 L 29.523438 14.539062 L 44.824219 16.980469 L 33.734375 27.847656 L 36.390625 43.148438 L 22.640625 35.832031 L 8.894531 43.148438 L 11.550781 27.847656 L 0.246094 16.980469 L 15.773438 14.539062 Z M 22.640625 0.789062 " clip-rule="nonzero"/></clipPath><clipPath id="a083d2a961"><rect x="0" width="45" y="0" height="44"/></clipPath><clipPath id="30db4ab13d"><path d="M 173.375 219 L 218.613281 219 L 218.613281 262 L 173.375 262 Z M 173.375 219 " clip-rule="nonzero"/></clipPath><clipPath id="20085de9ef"><path d="M 195.894531 261.78125 L 189.015625 248.03125 L 173.710938 245.589844 L 184.804688 234.722656 L 182.148438 219.417969 L 195.894531 226.738281 L 209.644531 219.417969 L 206.988281 234.722656 L 218.292969 245.589844 L 202.765625 248.03125 Z M 195.894531 261.78125 " clip-rule="nonzero"/></clipPath><clipPath id="a0248dadcd"><path d="M 0.519531 0.1875 L 45.503906 0.1875 L 45.503906 42.78125 L 0.519531 42.78125 Z M 0.519531 0.1875 " clip-rule="nonzero"/></clipPath><clipPath id="06e5852ece"><path d="M 22.894531 42.78125 L 16.015625 29.03125 L 0.710938 26.589844 L 11.804688 15.722656 L 9.148438 0.417969 L 22.894531 7.738281 L 36.644531 0.417969 L 33.988281 15.722656 L 45.292969 26.589844 L 29.765625 29.03125 Z M 22.894531 42.78125 " clip-rule="nonzero"/></clipPath><clipPath id="276386ea41"><rect x="0" width="46" y="0" height="43"/></clipPath><clipPath id="74575a71fb"><rect x="0" width="26" y="0" height="56"/></clipPath><clipPath id="a87090fc3a"><rect x="0" width="27" y="0" height="56"/></clipPath></defs><g clip-path="url(#b4b74e38bb)"><g clip-path="url(#5263a18acf)"><g transform="matrix(1, 0, 0, 1, 0, 0)"><g clip-path="url(#77ca7fcf73)"><g clip-path="url(#fec8cc94fb)"><g clip-path="url(#752e3ecb9d)"><rect x="-49.473598" width="323.827186" fill="#f5f5f2" height="465.177571" y="-71.068796" fill-opacity="1"/></g></g></g></g></g></g><g clip-path="url(#d64e213979)"><g clip-path="url(#a857fb148d)"><g transform="matrix(1, 0, 0, 1, 0, 0)"><g clip-path="url(#088525d7fb)"><g clip-path="url(#4aded2d769)"><g clip-path="url(#92789767e5)"><rect x="-49.473598" width="323.827186" fill="#000000" height="465.177571" y="-71.068796" fill-opacity="1"/></g></g></g></g></g></g><g clip-path="url(#ce9ebbcd04)"><g clip-path="url(#f3f8e3f775)"><g transform="matrix(1, 0, 0, 1, 27, 68)"><g clip-path="url(#cc7bd8e364)"><g clip-path="url(#6819001db7)"><g clip-path="url(#f3b67c58f8)"><rect x="-76.473598" width="323.827186" fill="#7d1229" height="465.177571" y="-139.068796" fill-opacity="1"/></g></g></g></g></g></g><g clip-path="url(#74777eb39c)"><g clip-path="url(#def6d08021)"><g transform="matrix(1, 0, 0, 1, 11, 51)"><g clip-path="url(#a083d2a961)"><g clip-path="url(#e9bea44ca8)"><g clip-path="url(#2fbddf74c4)"><rect x="-60.473598" width="323.827186" fill="#7d1229" height="465.177571" y="-122.068796" fill-opacity="1"/></g></g></g></g></g></g><g clip-path="url(#30db4ab13d)"><g clip-path="url(#20085de9ef)"><g transform="matrix(1, 0, 0, 1, 173, 219)"><g clip-path="url(#276386ea41)"><g clip-path="url(#a0248dadcd)"><g clip-path="url(#06e5852ece)"><rect x="-222.473598" width="323.827186" fill="#7d1229" height="465.177571" y="-290.068796" fill-opacity="1"/></g></g></g></g></g></g><g fill="#ffffff" fill-opacity="1"><g transform="translate(206.878502, 233.392404)"><g><path d="M -4.46875 0 L -4.46875 9.1875 L -1.296875 9.1875 L -1.296875 11.03125 L -1.59375 11.03125 C -2.664062 11.03125 -3.476562 11.234375 -4.03125 11.640625 C -4.59375 12.046875 -4.894531 12.613281 -4.9375 13.34375 L -7.109375 13.34375 L -7.109375 0 Z M -4.46875 0 "/></g></g></g><g fill="#ffffff" fill-opacity="1"><g transform="translate(196.432412, 233.392404)"><g><path d="M -5.359375 11.234375 C -4.679688 11.234375 -4.160156 10.929688 -3.796875 10.328125 C -3.429688 9.734375 -3.21875 8.8125 -3.15625 7.5625 L -3.203125 7.515625 C -3.671875 8.253906 -4.503906 8.625 -5.703125 8.625 C -6.484375 8.625 -7.179688 8.445312 -7.796875 8.09375 C -8.421875 7.738281 -8.90625 7.242188 -9.25 6.609375 C -9.601562 5.984375 -9.78125 5.285156 -9.78125 4.515625 C -9.78125 3.566406 -9.597656 2.722656 -9.234375 1.984375 C -8.867188 1.253906 -8.351562 0.679688 -7.6875 0.265625 C -7.03125 -0.148438 -6.269531 -0.359375 -5.40625 -0.359375 C -3.800781 -0.359375 -2.59375 0.179688 -1.78125 1.265625 C -0.976562 2.359375 -0.578125 4.054688 -0.578125 6.359375 C -0.578125 8.734375 -0.988281 10.488281 -1.8125 11.625 C -2.644531 12.769531 -3.882812 13.34375 -5.53125 13.34375 C -7.894531 13.289062 -9.222656 12.164062 -9.515625 9.96875 L -6.90625 9.96875 C -6.851562 10.363281 -6.703125 10.671875 -6.453125 10.890625 C -6.203125 11.117188 -5.835938 11.234375 -5.359375 11.234375 Z M -7.140625 4.28125 C -7.140625 4.96875 -6.953125 5.507812 -6.578125 5.90625 C -6.210938 6.3125 -5.753906 6.515625 -5.203125 6.515625 C -4.617188 6.515625 -4.140625 6.3125 -3.765625 5.90625 C -3.398438 5.5 -3.21875 4.941406 -3.21875 4.234375 C -3.21875 3.503906 -3.40625 2.90625 -3.78125 2.4375 C -4.164062 1.976562 -4.671875 1.75 -5.296875 1.75 C -5.859375 1.75 -6.304688 1.972656 -6.640625 2.421875 C -6.972656 2.867188 -7.140625 3.488281 -7.140625 4.28125 Z M -7.140625 4.28125 "/></g></g></g><g fill="#ffffff" fill-opacity="1"><g transform="translate(22.905295, 77.025542)"><g><path d="M 4.46875 0 L 4.46875 -9.1875 L 1.296875 -9.1875 L 1.296875 -11.03125 L 1.59375 -11.03125 C 2.664062 -11.03125 3.476562 -11.234375 4.03125 -11.640625 C 4.59375 -12.046875 4.894531 -12.613281 4.9375 -13.34375 L 7.109375 -13.34375 L 7.109375 0 Z M 4.46875 0 "/></g></g></g><g fill="#ffffff" fill-opacity="1"><g transform="translate(33.351385, 77.025542)"><g><path d="M 5.359375 -11.234375 C 4.679688 -11.234375 4.160156 -10.929688 3.796875 -10.328125 C 3.429688 -9.734375 3.21875 -8.8125 3.15625 -7.5625 L 3.203125 -7.515625 C 3.671875 -8.253906 4.503906 -8.625 5.703125 -8.625 C 6.484375 -8.625 7.179688 -8.445312 7.796875 -8.09375 C 8.421875 -7.738281 8.90625 -7.242188 9.25 -6.609375 C 9.601562 -5.984375 9.78125 -5.285156 9.78125 -4.515625 C 9.78125 -3.566406 9.597656 -2.722656 9.234375 -1.984375 C 8.867188 -1.253906 8.351562 -0.679688 7.6875 -0.265625 C 7.03125 0.148438 6.269531 0.359375 5.40625 0.359375 C 3.800781 0.359375 2.59375 -0.179688 1.78125 -1.265625 C 0.976562 -2.359375 0.578125 -4.054688 0.578125 -6.359375 C 0.578125 -8.734375 0.988281 -10.488281 1.8125 -11.625 C 2.644531 -12.769531 3.882812 -13.34375 5.53125 -13.34375 C 7.894531 -13.289062 9.222656 -12.164062 9.515625 -9.96875 L 6.90625 -9.96875 C 6.851562 -10.363281 6.703125 -10.671875 6.453125 -10.890625 C 6.203125 -11.117188 5.835938 -11.234375 5.359375 -11.234375 Z M 7.140625 -4.28125 C 7.140625 -4.96875 6.953125 -5.507812 6.578125 -5.90625 C 6.210938 -6.3125 5.753906 -6.515625 5.203125 -6.515625 C 4.617188 -6.515625 4.140625 -6.3125 3.765625 -5.90625 C 3.398438 -5.5 3.21875 -4.941406 3.21875 -4.234375 C 3.21875 -3.503906 3.40625 -2.90625 3.78125 -2.4375 C 4.164062 -1.976562 4.671875 -1.75 5.296875 -1.75 C 5.859375 -1.75 6.304688 -1.972656 6.640625 -2.421875 C 6.972656 -2.867188 7.140625 -3.488281 7.140625 -4.28125 Z M 7.140625 -4.28125 "/></g></g></g><g transform="matrix(1, 0, 0, 1, 183, 254)"><g clip-path="url(#74575a71fb)"><g fill="#791026" fill-opacity="1"><g transform="translate(25.556427, 16.555058)"><g><path d="M -12.703125 37.609375 C -15.554688 37.609375 -17.832031 36.867188 -19.53125 35.390625 C -21.238281 33.910156 -22.09375 31.9375 -22.09375 29.46875 C -22.09375 27.769531 -21.640625 26.269531 -20.734375 24.96875 C -19.828125 23.664062 -18.363281 22.453125 -16.34375 21.328125 C -18.4375 19.703125 -20.007812 17.984375 -21.0625 16.171875 C -22.113281 14.367188 -22.640625 12.34375 -22.640625 10.09375 C -22.640625 8.03125 -22.175781 6.179688 -21.25 4.546875 C -20.320312 2.921875 -19.023438 1.644531 -17.359375 0.71875 C -15.703125 -0.195312 -13.820312 -0.65625 -11.71875 -0.65625 C -9.875 -0.65625 -8.179688 -0.226562 -6.640625 0.625 C -5.109375 1.476562 -3.898438 2.644531 -3.015625 4.125 C -2.128906 5.601562 -1.6875 7.234375 -1.6875 9.015625 C -1.6875 12.921875 -3.984375 15.867188 -8.578125 17.859375 C -6.367188 19.484375 -4.765625 21.097656 -3.765625 22.703125 C -2.773438 24.316406 -2.28125 26.140625 -2.28125 28.171875 C -2.28125 30.992188 -3.238281 33.269531 -5.15625 35 C -7.070312 36.738281 -9.585938 37.609375 -12.703125 37.609375 Z M -8.90625 31.15625 C -8.90625 29.78125 -9.347656 28.429688 -10.234375 27.109375 C -11.117188 25.785156 -12.59375 24.3125 -14.65625 22.6875 C -15.664062 24.175781 -16.171875 26.398438 -16.171875 29.359375 C -16.171875 31.316406 -15.878906 32.898438 -15.296875 34.109375 C -14.722656 35.328125 -13.800781 35.9375 -12.53125 35.9375 C -11.519531 35.9375 -10.660156 35.484375 -9.953125 34.578125 C -9.253906 33.671875 -8.90625 32.53125 -8.90625 31.15625 Z M -9.9375 16.671875 C -8.5625 15.222656 -7.875 12.613281 -7.875 8.84375 C -7.875 3.707031 -9.300781 1.140625 -12.15625 1.140625 C -13.351562 1.140625 -14.265625 1.628906 -14.890625 2.609375 C -15.523438 3.585938 -15.84375 4.941406 -15.84375 6.671875 C -15.84375 8.554688 -15.375 10.320312 -14.4375 11.96875 C -13.5 13.613281 -12 15.179688 -9.9375 16.671875 Z M -9.9375 16.671875 "/></g></g></g></g></g><g transform="matrix(1, 0, 0, 1, 13, 9)"><g clip-path="url(#a87090fc3a)"><g fill="#791026" fill-opacity="1"><g transform="translate(0.976719, 39.446273)"><g><path d="M 12.703125 -37.609375 C 15.554688 -37.609375 17.832031 -36.867188 19.53125 -35.390625 C 21.238281 -33.910156 22.09375 -31.9375 22.09375 -29.46875 C 22.09375 -27.769531 21.640625 -26.269531 20.734375 -24.96875 C 19.828125 -23.664062 18.363281 -22.453125 16.34375 -21.328125 C 18.4375 -19.703125 20.007812 -17.984375 21.0625 -16.171875 C 22.113281 -14.367188 22.640625 -12.34375 22.640625 -10.09375 C 22.640625 -8.03125 22.175781 -6.179688 21.25 -4.546875 C 20.320312 -2.921875 19.023438 -1.644531 17.359375 -0.71875 C 15.703125 0.195312 13.820312 0.65625 11.71875 0.65625 C 9.875 0.65625 8.179688 0.226562 6.640625 -0.625 C 5.109375 -1.476562 3.898438 -2.644531 3.015625 -4.125 C 2.128906 -5.601562 1.6875 -7.234375 1.6875 -9.015625 C 1.6875 -12.921875 3.984375 -15.867188 8.578125 -17.859375 C 6.367188 -19.484375 4.765625 -21.097656 3.765625 -22.703125 C 2.773438 -24.316406 2.28125 -26.140625 2.28125 -28.171875 C 2.28125 -30.992188 3.238281 -33.269531 5.15625 -35 C 7.070312 -36.738281 9.585938 -37.609375 12.703125 -37.609375 Z M 8.90625 -31.15625 C 8.90625 -29.78125 9.347656 -28.429688 10.234375 -27.109375 C 11.117188 -25.785156 12.59375 -24.3125 14.65625 -22.6875 C 15.664062 -24.175781 16.171875 -26.398438 16.171875 -29.359375 C 16.171875 -31.316406 15.878906 -32.898438 15.296875 -34.109375 C 14.722656 -35.328125 13.800781 -35.9375 12.53125 -35.9375 C 11.519531 -35.9375 10.660156 -35.484375 9.953125 -34.578125 C 9.253906 -33.671875 8.90625 -32.53125 8.90625 -31.15625 Z M 9.9375 -16.671875 C 8.5625 -15.222656 7.875 -12.613281 7.875 -8.84375 C 7.875 -3.707031 9.300781 -1.140625 12.15625 -1.140625 C 13.351562 -1.140625 14.265625 -1.628906 14.890625 -2.609375 C 15.523438 -3.585938 15.84375 -4.941406 15.84375 -6.671875 C 15.84375 -8.554688 15.375 -10.320312 14.4375 -11.96875 C 13.5 -13.613281 12 -15.179688 9.9375 -16.671875 Z M 9.9375 -16.671875 "/></g></g></g></g></g></svg>