<svg xmlns="http://www.w3.org/2000/svg" xmlns:xlink="http://www.w3.org/1999/xlink" width="300" zoomAndPan="magnify" viewBox="0 0 224.87999 323.03998" height="420" preserveAspectRatio="xMidYMid meet" version="1.0"><defs><g/><clipPath id="be74d17645"><path d="M 0.273438 0 L 224.488281 0 L 224.488281 313.871094 L 0.273438 313.871094 Z M 0.273438 0 " clip-rule="nonzero"/></clipPath><clipPath id="ab35fadc50"><path d="M 18.328125 0.691406 C 8.425781 0.691406 0.53125 8.710938 0.53125 18.488281 L 0.53125 295.582031 C 0.53125 305.472656 8.527344 313.355469 18.289062 313.378906 L 206.597656 313.378906 C 216.464844 313.355469 224.335938 305.371094 224.359375 295.621094 L 224.359375 18.449219 C 224.335938 8.5625 216.3125 0.691406 206.550781 0.691406 Z M 18.328125 0.691406 " clip-rule="nonzero"/></clipPath><clipPath id="9d2ed508dd"><path d="M 0.511719 0.480469 L 224.488281 0.480469 L 224.488281 313.46875 L 0.511719 313.46875 Z M 0.511719 0.480469 " clip-rule="nonzero"/></clipPath><clipPath id="951ecd342e"><path d="M 18.328125 0.691406 C 8.425781 0.691406 0.53125 8.710938 0.53125 18.488281 L 0.53125 295.582031 C 0.53125 305.472656 8.527344 313.355469 18.289062 313.378906 L 206.597656 313.378906 C 216.464844 313.355469 224.335938 305.371094 224.359375 295.621094 L 224.359375 18.449219 C 224.335938 8.5625 216.3125 0.691406 206.550781 0.691406 Z M 18.328125 0.691406 " clip-rule="nonzero"/></clipPath><clipPath id="20476532f2"><rect x="0" width="225" y="0" height="314"/></clipPath><clipPath id="22603d70c6"><path d="M 0.273438 0 L 224.488281 0 L 224.488281 313.871094 L 0.273438 313.871094 Z M 0.273438 0 " clip-rule="nonzero"/></clipPath><clipPath id="aed9bc7c00"><path d="M 206.550781 1.316406 C 215.988281 1.316406 223.71875 8.9375 223.71875 18.488281 L 223.71875 295.582031 C 223.71875 305.019531 216.101562 312.753906 206.550781 312.753906 L 18.328125 312.753906 C 8.890625 312.753906 1.15625 305.132812 1.15625 295.582031 L 1.15625 18.488281 C 1.15625 9.050781 8.777344 1.316406 18.328125 1.316406 Z M 13.527344 0.691406 C 7.183594 2.394531 2.222656 7.394531 0.53125 13.699219 L 0.53125 300.371094 C 2.234375 306.726562 7.234375 311.6875 13.539062 313.367188 L 211.351562 313.367188 C 217.703125 311.664062 222.667969 306.664062 224.347656 300.359375 L 224.347656 13.6875 C 222.65625 7.347656 217.640625 2.382812 211.335938 0.691406 Z M 13.527344 0.691406 " clip-rule="nonzero"/></clipPath><clipPath id="cd8ac85760"><path d="M 0.511719 0.480469 L 224.488281 0.480469 L 224.488281 313.46875 L 0.511719 313.46875 Z M 0.511719 0.480469 " clip-rule="nonzero"/></clipPath><clipPath id="f3689292c3"><path d="M 206.550781 1.316406 C 215.988281 1.316406 223.71875 8.9375 223.71875 18.488281 L 223.71875 295.582031 C 223.71875 305.019531 216.101562 312.753906 206.550781 312.753906 L 18.328125 312.753906 C 8.890625 312.753906 1.15625 305.132812 1.15625 295.582031 L 1.15625 18.488281 C 1.15625 9.050781 8.777344 1.316406 18.328125 1.316406 Z M 13.527344 0.691406 C 7.183594 2.394531 2.222656 7.394531 0.53125 13.699219 L 0.53125 300.371094 C 2.234375 306.726562 7.234375 311.6875 13.539062 313.367188 L 211.351562 313.367188 C 217.703125 311.664062 222.667969 306.664062 224.347656 300.359375 L 224.347656 13.6875 C 222.65625 7.347656 217.640625 2.382812 211.335938 0.691406 Z M 13.527344 0.691406 " clip-rule="nonzero"/></clipPath><clipPath id="e4161fb667"><rect x="0" width="225" y="0" height="314"/></clipPath><clipPath id="474dad840e"><path d="M 45.042969 91.367188 L 170.605469 91.367188 L 170.605469 212 L 45.042969 212 Z M 45.042969 91.367188 " clip-rule="nonzero"/></clipPath><clipPath id="4c05b1923a"><path d="M 107.925781 91.679688 L 45.261719 211.988281 L 170.578125 211.988281 Z M 107.925781 91.679688 " clip-rule="nonzero"/></clipPath><clipPath id="7ec0e379e1"><path d="M 0.257812 0.648438 L 125.605469 0.648438 L 125.605469 121 L 0.257812 121 Z M 0.257812 0.648438 " clip-rule="nonzero"/></clipPath><clipPath id="b8fb559fa1"><path d="M 62.925781 0.679688 L 0.261719 120.988281 L 125.578125 120.988281 Z M 62.925781 0.679688 " clip-rule="nonzero"/></clipPath><clipPath id="580e76c483"><rect x="0" width="126" y="0" height="121"/></clipPath><clipPath id="5a1393cf49"><path d="M 41 86 L 175 86 L 175 215 L 41 215 Z M 41 86 " clip-rule="nonzero"/></clipPath><clipPath id="bd63150465"><path d="M 110.15625 92.835938 L 47.492188 213.140625 L 45.273438 211.988281 L 45.273438 209.480469 L 170.59375 209.480469 L 170.59375 211.988281 L 168.375 213.140625 L 105.707031 92.835938 L 107.925781 91.679688 L 110.144531 92.835938 M 105.695312 90.515625 L 107.914062 86.242188 L 110.132812 90.515625 L 172.796875 210.820312 L 174.703125 214.480469 L 41.136719 214.480469 L 43.042969 210.820312 L 105.707031 90.515625 Z M 105.695312 90.515625 " clip-rule="nonzero"/></clipPath><clipPath id="9239a77533"><path d="M 0 0.144531 L 133.714844 0.144531 L 133.714844 128.640625 L 0 128.640625 Z M 0 0.144531 " clip-rule="nonzero"/></clipPath><clipPath id="37e4f77416"><path d="M 69.15625 6.835938 L 6.492188 127.140625 L 4.273438 125.988281 L 4.273438 123.480469 L 129.59375 123.480469 L 129.59375 125.988281 L 127.375 127.140625 L 64.707031 6.835938 L 66.925781 5.679688 L 69.144531 6.835938 M 64.695312 4.515625 L 66.914062 0.242188 L 69.132812 4.515625 L 131.796875 124.820312 L 133.703125 128.480469 L 0.136719 128.480469 L 2.042969 124.820312 L 64.707031 4.515625 Z M 64.695312 4.515625 " clip-rule="nonzero"/></clipPath><clipPath id="3c4d8a1091"><rect x="0" width="134" y="0" height="129"/></clipPath><clipPath id="f905c11588"><path d="M 10 52 L 41 52 L 41 82 L 10 82 Z M 10 52 " clip-rule="nonzero"/></clipPath><clipPath id="710761bf34"><path d="M 25.558594 52.515625 L 10.332031 81.753906 L 40.785156 81.753906 Z M 25.558594 52.515625 " clip-rule="nonzero"/></clipPath><clipPath id="158f0d31a0"><path d="M 0.324219 0.402344 L 30.953125 0.402344 L 30.953125 29.835938 L 0.324219 29.835938 Z M 0.324219 0.402344 " clip-rule="nonzero"/></clipPath><clipPath id="39b86fb5ee"><path d="M 15.558594 0.515625 L 0.332031 29.753906 L 30.785156 29.753906 Z M 15.558594 0.515625 " clip-rule="nonzero"/></clipPath><clipPath id="f025a7a124"><rect x="0" width="31" y="0" height="30"/></clipPath><clipPath id="d2765db62b"><path d="M 7.1875 49 L 44 49 L 44 83.980469 L 7.1875 83.980469 Z M 7.1875 49 " clip-rule="nonzero"/></clipPath><clipPath id="84f077797a"><path d="M 26.910156 53.21875 L 11.683594 82.457031 L 10.332031 81.753906 L 10.332031 80.226562 L 40.785156 80.226562 L 40.785156 81.753906 L 39.433594 82.457031 L 24.203125 53.21875 L 25.558594 52.515625 L 26.910156 53.21875 M 24.203125 51.8125 L 25.558594 49.21875 L 26.910156 51.8125 L 42.140625 81.039062 L 43.304688 83.273438 L 7.835938 83.273438 L 9.003906 81.039062 L 24.203125 51.800781 Z M 24.203125 51.8125 " clip-rule="nonzero"/></clipPath><clipPath id="169c84d637"><path d="M 0.691406 0.0546875 L 36.34375 0.0546875 L 36.34375 34.273438 L 0.691406 34.273438 Z M 0.691406 0.0546875 " clip-rule="nonzero"/></clipPath><clipPath id="de288e649f"><path d="M 19.910156 4.21875 L 4.683594 33.457031 L 3.332031 32.753906 L 3.332031 31.226562 L 33.785156 31.226562 L 33.785156 32.753906 L 32.433594 33.457031 L 17.203125 4.21875 L 18.558594 3.515625 L 19.910156 4.21875 M 17.203125 2.8125 L 18.558594 0.21875 L 19.910156 2.8125 L 35.140625 32.039062 L 36.304688 34.273438 L 0.835938 34.273438 L 2.003906 32.039062 L 17.203125 2.800781 Z M 17.203125 2.8125 " clip-rule="nonzero"/></clipPath><clipPath id="b2f2243c94"><rect x="0" width="37" y="0" height="35"/></clipPath><clipPath id="3df3fdba51"><path d="M 178 231.699219 L 209 231.699219 L 209 261.246094 L 178 261.246094 Z M 178 231.699219 " clip-rule="nonzero"/></clipPath><clipPath id="ea8036d5ce"><path d="M 193.339844 261.117188 L 208.566406 231.878906 L 178.113281 231.878906 Z M 193.339844 261.117188 " clip-rule="nonzero"/></clipPath><clipPath id="7e97ce34e9"><path d="M 0.0664062 0.871094 L 30.695312 0.871094 L 30.695312 30.246094 L 0.0664062 30.246094 Z M 0.0664062 0.871094 " clip-rule="nonzero"/></clipPath><clipPath id="09793fda44"><path d="M 15.339844 30.117188 L 30.566406 0.878906 L 0.113281 0.878906 Z M 15.339844 30.117188 " clip-rule="nonzero"/></clipPath><clipPath id="6c5702a1f5"><rect x="0" width="31" y="0" height="31"/></clipPath><clipPath id="3ef3c57416"><path d="M 175.222656 230 L 211.226562 230 L 211.226562 264.9375 L 175.222656 264.9375 Z M 175.222656 230 " clip-rule="nonzero"/></clipPath><clipPath id="da86baf1c4"><path d="M 191.984375 260.402344 L 207.214844 231.164062 L 208.566406 231.863281 L 208.566406 233.394531 L 178.113281 233.394531 L 178.113281 231.863281 L 179.464844 231.164062 L 194.691406 260.402344 L 193.339844 261.105469 L 191.984375 260.402344 M 194.691406 261.804688 L 193.339844 264.402344 L 191.984375 261.804688 L 176.757812 232.566406 L 175.59375 230.335938 L 211.0625 230.335938 L 209.894531 232.566406 L 194.667969 261.804688 Z M 194.691406 261.804688 " clip-rule="nonzero"/></clipPath><clipPath id="1cb88184a2"><path d="M 0.433594 0.195312 L 36.085938 0.195312 L 36.085938 34.414062 L 0.433594 34.414062 Z M 0.433594 0.195312 " clip-rule="nonzero"/></clipPath><clipPath id="d315ab4119"><path d="M 16.984375 30.402344 L 32.214844 1.164062 L 33.566406 1.863281 L 33.566406 3.394531 L 3.113281 3.394531 L 3.113281 1.863281 L 4.464844 1.164062 L 19.691406 30.402344 L 18.339844 31.105469 L 16.984375 30.402344 M 19.691406 31.804688 L 18.339844 34.402344 L 16.984375 31.804688 L 1.757812 2.566406 L 0.59375 0.335938 L 36.0625 0.335938 L 34.894531 2.566406 L 19.667969 31.804688 Z M 19.691406 31.804688 " clip-rule="nonzero"/></clipPath><clipPath id="f2dab70309"><rect x="0" width="37" y="0" height="35"/></clipPath><clipPath id="ffdad8d1c0"><rect x="0" width="27" y="0" height="56"/></clipPath><clipPath id="a1d59a24e2"><rect x="0" width="26" y="0" height="56"/></clipPath></defs><g clip-path="url(#be74d17645)"><g clip-path="url(#ab35fadc50)"><g transform="matrix(1, 0, 0, 1, 0, 0)"><g clip-path="url(#20476532f2)"><g clip-path="url(#9d2ed508dd)"><g clip-path="url(#951ecd342e)"><rect x="-49.473598" width="323.827186" fill="#f5f5f2" height="465.177571" y="-71.068796" fill-opacity="1"/></g></g></g></g></g></g><g clip-path="url(#22603d70c6)"><g clip-path="url(#aed9bc7c00)"><g transform="matrix(1, 0, 0, 1, 0, 0)"><g clip-path="url(#e4161fb667)"><g clip-path="url(#cd8ac85760)"><g clip-path="url(#f3689292c3)"><rect x="-49.473598" width="323.827186" fill="#000000" height="465.177571" y="-71.068796" fill-opacity="1"/></g></g></g></g></g></g><g clip-path="url(#474dad840e)"><g clip-path="url(#4c05b1923a)"><g transform="matrix(1, 0, 0, 1, 45, 91)"><g clip-path="url(#580e76c483)"><g clip-path="url(#7ec0e379e1)"><g clip-path="url(#b8fb559fa1)"><rect x="-94.473598" width="323.827186" fill="#780f26" height="465.177571" y="-162.068796" fill-opacity="1"/></g></g></g></g></g></g><g clip-path="url(#5a1393cf49)"><g clip-path="url(#bd63150465)"><g transform="matrix(1, 0, 0, 1, 41, 86)"><g clip-path="url(#3c4d8a1091)"><g clip-path="url(#9239a77533)"><g clip-path="url(#37e4f77416)"><rect x="-90.473598" width="323.827186" fill="#780f26" height="465.177571" y="-157.068796" fill-opacity="1"/></g></g></g></g></g></g><g clip-path="url(#f905c11588)"><g clip-path="url(#710761bf34)"><g transform="matrix(1, 0, 0, 1, 10, 52)"><g clip-path="url(#f025a7a124)"><g clip-path="url(#158f0d31a0)"><g clip-path="url(#39b86fb5ee)"><rect x="-59.473598" width="323.827186" fill="#780f26" height="465.177571" y="-123.068796" fill-opacity="1"/></g></g></g></g></g></g><g clip-path="url(#d2765db62b)"><g clip-path="url(#84f077797a)"><g transform="matrix(1, 0, 0, 1, 7, 49)"><g clip-path="url(#b2f2243c94)"><g clip-path="url(#169c84d637)"><g clip-path="url(#de288e649f)"><rect x="-56.473598" width="323.827186" fill="#780f26" height="465.177571" y="-120.068796" fill-opacity="1"/></g></g></g></g></g></g><g clip-path="url(#3df3fdba51)"><g clip-path="url(#ea8036d5ce)"><g transform="matrix(1, 0, 0, 1, 178, 231)"><g clip-path="url(#6c5702a1f5)"><g clip-path="url(#7e97ce34e9)"><g clip-path="url(#09793fda44)"><rect x="-227.473598" width="323.827186" fill="#780f26" height="465.177571" y="-302.068796" fill-opacity="1"/></g></g></g></g></g></g><g clip-path="url(#3ef3c57416)"><g clip-path="url(#da86baf1c4)"><g transform="matrix(1, 0, 0, 1, 175, 230)"><g clip-path="url(#f2dab70309)"><g clip-path="url(#1cb88184a2)"><g clip-path="url(#d315ab4119)"><rect x="-224.473598" width="323.827186" fill="#780f26" height="465.177571" y="-301.068796" fill-opacity="1"/></g></g></g></g></g></g><g transform="matrix(1, 0, 0, 1, 13, 9)"><g clip-path="url(#ffdad8d1c0)"><g fill="#791026" fill-opacity="1"><g transform="translate(0.976719, 39.446214)"><g><path d="M 12.703125 -37.609375 C 15.554688 -37.609375 17.832031 -36.867188 19.53125 -35.390625 C 21.238281 -33.910156 22.09375 -31.9375 22.09375 -29.46875 C 22.09375 -27.769531 21.640625 -26.269531 20.734375 -24.96875 C 19.828125 -23.664062 18.363281 -22.453125 16.34375 -21.328125 C 18.4375 -19.703125 20.007812 -17.984375 21.0625 -16.171875 C 22.113281 -14.367188 22.640625 -12.34375 22.640625 -10.09375 C 22.640625 -8.03125 22.175781 -6.179688 21.25 -4.546875 C 20.320312 -2.921875 19.023438 -1.644531 17.359375 -0.71875 C 15.703125 0.195312 13.820312 0.65625 11.71875 0.65625 C 9.875 0.65625 8.179688 0.226562 6.640625 -0.625 C 5.109375 -1.476562 3.898438 -2.644531 3.015625 -4.125 C 2.128906 -5.601562 1.6875 -7.234375 1.6875 -9.015625 C 1.6875 -12.921875 3.984375 -15.867188 8.578125 -17.859375 C 6.367188 -19.484375 4.765625 -21.097656 3.765625 -22.703125 C 2.773438 -24.316406 2.28125 -26.140625 2.28125 -28.171875 C 2.28125 -30.992188 3.238281 -33.269531 5.15625 -35 C 7.070312 -36.738281 9.585938 -37.609375 12.703125 -37.609375 Z M 8.90625 -31.15625 C 8.90625 -29.78125 9.347656 -28.429688 10.234375 -27.109375 C 11.117188 -25.785156 12.59375 -24.3125 14.65625 -22.6875 C 15.664062 -24.175781 16.171875 -26.398438 16.171875 -29.359375 C 16.171875 -31.316406 15.878906 -32.898438 15.296875 -34.109375 C 14.722656 -35.328125 13.800781 -35.9375 12.53125 -35.9375 C 11.519531 -35.9375 10.660156 -35.484375 9.953125 -34.578125 C 9.253906 -33.671875 8.90625 -32.53125 8.90625 -31.15625 Z M 9.9375 -16.671875 C 8.5625 -15.222656 7.875 -12.613281 7.875 -8.84375 C 7.875 -3.707031 9.300781 -1.140625 12.15625 -1.140625 C 13.351562 -1.140625 14.265625 -1.628906 14.890625 -2.609375 C 15.523438 -3.585938 15.84375 -4.941406 15.84375 -6.671875 C 15.84375 -8.554688 15.375 -10.320312 14.4375 -11.96875 C 13.5 -13.613281 12 -15.179688 9.9375 -16.671875 Z M 9.9375 -16.671875 "/></g></g></g></g></g><g transform="matrix(1, 0, 0, 1, 183, 254)"><g clip-path="url(#a1d59a24e2)"><g fill="#791026" fill-opacity="1"><g transform="translate(25.556427, 16.555058)"><g><path d="M -12.703125 37.609375 C -15.554688 37.609375 -17.832031 36.867188 -19.53125 35.390625 C -21.238281 33.910156 -22.09375 31.9375 -22.09375 29.46875 C -22.09375 27.769531 -21.640625 26.269531 -20.734375 24.96875 C -19.828125 23.664062 -18.363281 22.453125 -16.34375 21.328125 C -18.4375 19.703125 -20.007812 17.984375 -21.0625 16.171875 C -22.113281 14.367188 -22.640625 12.34375 -22.640625 10.09375 C -22.640625 8.03125 -22.175781 6.179688 -21.25 4.546875 C -20.320312 2.921875 -19.023438 1.644531 -17.359375 0.71875 C -15.703125 -0.195312 -13.820312 -0.65625 -11.71875 -0.65625 C -9.875 -0.65625 -8.179688 -0.226562 -6.640625 0.625 C -5.109375 1.476562 -3.898438 2.644531 -3.015625 4.125 C -2.128906 5.601562 -1.6875 7.234375 -1.6875 9.015625 C -1.6875 12.921875 -3.984375 15.867188 -8.578125 17.859375 C -6.367188 19.484375 -4.765625 21.097656 -3.765625 22.703125 C -2.773438 24.316406 -2.28125 26.140625 -2.28125 28.171875 C -2.28125 30.992188 -3.238281 33.269531 -5.15625 35 C -7.070312 36.738281 -9.585938 37.609375 -12.703125 37.609375 Z M -8.90625 31.15625 C -8.90625 29.78125 -9.347656 28.429688 -10.234375 27.109375 C -11.117188 25.785156 -12.59375 24.3125 -14.65625 22.6875 C -15.664062 24.175781 -16.171875 26.398438 -16.171875 29.359375 C -16.171875 31.316406 -15.878906 32.898438 -15.296875 34.109375 C -14.722656 35.328125 -13.800781 35.9375 -12.53125 35.9375 C -11.519531 35.9375 -10.660156 35.484375 -9.953125 34.578125 C -9.253906 33.671875 -8.90625 32.53125 -8.90625 31.15625 Z M -9.9375 16.671875 C -8.5625 15.222656 -7.875 12.613281 -7.875 8.84375 C -7.875 3.707031 -9.300781 1.140625 -12.15625 1.140625 C -13.351562 1.140625 -14.265625 1.628906 -14.890625 2.609375 C -15.523438 3.585938 -15.84375 4.941406 -15.84375 6.671875 C -15.84375 8.554688 -15.375 10.320312 -14.4375 11.96875 C -13.5 13.613281 -12 15.179688 -9.9375 16.671875 Z M -9.9375 16.671875 "/></g></g></g></g></g></svg>