<svg xmlns="http://www.w3.org/2000/svg" xmlns:xlink="http://www.w3.org/1999/xlink" width="300" zoomAndPan="magnify" viewBox="0 0 224.87999 323.03998" height="420" preserveAspectRatio="xMidYMid meet" version="1.0"><defs><g/><clipPath id="00af6909c2"><path d="M 0.273438 0 L 224.488281 0 L 224.488281 313.871094 L 0.273438 313.871094 Z M 0.273438 0 " clip-rule="nonzero"/></clipPath><clipPath id="a66db28e63"><path d="M 18.328125 0.691406 C 8.425781 0.691406 0.53125 8.710938 0.53125 18.488281 L 0.53125 295.582031 C 0.53125 305.472656 8.527344 313.355469 18.289062 313.378906 L 206.597656 313.378906 C 216.464844 313.355469 224.335938 305.371094 224.359375 295.621094 L 224.359375 18.449219 C 224.335938 8.5625 216.3125 0.691406 206.550781 0.691406 Z M 18.328125 0.691406 " clip-rule="nonzero"/></clipPath><clipPath id="305bd8a501"><path d="M 0.511719 0.480469 L 224.488281 0.480469 L 224.488281 313.46875 L 0.511719 313.46875 Z M 0.511719 0.480469 " clip-rule="nonzero"/></clipPath><clipPath id="9b088f85d4"><path d="M 18.328125 0.691406 C 8.425781 0.691406 0.53125 8.710938 0.53125 18.488281 L 0.53125 295.582031 C 0.53125 305.472656 8.527344 313.355469 18.289062 313.378906 L 206.597656 313.378906 C 216.464844 313.355469 224.335938 305.371094 224.359375 295.621094 L 224.359375 18.449219 C 224.335938 8.5625 216.3125 0.691406 206.550781 0.691406 Z M 18.328125 0.691406 " clip-rule="nonzero"/></clipPath><clipPath id="fab5f49090"><rect x="0" width="225" y="0" height="314"/></clipPath><clipPath id="09b8be1122"><path d="M 0.273438 0 L 224.488281 0 L 224.488281 313.871094 L 0.273438 313.871094 Z M 0.273438 0 " clip-rule="nonzero"/></clipPath><clipPath id="c373360b13"><path d="M 206.550781 1.316406 C 215.988281 1.316406 223.71875 8.9375 223.71875 18.488281 L 223.71875 295.582031 C 223.71875 305.019531 216.101562 312.753906 206.550781 312.753906 L 18.328125 312.753906 C 8.890625 312.753906 1.15625 305.132812 1.15625 295.582031 L 1.15625 18.488281 C 1.15625 9.050781 8.777344 1.316406 18.328125 1.316406 Z M 13.527344 0.691406 C 7.183594 2.394531 2.222656 7.394531 0.53125 13.699219 L 0.53125 300.371094 C 2.234375 306.726562 7.234375 311.6875 13.539062 313.367188 L 211.351562 313.367188 C 217.703125 311.664062 222.667969 306.664062 224.347656 300.359375 L 224.347656 13.6875 C 222.65625 7.347656 217.640625 2.382812 211.335938 0.691406 Z M 13.527344 0.691406 " clip-rule="nonzero"/></clipPath><clipPath id="63c4ae9060"><path d="M 0.511719 0.480469 L 224.488281 0.480469 L 224.488281 313.46875 L 0.511719 313.46875 Z M 0.511719 0.480469 " clip-rule="nonzero"/></clipPath><clipPath id="e3269e11c0"><path d="M 206.550781 1.316406 C 215.988281 1.316406 223.71875 8.9375 223.71875 18.488281 L 223.71875 295.582031 C 223.71875 305.019531 216.101562 312.753906 206.550781 312.753906 L 18.328125 312.753906 C 8.890625 312.753906 1.15625 305.132812 1.15625 295.582031 L 1.15625 18.488281 C 1.15625 9.050781 8.777344 1.316406 18.328125 1.316406 Z M 13.527344 0.691406 C 7.183594 2.394531 2.222656 7.394531 0.53125 13.699219 L 0.53125 300.371094 C 2.234375 306.726562 7.234375 311.6875 13.539062 313.367188 L 211.351562 313.367188 C 217.703125 311.664062 222.667969 306.664062 224.347656 300.359375 L 224.347656 13.6875 C 222.65625 7.347656 217.640625 2.382812 211.335938 0.691406 Z M 13.527344 0.691406 " clip-rule="nonzero"/></clipPath><clipPath id="5a465a4bc1"><rect x="0" width="225" y="0" height="314"/></clipPath><clipPath id="3bdd174fac"><path d="M 45.042969 91.367188 L 170.605469 91.367188 L 170.605469 212 L 45.042969 212 Z M 45.042969 91.367188 " clip-rule="nonzero"/></clipPath><clipPath id="392d57ec1e"><path d="M 107.925781 91.679688 L 45.261719 211.988281 L 170.578125 211.988281 Z M 107.925781 91.679688 " clip-rule="nonzero"/></clipPath><clipPath id="9f0d03c15a"><path d="M 0.257812 0.648438 L 125.605469 0.648438 L 125.605469 121 L 0.257812 121 Z M 0.257812 0.648438 " clip-rule="nonzero"/></clipPath><clipPath id="543e36795c"><path d="M 62.925781 0.679688 L 0.261719 120.988281 L 125.578125 120.988281 Z M 62.925781 0.679688 " clip-rule="nonzero"/></clipPath><clipPath id="1ac801b94a"><rect x="0" width="126" y="0" height="121"/></clipPath><clipPath id="206f0c8e7d"><path d="M 41 86 L 175 86 L 175 215 L 41 215 Z M 41 86 " clip-rule="nonzero"/></clipPath><clipPath id="cf47ef0b36"><path d="M 110.15625 92.835938 L 47.492188 213.140625 L 45.273438 211.988281 L 45.273438 209.480469 L 170.59375 209.480469 L 170.59375 211.988281 L 168.375 213.140625 L 105.707031 92.835938 L 107.925781 91.679688 L 110.144531 92.835938 M 105.695312 90.515625 L 107.914062 86.242188 L 110.132812 90.515625 L 172.796875 210.820312 L 174.703125 214.480469 L 41.136719 214.480469 L 43.042969 210.820312 L 105.707031 90.515625 Z M 105.695312 90.515625 " clip-rule="nonzero"/></clipPath><clipPath id="2ef2f2ca72"><path d="M 0 0.144531 L 133.714844 0.144531 L 133.714844 128.640625 L 0 128.640625 Z M 0 0.144531 " clip-rule="nonzero"/></clipPath><clipPath id="ce5e758c06"><path d="M 69.15625 6.835938 L 6.492188 127.140625 L 4.273438 125.988281 L 4.273438 123.480469 L 129.59375 123.480469 L 129.59375 125.988281 L 127.375 127.140625 L 64.707031 6.835938 L 66.925781 5.679688 L 69.144531 6.835938 M 64.695312 4.515625 L 66.914062 0.242188 L 69.132812 4.515625 L 131.796875 124.820312 L 133.703125 128.480469 L 0.136719 128.480469 L 2.042969 124.820312 L 64.707031 4.515625 Z M 64.695312 4.515625 " clip-rule="nonzero"/></clipPath><clipPath id="a38d9ca6ce"><rect x="0" width="134" y="0" height="129"/></clipPath><clipPath id="e208e200dd"><path d="M 10 52 L 41 52 L 41 82 L 10 82 Z M 10 52 " clip-rule="nonzero"/></clipPath><clipPath id="6e0158bd7a"><path d="M 25.558594 52.515625 L 10.332031 81.753906 L 40.785156 81.753906 Z M 25.558594 52.515625 " clip-rule="nonzero"/></clipPath><clipPath id="eb9ab9ee7b"><path d="M 0.324219 0.402344 L 30.953125 0.402344 L 30.953125 29.835938 L 0.324219 29.835938 Z M 0.324219 0.402344 " clip-rule="nonzero"/></clipPath><clipPath id="223a2b9845"><path d="M 15.558594 0.515625 L 0.332031 29.753906 L 30.785156 29.753906 Z M 15.558594 0.515625 " clip-rule="nonzero"/></clipPath><clipPath id="54152f36bc"><rect x="0" width="31" y="0" height="30"/></clipPath><clipPath id="ee9d8fba1f"><path d="M 7.1875 49 L 44 49 L 44 83.980469 L 7.1875 83.980469 Z M 7.1875 49 " clip-rule="nonzero"/></clipPath><clipPath id="84be5213a5"><path d="M 26.910156 53.21875 L 11.683594 82.457031 L 10.332031 81.753906 L 10.332031 80.226562 L 40.785156 80.226562 L 40.785156 81.753906 L 39.433594 82.457031 L 24.203125 53.21875 L 25.558594 52.515625 L 26.910156 53.21875 M 24.203125 51.8125 L 25.558594 49.21875 L 26.910156 51.8125 L 42.140625 81.039062 L 43.304688 83.273438 L 7.835938 83.273438 L 9.003906 81.039062 L 24.203125 51.800781 Z M 24.203125 51.8125 " clip-rule="nonzero"/></clipPath><clipPath id="366b0e1cd2"><path d="M 0.691406 0.0546875 L 36.34375 0.0546875 L 36.34375 34.273438 L 0.691406 34.273438 Z M 0.691406 0.0546875 " clip-rule="nonzero"/></clipPath><clipPath id="f81db528d2"><path d="M 19.910156 4.21875 L 4.683594 33.457031 L 3.332031 32.753906 L 3.332031 31.226562 L 33.785156 31.226562 L 33.785156 32.753906 L 32.433594 33.457031 L 17.203125 4.21875 L 18.558594 3.515625 L 19.910156 4.21875 M 17.203125 2.8125 L 18.558594 0.21875 L 19.910156 2.8125 L 35.140625 32.039062 L 36.304688 34.273438 L 0.835938 34.273438 L 2.003906 32.039062 L 17.203125 2.800781 Z M 17.203125 2.8125 " clip-rule="nonzero"/></clipPath><clipPath id="760abff8c0"><rect x="0" width="37" y="0" height="35"/></clipPath><clipPath id="e287a7999d"><path d="M 178 231.699219 L 209 231.699219 L 209 261.246094 L 178 261.246094 Z M 178 231.699219 " clip-rule="nonzero"/></clipPath><clipPath id="41ba9680e1"><path d="M 193.339844 261.117188 L 208.566406 231.878906 L 178.113281 231.878906 Z M 193.339844 261.117188 " clip-rule="nonzero"/></clipPath><clipPath id="96fba38331"><path d="M 0.0664062 0.871094 L 30.695312 0.871094 L 30.695312 30.246094 L 0.0664062 30.246094 Z M 0.0664062 0.871094 " clip-rule="nonzero"/></clipPath><clipPath id="f577021b60"><path d="M 15.339844 30.117188 L 30.566406 0.878906 L 0.113281 0.878906 Z M 15.339844 30.117188 " clip-rule="nonzero"/></clipPath><clipPath id="896c08c8c6"><rect x="0" width="31" y="0" height="31"/></clipPath><clipPath id="a7763de5bf"><path d="M 175.222656 230 L 211.226562 230 L 211.226562 264.9375 L 175.222656 264.9375 Z M 175.222656 230 " clip-rule="nonzero"/></clipPath><clipPath id="6edfef5b30"><path d="M 191.984375 260.402344 L 207.214844 231.164062 L 208.566406 231.863281 L 208.566406 233.394531 L 178.113281 233.394531 L 178.113281 231.863281 L 179.464844 231.164062 L 194.691406 260.402344 L 193.339844 261.105469 L 191.984375 260.402344 M 194.691406 261.804688 L 193.339844 264.402344 L 191.984375 261.804688 L 176.757812 232.566406 L 175.59375 230.335938 L 211.0625 230.335938 L 209.894531 232.566406 L 194.667969 261.804688 Z M 194.691406 261.804688 " clip-rule="nonzero"/></clipPath><clipPath id="9885137ea7"><path d="M 0.433594 0.195312 L 36.085938 0.195312 L 36.085938 34.414062 L 0.433594 34.414062 Z M 0.433594 0.195312 " clip-rule="nonzero"/></clipPath><clipPath id="f8d71fa386"><path d="M 16.984375 30.402344 L 32.214844 1.164062 L 33.566406 1.863281 L 33.566406 3.394531 L 3.113281 3.394531 L 3.113281 1.863281 L 4.464844 1.164062 L 19.691406 30.402344 L 18.339844 31.105469 L 16.984375 30.402344 M 19.691406 31.804688 L 18.339844 34.402344 L 16.984375 31.804688 L 1.757812 2.566406 L 0.59375 0.335938 L 36.0625 0.335938 L 34.894531 2.566406 L 19.667969 31.804688 Z M 19.691406 31.804688 " clip-rule="nonzero"/></clipPath><clipPath id="7964c6b866"><rect x="0" width="37" y="0" height="35"/></clipPath><clipPath id="f5bea01bbb"><path d="M 0.273438 9 L 52 9 L 52 65 L 0.273438 65 Z M 0.273438 9 " clip-rule="nonzero"/></clipPath><clipPath id="ad7038daee"><rect x="0" width="52" y="0" height="56"/></clipPath><clipPath id="4d0bdb033a"><rect x="0" width="51" y="0" height="56"/></clipPath></defs><g clip-path="url(#00af6909c2)"><g clip-path="url(#a66db28e63)"><g transform="matrix(1, 0, 0, 1, 0, 0)"><g clip-path="url(#fab5f49090)"><g clip-path="url(#305bd8a501)"><g clip-path="url(#9b088f85d4)"><rect x="-49.473598" width="323.827186" fill="#f5f5f2" height="465.177571" y="-71.068796" fill-opacity="1"/></g></g></g></g></g></g><g clip-path="url(#09b8be1122)"><g clip-path="url(#c373360b13)"><g transform="matrix(1, 0, 0, 1, 0, 0)"><g clip-path="url(#5a465a4bc1)"><g clip-path="url(#63c4ae9060)"><g clip-path="url(#e3269e11c0)"><rect x="-49.473598" width="323.827186" fill="#000000" height="465.177571" y="-71.068796" fill-opacity="1"/></g></g></g></g></g></g><g clip-path="url(#3bdd174fac)"><g clip-path="url(#392d57ec1e)"><g transform="matrix(1, 0, 0, 1, 45, 91)"><g clip-path="url(#1ac801b94a)"><g clip-path="url(#9f0d03c15a)"><g clip-path="url(#543e36795c)"><rect x="-94.473598" width="323.827186" fill="#780f26" height="465.177571" y="-162.068796" fill-opacity="1"/></g></g></g></g></g></g><g clip-path="url(#206f0c8e7d)"><g clip-path="url(#cf47ef0b36)"><g transform="matrix(1, 0, 0, 1, 41, 86)"><g clip-path="url(#a38d9ca6ce)"><g clip-path="url(#2ef2f2ca72)"><g clip-path="url(#ce5e758c06)"><rect x="-90.473598" width="323.827186" fill="#780f26" height="465.177571" y="-157.068796" fill-opacity="1"/></g></g></g></g></g></g><g clip-path="url(#e208e200dd)"><g clip-path="url(#6e0158bd7a)"><g transform="matrix(1, 0, 0, 1, 10, 52)"><g clip-path="url(#54152f36bc)"><g clip-path="url(#eb9ab9ee7b)"><g clip-path="url(#223a2b9845)"><rect x="-59.473598" width="323.827186" fill="#780f26" height="465.177571" y="-123.068796" fill-opacity="1"/></g></g></g></g></g></g><g clip-path="url(#ee9d8fba1f)"><g clip-path="url(#84be5213a5)"><g transform="matrix(1, 0, 0, 1, 7, 49)"><g clip-path="url(#760abff8c0)"><g clip-path="url(#366b0e1cd2)"><g clip-path="url(#f81db528d2)"><rect x="-56.473598" width="323.827186" fill="#780f26" height="465.177571" y="-120.068796" fill-opacity="1"/></g></g></g></g></g></g><g clip-path="url(#e287a7999d)"><g clip-path="url(#41ba9680e1)"><g transform="matrix(1, 0, 0, 1, 178, 231)"><g clip-path="url(#896c08c8c6)"><g clip-path="url(#96fba38331)"><g clip-path="url(#f577021b60)"><rect x="-227.473598" width="323.827186" fill="#780f26" height="465.177571" y="-302.068796" fill-opacity="1"/></g></g></g></g></g></g><g clip-path="url(#a7763de5bf)"><g clip-path="url(#6edfef5b30)"><g transform="matrix(1, 0, 0, 1, 175, 230)"><g clip-path="url(#7964c6b866)"><g clip-path="url(#9885137ea7)"><g clip-path="url(#f8d71fa386)"><rect x="-224.473598" width="323.827186" fill="#780f26" height="465.177571" y="-301.068796" fill-opacity="1"/></g></g></g></g></g></g><g clip-path="url(#f5bea01bbb)"><g transform="matrix(1, 0, 0, 1, -0.000000000000000111, 9)"><g clip-path="url(#ad7038daee)"><g fill="#791026" fill-opacity="1"><g transform="translate(1.831194, 39.446243)"><g><path d="M 16.34375 -37.609375 L 16.34375 -5.3125 C 16.34375 -3.65625 16.640625 -2.519531 17.234375 -1.90625 C 17.828125 -1.289062 18.671875 -0.984375 19.765625 -0.984375 L 21.21875 -0.984375 L 21.21875 0 L 3.046875 0 L 3.046875 -0.984375 L 4.453125 -0.984375 C 5.859375 -0.984375 6.882812 -1.257812 7.53125 -1.8125 C 8.1875 -2.375 8.515625 -3.5625 8.515625 -5.375 L 8.515625 -25.671875 C 8.515625 -27.953125 8.304688 -29.515625 7.890625 -30.359375 C 7.484375 -31.210938 6.71875 -31.640625 5.59375 -31.640625 C 4.9375 -31.640625 3.882812 -31.40625 2.4375 -30.9375 L 2.109375 -31.859375 L 15.359375 -37.609375 Z M 16.34375 -37.609375 "/></g></g></g><g fill="#791026" fill-opacity="1"><g transform="translate(26.14205, 39.446243)"><g><path d="M 12.21875 -37.609375 C 14.5625 -37.609375 16.445312 -36.910156 17.875 -35.515625 C 19.3125 -34.128906 20.03125 -32.28125 20.03125 -29.96875 C 20.03125 -28.40625 19.6875 -27.035156 19 -25.859375 C 18.3125 -24.679688 17.28125 -23.660156 15.90625 -22.796875 C 17.789062 -21.890625 19.25 -20.585938 20.28125 -18.890625 C 21.3125 -17.191406 21.828125 -15.128906 21.828125 -12.703125 C 21.828125 -10.023438 21.28125 -7.679688 20.1875 -5.671875 C 19.101562 -3.660156 17.566406 -2.101562 15.578125 -1 C 13.585938 0.101562 11.269531 0.65625 8.625 0.65625 C 6.351562 0.65625 4.523438 0.25 3.140625 -0.5625 C 1.765625 -1.382812 1.078125 -2.460938 1.078125 -3.796875 C 1.078125 -4.554688 1.3125 -5.179688 1.78125 -5.671875 C 2.257812 -6.160156 2.84375 -6.40625 3.53125 -6.40625 C 4.144531 -6.40625 4.675781 -6.234375 5.125 -5.890625 C 5.582031 -5.546875 6.226562 -4.992188 7.0625 -4.234375 C 7.925781 -3.367188 8.691406 -2.707031 9.359375 -2.25 C 10.035156 -1.800781 10.804688 -1.578125 11.671875 -1.578125 C 13.078125 -1.578125 14.25 -2.09375 15.1875 -3.125 C 16.132812 -4.15625 16.609375 -5.46875 16.609375 -7.0625 C 16.609375 -9.738281 15.753906 -12.171875 14.046875 -14.359375 C 12.347656 -16.546875 10.160156 -17.984375 7.484375 -18.671875 L 7.484375 -19.765625 C 9.441406 -20.265625 10.9375 -21.109375 11.96875 -22.296875 C 13 -23.492188 13.515625 -25 13.515625 -26.8125 C 13.515625 -28.507812 13.039062 -29.910156 12.09375 -31.015625 C 11.15625 -32.117188 9.960938 -32.671875 8.515625 -32.671875 C 7.359375 -32.671875 6.351562 -32.316406 5.5 -31.609375 C 4.65625 -30.910156 3.851562 -29.890625 3.09375 -28.546875 L 2.109375 -28.875 C 3.304688 -31.914062 4.707031 -34.128906 6.3125 -35.515625 C 7.925781 -36.910156 9.894531 -37.609375 12.21875 -37.609375 Z M 12.21875 -37.609375 "/></g></g></g></g></g></g><g transform="matrix(1, 0, 0, 1, 171, 254)"><g clip-path="url(#4d0bdb033a)"><g fill="#791026" fill-opacity="1"><g transform="translate(49.701952, 16.555058)"><g><path d="M -16.34375 37.609375 L -16.34375 5.3125 C -16.34375 3.65625 -16.640625 2.519531 -17.234375 1.90625 C -17.828125 1.289062 -18.671875 0.984375 -19.765625 0.984375 L -21.21875 0.984375 L -21.21875 0 L -3.046875 0 L -3.046875 0.984375 L -4.453125 0.984375 C -5.859375 0.984375 -6.882812 1.257812 -7.53125 1.8125 C -8.1875 2.375 -8.515625 3.5625 -8.515625 5.375 L -8.515625 25.671875 C -8.515625 27.953125 -8.304688 29.515625 -7.890625 30.359375 C -7.484375 31.210938 -6.71875 31.640625 -5.59375 31.640625 C -4.9375 31.640625 -3.882812 31.40625 -2.4375 30.9375 L -2.109375 31.859375 L -15.359375 37.609375 Z M -16.34375 37.609375 "/></g></g></g><g fill="#791026" fill-opacity="1"><g transform="translate(25.391096, 16.555058)"><g><path d="M -12.21875 37.609375 C -14.5625 37.609375 -16.445312 36.910156 -17.875 35.515625 C -19.3125 34.128906 -20.03125 32.28125 -20.03125 29.96875 C -20.03125 28.40625 -19.6875 27.035156 -19 25.859375 C -18.3125 24.679688 -17.28125 23.660156 -15.90625 22.796875 C -17.789062 21.890625 -19.25 20.585938 -20.28125 18.890625 C -21.3125 17.191406 -21.828125 15.128906 -21.828125 12.703125 C -21.828125 10.023438 -21.28125 7.679688 -20.1875 5.671875 C -19.101562 3.660156 -17.566406 2.101562 -15.578125 1 C -13.585938 -0.101562 -11.269531 -0.65625 -8.625 -0.65625 C -6.351562 -0.65625 -4.523438 -0.25 -3.140625 0.5625 C -1.765625 1.382812 -1.078125 2.460938 -1.078125 3.796875 C -1.078125 4.554688 -1.3125 5.179688 -1.78125 5.671875 C -2.257812 6.160156 -2.84375 6.40625 -3.53125 6.40625 C -4.144531 6.40625 -4.675781 6.234375 -5.125 5.890625 C -5.582031 5.546875 -6.226562 4.992188 -7.0625 4.234375 C -7.925781 3.367188 -8.691406 2.707031 -9.359375 2.25 C -10.035156 1.800781 -10.804688 1.578125 -11.671875 1.578125 C -13.078125 1.578125 -14.25 2.09375 -15.1875 3.125 C -16.132812 4.15625 -16.609375 5.46875 -16.609375 7.0625 C -16.609375 9.738281 -15.753906 12.171875 -14.046875 14.359375 C -12.347656 16.546875 -10.160156 17.984375 -7.484375 18.671875 L -7.484375 19.765625 C -9.441406 20.265625 -10.9375 21.109375 -11.96875 22.296875 C -13 23.492188 -13.515625 25 -13.515625 26.8125 C -13.515625 28.507812 -13.039062 29.910156 -12.09375 31.015625 C -11.15625 32.117188 -9.960938 32.671875 -8.515625 32.671875 C -7.359375 32.671875 -6.351562 32.316406 -5.5 31.609375 C -4.65625 30.910156 -3.851562 29.890625 -3.09375 28.546875 L -2.109375 28.875 C -3.304688 31.914062 -4.707031 34.128906 -6.3125 35.515625 C -7.925781 36.910156 -9.894531 37.609375 -12.21875 37.609375 Z M -12.21875 37.609375 "/></g></g></g></g></g></svg>