<svg xmlns="http://www.w3.org/2000/svg" xmlns:xlink="http://www.w3.org/1999/xlink" width="300" zoomAndPan="magnify" viewBox="0 0 224.87999 323.03998" height="420" preserveAspectRatio="xMidYMid meet" version="1.0"><defs><g/><clipPath id="4ec0e3ed31"><path d="M 0.273438 0 L 224.488281 0 L 224.488281 313.871094 L 0.273438 313.871094 Z M 0.273438 0 " clip-rule="nonzero"/></clipPath><clipPath id="9fa3a56aa9"><path d="M 18.328125 0.691406 C 8.425781 0.691406 0.53125 8.710938 0.53125 18.488281 L 0.53125 295.582031 C 0.53125 305.472656 8.527344 313.355469 18.289062 313.378906 L 206.597656 313.378906 C 216.464844 313.355469 224.335938 305.371094 224.359375 295.621094 L 224.359375 18.449219 C 224.335938 8.5625 216.3125 0.691406 206.550781 0.691406 Z M 18.328125 0.691406 " clip-rule="nonzero"/></clipPath><clipPath id="23aed4c711"><path d="M 0.511719 0.480469 L 224.488281 0.480469 L 224.488281 313.46875 L 0.511719 313.46875 Z M 0.511719 0.480469 " clip-rule="nonzero"/></clipPath><clipPath id="15b3ca811c"><path d="M 18.328125 0.691406 C 8.425781 0.691406 0.53125 8.710938 0.53125 18.488281 L 0.53125 295.582031 C 0.53125 305.472656 8.527344 313.355469 18.289062 313.378906 L 206.597656 313.378906 C 216.464844 313.355469 224.335938 305.371094 224.359375 295.621094 L 224.359375 18.449219 C 224.335938 8.5625 216.3125 0.691406 206.550781 0.691406 Z M 18.328125 0.691406 " clip-rule="nonzero"/></clipPath><clipPath id="012dc5d72a"><rect x="0" width="225" y="0" height="314"/></clipPath><clipPath id="40a00a7656"><path d="M 0.273438 0 L 224.488281 0 L 224.488281 313.871094 L 0.273438 313.871094 Z M 0.273438 0 " clip-rule="nonzero"/></clipPath><clipPath id="5f101a5dab"><path d="M 206.550781 1.316406 C 215.988281 1.316406 223.71875 8.9375 223.71875 18.488281 L 223.71875 295.582031 C 223.71875 305.019531 216.101562 312.753906 206.550781 312.753906 L 18.328125 312.753906 C 8.890625 312.753906 1.15625 305.132812 1.15625 295.582031 L 1.15625 18.488281 C 1.15625 9.050781 8.777344 1.316406 18.328125 1.316406 Z M 13.527344 0.691406 C 7.183594 2.394531 2.222656 7.394531 0.53125 13.699219 L 0.53125 300.371094 C 2.234375 306.726562 7.234375 311.6875 13.539062 313.367188 L 211.351562 313.367188 C 217.703125 311.664062 222.667969 306.664062 224.347656 300.359375 L 224.347656 13.6875 C 222.65625 7.347656 217.640625 2.382812 211.335938 0.691406 Z M 13.527344 0.691406 " clip-rule="nonzero"/></clipPath><clipPath id="aa1ae2a1f1"><path d="M 0.511719 0.480469 L 224.488281 0.480469 L 224.488281 313.46875 L 0.511719 313.46875 Z M 0.511719 0.480469 " clip-rule="nonzero"/></clipPath><clipPath id="07bec419dd"><path d="M 206.550781 1.316406 C 215.988281 1.316406 223.71875 8.9375 223.71875 18.488281 L 223.71875 295.582031 C 223.71875 305.019531 216.101562 312.753906 206.550781 312.753906 L 18.328125 312.753906 C 8.890625 312.753906 1.15625 305.132812 1.15625 295.582031 L 1.15625 18.488281 C 1.15625 9.050781 8.777344 1.316406 18.328125 1.316406 Z M 13.527344 0.691406 C 7.183594 2.394531 2.222656 7.394531 0.53125 13.699219 L 0.53125 300.371094 C 2.234375 306.726562 7.234375 311.6875 13.539062 313.367188 L 211.351562 313.367188 C 217.703125 311.664062 222.667969 306.664062 224.347656 300.359375 L 224.347656 13.6875 C 222.65625 7.347656 217.640625 2.382812 211.335938 0.691406 Z M 13.527344 0.691406 " clip-rule="nonzero"/></clipPath><clipPath id="df2692e682"><rect x="0" width="225" y="0" height="314"/></clipPath><clipPath id="c4b6b61139"><path d="M 45.042969 91.367188 L 170.605469 91.367188 L 170.605469 212 L 45.042969 212 Z M 45.042969 91.367188 " clip-rule="nonzero"/></clipPath><clipPath id="65258dd626"><path d="M 107.925781 91.679688 L 45.261719 211.988281 L 170.578125 211.988281 Z M 107.925781 91.679688 " clip-rule="nonzero"/></clipPath><clipPath id="7cd6df78c7"><path d="M 0.257812 0.648438 L 125.605469 0.648438 L 125.605469 121 L 0.257812 121 Z M 0.257812 0.648438 " clip-rule="nonzero"/></clipPath><clipPath id="f05e5a7d9e"><path d="M 62.925781 0.679688 L 0.261719 120.988281 L 125.578125 120.988281 Z M 62.925781 0.679688 " clip-rule="nonzero"/></clipPath><clipPath id="b40a040f50"><rect x="0" width="126" y="0" height="121"/></clipPath><clipPath id="229a159d12"><path d="M 41 86 L 175 86 L 175 215 L 41 215 Z M 41 86 " clip-rule="nonzero"/></clipPath><clipPath id="d3398df203"><path d="M 110.15625 92.835938 L 47.492188 213.140625 L 45.273438 211.988281 L 45.273438 209.480469 L 170.59375 209.480469 L 170.59375 211.988281 L 168.375 213.140625 L 105.707031 92.835938 L 107.925781 91.679688 L 110.144531 92.835938 M 105.695312 90.515625 L 107.914062 86.242188 L 110.132812 90.515625 L 172.796875 210.820312 L 174.703125 214.480469 L 41.136719 214.480469 L 43.042969 210.820312 L 105.707031 90.515625 Z M 105.695312 90.515625 " clip-rule="nonzero"/></clipPath><clipPath id="76fcfacdcd"><path d="M 0 0.144531 L 133.714844 0.144531 L 133.714844 128.640625 L 0 128.640625 Z M 0 0.144531 " clip-rule="nonzero"/></clipPath><clipPath id="fdeb6f931a"><path d="M 69.15625 6.835938 L 6.492188 127.140625 L 4.273438 125.988281 L 4.273438 123.480469 L 129.59375 123.480469 L 129.59375 125.988281 L 127.375 127.140625 L 64.707031 6.835938 L 66.925781 5.679688 L 69.144531 6.835938 M 64.695312 4.515625 L 66.914062 0.242188 L 69.132812 4.515625 L 131.796875 124.820312 L 133.703125 128.480469 L 0.136719 128.480469 L 2.042969 124.820312 L 64.707031 4.515625 Z M 64.695312 4.515625 " clip-rule="nonzero"/></clipPath><clipPath id="6a0efa4b3a"><rect x="0" width="134" y="0" height="129"/></clipPath><clipPath id="26a6a43ac8"><path d="M 10 52 L 41 52 L 41 82 L 10 82 Z M 10 52 " clip-rule="nonzero"/></clipPath><clipPath id="a5f61aafe8"><path d="M 25.558594 52.515625 L 10.332031 81.753906 L 40.785156 81.753906 Z M 25.558594 52.515625 " clip-rule="nonzero"/></clipPath><clipPath id="a264312cde"><path d="M 0.324219 0.402344 L 30.953125 0.402344 L 30.953125 29.835938 L 0.324219 29.835938 Z M 0.324219 0.402344 " clip-rule="nonzero"/></clipPath><clipPath id="a427df3632"><path d="M 15.558594 0.515625 L 0.332031 29.753906 L 30.785156 29.753906 Z M 15.558594 0.515625 " clip-rule="nonzero"/></clipPath><clipPath id="4f1f73e5f1"><rect x="0" width="31" y="0" height="30"/></clipPath><clipPath id="01e2124dfc"><path d="M 7.1875 49 L 44 49 L 44 83.980469 L 7.1875 83.980469 Z M 7.1875 49 " clip-rule="nonzero"/></clipPath><clipPath id="8c491d1d44"><path d="M 26.910156 53.21875 L 11.683594 82.457031 L 10.332031 81.753906 L 10.332031 80.226562 L 40.785156 80.226562 L 40.785156 81.753906 L 39.433594 82.457031 L 24.203125 53.21875 L 25.558594 52.515625 L 26.910156 53.21875 M 24.203125 51.8125 L 25.558594 49.21875 L 26.910156 51.8125 L 42.140625 81.039062 L 43.304688 83.273438 L 7.835938 83.273438 L 9.003906 81.039062 L 24.203125 51.800781 Z M 24.203125 51.8125 " clip-rule="nonzero"/></clipPath><clipPath id="d97eabc558"><path d="M 0.691406 0.0546875 L 36.34375 0.0546875 L 36.34375 34.273438 L 0.691406 34.273438 Z M 0.691406 0.0546875 " clip-rule="nonzero"/></clipPath><clipPath id="23e1fe52ae"><path d="M 19.910156 4.21875 L 4.683594 33.457031 L 3.332031 32.753906 L 3.332031 31.226562 L 33.785156 31.226562 L 33.785156 32.753906 L 32.433594 33.457031 L 17.203125 4.21875 L 18.558594 3.515625 L 19.910156 4.21875 M 17.203125 2.8125 L 18.558594 0.21875 L 19.910156 2.8125 L 35.140625 32.039062 L 36.304688 34.273438 L 0.835938 34.273438 L 2.003906 32.039062 L 17.203125 2.800781 Z M 17.203125 2.8125 " clip-rule="nonzero"/></clipPath><clipPath id="41be84268c"><rect x="0" width="37" y="0" height="35"/></clipPath><clipPath id="c9cc1168bc"><path d="M 178 231.699219 L 209 231.699219 L 209 261.246094 L 178 261.246094 Z M 178 231.699219 " clip-rule="nonzero"/></clipPath><clipPath id="728e10c01a"><path d="M 193.339844 261.117188 L 208.566406 231.878906 L 178.113281 231.878906 Z M 193.339844 261.117188 " clip-rule="nonzero"/></clipPath><clipPath id="beb38f8609"><path d="M 0.0664062 0.871094 L 30.695312 0.871094 L 30.695312 30.246094 L 0.0664062 30.246094 Z M 0.0664062 0.871094 " clip-rule="nonzero"/></clipPath><clipPath id="14674b9e0e"><path d="M 15.339844 30.117188 L 30.566406 0.878906 L 0.113281 0.878906 Z M 15.339844 30.117188 " clip-rule="nonzero"/></clipPath><clipPath id="c2d07fbb8f"><rect x="0" width="31" y="0" height="31"/></clipPath><clipPath id="eb455169aa"><path d="M 175.222656 230 L 211.226562 230 L 211.226562 264.9375 L 175.222656 264.9375 Z M 175.222656 230 " clip-rule="nonzero"/></clipPath><clipPath id="920e583508"><path d="M 191.984375 260.402344 L 207.214844 231.164062 L 208.566406 231.863281 L 208.566406 233.394531 L 178.113281 233.394531 L 178.113281 231.863281 L 179.464844 231.164062 L 194.691406 260.402344 L 193.339844 261.105469 L 191.984375 260.402344 M 194.691406 261.804688 L 193.339844 264.402344 L 191.984375 261.804688 L 176.757812 232.566406 L 175.59375 230.335938 L 211.0625 230.335938 L 209.894531 232.566406 L 194.667969 261.804688 Z M 194.691406 261.804688 " clip-rule="nonzero"/></clipPath><clipPath id="ef701f9ade"><path d="M 0.433594 0.195312 L 36.085938 0.195312 L 36.085938 34.414062 L 0.433594 34.414062 Z M 0.433594 0.195312 " clip-rule="nonzero"/></clipPath><clipPath id="00de731426"><path d="M 16.984375 30.402344 L 32.214844 1.164062 L 33.566406 1.863281 L 33.566406 3.394531 L 3.113281 3.394531 L 3.113281 1.863281 L 4.464844 1.164062 L 19.691406 30.402344 L 18.339844 31.105469 L 16.984375 30.402344 M 19.691406 31.804688 L 18.339844 34.402344 L 16.984375 31.804688 L 1.757812 2.566406 L 0.59375 0.335938 L 36.0625 0.335938 L 34.894531 2.566406 L 19.667969 31.804688 Z M 19.691406 31.804688 " clip-rule="nonzero"/></clipPath><clipPath id="65089dcdaf"><rect x="0" width="37" y="0" height="35"/></clipPath><clipPath id="b896c36e0e"><rect x="0" width="27" y="0" height="56"/></clipPath><clipPath id="0d081cbc2c"><rect x="0" width="26" y="0" height="56"/></clipPath></defs><g clip-path="url(#4ec0e3ed31)"><g clip-path="url(#9fa3a56aa9)"><g transform="matrix(1, 0, 0, 1, 0, 0)"><g clip-path="url(#012dc5d72a)"><g clip-path="url(#23aed4c711)"><g clip-path="url(#15b3ca811c)"><rect x="-49.473598" width="323.827186" fill="#f5f5f2" height="465.177571" y="-71.068796" fill-opacity="1"/></g></g></g></g></g></g><g clip-path="url(#40a00a7656)"><g clip-path="url(#5f101a5dab)"><g transform="matrix(1, 0, 0, 1, 0, 0)"><g clip-path="url(#df2692e682)"><g clip-path="url(#aa1ae2a1f1)"><g clip-path="url(#07bec419dd)"><rect x="-49.473598" width="323.827186" fill="#000000" height="465.177571" y="-71.068796" fill-opacity="1"/></g></g></g></g></g></g><g clip-path="url(#c4b6b61139)"><g clip-path="url(#65258dd626)"><g transform="matrix(1, 0, 0, 1, 45, 91)"><g clip-path="url(#b40a040f50)"><g clip-path="url(#7cd6df78c7)"><g clip-path="url(#f05e5a7d9e)"><rect x="-94.473598" width="323.827186" fill="#780f26" height="465.177571" y="-162.068796" fill-opacity="1"/></g></g></g></g></g></g><g clip-path="url(#229a159d12)"><g clip-path="url(#d3398df203)"><g transform="matrix(1, 0, 0, 1, 41, 86)"><g clip-path="url(#6a0efa4b3a)"><g clip-path="url(#76fcfacdcd)"><g clip-path="url(#fdeb6f931a)"><rect x="-90.473598" width="323.827186" fill="#780f26" height="465.177571" y="-157.068796" fill-opacity="1"/></g></g></g></g></g></g><g clip-path="url(#26a6a43ac8)"><g clip-path="url(#a5f61aafe8)"><g transform="matrix(1, 0, 0, 1, 10, 52)"><g clip-path="url(#4f1f73e5f1)"><g clip-path="url(#a264312cde)"><g clip-path="url(#a427df3632)"><rect x="-59.473598" width="323.827186" fill="#780f26" height="465.177571" y="-123.068796" fill-opacity="1"/></g></g></g></g></g></g><g clip-path="url(#01e2124dfc)"><g clip-path="url(#8c491d1d44)"><g transform="matrix(1, 0, 0, 1, 7, 49)"><g clip-path="url(#41be84268c)"><g clip-path="url(#d97eabc558)"><g clip-path="url(#23e1fe52ae)"><rect x="-56.473598" width="323.827186" fill="#780f26" height="465.177571" y="-120.068796" fill-opacity="1"/></g></g></g></g></g></g><g clip-path="url(#c9cc1168bc)"><g clip-path="url(#728e10c01a)"><g transform="matrix(1, 0, 0, 1, 178, 231)"><g clip-path="url(#c2d07fbb8f)"><g clip-path="url(#beb38f8609)"><g clip-path="url(#14674b9e0e)"><rect x="-227.473598" width="323.827186" fill="#780f26" height="465.177571" y="-302.068796" fill-opacity="1"/></g></g></g></g></g></g><g clip-path="url(#eb455169aa)"><g clip-path="url(#920e583508)"><g transform="matrix(1, 0, 0, 1, 175, 230)"><g clip-path="url(#65089dcdaf)"><g clip-path="url(#ef701f9ade)"><g clip-path="url(#00de731426)"><rect x="-224.473598" width="323.827186" fill="#780f26" height="465.177571" y="-301.068796" fill-opacity="1"/></g></g></g></g></g></g><g transform="matrix(1, 0, 0, 1, 13, 9)"><g clip-path="url(#b896c36e0e)"><g fill="#791026" fill-opacity="1"><g transform="translate(0.976719, 39.446214)"><g><path d="M 11.671875 -37.609375 C 14.347656 -37.609375 16.535156 -36.722656 18.234375 -34.953125 C 19.941406 -33.179688 20.796875 -30.847656 20.796875 -27.953125 C 20.796875 -25.859375 20.429688 -23.832031 19.703125 -21.875 C 18.984375 -19.914062 17.707031 -17.722656 15.875 -15.296875 C 14.050781 -12.878906 11.492188 -10.023438 8.203125 -6.734375 L 15.84375 -6.734375 C 17.289062 -6.734375 18.359375 -7.046875 19.046875 -7.671875 C 19.734375 -8.304688 20.332031 -9.332031 20.84375 -10.75 L 21.875 -10.75 L 20.25 0 L 0.765625 0 L 0.765625 -0.875 L 5.046875 -6.140625 C 7.867188 -9.609375 9.941406 -12.707031 11.265625 -15.4375 C 12.585938 -18.175781 13.25 -20.882812 13.25 -23.5625 C 13.25 -25.945312 12.738281 -27.832031 11.71875 -29.21875 C 10.707031 -30.613281 9.367188 -31.3125 7.703125 -31.3125 C 6.472656 -31.3125 5.390625 -30.90625 4.453125 -30.09375 C 3.515625 -29.28125 2.863281 -28.1875 2.5 -26.8125 L 1.46875 -27.140625 C 2.082031 -30.398438 3.285156 -32.957031 5.078125 -34.8125 C 6.867188 -36.675781 9.066406 -37.609375 11.671875 -37.609375 Z M 11.671875 -37.609375 "/></g></g></g></g></g><g transform="matrix(1, 0, 0, 1, 183, 254)"><g clip-path="url(#0d081cbc2c)"><g fill="#791026" fill-opacity="1"><g transform="translate(25.556427, 16.555058)"><g><path d="M -11.671875 37.609375 C -14.347656 37.609375 -16.535156 36.722656 -18.234375 34.953125 C -19.941406 33.179688 -20.796875 30.847656 -20.796875 27.953125 C -20.796875 25.859375 -20.429688 23.832031 -19.703125 21.875 C -18.984375 19.914062 -17.707031 17.722656 -15.875 15.296875 C -14.050781 12.878906 -11.492188 10.023438 -8.203125 6.734375 L -15.84375 6.734375 C -17.289062 6.734375 -18.359375 7.046875 -19.046875 7.671875 C -19.734375 8.304688 -20.332031 9.332031 -20.84375 10.75 L -21.875 10.75 L -20.25 0 L -0.765625 0 L -0.765625 0.875 L -5.046875 6.140625 C -7.867188 9.609375 -9.941406 12.707031 -11.265625 15.4375 C -12.585938 18.175781 -13.25 20.882812 -13.25 23.5625 C -13.25 25.945312 -12.738281 27.832031 -11.71875 29.21875 C -10.707031 30.613281 -9.367188 31.3125 -7.703125 31.3125 C -6.472656 31.3125 -5.390625 30.90625 -4.453125 30.09375 C -3.515625 29.28125 -2.863281 28.1875 -2.5 26.8125 L -1.46875 27.140625 C -2.082031 30.398438 -3.285156 32.957031 -5.078125 34.8125 C -6.867188 36.675781 -9.066406 37.609375 -11.671875 37.609375 Z M -11.671875 37.609375 "/></g></g></g></g></g></svg>